999
dxfrw 0.6.1
  0
SECTION
  2
HEADER
  9
$ACADVER
  1
AC1021
  9
$DWGCODEPAGE
  3
ANSI_1252
  9
$INSBASE
 10
0
 20
0
 30
0
  9
$EXTMIN
 10
-6.349997891201099
 20
-6.599997891201447
 30
0
  9
$EXTMAX
 10
283.1499093152187
 20
335.9998923232222
 30
0
  9
$LIMMIN
 10
0
 20
0
  9
$LIMMAX
 10
420
 20
297
  9
$ORTHOMODE
 70
    0
  9
$REGENMODE
 70
    1
  9
$FILLMODE
 70
    1
  9
$QTEXTMODE
 70
    0
  9
$MIRRTEXT
 70
    0
  9
$LTSCALE
 40
1
  9
$ATTMODE
 70
    0
  9
$TEXTSIZE
 40
2.5
  9
$TRACEWID
 40
15.68
  9
$TEXTSTYLE
  7
STANDARD
  9
$CLAYER
  8
0
  9
$CELTYPE
  6
BYLAYER
  9
$CECOLOR
 62
  256
  9
$CELTSCALE
 40
1
  9
$DISPSILH
 70
    0
  9
$DIMSCALE
 40
2.5
  9
$DIMASZ
 40
2.5
  9
$DIMEXO
 40
0.625
  9
$DIMDLI
 40
3.75
  9
$DIMRND
 40
0
  9
$DIMDLE
 40
0
  9
$DIMEXE
 40
1.25
  9
$DIMTP
 40
0
  9
$DIMTM
 40
0
  9
$DIMTXT
 40
2.5
  9
$DIMCEN
 40
2.5
  9
$DIMTSZ
 40
0
  9
$DIMTOL
 70
    0
  9
$DIMLIM
 70
    0
  9
$DIMTIH
 70
    0
  9
$DIMTOH
 70
    0
  9
$DIMSE1
 70
    0
  9
$DIMSE2
 70
    0
  9
$DIMTAD
 70
    1
  9
$DIMZIN
 70
    8
  9
$DIMBLK
  1

  9
$DIMASO
 70
    1
  9
$DIMSHO
 70
    1
  9
$DIMPOST
  1

  9
$DIMAPOST
  1

  9
$DIMALT
 70
    0
  9
$DIMALTD
 70
    3
  9
$DIMALTF
 40
0.03937
  9
$DIMLFAC
 40
1
  9
$DIMTOFL
 70
    1
  9
$DIMTVP
 40
0
  9
$DIMTIX
 70
    0
  9
$DIMSOXD
 70
    0
  9
$DIMSAH
 70
    0
  9
$DIMBLK1
  1

  9
$DIMBLK2
  1

  9
$DIMSTYLE
  2
STANDARD
  9
$DIMCLRD
 70
    0
  9
$DIMCLRE
 70
    0
  9
$DIMCLRT
 70
    0
  9
$DIMTFAC
 40
1
  9
$DIMGAP
 40
0.625
  9
$DIMJUST
 70
    0
  9
$DIMSD1
 70
    0
  9
$DIMSD2
 70
    0
  9
$DIMTOLJ
 70
    0
  9
$DIMTZIN
 70
    8
  9
$DIMALTZ
 70
    0
  9
$DIMALTTZ
 70
    0
  9
$DIMUPT
 70
    0
  9
$DIMDEC
 70
    2
  9
$DIMTDEC
 70
    2
  9
$DIMALTU
 70
    2
  9
$DIMALTTD
 70
    3
  9
$DIMTXSTY
  7
STANDARD
  9
$DIMAUNIT
 70
    0
  9
$DIMADEC
 70
    0
  9
$DIMALTRND
 40
0
  9
$DIMAZIN
 70
    0
  9
$DIMDSEP
 70
   44
  9
$DIMATFIT
 70
    3
  9
$DIMFRAC
 70
    0
  9
$DIMLDRBLK
  1
STANDARD
  9
$DIMLUNIT
 70
    2
  9
$DIMLWD
 70
   -2
  9
$DIMLWE
 70
   -2
  9
$DIMTMOVE
 70
    0
  9
$DIMFXL
 40
1
  9
$DIMFXLON
 70
    0
  9
$DIMJOGANG
 40
0.7854
  9
$DIMTFILL
 70
    0
  9
$DIMTFILLCLR
 70
    0
  9
$DIMARCSYM
 70
    0
  9
$DIMLTYPE
  6

  9
$DIMLTEX1
  6

  9
$DIMLTEX2
  6

  9
$LUNITS
 70
    2
  9
$LUPREC
 70
    4
  9
$SKETCHINC
 40
1
  9
$FILLETRAD
 40
0
  9
$AUNITS
 70
    0
  9
$AUPREC
 70
    2
  9
$MENU
  1
.
  9
$ELEVATION
 40
0
  9
$PELEVATION
 40
0
  9
$THICKNESS
 40
0
  9
$LIMCHECK
 70
    0
  9
$CHAMFERA
 40
0
  9
$CHAMFERB
 40
0
  9
$CHAMFERC
 40
0
  9
$CHAMFERD
 40
0
  9
$SKPOLY
 70
    0
  9
$USRTIMER
 70
    1
  9
$ANGBASE
 50
0
  9
$ANGDIR
 70
    0
  9
$PDMODE
 70
   34
  9
$PDSIZE
 40
0
  9
$PLINEWID
 40
0
  9
$SPLFRAME
 70
    0
  9
$SPLINETYPE
 70
    2
  9
$SPLINESEGS
 70
    8
  9
$HANDSEED
  5
20000
  9
$SURFTAB1
 70
    6
  9
$SURFTAB2
 70
    6
  9
$SURFTYPE
 70
    6
  9
$SURFU
 70
    6
  9
$SURFV
 70
    6
  9
$UCSBASE
  2

  9
$UCSNAME
  2

  9
$UCSORG
 10
0
 20
0
 30
0
  9
$UCSXDIR
 10
1
 20
0
 30
0
  9
$UCSYDIR
 10
0
 20
1
 30
0
  9
$UCSORTHOREF
  2

  9
$UCSORTHOVIEW
 70
    0
  9
$UCSORGTOP
 10
0
 20
0
 30
0
  9
$UCSORGBOTTOM
 10
0
 20
0
 30
0
  9
$UCSORGLEFT
 10
0
 20
0
 30
0
  9
$UCSORGRIGHT
 10
0
 20
0
 30
0
  9
$UCSORGFRONT
 10
0
 20
0
 30
0
  9
$UCSORGBACK
 10
0
 20
0
 30
0
  9
$PUCSBASE
  2

  9
$PUCSNAME
  2

  9
$PUCSORG
 10
0
 20
0
 30
0
  9
$PUCSXDIR
 10
1
 20
0
 30
0
  9
$PUCSYDIR
 10
0
 20
1
 30
0
  9
$PUCSORTHOREF
  2

  9
$PUCSORTHOVIEW
 70
    0
  9
$PUCSORGTOP
 10
0
 20
0
 30
0
  9
$PUCSORGBOTTOM
 10
0
 20
0
 30
0
  9
$PUCSORGLEFT
 10
0
 20
0
 30
0
  9
$PUCSORGRIGHT
 10
0
 20
0
 30
0
  9
$PUCSORGFRONT
 10
0
 20
0
 30
0
  9
$PUCSORGBACK
 10
0
 20
0
 30
0
  9
$USERI1
 70
    0
  9
$USERI2
 70
    0
  9
$USERI3
 70
    0
  9
$USERI4
 70
    0
  9
$USERI5
 70
    0
  9
$USERR1
 40
0
  9
$USERR2
 40
0
  9
$USERR3
 40
0
  9
$USERR4
 40
0
  9
$USERR5
 40
0
  9
$WORLDVIEW
 70
    1
  9
$SHADEDGE
 70
    3
  9
$SHADEDIF
 70
   70
  9
$TILEMODE
 70
    1
  9
$MAXACTVP
 70
   64
  9
$PINSBASE
 10
0
 20
0
 30
0
  9
$PLIMCHECK
 70
    0
  9
$PEXTMIN
 10
0
 20
0
 30
0
  9
$PEXTMAX
 10
0
 20
0
 30
0
  9
$GRIDMODE
 70
    1
  9
$SNAPSTYLE
 70
    0
  9
$PLIMMIN
 10
0
 20
0
  9
$PLIMMAX
 10
0.00073228
 20
0.00054921
  9
$UNITMODE
 70
    0
  9
$VISRETAIN
 70
    1
  9
$PLINEGEN
 70
    0
  9
$PSLTSCALE
 70
    1
  9
$TREEDEPTH
 70
 3020
  9
$CMLSTYLE
  2
Standard
  9
$CMLJUST
 70
    0
  9
$CMLSCALE
 40
20
  9
$PROXYGRAPHICS
 70
    1
  9
$MEASUREMENT
 70
    1
  9
$CELWEIGHT
370
   -1
  9
$ENDCAPS
280
    0
  9
$JOINSTYLE
280
    0
  9
$LWDISPLAY
290
    0
  9
$INSUNITS
 70
    0
  9
$HYPERLINKBASE
  1

  9
$STYLESHEET
  1

  9
$XEDIT
290
    1
  9
$CEPSNTYPE
380
    0
  9
$PSTYLEMODE
290
    1
  9
$EXTNAMES
290
    1
  9
$PSVPSCALE
 40
1
  9
$OLESTARTUP
290
    0
  9
$SORTENTS
280
  127
  9
$INDEXCTL
280
    0
  9
$HIDETEXT
280
    1
  9
$XCLIPFRAME
290
    0
  9
$HALOGAP
280
    0
  9
$OBSCOLOR
 70
  257
  9
$OBSLTYPE
280
    0
  9
$INTERSECTIONDISPLAY
280
    0
  9
$INTERSECTIONCOLOR
 70
  257
  9
$DIMASSOC
280
    0
  9
$PROJECTNAME
  1

  9
$CAMERADISPLAY
290
    0
  9
$LENSLENGTH
 40
50
  9
$CAMERAHEIGHT
 40
0
  9
$STEPSPERSEC
 40
2
  9
$STEPSIZE
 40
50
  9
$3DDWFPREC
 40
2
  9
$PSOLWIDTH
 40
5
  9
$PSOLHEIGHT
 40
80
  9
$LOFTANG1
 40
1.570796326794897
  9
$LOFTANG2
 40
1.570796326794897
  9
$LOFTMAG1
 40
0
  9
$LOFTMAG2
 40
0
  9
$LOFTPARAM
 70
    7
  9
$LOFTNORMALS
280
    1
  9
$LATITUDE
 40
1
  9
$LONGITUDE
 40
1
  9
$NORTHDIRECTION
 40
0
  9
$TIMEZONE
 70
-8000
  9
$LIGHTGLYPHDISPLAY
280
    1
  9
$TILEMODELIGHTSYNCH
280
    1
  9
$SOLIDHIST
280
    1
  9
$SHOWHIST
280
    1
  9
$DWFFRAME
280
    2
  9
$DGNFRAME
280
    0
  9
$REALWORLDSCALE
290
    1
  9
$INTERFERECOLOR
 62
    1
  9
$CSHADOW
280
    0
  9
$SHADOWPLANELOCATION
 40
0
  0
ENDSEC
  0
SECTION
  2
CLASSES
  0
ENDSEC
  0
SECTION
  2
TABLES
  0
TABLE
  2
VPORT
  5
8
330
0
100
AcDbSymbolTable
 70
    1
  0
VPORT
  5
31
330
2
100
AcDbSymbolTableRecord
100
AcDbViewportTableRecord
  2
*ACTIVE
 70
    0
 10
0
 20
0
 11
1
 21
1
 12
248.0014130656649
 22
169.7659157480427
 13
0
 23
0
 14
10
 24
10
 15
10
 25
10
 16
0
 26
0
 36
1
 17
0
 27
0
 37
0
 40
349.4177984773972
 41
2.045853658536585
 42
50
 43
0
 44
0
 50
0
 51
0
 71
    0
 72
  100
 73
    1
 74
    3
 75
    0
 76
    1
 77
    0
 78
    0
281
    0
 65
    1
110
0
120
0
130
0
111
1
121
0
131
0
112
0
122
1
132
0
 79
    0
146
0
348
10020
 60
    7
 61
    5
292
1
282
    1
141
0
142
0
 63
  250
421
3358443
  0
ENDTAB
  0
TABLE
  2
LTYPE
  5
5
330
0
100
AcDbSymbolTable
 70
    4
  0
LTYPE
  5
14
330
5
100
AcDbSymbolTableRecord
100
AcDbLinetypeTableRecord
  2
ByBlock
 70
    0
  3

 72
   65
 73
    0
 40
0
  0
LTYPE
  5
15
330
5
100
AcDbSymbolTableRecord
100
AcDbLinetypeTableRecord
  2
ByLayer
 70
    0
  3

 72
   65
 73
    0
 40
0
  0
LTYPE
  5
16
330
5
100
AcDbSymbolTableRecord
100
AcDbLinetypeTableRecord
  2
Continuous
 70
    0
  3
Solid line
 72
   65
 73
    0
 40
0
  0
LTYPE
  5
32
330
5
100
AcDbSymbolTableRecord
100
AcDbLinetypeTableRecord
  2
DOT
 70
    0
  3
Dot . . . . . . . . . . . . . . . . . . . . . .
 72
   65
 73
    2
 40
6.35
 49
0
 74
    0
 49
-6.35
 74
    0
  0
LTYPE
  5
33
330
5
100
AcDbSymbolTableRecord
100
AcDbLinetypeTableRecord
  2
DOTTINY
 70
    0
  3
Dot (.15x) .....................................
 72
   65
 73
    2
 40
0.9525
 49
0
 74
    0
 49
-0.9525
 74
    0
  0
LTYPE
  5
34
330
5
100
AcDbSymbolTableRecord
100
AcDbLinetypeTableRecord
  2
DOT2
 70
    0
  3
Dot (.5x) .....................................
 72
   65
 73
    2
 40
3.175
 49
0
 74
    0
 49
-3.175
 74
    0
  0
LTYPE
  5
35
330
5
100
AcDbSymbolTableRecord
100
AcDbLinetypeTableRecord
  2
DOTX2
 70
    0
  3
Dot (2x) .  .  .  .  .  .  .  .  .  .  .  .  .
 72
   65
 73
    2
 40
12.7
 49
0
 74
    0
 49
-12.7
 74
    0
  0
LTYPE
  5
36
330
5
100
AcDbSymbolTableRecord
100
AcDbLinetypeTableRecord
  2
DASHED
 70
    0
  3
Dashed _ _ _ _ _ _ _ _ _ _ _ _ _ _ _ _ _
 72
   65
 73
    2
 40
19.05
 49
12.7
 74
    0
 49
-6.35
 74
    0
  0
LTYPE
  5
37
330
5
100
AcDbSymbolTableRecord
100
AcDbLinetypeTableRecord
  2
DASHEDTINY
 70
    0
  3
Dashed (.15x) _ _ _ _ _ _ _ _ _ _ _ _ _ _ _ _ _
 72
   65
 73
    2
 40
2.8575
 49
1.905
 74
    0
 49
-0.9525
 74
    0
  0
LTYPE
  5
38
330
5
100
AcDbSymbolTableRecord
100
AcDbLinetypeTableRecord
  2
DASHED2
 70
    0
  3
Dashed (.5x) _ _ _ _ _ _ _ _ _ _ _ _ _ _ _ _ _
 72
   65
 73
    2
 40
9.524999999999999
 49
6.35
 74
    0
 49
-3.175
 74
    0
  0
LTYPE
  5
39
330
5
100
AcDbSymbolTableRecord
100
AcDbLinetypeTableRecord
  2
DASHEDX2
 70
    0
  3
Dashed (2x) ____  ____  ____  ____  ____  ___
 72
   65
 73
    2
 40
38.09999999999999
 49
25.4
 74
    0
 49
-12.7
 74
    0
  0
LTYPE
  5
3A
330
5
100
AcDbSymbolTableRecord
100
AcDbLinetypeTableRecord
  2
DASHDOT
 70
    0
  3
Dash dot __ . __ . __ . __ . __ . __ . __ . __
 72
   65
 73
    4
 40
25.4
 49
12.7
 74
    0
 49
-6.35
 74
    0
 49
0
 74
    0
 49
-6.35
 74
    0
  0
LTYPE
  5
3B
330
5
100
AcDbSymbolTableRecord
100
AcDbLinetypeTableRecord
  2
DASHDOTTINY
 70
    0
  3
Dash dot (.15x) _._._._._._._._._._._._._._._.
 72
   65
 73
    4
 40
3.81
 49
1.905
 74
    0
 49
-0.9525
 74
    0
 49
0
 74
    0
 49
-0.9525
 74
    0
  0
LTYPE
  5
3C
330
5
100
AcDbSymbolTableRecord
100
AcDbLinetypeTableRecord
  2
DASHDOT2
 70
    0
  3
Dash dot (.5x) _._._._._._._._._._._._._._._.
 72
   65
 73
    4
 40
12.7
 49
6.35
 74
    0
 49
-3.175
 74
    0
 49
0
 74
    0
 49
-3.175
 74
    0
  0
LTYPE
  5
3D
330
5
100
AcDbSymbolTableRecord
100
AcDbLinetypeTableRecord
  2
DASHDOTX2
 70
    0
  3
Dash dot (2x) ____  .  ____  .  ____  .  ___
 72
   65
 73
    4
 40
50.8
 49
25.4
 74
    0
 49
-12.7
 74
    0
 49
0
 74
    0
 49
-12.7
 74
    0
  0
LTYPE
  5
3E
330
5
100
AcDbSymbolTableRecord
100
AcDbLinetypeTableRecord
  2
DIVIDE
 70
    0
  3
Divide ____ . . ____ . . ____ . . ____ . . ____
 72
   65
 73
    6
 40
31.75
 49
12.7
 74
    0
 49
-6.35
 74
    0
 49
0
 74
    0
 49
-6.35
 74
    0
 49
0
 74
    0
 49
-6.35
 74
    0
  0
LTYPE
  5
3F
330
5
100
AcDbSymbolTableRecord
100
AcDbLinetypeTableRecord
  2
DIVIDETINY
 70
    0
  3
Divide (.15x) __..__..__..__..__..__..__..__.._
 72
   65
 73
    6
 40
4.7625
 49
1.905
 74
    0
 49
-0.9525
 74
    0
 49
0
 74
    0
 49
-0.9525
 74
    0
 49
0
 74
    0
 49
-0.9525
 74
    0
  0
LTYPE
  5
40
330
5
100
AcDbSymbolTableRecord
100
AcDbLinetypeTableRecord
  2
DIVIDE2
 70
    0
  3
Divide (.5x) __..__..__..__..__..__..__..__.._
 72
   65
 73
    6
 40
15.875
 49
6.35
 74
    0
 49
-3.175
 74
    0
 49
0
 74
    0
 49
-3.175
 74
    0
 49
0
 74
    0
 49
-3.175
 74
    0
  0
LTYPE
  5
41
330
5
100
AcDbSymbolTableRecord
100
AcDbLinetypeTableRecord
  2
DIVIDEX2
 70
    0
  3
Divide (2x) ________  .  .  ________  .  .  _
 72
   65
 73
    6
 40
63.5
 49
25.4
 74
    0
 49
-12.7
 74
    0
 49
0
 74
    0
 49
-12.7
 74
    0
 49
0
 74
    0
 49
-12.7
 74
    0
  0
LTYPE
  5
42
330
5
100
AcDbSymbolTableRecord
100
AcDbLinetypeTableRecord
  2
BORDER
 70
    0
  3
Border __ __ . __ __ . __ __ . __ __ . __ __ .
 72
   65
 73
    6
 40
44.45
 49
12.7
 74
    0
 49
-6.35
 74
    0
 49
12.7
 74
    0
 49
-6.35
 74
    0
 49
0
 74
    0
 49
-6.35
 74
    0
  0
LTYPE
  5
43
330
5
100
AcDbSymbolTableRecord
100
AcDbLinetypeTableRecord
  2
BORDERTINY
 70
    0
  3
Border (.15x) __.__.__.__.__.__.__.__.__.__.__.
 72
   65
 73
    6
 40
6.6675
 49
1.905
 74
    0
 49
-0.9525
 74
    0
 49
1.905
 74
    0
 49
-0.9525
 74
    0
 49
0
 74
    0
 49
-0.9525
 74
    0
  0
LTYPE
  5
44
330
5
100
AcDbSymbolTableRecord
100
AcDbLinetypeTableRecord
  2
BORDER2
 70
    0
  3
Border (.5x) __.__.__.__.__.__.__.__.__.__.__.
 72
   65
 73
    6
 40
22.225
 49
6.35
 74
    0
 49
-3.175
 74
    0
 49
6.35
 74
    0
 49
-3.175
 74
    0
 49
0
 74
    0
 49
-3.175
 74
    0
  0
LTYPE
  5
45
330
5
100
AcDbSymbolTableRecord
100
AcDbLinetypeTableRecord
  2
BORDERX2
 70
    0
  3
Border (2x) ____  ____  .  ____  ____  .  ___
 72
   65
 73
    6
 40
88.89999999999999
 49
25.4
 74
    0
 49
-12.7
 74
    0
 49
25.4
 74
    0
 49
-12.7
 74
    0
 49
0
 74
    0
 49
-12.7
 74
    0
  0
LTYPE
  5
46
330
5
100
AcDbSymbolTableRecord
100
AcDbLinetypeTableRecord
  2
CENTER
 70
    0
  3
Center ____ _ ____ _ ____ _ ____ _ ____ _ ____
 72
   65
 73
    4
 40
50.8
 49
31.75
 74
    0
 49
-6.35
 74
    0
 49
6.35
 74
    0
 49
-6.35
 74
    0
  0
LTYPE
  5
47
330
5
100
AcDbSymbolTableRecord
100
AcDbLinetypeTableRecord
  2
CENTERTINY
 70
    0
  3
Center (.15x) ___ _ ___ _ ___ _ ___ _ ___ _ ___
 72
   65
 73
    4
 40
7.619999999999999
 49
4.7625
 74
    0
 49
-0.9525
 74
    0
 49
0.9525
 74
    0
 49
-0.9525
 74
    0
  0
LTYPE
  5
48
330
5
100
AcDbSymbolTableRecord
100
AcDbLinetypeTableRecord
  2
CENTER2
 70
    0
  3
Center (.5x) ___ _ ___ _ ___ _ ___ _ ___ _ ___
 72
   65
 73
    4
 40
28.575
 49
19.05
 74
    0
 49
-3.175
 74
    0
 49
3.175
 74
    0
 49
-3.175
 74
    0
  0
LTYPE
  5
49
330
5
100
AcDbSymbolTableRecord
100
AcDbLinetypeTableRecord
  2
CENTERX2
 70
    0
  3
Center (2x) ________  __  ________  __  _____
 72
   65
 73
    4
 40
101.6
 49
63.5
 74
    0
 49
-12.7
 74
    0
 49
12.7
 74
    0
 49
-12.7
 74
    0
  0
ENDTAB
  0
TABLE
  2
LAYER
  5
2
330
0
100
AcDbSymbolTable
 70
    1
  0
LAYER
  5
10
330
2
100
AcDbSymbolTableRecord
100
AcDbLayerTableRecord
  2
0
 70
    0
 62
    7
  6
CONTINUOUS
370
    0
390
F
  0
ENDTAB
  0
TABLE
  2
STYLE
  5
3
330
0
100
AcDbSymbolTable
 70
    3
  0
STYLE
  5
4A
330
2
100
AcDbSymbolTableRecord
100
AcDbTextStyleTableRecord
  2
Standard
 70
    0
 40
0
 41
1
 50
0
 71
    0
 42
1
  3
txt
  4

  0
ENDTAB
  0
TABLE
  2
VIEW
  5
6
330
0
100
AcDbSymbolTable
 70
    0
  0
ENDTAB
  0
TABLE
  2
UCS
  5
7
330
0
100
AcDbSymbolTable
 70
    0
  0
ENDTAB
  0
TABLE
  2
APPID
  5
9
330
0
100
AcDbSymbolTable
 70
    1
  0
APPID
  5
12
330
9
100
AcDbSymbolTableRecord
100
AcDbRegAppTableRecord
  2
ACAD
 70
    0
  0
APPID
  5
4B
330
9
100
AcDbSymbolTableRecord
100
AcDbRegAppTableRecord
  2
LibreCad
 70
    0
  0
ENDTAB
  0
TABLE
  2
DIMSTYLE
  5
A
330
0
100
AcDbSymbolTable
 70
    1
100
AcDbDimStyleTable
 71
    1
  0
DIMSTYLE
105
4C
330
A
100
AcDbSymbolTableRecord
100
AcDbDimStyleTableRecord
  2
Standard
 70
    0
 40
1
 41
2.5
 42
0.625
 43
0.38
 44
1.25
 45
0
 46
0
 47
0
 48
0
140
2.5
141
0.09
142
0
143
25.4
144
1
145
0
146
1
147
0.625
148
0
 71
    0
 72
    0
 73
    0
 74
    1
 75
    0
 76
    0
 77
    0
 78
    0
 79
    0
170
    0
171
    2
172
    0
173
    0
174
    0
175
    0
176
    0
177
    0
178
    0
179
    0
271
    4
272
    4
273
    2
274
    2
275
    0
276
    0
277
    2
278
   46
279
    0
280
    0
281
    0
282
    0
283
    1
284
    0
285
    0
286
    0
288
    0
289
    3
340
Standard
341

371
   -2
372
   -2
  0
ENDTAB
  0
TABLE
  2
BLOCK_RECORD
  5
1
330
0
100
AcDbSymbolTable
 70
    2
  0
BLOCK_RECORD
  5
1F
330
1
100
AcDbSymbolTableRecord
100
AcDbBlockTableRecord
  2
*Model_Space
 70
    0
280
    1
281
    0
  0
BLOCK_RECORD
  5
1E
330
1
100
AcDbSymbolTableRecord
100
AcDbBlockTableRecord
  2
*Paper_Space
 70
    0
280
    1
281
    0
  0
ENDTAB
  0
ENDSEC
  0
SECTION
  2
BLOCKS
  0
BLOCK
  5
20
330
1F
100
AcDbEntity
  8
0
100
AcDbBlockBegin
  2
*Model_Space
 70
    0
 10
0
 20
0
 30
0
  3
*Model_Space
  1

  0
ENDBLK
  5
21
330
1F
100
AcDbEntity
  8
0
100
AcDbBlockEnd
  0
BLOCK
  5
1C
330
1B
100
AcDbEntity
  8
0
100
AcDbBlockBegin
  2
*Paper_Space
 70
    0
 10
0
 20
0
 30
0
  3
*Paper_Space
  1

  0
ENDBLK
  5
1D
330
1F
100
AcDbEntity
  8
0
100
AcDbBlockEnd
  0
ENDSEC
  0
SECTION
  2
ENTITIES
  0
LINE
  5
4D
100
AcDbEntity
  8
0
  6
ByLayer
 62
  256
370
   -1
100
AcDbLine
 10
94.1999728958553
 20
324.3498956102211
 11
94.1999728958553
 21
329.6498944320209
  0
LINE
  5
4E
100
AcDbEntity
  8
0
  6
ByLayer
 62
  256
370
   -1
100
AcDbLine
 10
94.19997289585507
 20
319.2498978457205
 11
95.99997112775583
 21
319.2498978457206
  0
LINE
  5
4F
100
AcDbEntity
  8
0
  6
ByLayer
 62
  256
370
   -1
100
AcDbLine
 10
95.99997112775594
 20
324.3498956102211
 11
94.1999728958553
 21
324.3498956102211
  0
LINE
  5
50
100
AcDbEntity
  8
0
  6
ByLayer
 62
  256
370
   -1
100
AcDbLine
 10
87.99996999225681
 20
324.3498956102208
 11
87.99996999225635
 21
319.2498978457206
  0
LINE
  5
51
100
AcDbEntity
  8
0
  6
ByLayer
 62
  256
370
   -1
100
AcDbLine
 10
192.2999352066631
 20
-0.2500000000001421
 11
186.9999431998605
 21
-0.2500000000001421
  0
LINE
  5
52
100
AcDbEntity
  8
0
  6
ByLayer
 62
  256
370
   -1
100
AcDbLine
 10
89.79996822415711
 20
319.2498978457206
 11
89.79996822415734
 21
315.2998980234207
  0
LINE
  5
53
100
AcDbEntity
  8
0
  6
ByLayer
 62
  256
370
   -1
100
AcDbLine
 10
276.7999114240177
 20
267.3499151190663
 11
276.7999114240177
 21
193.4999335237636
  0
LINE
  5
54
100
AcDbEntity
  8
0
  6
ByLayer
 62
  256
370
   -1
100
AcDbLine
 10
5.299998821800045
 20
68.54997494415576
 11
5.299998821800102
 21
66.74997671225537
  0
LINE
  5
55
100
AcDbEntity
  8
0
  6
ByLayer
 62
  256
370
   -1
100
AcDbLine
 10
14.34999640860002
 20
72.94997961585358
 11
10.39999658630063
 21
72.94997961585358
  0
LINE
  5
56
100
AcDbEntity
  8
0
  6
ByLayer
 62
  256
370
   -1
100
AcDbLine
 10
10.3999965863004
 20
66.74997671225498
 11
10.39999658630035
 21
68.54997494415537
  0
LINE
  5
57
100
AcDbEntity
  8
0
  6
ByLayer
 62
  256
370
   -1
100
AcDbLine
 10
0
 20
78.24997687075438
 11
-4.349997891200985
 21
78.24997687075438
  0
LINE
  5
58
100
AcDbEntity
  8
0
  6
ByLayer
 62
  256
370
   -1
100
AcDbLine
 10
0
 20
54.44998697225218
 11
-4.349997891200758
 21
54.44998697225218
  0
LINE
  5
59
100
AcDbEntity
  8
0
  6
ByLayer
 62
  256
370
   -1
100
AcDbLine
 10
10.39999658630035
 20
74.74997784775437
 11
5.299998821800045
 21
74.74997784775437
  0
LINE
  5
5A
100
AcDbEntity
  8
0
  6
ByLayer
 62
  256
370
   -1
100
AcDbLine
 10
14.34999640860019
 20
68.54997494415576
 11
14.34999640860002
 21
72.94997961585358
  0
LINE
  5
5B
100
AcDbEntity
  8
0
  6
ByLayer
 62
  256
370
   -1
100
AcDbLine
 10
186.9999431998613
 20
324.3498956102209
 11
186.9999431998611
 21
329.6498944320207
  0
LINE
  5
5C
100
AcDbEntity
  8
0
  6
ByLayer
 62
  256
370
   -1
100
AcDbLine
 10
276.7999114240177
 20
160.8999491830593
 11
276.7999114240175
 21
87.04996758775678
  0
LINE
  5
5D
100
AcDbEntity
  8
0
  6
ByLayer
 62
  256
370
   -1
100
AcDbLine
 10
182.5999385281628
 20
329.649894432021
 11
182.599938528163
 21
324.3498956102209
  0
LINE
  5
5E
100
AcDbEntity
  8
0
  6
ByLayer
 62
  256
370
   -1
100
AcDbLine
 10
10.3999965863008
 20
285.8499114878673
 11
10.39999658630063
 21
287.6499097197679
  0
LINE
  5
5F
100
AcDbEntity
  8
0
  6
ByLayer
 62
  256
370
   -1
100
AcDbLine
 10
186.9999431998606
 20
319.2498978457203
 11
188.7999414317614
 21
319.2498978457205
  0
LINE
  5
60
100
AcDbEntity
  8
0
  6
ByLayer
 62
  256
370
   -1
100
AcDbLine
 10
89.79996822415711
 20
329.649894432021
 11
89.79996822415734
 21
324.3498956102211
  0
LINE
  5
61
100
AcDbEntity
  8
0
  6
ByLayer
 62
  256
370
   -1
100
AcDbLine
 10
14.34999640860053
 20
281.4499068161695
 11
14.34999640860019
 21
285.8499114878671
  0
LINE
  5
62
100
AcDbEntity
  8
0
  6
ByLayer
 62
  256
370
   -1
100
AcDbLine
 10
180.7999402962624
 20
324.3498956102208
 11
180.7999402962622
 21
319.2498978457206
  0
LINE
  5
63
100
AcDbEntity
  8
0
  6
ByLayer
 62
  256
370
   -1
100
AcDbLine
 10
5.299998821800045
 20
74.74997784775437
 11
5.299998821800045
 21
72.94997961585398
  0
LINE
  5
64
100
AcDbEntity
  8
0
  6
ByLayer
 62
  256
370
   -1
100
AcDbLine
 10
5.299998821800102
 20
66.74997671225537
 11
10.3999965863004
 21
66.74997671225498
  0
LINE
  5
65
100
AcDbEntity
  8
0
  6
ByLayer
 62
  256
370
   -1
100
AcDbLine
 10
0
 20
-0.25
 11
0
 21
54.44998697225218
  0
LINE
  5
66
100
AcDbEntity
  8
0
  6
ByLayer
 62
  256
370
   -1
100
AcDbLine
 10
10.39999658630063
 20
279.6499085842687
 11
10.39999658630063
 21
281.4499068161691
  0
LINE
  5
67
100
AcDbEntity
  8
0
  6
ByLayer
 62
  256
370
   -1
100
AcDbLine
 10
276.7999114240175
 20
-0.2500000000001421
 11
201.099931171764
 21
-0.2500000000001421
  0
LINE
  5
68
100
AcDbEntity
  8
0
  6
ByLayer
 62
  256
370
   -1
100
AcDbLine
 10
10.39999658630063
 20
174.9999408801622
 11
14.34999640860053
 21
174.9999408801625
  0
LINE
  5
69
100
AcDbEntity
  8
0
  6
ByLayer
 62
  256
370
   -1
100
AcDbLine
 10
14.34999640860019
 20
179.3999455518601
 11
10.39999658630074
 21
179.3999455518603
  0
LINE
  5
6A
100
AcDbEntity
  8
0
  6
ByLayer
 62
  256
370
   -1
100
AcDbLine
 10
271.4999126022173
 20
287.6499097197673
 11
266.3999148377172
 21
287.6499097197676
  0
LINE
  5
6B
100
AcDbEntity
  8
0
  6
ByLayer
 62
  256
370
   -1
100
AcDbLine
 10
271.4999126022178
 20
285.8499114878667
 11
271.4999126022173
 21
287.6499097197673
  0
LINE
  5
6C
100
AcDbEntity
  8
0
  6
ByLayer
 62
  256
370
   -1
100
AcDbLine
 10
262.4499150154178
 20
281.4499068161691
 11
266.3999148377172
 21
281.4499068161689
  0
LINE
  5
6D
100
AcDbEntity
  8
0
  6
ByLayer
 62
  256
370
   -1
100
AcDbLine
 10
5.29999882180033
 20
279.6499085842689
 11
10.39999658630063
 21
279.6499085842687
  0
LINE
  5
6E
100
AcDbEntity
  8
0
  6
ByLayer
 62
  256
370
   -1
100
AcDbLine
 10
95.99997112775515
 20
5.049998821799988
 11
95.9999711277556
 21
10.14999658630023
  0
LINE
  5
6F
100
AcDbEntity
  8
0
  6
ByLayer
 62
  256
370
   -1
100
AcDbLine
 10
94.1999728958545
 20
5.049998821799988
 11
95.99997112775515
 21
5.049998821799988
  0
LINE
  5
70
100
AcDbEntity
  8
0
  6
ByLayer
 62
  256
370
   -1
100
AcDbLine
 10
89.79996822415688
 20
14.09999640859985
 11
89.79996822415688
 21
10.14999658630043
  0
LINE
  5
71
100
AcDbEntity
  8
0
  6
ByLayer
 62
  256
370
   -1
100
AcDbLine
 10
95.9999711277556
 20
10.14999658630023
 11
94.19997289585496
 21
10.14999658630043
  0
LINE
  5
72
100
AcDbEntity
  8
0
  6
ByLayer
 62
  256
370
   -1
100
AcDbLine
 10
84.49997096925625
 20
-0.2499999999997158
 11
84.49997096925614
 21
-4.599997891201205
  0
LINE
  5
73
100
AcDbEntity
  8
0
  6
ByLayer
 62
  256
370
   -1
100
AcDbLine
 10
108.2999608677584
 20
-0.25
 11
108.2999608677583
 21
-4.59999789120085
  0
LINE
  5
74
100
AcDbEntity
  8
0
  6
ByLayer
 62
  256
370
   -1
100
AcDbLine
 10
87.99996999225624
 20
10.14999658630023
 11
87.99996999225601
 21
5.049998821799988
  0
LINE
  5
75
100
AcDbEntity
  8
0
  6
ByLayer
 62
  256
370
   -1
100
AcDbLine
 10
3.410605131648481e-13
 20
184.699942806761
 11
-4.349997891200871
 21
184.6999428067611
  0
LINE
  5
76
100
AcDbEntity
  8
0
  6
ByLayer
 62
  256
370
   -1
100
AcDbLine
 10
276.7999114240175
 20
54.44998324705267
 11
276.7999114240175
 21
-0.2500000000001421
  0
LINE
  5
77
100
AcDbEntity
  8
0
  6
ByLayer
 62
  256
370
   -1
100
AcDbLine
 10
89.79996822415643
 20
5.049998821799988
 11
89.79996822415666
 21
-0.25
  0
LINE
  5
78
100
AcDbEntity
  8
0
  6
ByLayer
 62
  256
370
   -1
100
AcDbLine
 10
89.79996822415688
 20
10.14999658630043
 11
87.99996999225624
 21
10.14999658630023
  0
LINE
  5
79
100
AcDbEntity
  8
0
  6
ByLayer
 62
  256
370
   -1
100
AcDbLine
 10
87.99996999225601
 20
5.049998821799988
 11
89.79996822415643
 21
5.049998821799988
  0
LINE
  5
7A
100
AcDbEntity
  8
0
  6
ByLayer
 62
  256
370
   -1
100
AcDbLine
 10
3.410605131648481e-13
 20
299.9499031849697
 11
3.979039320256561e-13
 21
329.6498944320211
  0
LINE
  5
7B
100
AcDbEntity
  8
0
  6
ByLayer
 62
  256
370
   -1
100
AcDbLine
 10
0
 20
174.9999408801624
 11
5.299998821800102
 21
174.9999408801625
  0
LINE
  5
7C
100
AcDbEntity
  8
0
  6
ByLayer
 62
  256
370
   -1
100
AcDbLine
 10
5.299998821800102
 20
179.399945551861
 11
3.979039320256561e-13
 21
179.3999455518606
  0
LINE
  5
7D
100
AcDbEntity
  8
0
  6
ByLayer
 62
  256
370
   -1
100
AcDbLine
 10
5.299998821800216
 20
173.1999426482621
 11
10.39999658630063
 21
173.1999426482618
  0
LINE
  5
7E
100
AcDbEntity
  8
0
  6
ByLayer
 62
  256
370
   -1
100
AcDbLine
 10
188.7999414317608
 20
5.049998821799988
 11
188.7999414317613
 21
10.14999658630015
  0
LINE
  5
7F
100
AcDbEntity
  8
0
  6
ByLayer
 62
  256
370
   -1
100
AcDbLine
 10
186.9999431998603
 20
5.049998821799647
 11
188.7999414317608
 21
5.049998821799988
  0
LINE
  5
80
100
AcDbEntity
  8
0
  6
ByLayer
 62
  256
370
   -1
100
AcDbLine
 10
182.5999385281628
 20
14.09999640859976
 11
182.5999385281628
 21
10.14999658630043
  0
LINE
  5
81
100
AcDbEntity
  8
0
  6
ByLayer
 62
  256
370
   -1
100
AcDbLine
 10
266.3999148377172
 20
287.6499097197676
 11
266.3999148377172
 21
285.8499114878668
  0
LINE
  5
82
100
AcDbEntity
  8
0
  6
ByLayer
 62
  256
370
   -1
100
AcDbLine
 10
276.7999114240177
 20
276.1499095612683
 11
281.1499093152185
 21
276.149909561268
  0
LINE
  5
83
100
AcDbEntity
  8
0
  6
ByLayer
 62
  256
370
   -1
100
AcDbLine
 10
276.7999114240177
 20
299.9498994597706
 11
281.1499093152184
 21
299.9498994597703
  0
LINE
  5
84
100
AcDbEntity
  8
0
  6
ByLayer
 62
  256
370
   -1
100
AcDbLine
 10
266.3999148377172
 20
279.6499085842682
 11
271.4999126022178
 21
279.6499085842681
  0
LINE
  5
85
100
AcDbEntity
  8
0
  6
ByLayer
 62
  256
370
   -1
100
AcDbLine
 10
262.4499150154173
 20
285.8499114878667
 11
262.4499150154178
 21
281.4499068161691
  0
LINE
  5
86
100
AcDbEntity
  8
0
  6
ByLayer
 62
  256
370
   -1
100
AcDbLine
 10
262.4499150154173
 20
68.54997494415537
 11
266.3999148377168
 21
68.54997494415517
  0
LINE
  5
87
100
AcDbEntity
  8
0
  6
ByLayer
 62
  256
370
   -1
100
AcDbLine
 10
262.4499150154173
 20
179.3999455518598
 11
262.4499150154175
 21
174.9999408801621
  0
LINE
  5
88
100
AcDbEntity
  8
0
  6
ByLayer
 62
  256
370
   -1
100
AcDbLine
 10
75.69997652705439
 20
-0.25
 11
0
 21
-0.25
  0
LINE
  5
89
100
AcDbEntity
  8
0
  6
ByLayer
 62
  256
370
   -1
100
AcDbLine
 10
276.7999114240177
 20
179.3999455518598
 11
271.4999126022174
 21
179.3999455518598
  0
LINE
  5
8A
100
AcDbEntity
  8
0
  6
ByLayer
 62
  256
370
   -1
100
AcDbLine
 10
276.7999114240175
 20
281.4499068161688
 11
276.7999114240177
 21
276.1499095612683
  0
LINE
  5
8B
100
AcDbEntity
  8
0
  6
ByLayer
 62
  256
370
   -1
100
AcDbLine
 10
276.7999114240177
 20
291.1499034946697
 11
276.7999114240177
 21
285.8499114878667
  0
LINE
  5
8C
100
AcDbEntity
  8
0
  6
ByLayer
 62
  256
370
   -1
100
AcDbLine
 10
266.3999148377172
 20
281.4499068161689
 11
266.3999148377172
 21
279.6499085842682
  0
LINE
  5
8D
100
AcDbEntity
  8
0
  6
ByLayer
 62
  256
370
   -1
100
AcDbLine
 10
271.4999126022178
 20
279.6499085842681
 11
271.4999126022174
 21
281.4499068161684
  0
LINE
  5
8E
100
AcDbEntity
  8
0
  6
ByLayer
 62
  256
370
   -1
100
AcDbLine
 10
266.3999148377172
 20
179.3999455518599
 11
262.4499150154173
 21
179.3999455518598
  0
LINE
  5
8F
100
AcDbEntity
  8
0
  6
ByLayer
 62
  256
370
   -1
100
AcDbLine
 10
276.7999114240177
 20
184.6999375586628
 11
276.7999114240177
 21
179.3999455518598
  0
LINE
  5
90
100
AcDbEntity
  8
0
  6
ByLayer
 62
  256
370
   -1
100
AcDbLine
 10
188.7999414317615
 20
324.3498956102209
 11
186.9999431998613
 21
324.3498956102209
  0
LINE
  5
91
100
AcDbEntity
  8
0
  6
ByLayer
 62
  256
370
   -1
100
AcDbLine
 10
271.4999126022173
 20
68.54997494415477
 11
276.7999114240175
 21
68.54997494415488
  0
LINE
  5
92
100
AcDbEntity
  8
0
  6
ByLayer
 62
  256
370
   -1
100
AcDbLine
 10
266.3999148377168
 20
68.54997494415517
 11
266.3999148377172
 21
66.74997671225438
  0
LINE
  5
93
100
AcDbEntity
  8
0
  6
ByLayer
 62
  256
370
   -1
100
AcDbLine
 10
168.4999505562594
 20
329.649894432021
 11
168.4999505562594
 21
333.9998923232215
  0
LINE
  5
94
100
AcDbEntity
  8
0
  6
ByLayer
 62
  256
370
   -1
100
AcDbLine
 10
188.7999414317614
 20
319.2498978457205
 11
188.7999414317615
 21
324.3498956102209
  0
LINE
  5
95
100
AcDbEntity
  8
0
  6
ByLayer
 62
  256
370
   -1
100
AcDbLine
 10
182.599938528163
 20
324.3498956102209
 11
180.7999402962624
 21
324.3498956102208
  0
LINE
  5
96
100
AcDbEntity
  8
0
  6
ByLayer
 62
  256
370
   -1
100
AcDbLine
 10
5.299998821800045
 20
72.94997961585398
 11
3.410605131648481e-13
 21
72.94997961585398
  0
LINE
  5
97
100
AcDbEntity
  8
0
  6
ByLayer
 62
  256
370
   -1
100
AcDbLine
 10
10.39999658630063
 20
72.94997961585358
 11
10.39999658630035
 21
74.74997784775437
  0
LINE
  5
98
100
AcDbEntity
  8
0
  6
ByLayer
 62
  256
370
   -1
100
AcDbLine
 10
276.7999114240175
 20
63.24997768925458
 11
281.1499093152185
 21
63.24997768925428
  0
LINE
  5
99
100
AcDbEntity
  8
0
  6
ByLayer
 62
  256
370
   -1
100
AcDbLine
 10
276.7999114240175
 20
87.04996758775678
 11
281.1499093152184
 21
87.04996758775667
  0
LINE
  5
9A
100
AcDbEntity
  8
0
  6
ByLayer
 62
  256
370
   -1
100
AcDbLine
 10
266.3999148377172
 20
66.74997671225438
 11
271.4999126022173
 21
66.74997671225438
  0
LINE
  5
9B
100
AcDbEntity
  8
0
  6
ByLayer
 62
  256
370
   -1
100
AcDbLine
 10
10.39999658630063
 20
287.6499097197679
 11
5.299998821800216
 21
287.6499097197679
  0
LINE
  5
9C
100
AcDbEntity
  8
0
  6
ByLayer
 62
  256
370
   -1
100
AcDbLine
 10
186.9999431998605
 20
-0.2500000000001421
 11
186.9999431998603
 21
5.049998821799647
  0
LINE
  5
9D
100
AcDbEntity
  8
0
  6
ByLayer
 62
  256
370
   -1
100
AcDbLine
 10
3.979039320256561e-13
 20
179.3999455518606
 11
3.410605131648481e-13
 21
184.699942806761
  0
LINE
  5
9E
100
AcDbEntity
  8
0
  6
ByLayer
 62
  256
370
   -1
100
AcDbLine
 10
10.39999658630063
 20
173.1999426482618
 11
10.39999658630063
 21
174.9999408801622
  0
LINE
  5
9F
100
AcDbEntity
  8
0
  6
ByLayer
 62
  256
370
   -1
100
AcDbLine
 10
5.299998821800102
 20
174.9999408801625
 11
5.299998821800216
 21
173.1999426482621
  0
LINE
  5
A0
100
AcDbEntity
  8
0
  6
ByLayer
 62
  256
370
   -1
100
AcDbLine
 10
-5.684341886080801e-14
 20
68.54997494415576
 11
5.299998821800045
 21
68.54997494415576
  0
LINE
  5
A1
100
AcDbEntity
  8
0
  6
ByLayer
 62
  256
370
   -1
100
AcDbLine
 10
10.39999658630035
 20
68.54997494415537
 11
14.34999640860019
 21
68.54997494415576
  0
LINE
  5
A2
100
AcDbEntity
  8
0
  6
ByLayer
 62
  256
370
   -1
100
AcDbLine
 10
271.4999126022173
 20
174.9999408801615
 11
276.7999114240175
 21
174.9999408801617
  0
LINE
  5
A3
100
AcDbEntity
  8
0
  6
ByLayer
 62
  256
370
   -1
100
AcDbLine
 10
266.3999148377172
 20
174.9999408801619
 11
266.3999148377172
 21
173.1999426482614
  0
LINE
  5
A4
100
AcDbEntity
  8
0
  6
ByLayer
 62
  256
370
   -1
100
AcDbLine
 10
271.4999126022174
 20
173.1999426482613
 11
271.4999126022173
 21
174.9999408801615
  0
LINE
  5
A5
100
AcDbEntity
  8
0
  6
ByLayer
 62
  256
370
   -1
100
AcDbLine
 10
271.4999126022173
 20
181.1999437837604
 11
266.3999148377172
 21
181.1999437837608
  0
LINE
  5
A6
100
AcDbEntity
  8
0
  6
ByLayer
 62
  256
370
   -1
100
AcDbLine
 10
89.79996822415666
 20
-0.25
 11
84.49997096925625
 21
-0.2499999999997158
  0
LINE
  5
A7
100
AcDbEntity
  8
0
  6
ByLayer
 62
  256
370
   -1
100
AcDbLine
 10
182.5999385281623
 20
-0.25
 11
177.299941273262
 21
-0.25
  0
LINE
  5
A8
100
AcDbEntity
  8
0
  6
ByLayer
 62
  256
370
   -1
100
AcDbLine
 10
5.299998821800102
 20
281.4499068161695
 11
5.29999882180033
 21
279.6499085842689
  0
LINE
  5
A9
100
AcDbEntity
  8
0
  6
ByLayer
 62
  256
370
   -1
100
AcDbLine
 10
188.7999414317613
 20
10.14999658630015
 11
186.9999431998605
 21
10.14999658630023
  0
LINE
  5
AA
100
AcDbEntity
  8
0
  6
ByLayer
 62
  256
370
   -1
100
AcDbLine
 10
94.19997289585473
 20
-0.25
 11
94.1999728958545
 21
5.049998821799988
  0
LINE
  5
AB
100
AcDbEntity
  8
0
  6
ByLayer
 62
  256
370
   -1
100
AcDbLine
 10
94.19997289585496
 20
10.14999658630043
 11
94.1999728958545
 21
14.09999640860013
  0
LINE
  5
AC
100
AcDbEntity
  8
0
  6
ByLayer
 62
  256
370
   -1
100
AcDbLine
 10
99.49996490265738
 20
-0.25
 11
94.19997289585473
 21
-0.25
  0
LINE
  5
AD
100
AcDbEntity
  8
0
  6
ByLayer
 62
  256
370
   -1
100
AcDbLine
 10
14.34999640860053
 20
174.9999408801625
 11
14.34999640860019
 21
179.3999455518601
  0
LINE
  5
AE
100
AcDbEntity
  8
0
  6
ByLayer
 62
  256
370
   -1
100
AcDbLine
 10
5.299998821800102
 20
181.1999437837613
 11
5.299998821800102
 21
179.399945551861
  0
LINE
  5
AF
100
AcDbEntity
  8
0
  6
ByLayer
 62
  256
370
   -1
100
AcDbLine
 10
10.39999658630063
 20
181.1999437837613
 11
5.299998821800102
 21
181.1999437837613
  0
LINE
  5
B0
100
AcDbEntity
  8
0
  6
ByLayer
 62
  256
370
   -1
100
AcDbLine
 10
276.7999114240175
 20
68.54997494415488
 11
276.7999114240175
 21
63.24997768925458
  0
LINE
  5
B1
100
AcDbEntity
  8
0
  6
ByLayer
 62
  256
370
   -1
100
AcDbLine
 10
271.4999126022173
 20
74.74997784775357
 11
266.3999148377172
 21
74.74997784775397
  0
LINE
  5
B2
100
AcDbEntity
  8
0
  6
ByLayer
 62
  256
370
   -1
100
AcDbLine
 10
89.79996822415734
 20
324.3498956102211
 11
87.99996999225681
 21
324.3498956102208
  0
LINE
  5
B3
100
AcDbEntity
  8
0
  6
ByLayer
 62
  256
370
   -1
100
AcDbLine
 10
94.19997289585507
 20
315.2998980234208
 11
94.19997289585507
 21
319.2498978457205
  0
LINE
  5
B4
100
AcDbEntity
  8
0
  6
ByLayer
 62
  256
370
   -1
100
AcDbLine
 10
87.99996999225635
 20
319.2498978457206
 11
89.79996822415711
 21
319.2498978457206
  0
LINE
  5
B5
100
AcDbEntity
  8
0
  6
ByLayer
 62
  256
370
   -1
100
AcDbLine
 10
99.4999701507557
 20
329.6498944320209
 11
99.4999701507557
 21
333.999892323222
  0
LINE
  5
B6
100
AcDbEntity
  8
0
  6
ByLayer
 62
  256
370
   -1
100
AcDbLine
 10
186.9999431998611
 20
329.6498944320207
 11
192.2999404547616
 21
329.6498944320207
  0
LINE
  5
B7
100
AcDbEntity
  8
0
  6
ByLayer
 62
  256
370
   -1
100
AcDbLine
 10
94.1999728958545
 20
14.09999640860013
 11
89.79996822415688
 21
14.09999640859985
  0
LINE
  5
B8
100
AcDbEntity
  8
0
  6
ByLayer
 62
  256
370
   -1
100
AcDbLine
 10
0
 20
281.4499068161693
 11
5.299998821800102
 21
281.4499068161695
  0
LINE
  5
B9
100
AcDbEntity
  8
0
  6
ByLayer
 62
  256
370
   -1
100
AcDbLine
 10
10.39999658630063
 20
281.4499068161691
 11
14.34999640860053
 21
281.4499068161695
  0
LINE
  5
BA
100
AcDbEntity
  8
0
  6
ByLayer
 62
  256
370
   -1
100
AcDbLine
 10
14.34999640860019
 20
285.8499114878671
 11
10.3999965863008
 21
285.8499114878673
  0
LINE
  5
BB
100
AcDbEntity
  8
0
  6
ByLayer
 62
  256
370
   -1
100
AcDbLine
 10
3.410605131648481e-13
 20
72.94997961585398
 11
0
 21
78.24997687075438
  0
LINE
  5
BC
100
AcDbEntity
  8
0
  6
ByLayer
 62
  256
370
   -1
100
AcDbLine
 10
0
 20
87.04997131295616
 11
3.410605131648481e-13
 21
160.8999529082589
  0
LINE
  5
BD
100
AcDbEntity
  8
0
  6
ByLayer
 62
  256
370
   -1
100
AcDbLine
 10
3.410605131648481e-13
 20
193.4999372489628
 11
3.410605131648481e-13
 21
267.3499188442656
  0
LINE
  5
BE
100
AcDbEntity
  8
0
  6
ByLayer
 62
  256
370
   -1
100
AcDbLine
 10
-1.70530256582424e-13
 20
63.24998293735287
 11
-5.684341886080801e-14
 21
68.54997494415576
  0
LINE
  5
BF
100
AcDbEntity
  8
0
  6
ByLayer
 62
  256
370
   -1
100
AcDbLine
 10
180.7999402962619
 20
10.14999658630023
 11
180.7999402962617
 21
5.049998821799647
  0
LINE
  5
C0
100
AcDbEntity
  8
0
  6
ByLayer
 62
  256
370
   -1
100
AcDbLine
 10
186.9999431998603
 20
14.09999640859999
 11
182.5999385281628
 21
14.09999640859976
  0
LINE
  5
C1
100
AcDbEntity
  8
0
  6
ByLayer
 62
  256
370
   -1
100
AcDbLine
 10
182.5999385281621
 20
5.049998821799647
 11
182.5999385281623
 21
-0.25
  0
LINE
  5
C2
100
AcDbEntity
  8
0
  6
ByLayer
 62
  256
370
   -1
100
AcDbLine
 10
262.4499150154175
 20
174.9999408801621
 11
266.3999148377172
 21
174.9999408801619
  0
LINE
  5
C3
100
AcDbEntity
  8
0
  6
ByLayer
 62
  256
370
   -1
100
AcDbLine
 10
266.3999148377172
 20
181.1999437837608
 11
266.3999148377172
 21
179.3999455518599
  0
LINE
  5
C4
100
AcDbEntity
  8
0
  6
ByLayer
 62
  256
370
   -1
100
AcDbLine
 10
276.7999114240175
 20
169.6999436252613
 11
281.1499093152185
 21
169.6999436252613
  0
LINE
  5
C5
100
AcDbEntity
  8
0
  6
ByLayer
 62
  256
370
   -1
100
AcDbLine
 10
276.7999114240177
 20
193.4999335237636
 11
281.1499093152184
 21
193.4999335237635
  0
LINE
  5
C6
100
AcDbEntity
  8
0
  6
ByLayer
 62
  256
370
   -1
100
AcDbLine
 10
266.3999148377172
 20
173.1999426482614
 11
271.4999126022174
 21
173.1999426482613
  0
LINE
  5
C7
100
AcDbEntity
  8
0
  6
ByLayer
 62
  256
370
   -1
100
AcDbLine
 10
95.99997112775583
 20
319.2498978457206
 11
95.99997112775594
 21
324.3498956102211
  0
LINE
  5
C8
100
AcDbEntity
  8
0
  6
ByLayer
 62
  256
370
   -1
100
AcDbLine
 10
89.79996822415734
 20
315.2998980234207
 11
94.19997289585507
 21
315.2998980234208
  0
LINE
  5
C9
100
AcDbEntity
  8
0
  6
ByLayer
 62
  256
370
   -1
100
AcDbLine
 10
177.299941273262
 20
-0.25
 11
177.299941273262
 21
-4.599997891201205
  0
LINE
  5
CA
100
AcDbEntity
  8
0
  6
ByLayer
 62
  256
370
   -1
100
AcDbLine
 10
201.099931171764
 20
-0.2500000000001421
 11
201.099931171764
 21
-4.599997891201205
  0
LINE
  5
CB
100
AcDbEntity
  8
0
  6
ByLayer
 62
  256
370
   -1
100
AcDbLine
 10
186.9999431998606
 20
315.2998980234207
 11
186.9999431998606
 21
319.2498978457203
  0
LINE
  5
CC
100
AcDbEntity
  8
0
  6
ByLayer
 62
  256
370
   -1
100
AcDbLine
 10
192.2999404547616
 20
329.6498944320207
 11
192.2999404547616
 21
333.9998923232217
  0
LINE
  5
CD
100
AcDbEntity
  8
0
  6
ByLayer
 62
  256
370
   -1
100
AcDbLine
 10
-5.684341886080801e-14
 20
169.6999488733595
 11
0
 21
174.9999408801624
  0
LINE
  5
CE
100
AcDbEntity
  8
0
  6
ByLayer
 62
  256
370
   -1
100
AcDbLine
 10
276.7999114240177
 20
285.8499114878667
 11
271.4999126022178
 21
285.8499114878667
  0
LINE
  5
CF
100
AcDbEntity
  8
0
  6
ByLayer
 62
  256
370
   -1
100
AcDbLine
 10
266.3999148377172
 20
285.8499114878668
 11
262.4499150154173
 21
285.8499114878667
  0
LINE
  5
D0
100
AcDbEntity
  8
0
  6
ByLayer
 62
  256
370
   -1
100
AcDbLine
 10
276.7999114240175
 20
174.9999408801617
 11
276.7999114240175
 21
169.6999436252613
  0
LINE
  5
D1
100
AcDbEntity
  8
0
  6
ByLayer
 62
  256
370
   -1
100
AcDbLine
 10
271.4999126022174
 20
281.4499068161684
 11
276.7999114240175
 21
281.4499068161688
  0
LINE
  5
D2
100
AcDbEntity
  8
0
  6
ByLayer
 62
  256
370
   -1
100
AcDbLine
 10
10.39999658630074
 20
179.3999455518603
 11
10.39999658630063
 21
181.1999437837613
  0
LINE
  5
D3
100
AcDbEntity
  8
0
  6
ByLayer
 62
  256
370
   -1
100
AcDbLine
 10
276.7999114240177
 20
78.24997162265586
 11
276.7999114240175
 21
72.94997961585318
  0
LINE
  5
D4
100
AcDbEntity
  8
0
  6
ByLayer
 62
  256
370
   -1
100
AcDbLine
 10
186.9999431998605
 20
10.14999658630023
 11
186.9999431998603
 21
14.09999640859999
  0
LINE
  5
D5
100
AcDbEntity
  8
0
  6
ByLayer
 62
  256
370
   -1
100
AcDbLine
 10
94.1999728958553
 20
329.6498944320209
 11
99.4999701507557
 21
329.6498944320209
  0
LINE
  5
D6
100
AcDbEntity
  8
0
  6
ByLayer
 62
  256
370
   -1
100
AcDbLine
 10
108.2999645929577
 20
329.649894432021
 11
168.4999505562594
 21
329.649894432021
  0
LINE
  5
D7
100
AcDbEntity
  8
0
  6
ByLayer
 62
  256
370
   -1
100
AcDbLine
 10
177.2999465213603
 20
329.649894432021
 11
182.5999385281628
 21
329.649894432021
  0
LINE
  5
D8
100
AcDbEntity
  8
0
  6
ByLayer
 62
  256
370
   -1
100
AcDbLine
 10
3.410605131648481e-13
 20
160.8999529082589
 11
-4.349997891200701
 21
160.8999529082591
  0
LINE
  5
D9
100
AcDbEntity
  8
0
  6
ByLayer
 62
  256
370
   -1
100
AcDbLine
 10
180.7999402962617
 20
5.049998821799647
 11
182.5999385281621
 21
5.049998821799647
  0
LINE
  5
DA
100
AcDbEntity
  8
0
  6
ByLayer
 62
  256
370
   -1
100
AcDbLine
 10
5.299998821800216
 20
287.6499097197679
 11
5.299998821800216
 21
285.8499114878679
  0
LINE
  5
DB
100
AcDbEntity
  8
0
  6
ByLayer
 62
  256
370
   -1
100
AcDbLine
 10
5.299998821800216
 20
285.8499114878679
 11
3.979039320256561e-13
 21
285.8499114878675
  0
LINE
  5
DC
100
AcDbEntity
  8
0
  6
ByLayer
 62
  256
370
   -1
100
AcDbLine
 10
3.979039320256561e-13
 20
285.8499114878675
 11
3.979039320256561e-13
 21
291.1499087427678
  0
LINE
  5
DD
100
AcDbEntity
  8
0
  6
ByLayer
 62
  256
370
   -1
100
AcDbLine
 10
168.49994683106
 20
-0.25
 11
108.2999608677584
 21
-0.25
  0
LINE
  5
DE
100
AcDbEntity
  8
0
  6
ByLayer
 62
  256
370
   -1
100
AcDbLine
 10
3.979039320256561e-13
 20
291.1499087427678
 11
-4.349997891200758
 21
291.1499087427679
  0
LINE
  5
DF
100
AcDbEntity
  8
0
  6
ByLayer
 62
  256
370
   -1
100
AcDbLine
 10
201.0999348969635
 20
329.649894432021
 11
276.7999114240177
 21
329.6498944320209
  0
LINE
  5
E0
100
AcDbEntity
  8
0
  6
ByLayer
 62
  256
370
   -1
100
AcDbLine
 10
276.7999114240177
 20
329.6498944320209
 11
276.7999114240177
 21
299.9498994597706
  0
LINE
  5
E1
100
AcDbEntity
  8
0
  6
ByLayer
 62
  256
370
   -1
100
AcDbLine
 10
180.7999402962622
 20
319.2498978457206
 11
182.5999385281628
 21
319.2498978457206
  0
LINE
  5
E2
100
AcDbEntity
  8
0
  6
ByLayer
 62
  256
370
   -1
100
AcDbLine
 10
182.5999385281628
 20
319.2498978457206
 11
182.599938528163
 21
315.2998980234207
  0
LINE
  5
E3
100
AcDbEntity
  8
0
  6
ByLayer
 62
  256
370
   -1
100
AcDbLine
 10
182.599938528163
 20
315.2998980234207
 11
186.9999431998606
 21
315.2998980234207
  0
LINE
  5
E4
100
AcDbEntity
  8
0
  6
ByLayer
 62
  256
370
   -1
100
AcDbLine
 10
276.7999114240175
 20
72.94997961585318
 11
271.4999126022173
 21
72.94997961585307
  0
LINE
  5
E5
100
AcDbEntity
  8
0
  6
ByLayer
 62
  256
370
   -1
100
AcDbLine
 10
271.4999126022173
 20
72.94997961585307
 11
271.4999126022173
 21
74.74997784775357
  0
LINE
  5
E6
100
AcDbEntity
  8
0
  6
ByLayer
 62
  256
370
   -1
100
AcDbLine
 10
266.3999148377172
 20
74.74997784775397
 11
266.3999148377168
 21
72.94997961585318
  0
LINE
  5
E7
100
AcDbEntity
  8
0
  6
ByLayer
 62
  256
370
   -1
100
AcDbLine
 10
266.3999148377168
 20
72.94997961585318
 11
262.4499150154173
 21
72.94997961585307
  0
LINE
  5
E8
100
AcDbEntity
  8
0
  6
ByLayer
 62
  256
370
   -1
100
AcDbLine
 10
262.4499150154173
 20
72.94997961585307
 11
262.4499150154173
 21
68.54997494415537
  0
LINE
  5
E9
100
AcDbEntity
  8
0
  6
ByLayer
 62
  256
370
   -1
100
AcDbLine
 10
182.5999385281628
 20
10.14999658630043
 11
180.7999402962619
 21
10.14999658630023
  0
LINE
  5
EA
100
AcDbEntity
  8
0
  6
ByLayer
 62
  256
370
   -1
100
AcDbLine
 10
3.979039320256561e-13
 20
329.6498944320211
 11
75.69998025225351
 21
329.649894432021
  0
LINE
  5
EB
100
AcDbEntity
  8
0
  6
ByLayer
 62
  256
370
   -1
100
AcDbLine
 10
75.69998025225351
 20
329.649894432021
 11
75.69998025225374
 21
333.9998923232217
  0
LINE
  5
EC
100
AcDbEntity
  8
0
  6
ByLayer
 62
  256
370
   -1
100
AcDbLine
 10
82.49997621735469
 20
335.9998923232216
 11
83.01761430755977
 21
335.9317439757997
  0
LINE
  5
ED
100
AcDbEntity
  8
0
  6
ByLayer
 62
  256
370
   -1
100
AcDbLine
 10
83.01761430755977
 20
335.9317439757997
 11
83.4999762173548
 21
335.7319431307903
  0
LINE
  5
EE
100
AcDbEntity
  8
0
  6
ByLayer
 62
  256
370
   -1
100
AcDbLine
 10
83.4999762173548
 20
335.7319431307903
 11
83.91418977972768
 21
335.4141058855946
  0
LINE
  5
EF
100
AcDbEntity
  8
0
  6
ByLayer
 62
  256
370
   -1
100
AcDbLine
 10
83.91418977972768
 20
335.4141058855946
 11
84.23202702492353
 21
334.9998923232214
  0
LINE
  5
F0
100
AcDbEntity
  8
0
  6
ByLayer
 62
  256
370
   -1
100
AcDbLine
 10
84.23202702492353
 20
334.9998923232214
 11
84.43182786993287
 21
334.5175304134265
  0
LINE
  5
F1
100
AcDbEntity
  8
0
  6
ByLayer
 62
  256
370
   -1
100
AcDbLine
 10
84.49997621735469
 20
333.9998923232214
 11
84.49997621735434
 21
329.649894432021
  0
LINE
  5
F2
100
AcDbEntity
  8
0
  6
ByLayer
 62
  256
370
   -1
100
AcDbLine
 10
84.43182786993287
 20
334.5175304134265
 11
84.49997621735469
 21
333.9998923232214
  0
LINE
  5
F3
100
AcDbEntity
  8
0
  6
ByLayer
 62
  256
370
   -1
100
AcDbLine
 10
99.4999701507557
 20
333.999892323222
 11
99.56811849817763
 21
334.5175304134269
  0
LINE
  5
F4
100
AcDbEntity
  8
0
  6
ByLayer
 62
  256
370
   -1
100
AcDbLine
 10
99.56811849817763
 20
334.5175304134269
 11
99.76791934318686
 21
334.999892323222
  0
LINE
  5
F5
100
AcDbEntity
  8
0
  6
ByLayer
 62
  256
370
   -1
100
AcDbLine
 10
99.76791934318686
 20
334.999892323222
 11
100.0857565883826
 21
335.4141058855949
  0
LINE
  5
F6
100
AcDbEntity
  8
0
  6
ByLayer
 62
  256
370
   -1
100
AcDbLine
 10
100.0857565883826
 20
335.4141058855949
 11
100.4999701507557
 21
335.7319431307908
  0
LINE
  5
F7
100
AcDbEntity
  8
0
  6
ByLayer
 62
  256
370
   -1
100
AcDbLine
 10
100.4999701507557
 20
335.7319431307908
 11
100.9823320605506
 21
335.9317439757999
  0
LINE
  5
F8
100
AcDbEntity
  8
0
  6
ByLayer
 62
  256
370
   -1
100
AcDbLine
 10
101.4999701507557
 20
335.999892323222
 11
106.2999645929577
 21
335.9998923232222
  0
LINE
  5
F9
100
AcDbEntity
  8
0
  6
ByLayer
 62
  256
370
   -1
100
AcDbLine
 10
100.9823320605506
 20
335.9317439757999
 11
101.4999701507557
 21
335.999892323222
  0
LINE
  5
FA
100
AcDbEntity
  8
0
  6
ByLayer
 62
  256
370
   -1
100
AcDbLine
 10
108.2999645929577
 20
333.9998923232221
 11
108.2999645929577
 21
329.649894432021
  0
LINE
  5
FB
100
AcDbEntity
  8
0
  6
ByLayer
 62
  256
370
   -1
100
AcDbLine
 10
108.2999645929577
 20
333.9998923232221
 11
108.2318162455359
 21
334.5175304134272
  0
LINE
  5
FC
100
AcDbEntity
  8
0
  6
ByLayer
 62
  256
370
   -1
100
AcDbLine
 10
108.2318162455359
 20
334.5175304134272
 11
108.0320154005265
 21
334.9998923232222
  0
LINE
  5
FD
100
AcDbEntity
  8
0
  6
ByLayer
 62
  256
370
   -1
100
AcDbLine
 10
108.0320154005265
 20
334.9998923232222
 11
107.7141781553308
 21
335.4141058855952
  0
LINE
  5
FE
100
AcDbEntity
  8
0
  6
ByLayer
 62
  256
370
   -1
100
AcDbLine
 10
107.7141781553308
 20
335.4141058855952
 11
107.2999645929577
 21
335.731943130791
  0
LINE
  5
FF
100
AcDbEntity
  8
0
  6
ByLayer
 62
  256
370
   -1
100
AcDbLine
 10
107.2999645929577
 20
335.731943130791
 11
106.8176026831626
 21
335.9317439758003
  0
LINE
  5
100
100
AcDbEntity
  8
0
  6
ByLayer
 62
  256
370
   -1
100
AcDbLine
 10
106.8176026831626
 20
335.9317439758003
 11
106.2999645929577
 21
335.9998923232222
  0
LINE
  5
101
100
AcDbEntity
  8
0
  6
ByLayer
 62
  256
370
   -1
100
AcDbLine
 10
75.69998025225374
 20
333.9998923232217
 11
75.76812859967544
 21
334.5175304134268
  0
LINE
  5
102
100
AcDbEntity
  8
0
  6
ByLayer
 62
  256
370
   -1
100
AcDbLine
 10
75.76812859967544
 20
334.5175304134268
 11
75.96792944468467
 21
334.9998923232217
  0
LINE
  5
103
100
AcDbEntity
  8
0
  6
ByLayer
 62
  256
370
   -1
100
AcDbLine
 10
75.96792944468467
 20
334.9998923232217
 11
76.28576668988052
 21
335.4141058855947
  0
LINE
  5
104
100
AcDbEntity
  8
0
  6
ByLayer
 62
  256
370
   -1
100
AcDbLine
 10
76.28576668988052
 20
335.4141058855947
 11
76.69998025225351
 21
335.7319431307905
  0
LINE
  5
105
100
AcDbEntity
  8
0
  6
ByLayer
 62
  256
370
   -1
100
AcDbLine
 10
76.69998025225351
 20
335.7319431307905
 11
77.18234216204854
 21
335.9317439757998
  0
LINE
  5
106
100
AcDbEntity
  8
0
  6
ByLayer
 62
  256
370
   -1
100
AcDbLine
 10
77.69998025225362
 20
335.9998923232217
 11
82.49997621735469
 21
335.9998923232216
  0
LINE
  5
107
100
AcDbEntity
  8
0
  6
ByLayer
 62
  256
370
   -1
100
AcDbLine
 10
77.18234216204854
 20
335.9317439757998
 11
77.69998025225362
 21
335.9998923232217
  0
LINE
  5
108
100
AcDbEntity
  8
0
  6
ByLayer
 62
  256
370
   -1
100
AcDbLine
 10
192.2999404547616
 20
333.9998923232217
 11
192.3680888021834
 21
334.5175304134268
  0
LINE
  5
109
100
AcDbEntity
  8
0
  6
ByLayer
 62
  256
370
   -1
100
AcDbLine
 10
192.3680888021834
 20
334.5175304134268
 11
192.5678896471928
 21
334.9998923232217
  0
LINE
  5
10A
100
AcDbEntity
  8
0
  6
ByLayer
 62
  256
370
   -1
100
AcDbLine
 10
192.5678896471928
 20
334.9998923232217
 11
192.8857268923884
 21
335.4141058855948
  0
LINE
  5
10B
100
AcDbEntity
  8
0
  6
ByLayer
 62
  256
370
   -1
100
AcDbLine
 10
192.8857268923884
 20
335.4141058855948
 11
193.2999404547615
 21
335.7319431307907
  0
LINE
  5
10C
100
AcDbEntity
  8
0
  6
ByLayer
 62
  256
370
   -1
100
AcDbLine
 10
193.2999404547615
 20
335.7319431307907
 11
193.7823023645565
 21
335.9317439757999
  0
LINE
  5
10D
100
AcDbEntity
  8
0
  6
ByLayer
 62
  256
370
   -1
100
AcDbLine
 10
194.2999404547614
 20
335.9998923232217
 11
199.0999348969634
 21
335.999892323222
  0
LINE
  5
10E
100
AcDbEntity
  8
0
  6
ByLayer
 62
  256
370
   -1
100
AcDbLine
 10
193.7823023645565
 20
335.9317439757999
 11
194.2999404547614
 21
335.9998923232217
  0
LINE
  5
10F
100
AcDbEntity
  8
0
  6
ByLayer
 62
  256
370
   -1
100
AcDbLine
 10
201.0999348969636
 20
333.999892323222
 11
201.0999348969635
 21
329.649894432021
  0
LINE
  5
110
100
AcDbEntity
  8
0
  6
ByLayer
 62
  256
370
   -1
100
AcDbLine
 10
201.0999348969636
 20
333.999892323222
 11
201.0317865495414
 21
334.5175304134269
  0
LINE
  5
111
100
AcDbEntity
  8
0
  6
ByLayer
 62
  256
370
   -1
100
AcDbLine
 10
201.0317865495414
 20
334.5175304134269
 11
200.8319857045324
 21
334.999892323222
  0
LINE
  5
112
100
AcDbEntity
  8
0
  6
ByLayer
 62
  256
370
   -1
100
AcDbLine
 10
200.8319857045324
 20
334.999892323222
 11
200.5141484593366
 21
335.4141058855951
  0
LINE
  5
113
100
AcDbEntity
  8
0
  6
ByLayer
 62
  256
370
   -1
100
AcDbLine
 10
200.5141484593366
 20
335.4141058855951
 11
200.0999348969634
 21
335.7319431307909
  0
LINE
  5
114
100
AcDbEntity
  8
0
  6
ByLayer
 62
  256
370
   -1
100
AcDbLine
 10
200.0999348969634
 20
335.7319431307909
 11
199.6175729871684
 21
335.9317439758001
  0
LINE
  5
115
100
AcDbEntity
  8
0
  6
ByLayer
 62
  256
370
   -1
100
AcDbLine
 10
199.6175729871684
 20
335.9317439758001
 11
199.0999348969634
 21
335.999892323222
  0
LINE
  5
116
100
AcDbEntity
  8
0
  6
ByLayer
 62
  256
370
   -1
100
AcDbLine
 10
177.2999465213604
 20
333.9998923232214
 11
177.2999465213603
 21
329.649894432021
  0
LINE
  5
117
100
AcDbEntity
  8
0
  6
ByLayer
 62
  256
370
   -1
100
AcDbLine
 10
177.2999465213604
 20
333.9998923232214
 11
177.2317981739384
 21
334.5175304134264
  0
LINE
  5
118
100
AcDbEntity
  8
0
  6
ByLayer
 62
  256
370
   -1
100
AcDbLine
 10
177.2317981739384
 20
334.5175304134264
 11
177.0319973289293
 21
334.9998923232214
  0
LINE
  5
119
100
AcDbEntity
  8
0
  6
ByLayer
 62
  256
370
   -1
100
AcDbLine
 10
177.0319973289293
 20
334.9998923232214
 11
176.7141600837336
 21
335.4141058855944
  0
LINE
  5
11A
100
AcDbEntity
  8
0
  6
ByLayer
 62
  256
370
   -1
100
AcDbLine
 10
176.7141600837336
 20
335.4141058855944
 11
176.2999465213605
 21
335.7319431307902
  0
LINE
  5
11B
100
AcDbEntity
  8
0
  6
ByLayer
 62
  256
370
   -1
100
AcDbLine
 10
176.2999465213605
 20
335.7319431307902
 11
175.8175846115653
 21
335.9317439757996
  0
LINE
  5
11C
100
AcDbEntity
  8
0
  6
ByLayer
 62
  256
370
   -1
100
AcDbLine
 10
175.8175846115653
 20
335.9317439757996
 11
175.2999465213605
 21
335.9998923232214
  0
LINE
  5
11D
100
AcDbEntity
  8
0
  6
ByLayer
 62
  256
370
   -1
100
AcDbLine
 10
168.4999505562594
 20
333.9998923232215
 11
168.5680989036813
 21
334.5175304134266
  0
LINE
  5
11E
100
AcDbEntity
  8
0
  6
ByLayer
 62
  256
370
   -1
100
AcDbLine
 10
168.5680989036813
 20
334.5175304134266
 11
168.7678997486905
 21
334.9998923232216
  0
LINE
  5
11F
100
AcDbEntity
  8
0
  6
ByLayer
 62
  256
370
   -1
100
AcDbLine
 10
168.7678997486905
 20
334.9998923232216
 11
169.0857369938863
 21
335.4141058855947
  0
LINE
  5
120
100
AcDbEntity
  8
0
  6
ByLayer
 62
  256
370
   -1
100
AcDbLine
 10
169.0857369938863
 20
335.4141058855947
 11
169.4999505562594
 21
335.7319431307905
  0
LINE
  5
121
100
AcDbEntity
  8
0
  6
ByLayer
 62
  256
370
   -1
100
AcDbLine
 10
169.4999505562594
 20
335.7319431307905
 11
169.9823124660543
 21
335.9317439757997
  0
LINE
  5
122
100
AcDbEntity
  8
0
  6
ByLayer
 62
  256
370
   -1
100
AcDbLine
 10
170.4999505562594
 20
335.9998923232216
 11
175.2999465213605
 21
335.9998923232214
  0
LINE
  5
123
100
AcDbEntity
  8
0
  6
ByLayer
 62
  256
370
   -1
100
AcDbLine
 10
169.9823124660543
 20
335.9317439757997
 11
170.4999505562594
 21
335.9998923232216
  0
LINE
  5
124
100
AcDbEntity
  8
0
  6
ByLayer
 62
  256
370
   -1
100
AcDbLine
 10
168.49994683106
 20
-4.599997891201561
 11
168.49994683106
 21
-0.25
  0
LINE
  5
125
100
AcDbEntity
  8
0
  6
ByLayer
 62
  256
370
   -1
100
AcDbLine
 10
168.49994683106
 20
-4.599997891201561
 11
168.5680951784819
 21
-5.117635981406416
  0
LINE
  5
126
100
AcDbEntity
  8
0
  6
ByLayer
 62
  256
370
   -1
100
AcDbLine
 10
168.5680951784819
 20
-5.117635981406416
 11
168.767896023491
 21
-5.59999789120144
  0
LINE
  5
127
100
AcDbEntity
  8
0
  6
ByLayer
 62
  256
370
   -1
100
AcDbLine
 10
168.767896023491
 20
-5.59999789120144
 11
169.0857332686869
 21
-6.014211453574504
  0
LINE
  5
128
100
AcDbEntity
  8
0
  6
ByLayer
 62
  256
370
   -1
100
AcDbLine
 10
169.0857332686869
 20
-6.014211453574504
 11
169.49994683106
 21
-6.332048698770215
  0
LINE
  5
129
100
AcDbEntity
  8
0
  6
ByLayer
 62
  256
370
   -1
100
AcDbLine
 10
169.49994683106
 20
-6.332048698770215
 11
169.9823087408549
 21
-6.531849543779508
  0
LINE
  5
12A
100
AcDbEntity
  8
0
  6
ByLayer
 62
  256
370
   -1
100
AcDbLine
 10
169.9823087408549
 20
-6.531849543779508
 11
170.4999468310601
 21
-6.599997891201447
  0
LINE
  5
12B
100
AcDbEntity
  8
0
  6
ByLayer
 62
  256
370
   -1
100
AcDbLine
 10
177.299941273262
 20
-4.599997891201205
 11
177.2317929258401
 21
-5.117635981406281
  0
LINE
  5
12C
100
AcDbEntity
  8
0
  6
ByLayer
 62
  256
370
   -1
100
AcDbLine
 10
177.2317929258401
 20
-5.117635981406281
 11
177.0319920808309
 21
-5.59999789120122
  0
LINE
  5
12D
100
AcDbEntity
  8
0
  6
ByLayer
 62
  256
370
   -1
100
AcDbLine
 10
177.0319920808309
 20
-5.59999789120122
 11
176.7141548356352
 21
-6.014211453574227
  0
LINE
  5
12E
100
AcDbEntity
  8
0
  6
ByLayer
 62
  256
370
   -1
100
AcDbLine
 10
176.7141548356352
 20
-6.014211453574227
 11
176.2999412732619
 21
-6.33204869877008
  0
LINE
  5
12F
100
AcDbEntity
  8
0
  6
ByLayer
 62
  256
370
   -1
100
AcDbLine
 10
176.2999412732619
 20
-6.33204869877008
 11
175.8175793634671
 21
-6.531849543779366
  0
LINE
  5
130
100
AcDbEntity
  8
0
  6
ByLayer
 62
  256
370
   -1
100
AcDbLine
 10
175.299941273262
 20
-6.599997891201234
 11
170.4999468310601
 21
-6.599997891201447
  0
LINE
  5
131
100
AcDbEntity
  8
0
  6
ByLayer
 62
  256
370
   -1
100
AcDbLine
 10
175.8175793634671
 20
-6.531849543779366
 11
175.299941273262
 21
-6.599997891201234
  0
LINE
  5
132
100
AcDbEntity
  8
0
  6
ByLayer
 62
  256
370
   -1
100
AcDbLine
 10
281.1499093152186
 20
160.8999491830593
 11
276.7999114240177
 21
160.8999491830593
  0
LINE
  5
133
100
AcDbEntity
  8
0
  6
ByLayer
 62
  256
370
   -1
100
AcDbLine
 10
281.1499093152186
 20
160.8999491830593
 11
281.6675474054238
 21
160.9680975304812
  0
LINE
  5
134
100
AcDbEntity
  8
0
  6
ByLayer
 62
  256
370
   -1
100
AcDbLine
 10
281.6675474054238
 20
160.9680975304812
 11
282.1499093152187
 21
161.1678983754905
  0
LINE
  5
135
100
AcDbEntity
  8
0
  6
ByLayer
 62
  256
370
   -1
100
AcDbLine
 10
282.1499093152187
 20
161.1678983754905
 11
282.5641228775918
 21
161.4857356206863
  0
LINE
  5
136
100
AcDbEntity
  8
0
  6
ByLayer
 62
  256
370
   -1
100
AcDbLine
 10
282.5641228775918
 20
161.4857356206863
 11
282.8819601227877
 21
161.8999491830594
  0
LINE
  5
137
100
AcDbEntity
  8
0
  6
ByLayer
 62
  256
370
   -1
100
AcDbLine
 10
282.8819601227877
 20
161.8999491830594
 11
283.0817609677968
 21
162.3823110928543
  0
LINE
  5
138
100
AcDbEntity
  8
0
  6
ByLayer
 62
  256
370
   -1
100
AcDbLine
 10
283.0817609677968
 20
162.3823110928543
 11
283.1499093152187
 21
162.8999491830594
  0
LINE
  5
139
100
AcDbEntity
  8
0
  6
ByLayer
 62
  256
370
   -1
100
AcDbLine
 10
283.1499093152179
 20
80.24997162265558
 11
283.0817609677961
 21
79.73233353245058
  0
LINE
  5
13A
100
AcDbEntity
  8
0
  6
ByLayer
 62
  256
370
   -1
100
AcDbLine
 10
283.0817609677961
 20
79.73233353245058
 11
282.8819601227868
 21
79.24997162265558
  0
LINE
  5
13B
100
AcDbEntity
  8
0
  6
ByLayer
 62
  256
370
   -1
100
AcDbLine
 10
282.8819601227868
 20
79.24997162265558
 11
282.564122877591
 21
78.83575806028247
  0
LINE
  5
13C
100
AcDbEntity
  8
0
  6
ByLayer
 62
  256
370
   -1
100
AcDbLine
 10
282.564122877591
 20
78.83575806028247
 11
282.1499093152177
 21
78.51792081508677
  0
LINE
  5
13D
100
AcDbEntity
  8
0
  6
ByLayer
 62
  256
370
   -1
100
AcDbLine
 10
282.1499093152177
 20
78.51792081508677
 11
281.6675474054228
 21
78.31811997007748
  0
LINE
  5
13E
100
AcDbEntity
  8
0
  6
ByLayer
 62
  256
370
   -1
100
AcDbLine
 10
281.1499093152178
 20
78.24997162265566
 11
276.7999114240177
 21
78.24997162265586
  0
LINE
  5
13F
100
AcDbEntity
  8
0
  6
ByLayer
 62
  256
370
   -1
100
AcDbLine
 10
281.6675474054228
 20
78.31811997007748
 11
281.1499093152178
 21
78.24997162265566
  0
LINE
  5
140
100
AcDbEntity
  8
0
  6
ByLayer
 62
  256
370
   -1
100
AcDbLine
 10
-6.349997891200871
 20
80.24997687075427
 11
-6.349997891201099
 21
85.04997131295616
  0
LINE
  5
141
100
AcDbEntity
  8
0
  6
ByLayer
 62
  256
370
   -1
100
AcDbLine
 10
-6.349997891200871
 20
80.24997687075427
 11
-6.28184954377906
 21
79.73233878054927
  0
LINE
  5
142
100
AcDbEntity
  8
0
  6
ByLayer
 62
  256
370
   -1
100
AcDbLine
 10
-6.28184954377906
 20
79.73233878054927
 11
-6.082048698769654
 21
79.24997687075438
  0
LINE
  5
143
100
AcDbEntity
  8
0
  6
ByLayer
 62
  256
370
   -1
100
AcDbLine
 10
-6.082048698769654
 20
79.24997687075438
 11
-5.764211453574092
 21
78.83576330838116
  0
LINE
  5
144
100
AcDbEntity
  8
0
  6
ByLayer
 62
  256
370
   -1
100
AcDbLine
 10
-5.764211453574092
 20
78.83576330838116
 11
-5.349997891200985
 21
78.51792606318548
  0
LINE
  5
145
100
AcDbEntity
  8
0
  6
ByLayer
 62
  256
370
   -1
100
AcDbLine
 10
-5.349997891200985
 20
78.51792606318548
 11
-4.867635981405954
 21
78.31812521817628
  0
LINE
  5
146
100
AcDbEntity
  8
0
  6
ByLayer
 62
  256
370
   -1
100
AcDbLine
 10
-4.867635981405954
 20
78.31812521817628
 11
-4.349997891200985
 21
78.24997687075438
  0
LINE
  5
147
100
AcDbEntity
  8
0
  6
ByLayer
 62
  256
370
   -1
100
AcDbLine
 10
-4.349997891200758
 20
54.44998697225218
 11
-4.867635981405954
 21
54.51813531967397
  0
LINE
  5
148
100
AcDbEntity
  8
0
  6
ByLayer
 62
  256
370
   -1
100
AcDbLine
 10
-4.867635981405954
 20
54.51813531967397
 11
-5.349997891200871
 21
54.71793616468327
  0
LINE
  5
149
100
AcDbEntity
  8
0
  6
ByLayer
 62
  256
370
   -1
100
AcDbLine
 10
-5.349997891200871
 20
54.71793616468327
 11
-5.764211453573978
 21
55.03577340987907
  0
LINE
  5
14A
100
AcDbEntity
  8
0
  6
ByLayer
 62
  256
370
   -1
100
AcDbLine
 10
-5.764211453573978
 20
55.03577340987907
 11
-6.082048698769597
 21
55.44998697225218
  0
LINE
  5
14B
100
AcDbEntity
  8
0
  6
ByLayer
 62
  256
370
   -1
100
AcDbLine
 10
-6.082048698769597
 20
55.44998697225218
 11
-6.281849543779003
 21
55.93234888204718
  0
LINE
  5
14C
100
AcDbEntity
  8
0
  6
ByLayer
 62
  256
370
   -1
100
AcDbLine
 10
-6.349997891200758
 20
56.44998697225228
 11
-6.349997891200474
 21
61.24998293735317
  0
LINE
  5
14D
100
AcDbEntity
  8
0
  6
ByLayer
 62
  256
370
   -1
100
AcDbLine
 10
-6.281849543779003
 20
55.93234888204718
 11
-6.349997891200758
 21
56.44998697225228
  0
LINE
  5
14E
100
AcDbEntity
  8
0
  6
ByLayer
 62
  256
370
   -1
100
AcDbLine
 10
-4.34999789120036
 20
63.24998293735307
 11
-1.70530256582424e-13
 21
63.24998293735287
  0
LINE
  5
14F
100
AcDbEntity
  8
0
  6
ByLayer
 62
  256
370
   -1
100
AcDbLine
 10
-4.34999789120036
 20
63.24998293735307
 11
-4.867635981405499
 21
63.18183458993127
  0
LINE
  5
150
100
AcDbEntity
  8
0
  6
ByLayer
 62
  256
370
   -1
100
AcDbLine
 10
-4.867635981405499
 20
63.18183458993127
 11
-5.34999789120036
 21
62.98203374492198
  0
LINE
  5
151
100
AcDbEntity
  8
0
  6
ByLayer
 62
  256
370
   -1
100
AcDbLine
 10
-5.34999789120036
 20
62.98203374492198
 11
-5.764211453573466
 21
62.66419649972627
  0
LINE
  5
152
100
AcDbEntity
  8
0
  6
ByLayer
 62
  256
370
   -1
100
AcDbLine
 10
-5.764211453573466
 20
62.66419649972627
 11
-6.08204869876937
 21
62.24998293735317
  0
LINE
  5
153
100
AcDbEntity
  8
0
  6
ByLayer
 62
  256
370
   -1
100
AcDbLine
 10
-6.08204869876937
 20
62.24998293735317
 11
-6.281849543778605
 21
61.76762102755828
  0
LINE
  5
154
100
AcDbEntity
  8
0
  6
ByLayer
 62
  256
370
   -1
100
AcDbLine
 10
-6.281849543778605
 20
61.76762102755828
 11
-6.349997891200474
 21
61.24998293735317
  0
LINE
  5
155
100
AcDbEntity
  8
0
  6
ByLayer
 62
  256
370
   -1
100
AcDbLine
 10
-6.349997891200758
 20
293.1499087427679
 11
-6.349997891200871
 21
297.9499031849699
  0
LINE
  5
156
100
AcDbEntity
  8
0
  6
ByLayer
 62
  256
370
   -1
100
AcDbLine
 10
-6.349997891200758
 20
293.1499087427679
 11
-6.28184954377889
 21
292.632270652563
  0
LINE
  5
157
100
AcDbEntity
  8
0
  6
ByLayer
 62
  256
370
   -1
100
AcDbLine
 10
-6.28184954377889
 20
292.632270652563
 11
-6.082048698769597
 21
292.1499087427679
  0
LINE
  5
158
100
AcDbEntity
  8
0
  6
ByLayer
 62
  256
370
   -1
100
AcDbLine
 10
-6.082048698769597
 20
292.1499087427679
 11
-5.764211453573864
 21
291.7356951803948
  0
LINE
  5
159
100
AcDbEntity
  8
0
  6
ByLayer
 62
  256
370
   -1
100
AcDbLine
 10
-5.764211453573864
 20
291.7356951803948
 11
-5.349997891200758
 21
291.4178579351992
  0
LINE
  5
15A
100
AcDbEntity
  8
0
  6
ByLayer
 62
  256
370
   -1
100
AcDbLine
 10
-5.349997891200758
 20
291.4178579351992
 11
-4.86763598140567
 21
291.2180570901899
  0
LINE
  5
15B
100
AcDbEntity
  8
0
  6
ByLayer
 62
  256
370
   -1
100
AcDbLine
 10
-4.86763598140567
 20
291.2180570901899
 11
-4.349997891200758
 21
291.1499087427679
  0
LINE
  5
15C
100
AcDbEntity
  8
0
  6
ByLayer
 62
  256
370
   -1
100
AcDbLine
 10
283.1499093152186
 20
56.44998324705267
 11
283.0817609677967
 21
55.93234515684757
  0
LINE
  5
15D
100
AcDbEntity
  8
0
  6
ByLayer
 62
  256
370
   -1
100
AcDbLine
 10
283.0817609677967
 20
55.93234515684757
 11
282.8819601227876
 21
55.44998324705257
  0
LINE
  5
15E
100
AcDbEntity
  8
0
  6
ByLayer
 62
  256
370
   -1
100
AcDbLine
 10
282.8819601227876
 20
55.44998324705257
 11
282.5641228775918
 21
55.03576968467948
  0
LINE
  5
15F
100
AcDbEntity
  8
0
  6
ByLayer
 62
  256
370
   -1
100
AcDbLine
 10
282.5641228775918
 20
55.03576968467948
 11
282.1499093152186
 21
54.71793243948368
  0
LINE
  5
160
100
AcDbEntity
  8
0
  6
ByLayer
 62
  256
370
   -1
100
AcDbLine
 10
282.1499093152186
 20
54.71793243948368
 11
281.6675474054235
 21
54.51813159447437
  0
LINE
  5
161
100
AcDbEntity
  8
0
  6
ByLayer
 62
  256
370
   -1
100
AcDbLine
 10
281.1499093152185
 20
54.44998324705257
 11
276.7999114240175
 21
54.44998324705267
  0
LINE
  5
162
100
AcDbEntity
  8
0
  6
ByLayer
 62
  256
370
   -1
100
AcDbLine
 10
281.6675474054235
 20
54.51813159447437
 11
281.1499093152185
 21
54.44998324705257
  0
LINE
  5
163
100
AcDbEntity
  8
0
  6
ByLayer
 62
  256
370
   -1
100
AcDbLine
 10
82.49997096925614
 20
-6.599997891201234
 11
77.69997652705416
 21
-6.599997891201305
  0
LINE
  5
164
100
AcDbEntity
  8
0
  6
ByLayer
 62
  256
370
   -1
100
AcDbLine
 10
82.49997096925614
 20
-6.599997891201234
 11
83.01760905946122
 21
-6.531849543779366
  0
LINE
  5
165
100
AcDbEntity
  8
0
  6
ByLayer
 62
  256
370
   -1
100
AcDbLine
 10
83.01760905946122
 20
-6.531849543779366
 11
83.49997096925614
 21
-6.33204869877008
  0
LINE
  5
166
100
AcDbEntity
  8
0
  6
ByLayer
 62
  256
370
   -1
100
AcDbLine
 10
83.49997096925614
 20
-6.33204869877008
 11
83.91418453162925
 21
-6.014211453574369
  0
LINE
  5
167
100
AcDbEntity
  8
0
  6
ByLayer
 62
  256
370
   -1
100
AcDbLine
 10
83.91418453162925
 20
-6.014211453574369
 11
84.23202177682509
 21
-5.59999789120122
  0
LINE
  5
168
100
AcDbEntity
  8
0
  6
ByLayer
 62
  256
370
   -1
100
AcDbLine
 10
84.23202177682509
 20
-5.59999789120122
 11
84.43182262183433
 21
-5.117635981406345
  0
LINE
  5
169
100
AcDbEntity
  8
0
  6
ByLayer
 62
  256
370
   -1
100
AcDbLine
 10
84.43182262183433
 20
-5.117635981406345
 11
84.49997096925614
 21
-4.599997891201205
  0
LINE
  5
16A
100
AcDbEntity
  8
0
  6
ByLayer
 62
  256
370
   -1
100
AcDbLine
 10
75.69997652705416
 20
-4.599997891201205
 11
75.69997652705439
 21
-0.25
  0
LINE
  5
16B
100
AcDbEntity
  8
0
  6
ByLayer
 62
  256
370
   -1
100
AcDbLine
 10
75.69997652705416
 20
-4.599997891201205
 11
75.76812487447597
 21
-5.117635981406345
  0
LINE
  5
16C
100
AcDbEntity
  8
0
  6
ByLayer
 62
  256
370
   -1
100
AcDbLine
 10
75.76812487447597
 20
-5.117635981406345
 11
75.96792571948521
 21
-5.59999789120122
  0
LINE
  5
16D
100
AcDbEntity
  8
0
  6
ByLayer
 62
  256
370
   -1
100
AcDbLine
 10
75.96792571948521
 20
-5.59999789120122
 11
76.28576296468106
 21
-6.01421145357444
  0
LINE
  5
16E
100
AcDbEntity
  8
0
  6
ByLayer
 62
  256
370
   -1
100
AcDbLine
 10
76.28576296468106
 20
-6.01421145357444
 11
76.69997652705416
 21
-6.332048698770215
  0
LINE
  5
16F
100
AcDbEntity
  8
0
  6
ByLayer
 62
  256
370
   -1
100
AcDbLine
 10
76.69997652705416
 20
-6.332048698770215
 11
77.18233843684919
 21
-6.531849543779508
  0
LINE
  5
170
100
AcDbEntity
  8
0
  6
ByLayer
 62
  256
370
   -1
100
AcDbLine
 10
77.18233843684919
 20
-6.531849543779508
 11
77.69997652705416
 21
-6.599997891201305
  0
LINE
  5
171
100
AcDbEntity
  8
0
  6
ByLayer
 62
  256
370
   -1
100
AcDbLine
 10
-4.349997891201156
 20
87.04997131295616
 11
0
 21
87.04997131295616
  0
LINE
  5
172
100
AcDbEntity
  8
0
  6
ByLayer
 62
  256
370
   -1
100
AcDbLine
 10
-4.349997891201156
 20
87.04997131295616
 11
-4.867635981406295
 21
86.98182296553438
  0
LINE
  5
173
100
AcDbEntity
  8
0
  6
ByLayer
 62
  256
370
   -1
100
AcDbLine
 10
-4.867635981406295
 20
86.98182296553438
 11
-5.349997891201099
 21
86.78202212052508
  0
LINE
  5
174
100
AcDbEntity
  8
0
  6
ByLayer
 62
  256
370
   -1
100
AcDbLine
 10
-5.349997891201099
 20
86.78202212052508
 11
-5.764211453574262
 21
86.46418487532927
  0
LINE
  5
175
100
AcDbEntity
  8
0
  6
ByLayer
 62
  256
370
   -1
100
AcDbLine
 10
-5.764211453574262
 20
86.46418487532927
 11
-6.082048698770109
 21
86.04997131295616
  0
LINE
  5
176
100
AcDbEntity
  8
0
  6
ByLayer
 62
  256
370
   -1
100
AcDbLine
 10
-6.082048698770109
 20
86.04997131295616
 11
-6.281849543779288
 21
85.56760940316119
  0
LINE
  5
177
100
AcDbEntity
  8
0
  6
ByLayer
 62
  256
370
   -1
100
AcDbLine
 10
-6.281849543779288
 20
85.56760940316119
 11
-6.349997891201099
 21
85.04997131295616
  0
LINE
  5
178
100
AcDbEntity
  8
0
  6
ByLayer
 62
  256
370
   -1
100
AcDbLine
 10
281.1499093152182
 20
291.1499034946696
 11
276.7999114240177
 21
291.1499034946697
  0
LINE
  5
179
100
AcDbEntity
  8
0
  6
ByLayer
 62
  256
370
   -1
100
AcDbLine
 10
281.1499093152182
 20
291.1499034946696
 11
281.6675474054231
 21
291.2180518420914
  0
LINE
  5
17A
100
AcDbEntity
  8
0
  6
ByLayer
 62
  256
370
   -1
100
AcDbLine
 10
281.6675474054231
 20
291.2180518420914
 11
282.1499093152181
 21
291.4178526871005
  0
LINE
  5
17B
100
AcDbEntity
  8
0
  6
ByLayer
 62
  256
370
   -1
100
AcDbLine
 10
282.1499093152181
 20
291.4178526871005
 11
282.5641228775912
 21
291.7356899322964
  0
LINE
  5
17C
100
AcDbEntity
  8
0
  6
ByLayer
 62
  256
370
   -1
100
AcDbLine
 10
282.5641228775912
 20
291.7356899322964
 11
282.8819601227868
 21
292.1499034946694
  0
LINE
  5
17D
100
AcDbEntity
  8
0
  6
ByLayer
 62
  256
370
   -1
100
AcDbLine
 10
282.8819601227868
 20
292.1499034946694
 11
283.0817609677962
 21
292.6322654044644
  0
LINE
  5
17E
100
AcDbEntity
  8
0
  6
ByLayer
 62
  256
370
   -1
100
AcDbLine
 10
283.0817609677962
 20
292.6322654044644
 11
283.1499093152179
 21
293.1499034946694
  0
LINE
  5
17F
100
AcDbEntity
  8
0
  6
ByLayer
 62
  256
370
   -1
100
AcDbLine
 10
283.1499093152184
 20
274.1499095612683
 11
283.1499093152187
 21
269.3499151190663
  0
LINE
  5
180
100
AcDbEntity
  8
0
  6
ByLayer
 62
  256
370
   -1
100
AcDbLine
 10
283.1499093152184
 20
274.1499095612683
 11
283.0817609677967
 21
274.6675476514732
  0
LINE
  5
181
100
AcDbEntity
  8
0
  6
ByLayer
 62
  256
370
   -1
100
AcDbLine
 10
283.0817609677967
 20
274.6675476514732
 11
282.8819601227875
 21
275.149909561268
  0
LINE
  5
182
100
AcDbEntity
  8
0
  6
ByLayer
 62
  256
370
   -1
100
AcDbLine
 10
282.8819601227875
 20
275.149909561268
 11
282.5641228775915
 21
275.5641231236413
  0
LINE
  5
183
100
AcDbEntity
  8
0
  6
ByLayer
 62
  256
370
   -1
100
AcDbLine
 10
282.5641228775915
 20
275.5641231236413
 11
282.1499093152184
 21
275.881960368837
  0
LINE
  5
184
100
AcDbEntity
  8
0
  6
ByLayer
 62
  256
370
   -1
100
AcDbLine
 10
282.1499093152184
 20
275.881960368837
 11
281.6675474054235
 21
276.0817612138462
  0
LINE
  5
185
100
AcDbEntity
  8
0
  6
ByLayer
 62
  256
370
   -1
100
AcDbLine
 10
281.6675474054235
 20
276.0817612138462
 11
281.1499093152185
 21
276.149909561268
  0
LINE
  5
186
100
AcDbEntity
  8
0
  6
ByLayer
 62
  256
370
   -1
100
AcDbLine
 10
281.1499093152186
 20
267.3499151190662
 11
276.7999114240177
 21
267.3499151190663
  0
LINE
  5
187
100
AcDbEntity
  8
0
  6
ByLayer
 62
  256
370
   -1
100
AcDbLine
 10
281.1499093152186
 20
267.3499151190662
 11
281.6675474054238
 21
267.418063466488
  0
LINE
  5
188
100
AcDbEntity
  8
0
  6
ByLayer
 62
  256
370
   -1
100
AcDbLine
 10
281.6675474054238
 20
267.418063466488
 11
282.1499093152187
 21
267.6178643114973
  0
LINE
  5
189
100
AcDbEntity
  8
0
  6
ByLayer
 62
  256
370
   -1
100
AcDbLine
 10
282.1499093152187
 20
267.6178643114973
 11
282.5641228775918
 21
267.9357015566932
  0
LINE
  5
18A
100
AcDbEntity
  8
0
  6
ByLayer
 62
  256
370
   -1
100
AcDbLine
 10
282.5641228775918
 20
267.9357015566932
 11
282.8819601227877
 21
268.3499151190662
  0
LINE
  5
18B
100
AcDbEntity
  8
0
  6
ByLayer
 62
  256
370
   -1
100
AcDbLine
 10
282.8819601227877
 20
268.3499151190662
 11
283.0817609677968
 21
268.8322770288613
  0
LINE
  5
18C
100
AcDbEntity
  8
0
  6
ByLayer
 62
  256
370
   -1
100
AcDbLine
 10
283.0817609677968
 20
268.8322770288613
 11
283.1499093152187
 21
269.3499151190663
  0
LINE
  5
18D
100
AcDbEntity
  8
0
  6
ByLayer
 62
  256
370
   -1
100
AcDbLine
 10
106.2999608677583
 20
-6.599997891200807
 11
101.4999649026573
 21
-6.599997891200807
  0
LINE
  5
18E
100
AcDbEntity
  8
0
  6
ByLayer
 62
  256
370
   -1
100
AcDbLine
 10
106.2999608677583
 20
-6.599997891200807
 11
106.8175989579633
 21
-6.531849543778939
  0
LINE
  5
18F
100
AcDbEntity
  8
0
  6
ByLayer
 62
  256
370
   -1
100
AcDbLine
 10
106.8175989579633
 20
-6.531849543778939
 11
107.2999608677583
 21
-6.332048698769647
  0
LINE
  5
190
100
AcDbEntity
  8
0
  6
ByLayer
 62
  256
370
   -1
100
AcDbLine
 10
107.2999608677583
 20
-6.332048698769647
 11
107.7141744301313
 21
-6.014211453573864
  0
LINE
  5
191
100
AcDbEntity
  8
0
  6
ByLayer
 62
  256
370
   -1
100
AcDbLine
 10
107.7141744301313
 20
-6.014211453573864
 11
108.0320116753272
 21
-5.599997891200864
  0
LINE
  5
192
100
AcDbEntity
  8
0
  6
ByLayer
 62
  256
370
   -1
100
AcDbLine
 10
108.0320116753272
 20
-5.599997891200864
 11
108.2318125203364
 21
-5.117635981405847
  0
LINE
  5
193
100
AcDbEntity
  8
0
  6
ByLayer
 62
  256
370
   -1
100
AcDbLine
 10
108.2318125203364
 20
-5.117635981405847
 11
108.2999608677583
 21
-4.59999789120085
  0
LINE
  5
194
100
AcDbEntity
  8
0
  6
ByLayer
 62
  256
370
   -1
100
AcDbLine
 10
-6.349997891200758
 20
186.699942806761
 11
-6.349997891200871
 21
191.499937248963
  0
LINE
  5
195
100
AcDbEntity
  8
0
  6
ByLayer
 62
  256
370
   -1
100
AcDbLine
 10
-6.349997891200758
 20
186.699942806761
 11
-6.28184954377889
 21
186.182304716556
  0
LINE
  5
196
100
AcDbEntity
  8
0
  6
ByLayer
 62
  256
370
   -1
100
AcDbLine
 10
-6.28184954377889
 20
186.182304716556
 11
-6.082048698769597
 21
185.6999428067611
  0
LINE
  5
197
100
AcDbEntity
  8
0
  6
ByLayer
 62
  256
370
   -1
100
AcDbLine
 10
-6.082048698769597
 20
185.6999428067611
 11
-5.764211453573864
 21
185.285729244388
  0
LINE
  5
198
100
AcDbEntity
  8
0
  6
ByLayer
 62
  256
370
   -1
100
AcDbLine
 10
-5.764211453573864
 20
185.285729244388
 11
-5.349997891200758
 21
184.9678919991923
  0
LINE
  5
199
100
AcDbEntity
  8
0
  6
ByLayer
 62
  256
370
   -1
100
AcDbLine
 10
-5.349997891200758
 20
184.9678919991923
 11
-4.867635981405954
 21
184.768091154183
  0
LINE
  5
19A
100
AcDbEntity
  8
0
  6
ByLayer
 62
  256
370
   -1
100
AcDbLine
 10
-4.867635981405954
 20
184.768091154183
 11
-4.349997891200871
 21
184.6999428067611
  0
LINE
  5
19B
100
AcDbEntity
  8
0
  6
ByLayer
 62
  256
370
   -1
100
AcDbLine
 10
99.49996490265727
 20
-4.599997891200708
 11
99.49996490265738
 21
-0.25
  0
LINE
  5
19C
100
AcDbEntity
  8
0
  6
ByLayer
 62
  256
370
   -1
100
AcDbLine
 10
99.49996490265727
 20
-4.599997891200708
 11
99.56811325007908
 21
-5.117635981405705
  0
LINE
  5
19D
100
AcDbEntity
  8
0
  6
ByLayer
 62
  256
370
   -1
100
AcDbLine
 10
99.56811325007908
 20
-5.117635981405705
 11
99.76791409508832
 21
-5.599997891200864
  0
LINE
  5
19E
100
AcDbEntity
  8
0
  6
ByLayer
 62
  256
370
   -1
100
AcDbLine
 10
99.76791409508832
 20
-5.599997891200864
 11
100.0857513402843
 21
-6.014211453573864
  0
LINE
  5
19F
100
AcDbEntity
  8
0
  6
ByLayer
 62
  256
370
   -1
100
AcDbLine
 10
100.0857513402843
 20
-6.014211453573864
 11
100.4999649026573
 21
-6.332048698769647
  0
LINE
  5
1A0
100
AcDbEntity
  8
0
  6
ByLayer
 62
  256
370
   -1
100
AcDbLine
 10
100.4999649026573
 20
-6.332048698769647
 11
100.9823268124522
 21
-6.531849543778939
  0
LINE
  5
1A1
100
AcDbEntity
  8
0
  6
ByLayer
 62
  256
370
   -1
100
AcDbLine
 10
100.9823268124522
 20
-6.531849543778939
 11
101.4999649026573
 21
-6.599997891200807
  0
LINE
  5
1A2
100
AcDbEntity
  8
0
  6
ByLayer
 62
  256
370
   -1
100
AcDbLine
 10
-4.349997891200871
 20
193.4999372489631
 11
3.410605131648481e-13
 21
193.4999372489628
  0
LINE
  5
1A3
100
AcDbEntity
  8
0
  6
ByLayer
 62
  256
370
   -1
100
AcDbLine
 10
-4.349997891200871
 20
193.4999372489631
 11
-4.867635981405954
 21
193.4317889015412
  0
LINE
  5
1A4
100
AcDbEntity
  8
0
  6
ByLayer
 62
  256
370
   -1
100
AcDbLine
 10
-4.867635981405954
 20
193.4317889015412
 11
-5.349997891200985
 21
193.2319880565319
  0
LINE
  5
1A5
100
AcDbEntity
  8
0
  6
ByLayer
 62
  256
370
   -1
100
AcDbLine
 10
-5.349997891200985
 20
193.2319880565319
 11
-5.764211453574092
 21
192.9141508113362
  0
LINE
  5
1A6
100
AcDbEntity
  8
0
  6
ByLayer
 62
  256
370
   -1
100
AcDbLine
 10
-5.764211453574092
 20
192.9141508113362
 11
-6.082048698769768
 21
192.4999372489631
  0
LINE
  5
1A7
100
AcDbEntity
  8
0
  6
ByLayer
 62
  256
370
   -1
100
AcDbLine
 10
-6.082048698769768
 20
192.4999372489631
 11
-6.281849543779174
 21
192.0175753391681
  0
LINE
  5
1A8
100
AcDbEntity
  8
0
  6
ByLayer
 62
  256
370
   -1
100
AcDbLine
 10
-6.281849543779174
 20
192.0175753391681
 11
-6.349997891200871
 21
191.499937248963
  0
LINE
  5
1A9
100
AcDbEntity
  8
0
  6
ByLayer
 62
  256
370
   -1
100
AcDbLine
 10
-4.349997891200871
 20
299.94990318497
 11
3.410605131648481e-13
 21
299.9499031849697
  0
LINE
  5
1AA
100
AcDbEntity
  8
0
  6
ByLayer
 62
  256
370
   -1
100
AcDbLine
 10
-4.349997891200871
 20
299.94990318497
 11
-4.867635981405954
 21
299.8817548375481
  0
LINE
  5
1AB
100
AcDbEntity
  8
0
  6
ByLayer
 62
  256
370
   -1
100
AcDbLine
 10
-4.867635981405954
 20
299.8817548375481
 11
-5.349997891200871
 21
299.6819539925388
  0
LINE
  5
1AC
100
AcDbEntity
  8
0
  6
ByLayer
 62
  256
370
   -1
100
AcDbLine
 10
-5.349997891200871
 20
299.6819539925388
 11
-5.764211453573978
 21
299.364116747343
  0
LINE
  5
1AD
100
AcDbEntity
  8
0
  6
ByLayer
 62
  256
370
   -1
100
AcDbLine
 10
-5.764211453573978
 20
299.364116747343
 11
-6.082048698769654
 21
298.94990318497
  0
LINE
  5
1AE
100
AcDbEntity
  8
0
  6
ByLayer
 62
  256
370
   -1
100
AcDbLine
 10
-6.082048698769654
 20
298.94990318497
 11
-6.28184954377906
 21
298.4675412751749
  0
LINE
  5
1AF
100
AcDbEntity
  8
0
  6
ByLayer
 62
  256
370
   -1
100
AcDbLine
 10
-6.28184954377906
 20
298.4675412751749
 11
-6.349997891200871
 21
297.9499031849699
  0
LINE
  5
1B0
100
AcDbEntity
  8
0
  6
ByLayer
 62
  256
370
   -1
100
AcDbLine
 10
-4.349997891200189
 20
276.1499148093667
 11
0
 21
276.1499148093665
  0
LINE
  5
1B1
100
AcDbEntity
  8
0
  6
ByLayer
 62
  256
370
   -1
100
AcDbLine
 10
-4.349997891200189
 20
276.1499148093667
 11
-4.867635981405272
 21
276.0817664619449
  0
LINE
  5
1B2
100
AcDbEntity
  8
0
  6
ByLayer
 62
  256
370
   -1
100
AcDbLine
 10
-4.867635981405272
 20
276.0817664619449
 11
-5.349997891200303
 21
275.8819656169356
  0
LINE
  5
1B3
100
AcDbEntity
  8
0
  6
ByLayer
 62
  256
370
   -1
100
AcDbLine
 10
-5.349997891200303
 20
275.8819656169356
 11
-5.764211453573296
 21
275.5641283717399
  0
LINE
  5
1B4
100
AcDbEntity
  8
0
  6
ByLayer
 62
  256
370
   -1
100
AcDbLine
 10
-5.764211453573296
 20
275.5641283717399
 11
-6.082048698769256
 21
275.1499148093668
  0
LINE
  5
1B5
100
AcDbEntity
  8
0
  6
ByLayer
 62
  256
370
   -1
100
AcDbLine
 10
-6.082048698769256
 20
275.1499148093668
 11
-6.281849543778492
 21
274.6675528995719
  0
LINE
  5
1B6
100
AcDbEntity
  8
0
  6
ByLayer
 62
  256
370
   -1
100
AcDbLine
 10
-6.281849543778492
 20
274.6675528995719
 11
-6.34999789120036
 21
274.1499148093668
  0
LINE
  5
1B7
100
AcDbEntity
  8
0
  6
ByLayer
 62
  256
370
   -1
100
AcDbLine
 10
281.1499093152184
 20
299.9498994597703
 11
281.6675474054235
 21
299.8817511123485
  0
LINE
  5
1B8
100
AcDbEntity
  8
0
  6
ByLayer
 62
  256
370
   -1
100
AcDbLine
 10
281.6675474054235
 20
299.8817511123485
 11
282.1499093152184
 21
299.6819502673392
  0
LINE
  5
1B9
100
AcDbEntity
  8
0
  6
ByLayer
 62
  256
370
   -1
100
AcDbLine
 10
282.1499093152184
 20
299.6819502673392
 11
282.5641228775914
 21
299.3641130221433
  0
LINE
  5
1BA
100
AcDbEntity
  8
0
  6
ByLayer
 62
  256
370
   -1
100
AcDbLine
 10
282.5641228775914
 20
299.3641130221433
 11
282.8819601227872
 21
298.9498994597702
  0
LINE
  5
1BB
100
AcDbEntity
  8
0
  6
ByLayer
 62
  256
370
   -1
100
AcDbLine
 10
282.8819601227872
 20
298.9498994597702
 11
283.0817609677964
 21
298.4675375499754
  0
LINE
  5
1BC
100
AcDbEntity
  8
0
  6
ByLayer
 62
  256
370
   -1
100
AcDbLine
 10
283.1499093152183
 20
297.9498994597702
 11
283.1499093152179
 21
293.1499034946694
  0
LINE
  5
1BD
100
AcDbEntity
  8
0
  6
ByLayer
 62
  256
370
   -1
100
AcDbLine
 10
283.0817609677964
 20
298.4675375499754
 11
283.1499093152183
 21
297.9498994597702
  0
LINE
  5
1BE
100
AcDbEntity
  8
0
  6
ByLayer
 62
  256
370
   -1
100
AcDbLine
 10
194.299935206663
 20
-6.599997891200807
 11
193.782297116458
 21
-6.531849543778939
  0
LINE
  5
1BF
100
AcDbEntity
  8
0
  6
ByLayer
 62
  256
370
   -1
100
AcDbLine
 10
193.782297116458
 20
-6.531849543778939
 11
193.2999352066632
 21
-6.332048698769718
  0
LINE
  5
1C0
100
AcDbEntity
  8
0
  6
ByLayer
 62
  256
370
   -1
100
AcDbLine
 10
193.2999352066632
 20
-6.332048698769718
 11
192.8857216442901
 21
-6.014211453573949
  0
LINE
  5
1C1
100
AcDbEntity
  8
0
  6
ByLayer
 62
  256
370
   -1
100
AcDbLine
 10
192.8857216442901
 20
-6.014211453573949
 11
192.5678843990942
 21
-5.599997891200864
  0
LINE
  5
1C2
100
AcDbEntity
  8
0
  6
ByLayer
 62
  256
370
   -1
100
AcDbLine
 10
192.5678843990942
 20
-5.599997891200864
 11
192.368083554085
 21
-5.117635981405847
  0
LINE
  5
1C3
100
AcDbEntity
  8
0
  6
ByLayer
 62
  256
370
   -1
100
AcDbLine
 10
192.2999352066631
 20
-4.59999789120085
 11
192.2999352066631
 21
-0.2500000000001421
  0
LINE
  5
1C4
100
AcDbEntity
  8
0
  6
ByLayer
 62
  256
370
   -1
100
AcDbLine
 10
192.368083554085
 20
-5.117635981405847
 11
192.2999352066631
 21
-4.59999789120085
  0
LINE
  5
1C5
100
AcDbEntity
  8
0
  6
ByLayer
 62
  256
370
   -1
100
AcDbLine
 10
283.1499093152184
 20
61.24997768925438
 11
283.1499093152186
 21
56.44998324705267
  0
LINE
  5
1C6
100
AcDbEntity
  8
0
  6
ByLayer
 62
  256
370
   -1
100
AcDbLine
 10
283.1499093152184
 20
61.24997768925438
 11
283.0817609677966
 21
61.76761577945938
  0
LINE
  5
1C7
100
AcDbEntity
  8
0
  6
ByLayer
 62
  256
370
   -1
100
AcDbLine
 10
283.0817609677966
 20
61.76761577945938
 11
282.8819601227872
 21
62.24997768925428
  0
LINE
  5
1C8
100
AcDbEntity
  8
0
  6
ByLayer
 62
  256
370
   -1
100
AcDbLine
 10
282.8819601227872
 20
62.24997768925428
 11
282.5641228775915
 21
62.66419125162737
  0
LINE
  5
1C9
100
AcDbEntity
  8
0
  6
ByLayer
 62
  256
370
   -1
100
AcDbLine
 10
282.5641228775915
 20
62.66419125162737
 11
282.1499093152184
 21
62.98202849682318
  0
LINE
  5
1CA
100
AcDbEntity
  8
0
  6
ByLayer
 62
  256
370
   -1
100
AcDbLine
 10
282.1499093152184
 20
62.98202849682318
 11
281.6675474054235
 21
63.18182934183247
  0
LINE
  5
1CB
100
AcDbEntity
  8
0
  6
ByLayer
 62
  256
370
   -1
100
AcDbLine
 10
281.6675474054235
 20
63.18182934183247
 11
281.1499093152185
 21
63.24997768925428
  0
LINE
  5
1CC
100
AcDbEntity
  8
0
  6
ByLayer
 62
  256
370
   -1
100
AcDbLine
 10
281.1499093152184
 20
87.04996758775667
 11
281.6675474054232
 21
86.98181924033477
  0
LINE
  5
1CD
100
AcDbEntity
  8
0
  6
ByLayer
 62
  256
370
   -1
100
AcDbLine
 10
281.6675474054232
 20
86.98181924033477
 11
282.1499093152184
 21
86.78201839532548
  0
LINE
  5
1CE
100
AcDbEntity
  8
0
  6
ByLayer
 62
  256
370
   -1
100
AcDbLine
 10
282.1499093152184
 20
86.78201839532548
 11
282.5641228775913
 21
86.46418115012966
  0
LINE
  5
1CF
100
AcDbEntity
  8
0
  6
ByLayer
 62
  256
370
   -1
100
AcDbLine
 10
282.5641228775913
 20
86.46418115012966
 11
282.8819601227871
 21
86.04996758775658
  0
LINE
  5
1D0
100
AcDbEntity
  8
0
  6
ByLayer
 62
  256
370
   -1
100
AcDbLine
 10
282.8819601227871
 20
86.04996758775658
 11
283.0817609677964
 21
85.56760567796158
  0
LINE
  5
1D1
100
AcDbEntity
  8
0
  6
ByLayer
 62
  256
370
   -1
100
AcDbLine
 10
283.1499093152183
 20
85.04996758775647
 11
283.1499093152179
 21
80.24997162265558
  0
LINE
  5
1D2
100
AcDbEntity
  8
0
  6
ByLayer
 62
  256
370
   -1
100
AcDbLine
 10
283.0817609677964
 20
85.56760567796158
 11
283.1499093152183
 21
85.04996758775647
  0
LINE
  5
1D3
100
AcDbEntity
  8
0
  6
ByLayer
 62
  256
370
   -1
100
AcDbLine
 10
283.1499093152179
 20
186.6999375586626
 11
283.0817609677961
 21
186.1822994684575
  0
LINE
  5
1D4
100
AcDbEntity
  8
0
  6
ByLayer
 62
  256
370
   -1
100
AcDbLine
 10
283.0817609677961
 20
186.1822994684575
 11
282.8819601227868
 21
185.6999375586626
  0
LINE
  5
1D5
100
AcDbEntity
  8
0
  6
ByLayer
 62
  256
370
   -1
100
AcDbLine
 10
282.8819601227868
 20
185.6999375586626
 11
282.564122877591
 21
185.2857239962895
  0
LINE
  5
1D6
100
AcDbEntity
  8
0
  6
ByLayer
 62
  256
370
   -1
100
AcDbLine
 10
282.564122877591
 20
185.2857239962895
 11
282.1499093152177
 21
184.9678867510937
  0
LINE
  5
1D7
100
AcDbEntity
  8
0
  6
ByLayer
 62
  256
370
   -1
100
AcDbLine
 10
282.1499093152177
 20
184.9678867510937
 11
281.667547405423
 21
184.7680859060845
  0
LINE
  5
1D8
100
AcDbEntity
  8
0
  6
ByLayer
 62
  256
370
   -1
100
AcDbLine
 10
281.1499093152178
 20
184.6999375586627
 11
276.7999114240177
 21
184.6999375586628
  0
LINE
  5
1D9
100
AcDbEntity
  8
0
  6
ByLayer
 62
  256
370
   -1
100
AcDbLine
 10
281.667547405423
 20
184.7680859060845
 11
281.1499093152178
 21
184.6999375586627
  0
LINE
  5
1DA
100
AcDbEntity
  8
0
  6
ByLayer
 62
  256
370
   -1
100
AcDbLine
 10
281.1499093152185
 20
169.6999436252613
 11
281.6675474054235
 21
169.6317952778394
  0
LINE
  5
1DB
100
AcDbEntity
  8
0
  6
ByLayer
 62
  256
370
   -1
100
AcDbLine
 10
281.6675474054235
 20
169.6317952778394
 11
282.1499093152184
 21
169.4319944328302
  0
LINE
  5
1DC
100
AcDbEntity
  8
0
  6
ByLayer
 62
  256
370
   -1
100
AcDbLine
 10
282.1499093152184
 20
169.4319944328302
 11
282.5641228775915
 21
169.1141571876344
  0
LINE
  5
1DD
100
AcDbEntity
  8
0
  6
ByLayer
 62
  256
370
   -1
100
AcDbLine
 10
282.5641228775915
 20
169.1141571876344
 11
282.8819601227875
 21
168.6999436252613
  0
LINE
  5
1DE
100
AcDbEntity
  8
0
  6
ByLayer
 62
  256
370
   -1
100
AcDbLine
 10
282.8819601227875
 20
168.6999436252613
 11
283.0817609677967
 21
168.2175817154664
  0
LINE
  5
1DF
100
AcDbEntity
  8
0
  6
ByLayer
 62
  256
370
   -1
100
AcDbLine
 10
283.1499093152184
 20
167.6999436252614
 11
283.1499093152187
 21
162.8999491830594
  0
LINE
  5
1E0
100
AcDbEntity
  8
0
  6
ByLayer
 62
  256
370
   -1
100
AcDbLine
 10
283.0817609677967
 20
168.2175817154664
 11
283.1499093152184
 21
167.6999436252614
  0
LINE
  5
1E1
100
AcDbEntity
  8
0
  6
ByLayer
 62
  256
370
   -1
100
AcDbLine
 10
-4.349997891200303
 20
169.6999488733599
 11
-5.684341886080801e-14
 21
169.6999488733595
  0
LINE
  5
1E2
100
AcDbEntity
  8
0
  6
ByLayer
 62
  256
370
   -1
100
AcDbLine
 10
-4.349997891200303
 20
169.6999488733599
 11
-4.867635981405272
 21
169.6318005259381
  0
LINE
  5
1E3
100
AcDbEntity
  8
0
  6
ByLayer
 62
  256
370
   -1
100
AcDbLine
 10
-4.867635981405272
 20
169.6318005259381
 11
-5.349997891200303
 21
169.4319996809288
  0
LINE
  5
1E4
100
AcDbEntity
  8
0
  6
ByLayer
 62
  256
370
   -1
100
AcDbLine
 10
-5.349997891200303
 20
169.4319996809288
 11
-5.764211453573466
 21
169.1141624357331
  0
LINE
  5
1E5
100
AcDbEntity
  8
0
  6
ByLayer
 62
  256
370
   -1
100
AcDbLine
 10
-5.764211453573466
 20
169.1141624357331
 11
-6.082048698769256
 21
168.6999488733599
  0
LINE
  5
1E6
100
AcDbEntity
  8
0
  6
ByLayer
 62
  256
370
   -1
100
AcDbLine
 10
-6.082048698769256
 20
168.6999488733599
 11
-6.281849543778605
 21
168.217586963565
  0
LINE
  5
1E7
100
AcDbEntity
  8
0
  6
ByLayer
 62
  256
370
   -1
100
AcDbLine
 10
-6.281849543778605
 20
168.217586963565
 11
-6.349997891200474
 21
167.6999488733599
  0
LINE
  5
1E8
100
AcDbEntity
  8
0
  6
ByLayer
 62
  256
370
   -1
100
AcDbLine
 10
199.0999311717638
 20
-6.59999789120117
 11
194.299935206663
 21
-6.599997891200807
  0
LINE
  5
1E9
100
AcDbEntity
  8
0
  6
ByLayer
 62
  256
370
   -1
100
AcDbLine
 10
199.0999311717638
 20
-6.59999789120117
 11
199.6175692619689
 21
-6.531849543779224
  0
LINE
  5
1EA
100
AcDbEntity
  8
0
  6
ByLayer
 62
  256
370
   -1
100
AcDbLine
 10
199.6175692619689
 20
-6.531849543779224
 11
200.0999311717639
 21
-6.33204869877008
  0
LINE
  5
1EB
100
AcDbEntity
  8
0
  6
ByLayer
 62
  256
370
   -1
100
AcDbLine
 10
200.0999311717639
 20
-6.33204869877008
 11
200.5141447341369
 21
-6.014211453574227
  0
LINE
  5
1EC
100
AcDbEntity
  8
0
  6
ByLayer
 62
  256
370
   -1
100
AcDbLine
 10
200.5141447341369
 20
-6.014211453574227
 11
200.8319819793329
 21
-5.599997891201149
  0
LINE
  5
1ED
100
AcDbEntity
  8
0
  6
ByLayer
 62
  256
370
   -1
100
AcDbLine
 10
200.8319819793329
 20
-5.599997891201149
 11
201.0317828243421
 21
-5.117635981406124
  0
LINE
  5
1EE
100
AcDbEntity
  8
0
  6
ByLayer
 62
  256
370
   -1
100
AcDbLine
 10
201.0317828243421
 20
-5.117635981406124
 11
201.099931171764
 21
-4.599997891201205
  0
LINE
  5
1EF
100
AcDbEntity
  8
0
  6
ByLayer
 62
  256
370
   -1
100
AcDbLine
 10
281.1499093152184
 20
193.4999335237635
 11
281.6675474054232
 21
193.4317851763417
  0
LINE
  5
1F0
100
AcDbEntity
  8
0
  6
ByLayer
 62
  256
370
   -1
100
AcDbLine
 10
281.6675474054232
 20
193.4317851763417
 11
282.1499093152184
 21
193.2319843313324
  0
LINE
  5
1F1
100
AcDbEntity
  8
0
  6
ByLayer
 62
  256
370
   -1
100
AcDbLine
 10
282.1499093152184
 20
193.2319843313324
 11
282.5641228775913
 21
192.9141470861366
  0
LINE
  5
1F2
100
AcDbEntity
  8
0
  6
ByLayer
 62
  256
370
   -1
100
AcDbLine
 10
282.5641228775913
 20
192.9141470861366
 11
282.8819601227871
 21
192.4999335237636
  0
LINE
  5
1F3
100
AcDbEntity
  8
0
  6
ByLayer
 62
  256
370
   -1
100
AcDbLine
 10
282.8819601227871
 20
192.4999335237636
 11
283.0817609677964
 21
192.0175716139685
  0
LINE
  5
1F4
100
AcDbEntity
  8
0
  6
ByLayer
 62
  256
370
   -1
100
AcDbLine
 10
283.1499093152183
 20
191.4999335237634
 11
283.1499093152179
 21
186.6999375586626
  0
LINE
  5
1F5
100
AcDbEntity
  8
0
  6
ByLayer
 62
  256
370
   -1
100
AcDbLine
 10
283.0817609677964
 20
192.0175716139685
 11
283.1499093152183
 21
191.4999335237634
  0
LINE
  5
1F6
100
AcDbEntity
  8
0
  6
ByLayer
 62
  256
370
   -1
100
AcDbLine
 10
-6.349997891200474
 20
162.8999529082591
 11
-6.349997891200474
 21
167.6999488733599
  0
LINE
  5
1F7
100
AcDbEntity
  8
0
  6
ByLayer
 62
  256
370
   -1
100
AcDbLine
 10
-6.349997891200474
 20
162.8999529082591
 11
-6.28184954377889
 21
162.3823148180541
  0
LINE
  5
1F8
100
AcDbEntity
  8
0
  6
ByLayer
 62
  256
370
   -1
100
AcDbLine
 10
-6.28184954377889
 20
162.3823148180541
 11
-6.082048698769597
 21
161.8999529082591
  0
LINE
  5
1F9
100
AcDbEntity
  8
0
  6
ByLayer
 62
  256
370
   -1
100
AcDbLine
 10
-6.082048698769597
 20
161.8999529082591
 11
-5.764211453573807
 21
161.4857393458859
  0
LINE
  5
1FA
100
AcDbEntity
  8
0
  6
ByLayer
 62
  256
370
   -1
100
AcDbLine
 10
-5.764211453573807
 20
161.4857393458859
 11
-5.349997891200701
 21
161.1679021006902
  0
LINE
  5
1FB
100
AcDbEntity
  8
0
  6
ByLayer
 62
  256
370
   -1
100
AcDbLine
 10
-5.349997891200701
 20
161.1679021006902
 11
-4.86763598140567
 21
160.9681012556809
  0
LINE
  5
1FC
100
AcDbEntity
  8
0
  6
ByLayer
 62
  256
370
   -1
100
AcDbLine
 10
-4.86763598140567
 20
160.9681012556809
 11
-4.349997891200701
 21
160.8999529082591
  0
LINE
  5
1FD
100
AcDbEntity
  8
0
  6
ByLayer
 62
  256
370
   -1
100
AcDbLine
 10
-6.349997891200474
 20
269.349918844266
 11
-6.34999789120036
 21
274.1499148093668
  0
LINE
  5
1FE
100
AcDbEntity
  8
0
  6
ByLayer
 62
  256
370
   -1
100
AcDbLine
 10
-6.349997891200474
 20
269.349918844266
 11
-6.281849543778605
 21
268.8322807540609
  0
LINE
  5
1FF
100
AcDbEntity
  8
0
  6
ByLayer
 62
  256
370
   -1
100
AcDbLine
 10
-6.281849543778605
 20
268.8322807540609
 11
-6.08204869876937
 21
268.3499188442659
  0
LINE
  5
200
100
AcDbEntity
  8
0
  6
ByLayer
 62
  256
370
   -1
100
AcDbLine
 10
-6.08204869876937
 20
268.3499188442659
 11
-5.764211453573694
 21
267.9357052818928
  0
LINE
  5
201
100
AcDbEntity
  8
0
  6
ByLayer
 62
  256
370
   -1
100
AcDbLine
 10
-5.764211453573694
 20
267.9357052818928
 11
-5.349997891200474
 21
267.617868036697
  0
LINE
  5
202
100
AcDbEntity
  8
0
  6
ByLayer
 62
  256
370
   -1
100
AcDbLine
 10
-5.349997891200474
 20
267.617868036697
 11
-4.867635981405499
 21
267.4180671916877
  0
LINE
  5
203
100
AcDbEntity
  8
0
  6
ByLayer
 62
  256
370
   -1
100
AcDbLine
 10
-4.867635981405499
 20
267.4180671916877
 11
-4.349997891200474
 21
267.3499188442659
  0
LINE
  5
204
100
AcDbEntity
  8
0
  6
ByLayer
 62
  256
370
   -1
100
AcDbLine
 10
3.410605131648481e-13
 20
267.3499188442656
 11
-4.349997891200474
 21
267.3499188442659
  0
LINE
  5
205
100
AcDbEntity
  8
0
  6
ByLayer
 62
  256
370
   -1
100
AcDbLine
 10
271.4999126022174
 20
179.3999455518598
 11
271.4999126022173
 21
181.1999437837604
  0
LINE
  5
206
100
AcDbEntity
  8
0
  6
ByLayer
 62
  256
370
   -1
100
AcDbLine
 10
0
 20
276.1499148093665
 11
0
 21
281.4499068161693
  0
LINE
  5
207
100
AcDbEntity
  8
0
  6
ByLayer
 62
  256
370
   -1
100
AcDbLine
 10
84.49997621735434
 20
329.649894432021
 11
89.79996822415711
 21
329.649894432021
  0
LINE
  5
208
100
AcDbEntity
  8
0
  6
ByLayer
 62
  256
370
   -1
100
AcDbLine
 10
271.4999126022173
 20
66.74997671225438
 11
271.4999126022173
 21
68.54997494415477
  0
LINE
  5
209
100
AcDbEntity
  8
0
  6
ByLayer
 62
  256
370
   -1
100
AcDbLine
 10
258.9216736632891
 20
18.52499999999998
 11
259.1664296984257
 21
19.11589333949888
  0
LINE
  5
20A
100
AcDbEntity
  8
0
  6
ByLayer
 62
  256
370
   -1
100
AcDbLine
 10
259.1664296984257
 20
19.11589333949888
 11
259.2499114240173
 21
19.75
  0
LINE
  5
20B
100
AcDbEntity
  8
0
  6
ByLayer
 62
  256
370
   -1
100
AcDbLine
 10
22.45000000000005
 20
19.75
 11
22.36651827440829
 21
20.38410666050117
  0
LINE
  5
20C
100
AcDbEntity
  8
0
  6
ByLayer
 62
  256
370
   -1
100
AcDbLine
 10
22.36651827440829
 20
20.38410666050117
 11
22.12176223927185
 21
20.97499999999994
  0
LINE
  5
20D
100
AcDbEntity
  8
0
  6
ByLayer
 62
  256
370
   -1
100
AcDbLine
 10
22.12176223927185
 20
20.97499999999994
 11
21.732411613907
 21
21.48241161390698
  0
LINE
  5
20E
100
AcDbEntity
  8
0
  6
ByLayer
 62
  256
370
   -1
100
AcDbLine
 10
21.732411613907
 20
21.48241161390698
 11
21.22500000000014
 21
21.87176223927179
  0
LINE
  5
20F
100
AcDbEntity
  8
0
  6
ByLayer
 62
  256
370
   -1
100
AcDbLine
 10
21.22500000000014
 20
21.87176223927179
 11
20.63410666050112
 21
22.11651827440815
  0
LINE
  5
210
100
AcDbEntity
  8
0
  6
ByLayer
 62
  256
370
   -1
100
AcDbLine
 10
20.63410666050112
 20
22.11651827440815
 11
20
 21
22.19999999999996
  0
LINE
  5
211
100
AcDbEntity
  8
0
  6
ByLayer
 62
  256
370
   -1
100
AcDbLine
 10
20
 20
22.19999999999996
 11
19.36589333949894
 21
22.11651827440815
  0
LINE
  5
212
100
AcDbEntity
  8
0
  6
ByLayer
 62
  256
370
   -1
100
AcDbLine
 10
19.36589333949894
 20
22.11651827440815
 11
18.77500000000003
 21
21.87176223927179
  0
LINE
  5
213
100
AcDbEntity
  8
0
  6
ByLayer
 62
  256
370
   -1
100
AcDbLine
 10
18.77500000000003
 20
21.87176223927179
 11
18.267588386093
 21
21.48241161390698
  0
LINE
  5
214
100
AcDbEntity
  8
0
  6
ByLayer
 62
  256
370
   -1
100
AcDbLine
 10
18.267588386093
 20
21.48241161390698
 11
17.8782377607281
 21
20.97499999999994
  0
LINE
  5
215
100
AcDbEntity
  8
0
  6
ByLayer
 62
  256
370
   -1
100
AcDbLine
 10
17.8782377607281
 20
20.97499999999994
 11
17.63348172559171
 21
20.38410666050117
  0
LINE
  5
216
100
AcDbEntity
  8
0
  6
ByLayer
 62
  256
370
   -1
100
AcDbLine
 10
17.63348172559171
 20
20.38410666050117
 11
17.55000000000001
 21
19.75
  0
LINE
  5
217
100
AcDbEntity
  8
0
  6
ByLayer
 62
  256
370
   -1
100
AcDbLine
 10
17.55000000000001
 20
19.75
 11
17.63348172559171
 21
19.11589333949888
  0
LINE
  5
218
100
AcDbEntity
  8
0
  6
ByLayer
 62
  256
370
   -1
100
AcDbLine
 10
17.63348172559171
 20
19.11589333949888
 11
17.8782377607281
 21
18.52499999999998
  0
LINE
  5
219
100
AcDbEntity
  8
0
  6
ByLayer
 62
  256
370
   -1
100
AcDbLine
 10
17.8782377607281
 20
18.52499999999998
 11
18.267588386093
 21
18.01758838609294
  0
LINE
  5
21A
100
AcDbEntity
  8
0
  6
ByLayer
 62
  256
370
   -1
100
AcDbLine
 10
18.267588386093
 20
18.01758838609294
 11
18.77500000000003
 21
17.62823776072804
  0
LINE
  5
21B
100
AcDbEntity
  8
0
  6
ByLayer
 62
  256
370
   -1
100
AcDbLine
 10
18.77500000000003
 20
17.62823776072804
 11
19.36589333949894
 21
17.38348172559176
  0
LINE
  5
21C
100
AcDbEntity
  8
0
  6
ByLayer
 62
  256
370
   -1
100
AcDbLine
 10
19.36589333949894
 20
17.38348172559176
 11
20
 21
17.29999999999995
  0
LINE
  5
21D
100
AcDbEntity
  8
0
  6
ByLayer
 62
  256
370
   -1
100
AcDbLine
 10
258.0249114240174
 20
21.87176223927179
 11
257.4340180845186
 21
22.11651827440815
  0
LINE
  5
21E
100
AcDbEntity
  8
0
  6
ByLayer
 62
  256
370
   -1
100
AcDbLine
 10
257.4340180845186
 20
22.11651827440815
 11
256.7999114240175
 21
22.19999999999996
  0
LINE
  5
21F
100
AcDbEntity
  8
0
  6
ByLayer
 62
  256
370
   -1
100
AcDbLine
 10
256.7999114240175
 20
22.19999999999996
 11
256.1658047635163
 21
22.11651827440815
  0
LINE
  5
220
100
AcDbEntity
  8
0
  6
ByLayer
 62
  256
370
   -1
100
AcDbLine
 10
256.1658047635163
 20
22.11651827440815
 11
255.5749114240173
 21
21.87176223927179
  0
LINE
  5
221
100
AcDbEntity
  8
0
  6
ByLayer
 62
  256
370
   -1
100
AcDbLine
 10
255.5749114240173
 20
21.87176223927179
 11
255.0674998101102
 21
21.48241161390698
  0
LINE
  5
222
100
AcDbEntity
  8
0
  6
ByLayer
 62
  256
370
   -1
100
AcDbLine
 10
255.0674998101102
 20
21.48241161390698
 11
254.6781491847456
 21
20.97499999999994
  0
LINE
  5
223
100
AcDbEntity
  8
0
  6
ByLayer
 62
  256
370
   -1
100
AcDbLine
 10
254.6781491847456
 20
20.97499999999994
 11
254.4333931496092
 21
20.38410666050117
  0
LINE
  5
224
100
AcDbEntity
  8
0
  6
ByLayer
 62
  256
370
   -1
100
AcDbLine
 10
254.4333931496092
 20
20.38410666050117
 11
254.3499114240174
 21
19.75
  0
LINE
  5
225
100
AcDbEntity
  8
0
  6
ByLayer
 62
  256
370
   -1
100
AcDbLine
 10
254.3499114240174
 20
19.75
 11
254.4333931496092
 21
19.11589333949888
  0
LINE
  5
226
100
AcDbEntity
  8
0
  6
ByLayer
 62
  256
370
   -1
100
AcDbLine
 10
254.4333931496092
 20
19.11589333949888
 11
254.6781491847456
 21
18.52499999999998
  0
LINE
  5
227
100
AcDbEntity
  8
0
  6
ByLayer
 62
  256
370
   -1
100
AcDbLine
 10
254.6781491847456
 20
18.52499999999998
 11
255.0674998101102
 21
18.01758838609294
  0
LINE
  5
228
100
AcDbEntity
  8
0
  6
ByLayer
 62
  256
370
   -1
100
AcDbLine
 10
255.0674998101102
 20
18.01758838609294
 11
255.5749114240173
 21
17.62823776072804
  0
LINE
  5
229
100
AcDbEntity
  8
0
  6
ByLayer
 62
  256
370
   -1
100
AcDbLine
 10
255.5749114240173
 20
17.62823776072804
 11
256.1658047635163
 21
17.38348172559176
  0
LINE
  5
22A
100
AcDbEntity
  8
0
  6
ByLayer
 62
  256
370
   -1
100
AcDbLine
 10
256.1658047635163
 20
17.38348172559176
 11
256.7999114240175
 21
17.29999999999995
  0
LINE
  5
22B
100
AcDbEntity
  8
0
  6
ByLayer
 62
  256
370
   -1
100
AcDbLine
 10
256.7999114240175
 20
17.29999999999995
 11
257.4340180845186
 21
17.38348172559176
  0
LINE
  5
22C
100
AcDbEntity
  8
0
  6
ByLayer
 62
  256
370
   -1
100
AcDbLine
 10
257.4340180845186
 20
17.38348172559176
 11
258.0249114240174
 21
17.62823776072804
  0
LINE
  5
22D
100
AcDbEntity
  8
0
  6
ByLayer
 62
  256
370
   -1
100
AcDbLine
 10
258.0249114240174
 20
17.62823776072804
 11
258.5323230379245
 21
18.01758838609294
  0
LINE
  5
22E
100
AcDbEntity
  8
0
  6
ByLayer
 62
  256
370
   -1
100
AcDbLine
 10
258.5323230379245
 20
18.01758838609294
 11
258.9216736632891
 21
18.52499999999998
  0
LINE
  5
22F
100
AcDbEntity
  8
0
  6
ByLayer
 62
  256
370
   -1
100
AcDbLine
 10
258.5323230379245
 20
21.48241161390698
 11
258.0249114240174
 21
21.87176223927179
  0
LINE
  5
230
100
AcDbEntity
  8
0
  6
ByLayer
 62
  256
370
   -1
100
AcDbLine
 10
258.9216736632891
 20
20.97499999999994
 11
258.5323230379245
 21
21.48241161390698
  0
LINE
  5
231
100
AcDbEntity
  8
0
  6
ByLayer
 62
  256
370
   -1
100
AcDbLine
 10
259.1664296984257
 20
20.38410666050117
 11
258.9216736632891
 21
20.97499999999994
  0
LINE
  5
232
100
AcDbEntity
  8
0
  6
ByLayer
 62
  256
370
   -1
100
AcDbLine
 10
259.2499114240173
 20
19.75
 11
259.1664296984257
 21
20.38410666050117
  0
LINE
  5
233
100
AcDbEntity
  8
0
  6
ByLayer
 62
  256
370
   -1
100
AcDbLine
 10
22.36651827440829
 20
19.11589333949888
 11
22.45000000000005
 21
19.75
  0
LINE
  5
234
100
AcDbEntity
  8
0
  6
ByLayer
 62
  256
370
   -1
100
AcDbLine
 10
22.12176223927185
 20
18.52499999999998
 11
22.36651827440829
 21
19.11589333949888
  0
LINE
  5
235
100
AcDbEntity
  8
0
  6
ByLayer
 62
  256
370
   -1
100
AcDbLine
 10
21.732411613907
 20
18.01758838609294
 11
22.12176223927185
 21
18.52499999999998
  0
LINE
  5
236
100
AcDbEntity
  8
0
  6
ByLayer
 62
  256
370
   -1
100
AcDbLine
 10
21.22500000000014
 20
17.62823776072804
 11
21.732411613907
 21
18.01758838609294
  0
LINE
  5
237
100
AcDbEntity
  8
0
  6
ByLayer
 62
  256
370
   -1
100
AcDbLine
 10
20.63410666050112
 20
17.38348172559176
 11
21.22500000000014
 21
17.62823776072804
  0
LINE
  5
238
100
AcDbEntity
  8
0
  6
ByLayer
 62
  256
370
   -1
100
AcDbLine
 10
20
 20
17.29999999999995
 11
20.63410666050112
 21
17.38348172559176
  0
LINE
  5
239
100
AcDbEntity
  8
0
  6
ByLayer
 62
  256
370
   -1
100
AcDbLine
 10
149.1499542146087
 20
309.5499008640193
 11
142.1499562946083
 21
309.5499008640194
  0
LINE
  5
23A
100
AcDbEntity
  8
0
  6
ByLayer
 62
  256
370
   -1
100
AcDbLine
 10
142.1499562946083
 20
309.5499008640194
 11
142.1499562946088
 21
324.3498961280206
  0
LINE
  5
23B
100
AcDbEntity
  8
0
  6
ByLayer
 62
  256
370
   -1
100
AcDbLine
 10
142.1499562946088
 20
324.3498961280206
 11
149.149954214609
 21
324.3498961280208
  0
LINE
  5
23C
100
AcDbEntity
  8
0
  6
ByLayer
 62
  256
370
   -1
100
AcDbLine
 10
149.149954214609
 20
324.3498961280208
 11
149.1499542146087
 21
309.5499008640193
  0
LINE
  5
23D
100
AcDbEntity
  8
0
  6
ByLayer
 62
  256
370
   -1
100
AcDbLine
 10
127.6499609346079
 20
324.3498961280206
 11
134.6499588546079
 21
324.3498961280209
  0
LINE
  5
23E
100
AcDbEntity
  8
0
  6
ByLayer
 62
  256
370
   -1
100
AcDbLine
 10
134.6499588546079
 20
324.3498961280209
 11
134.6499588546079
 21
309.5499008640194
  0
LINE
  5
23F
100
AcDbEntity
  8
0
  6
ByLayer
 62
  256
370
   -1
100
AcDbLine
 10
134.6499588546079
 20
309.5499008640194
 11
127.6499609346075
 21
309.5499008640196
  0
LINE
  5
240
100
AcDbEntity
  8
0
  6
ByLayer
 62
  256
370
   -1
100
AcDbLine
 10
127.6499609346075
 20
309.5499008640196
 11
127.6499609346079
 21
324.3498961280206
  0
LINE
  5
241
100
AcDbEntity
  8
0
  6
ByLayer
 62
  256
370
   -1
100
AcDbLine
 10
125.549961606606
 20
5.449998176000122
 11
125.5499616066064
 21
20.84999201600138
  0
LINE
  5
242
100
AcDbEntity
  8
0
  6
ByLayer
 62
  256
370
   -1
100
AcDbLine
 10
125.5499616066064
 20
20.84999201600138
 11
132.4499595586067
 21
20.84999201600152
  0
LINE
  5
243
100
AcDbEntity
  8
0
  6
ByLayer
 62
  256
370
   -1
100
AcDbLine
 10
132.4499595586067
 20
20.84999201600152
 11
132.4499595586067
 21
5.449998176000122
  0
LINE
  5
244
100
AcDbEntity
  8
0
  6
ByLayer
 62
  256
370
   -1
100
AcDbLine
 10
132.4499595586067
 20
5.449998176000122
 11
125.549961606606
 21
5.449998176000122
  0
LINE
  5
245
100
AcDbEntity
  8
0
  6
ByLayer
 62
  256
370
   -1
100
AcDbLine
 10
22.45000000000005
 20
309.6498944320211
 11
22.36651827440829
 21
309.0157877715199
  0
LINE
  5
246
100
AcDbEntity
  8
0
  6
ByLayer
 62
  256
370
   -1
100
AcDbLine
 10
22.36651827440829
 20
309.0157877715199
 11
22.12176223927185
 21
308.4248944320211
  0
LINE
  5
247
100
AcDbEntity
  8
0
  6
ByLayer
 62
  256
370
   -1
100
AcDbLine
 10
22.12176223927185
 20
308.4248944320211
 11
21.732411613907
 21
307.9174828181141
  0
LINE
  5
248
100
AcDbEntity
  8
0
  6
ByLayer
 62
  256
370
   -1
100
AcDbLine
 10
21.732411613907
 20
307.9174828181141
 11
21.22500000000014
 21
307.5281321927492
  0
LINE
  5
249
100
AcDbEntity
  8
0
  6
ByLayer
 62
  256
370
   -1
100
AcDbLine
 10
21.22500000000014
 20
307.5281321927492
 11
20.63410666050112
 21
307.283376157613
  0
LINE
  5
24A
100
AcDbEntity
  8
0
  6
ByLayer
 62
  256
370
   -1
100
AcDbLine
 10
20.63410666050112
 20
307.283376157613
 11
20
 21
307.1998944320212
  0
LINE
  5
24B
100
AcDbEntity
  8
0
  6
ByLayer
 62
  256
370
   -1
100
AcDbLine
 10
20
 20
307.1998944320212
 11
19.36589333949894
 21
307.283376157613
  0
LINE
  5
24C
100
AcDbEntity
  8
0
  6
ByLayer
 62
  256
370
   -1
100
AcDbLine
 10
19.36589333949894
 20
307.283376157613
 11
18.77500000000003
 21
307.5281321927492
  0
LINE
  5
24D
100
AcDbEntity
  8
0
  6
ByLayer
 62
  256
370
   -1
100
AcDbLine
 10
18.77500000000003
 20
307.5281321927492
 11
18.267588386093
 21
307.9174828181141
  0
LINE
  5
24E
100
AcDbEntity
  8
0
  6
ByLayer
 62
  256
370
   -1
100
AcDbLine
 10
18.267588386093
 20
307.9174828181141
 11
17.8782377607281
 21
308.4248944320211
  0
LINE
  5
24F
100
AcDbEntity
  8
0
  6
ByLayer
 62
  256
370
   -1
100
AcDbLine
 10
17.8782377607281
 20
308.4248944320211
 11
17.63348172559171
 21
309.0157877715199
  0
LINE
  5
250
100
AcDbEntity
  8
0
  6
ByLayer
 62
  256
370
   -1
100
AcDbLine
 10
17.63348172559171
 20
309.0157877715199
 11
17.55000000000001
 21
309.6498944320211
  0
LINE
  5
251
100
AcDbEntity
  8
0
  6
ByLayer
 62
  256
370
   -1
100
AcDbLine
 10
17.55000000000001
 20
309.6498944320211
 11
17.63348172559171
 21
310.2840010925223
  0
LINE
  5
252
100
AcDbEntity
  8
0
  6
ByLayer
 62
  256
370
   -1
100
AcDbLine
 10
17.63348172559171
 20
310.2840010925223
 11
17.8782377607281
 21
310.8748944320211
  0
LINE
  5
253
100
AcDbEntity
  8
0
  6
ByLayer
 62
  256
370
   -1
100
AcDbLine
 10
17.8782377607281
 20
310.8748944320211
 11
18.267588386093
 21
311.3823060459283
  0
LINE
  5
254
100
AcDbEntity
  8
0
  6
ByLayer
 62
  256
370
   -1
100
AcDbLine
 10
18.267588386093
 20
311.3823060459283
 11
18.77500000000003
 21
311.7716566712929
  0
LINE
  5
255
100
AcDbEntity
  8
0
  6
ByLayer
 62
  256
370
   -1
100
AcDbLine
 10
18.77500000000003
 20
311.7716566712929
 11
19.36589333949894
 21
312.0164127064293
  0
LINE
  5
256
100
AcDbEntity
  8
0
  6
ByLayer
 62
  256
370
   -1
100
AcDbLine
 10
19.36589333949894
 20
312.0164127064293
 11
20
 21
312.0998944320211
  0
LINE
  5
257
100
AcDbEntity
  8
0
  6
ByLayer
 62
  256
370
   -1
100
AcDbLine
 10
20
 20
312.0998944320211
 11
20.63410666050112
 21
312.0164127064293
  0
LINE
  5
258
100
AcDbEntity
  8
0
  6
ByLayer
 62
  256
370
   -1
100
AcDbLine
 10
20.63410666050112
 20
312.0164127064293
 11
21.22500000000014
 21
311.7716566712929
  0
LINE
  5
259
100
AcDbEntity
  8
0
  6
ByLayer
 62
  256
370
   -1
100
AcDbLine
 10
21.22500000000014
 20
311.7716566712929
 11
21.732411613907
 21
311.3823060459283
  0
LINE
  5
25A
100
AcDbEntity
  8
0
  6
ByLayer
 62
  256
370
   -1
100
AcDbLine
 10
21.732411613907
 20
311.3823060459283
 11
22.12176223927185
 21
310.8748944320211
  0
LINE
  5
25B
100
AcDbEntity
  8
0
  6
ByLayer
 62
  256
370
   -1
100
AcDbLine
 10
22.12176223927185
 20
310.8748944320211
 11
22.36651827440829
 21
310.2840010925223
  0
LINE
  5
25C
100
AcDbEntity
  8
0
  6
ByLayer
 62
  256
370
   -1
100
AcDbLine
 10
22.36651827440829
 20
310.2840010925223
 11
22.45000000000005
 21
309.6498944320211
  0
LINE
  5
25D
100
AcDbEntity
  8
0
  6
ByLayer
 62
  256
370
   -1
100
AcDbLine
 10
259.2499114240177
 20
309.6498944320208
 11
259.1664296984259
 21
309.0157877715196
  0
LINE
  5
25E
100
AcDbEntity
  8
0
  6
ByLayer
 62
  256
370
   -1
100
AcDbLine
 10
259.1664296984259
 20
309.0157877715196
 11
258.9216736632896
 21
308.4248944320208
  0
LINE
  5
25F
100
AcDbEntity
  8
0
  6
ByLayer
 62
  256
370
   -1
100
AcDbLine
 10
258.9216736632896
 20
308.4248944320208
 11
258.5323230379246
 21
307.9174828181137
  0
LINE
  5
260
100
AcDbEntity
  8
0
  6
ByLayer
 62
  256
370
   -1
100
AcDbLine
 10
258.5323230379246
 20
307.9174828181137
 11
258.0249114240177
 21
307.528132192749
  0
LINE
  5
261
100
AcDbEntity
  8
0
  6
ByLayer
 62
  256
370
   -1
100
AcDbLine
 10
258.0249114240177
 20
307.528132192749
 11
257.4340180845189
 21
307.2833761576126
  0
LINE
  5
262
100
AcDbEntity
  8
0
  6
ByLayer
 62
  256
370
   -1
100
AcDbLine
 10
257.4340180845189
 20
307.2833761576126
 11
256.7999114240177
 21
307.1998944320208
  0
LINE
  5
263
100
AcDbEntity
  8
0
  6
ByLayer
 62
  256
370
   -1
100
AcDbLine
 10
256.7999114240177
 20
307.1998944320208
 11
256.1658047635165
 21
307.2833761576126
  0
LINE
  5
264
100
AcDbEntity
  8
0
  6
ByLayer
 62
  256
370
   -1
100
AcDbLine
 10
256.1658047635165
 20
307.2833761576126
 11
255.5749114240177
 21
307.528132192749
  0
LINE
  5
265
100
AcDbEntity
  8
0
  6
ByLayer
 62
  256
370
   -1
100
AcDbLine
 10
255.5749114240177
 20
307.528132192749
 11
255.0674998101106
 21
307.9174828181137
  0
LINE
  5
266
100
AcDbEntity
  8
0
  6
ByLayer
 62
  256
370
   -1
100
AcDbLine
 10
255.0674998101106
 20
307.9174828181137
 11
254.6781491847458
 21
308.4248944320208
  0
LINE
  5
267
100
AcDbEntity
  8
0
  6
ByLayer
 62
  256
370
   -1
100
AcDbLine
 10
254.6781491847458
 20
308.4248944320208
 11
254.4333931496095
 21
309.0157877715196
  0
LINE
  5
268
100
AcDbEntity
  8
0
  6
ByLayer
 62
  256
370
   -1
100
AcDbLine
 10
254.4333931496095
 20
309.0157877715196
 11
254.3499114240175
 21
309.6498944320208
  0
LINE
  5
269
100
AcDbEntity
  8
0
  6
ByLayer
 62
  256
370
   -1
100
AcDbLine
 10
254.3499114240175
 20
309.6498944320208
 11
254.4333931496095
 21
310.284001092522
  0
LINE
  5
26A
100
AcDbEntity
  8
0
  6
ByLayer
 62
  256
370
   -1
100
AcDbLine
 10
254.4333931496095
 20
310.284001092522
 11
254.6781491847458
 21
310.8748944320208
  0
LINE
  5
26B
100
AcDbEntity
  8
0
  6
ByLayer
 62
  256
370
   -1
100
AcDbLine
 10
254.6781491847458
 20
310.8748944320208
 11
255.0674998101106
 21
311.3823060459279
  0
LINE
  5
26C
100
AcDbEntity
  8
0
  6
ByLayer
 62
  256
370
   -1
100
AcDbLine
 10
255.0674998101106
 20
311.3823060459279
 11
255.5749114240177
 21
311.7716566712927
  0
LINE
  5
26D
100
AcDbEntity
  8
0
  6
ByLayer
 62
  256
370
   -1
100
AcDbLine
 10
255.5749114240177
 20
311.7716566712927
 11
256.1658047635165
 21
312.0164127064289
  0
LINE
  5
26E
100
AcDbEntity
  8
0
  6
ByLayer
 62
  256
370
   -1
100
AcDbLine
 10
256.1658047635165
 20
312.0164127064289
 11
256.7999114240177
 21
312.0998944320207
  0
LINE
  5
26F
100
AcDbEntity
  8
0
  6
ByLayer
 62
  256
370
   -1
100
AcDbLine
 10
256.7999114240177
 20
312.0998944320207
 11
257.4340180845189
 21
312.0164127064289
  0
LINE
  5
270
100
AcDbEntity
  8
0
  6
ByLayer
 62
  256
370
   -1
100
AcDbLine
 10
257.4340180845189
 20
312.0164127064289
 11
258.0249114240177
 21
311.7716566712927
  0
LINE
  5
271
100
AcDbEntity
  8
0
  6
ByLayer
 62
  256
370
   -1
100
AcDbLine
 10
258.0249114240177
 20
311.7716566712927
 11
258.5323230379246
 21
311.3823060459279
  0
LINE
  5
272
100
AcDbEntity
  8
0
  6
ByLayer
 62
  256
370
   -1
100
AcDbLine
 10
258.5323230379246
 20
311.3823060459279
 11
258.9216736632896
 21
310.8748944320208
  0
LINE
  5
273
100
AcDbEntity
  8
0
  6
ByLayer
 62
  256
370
   -1
100
AcDbLine
 10
258.9216736632896
 20
310.8748944320208
 11
259.1664296984259
 21
310.284001092522
  0
LINE
  5
274
100
AcDbEntity
  8
0
  6
ByLayer
 62
  256
370
   -1
100
AcDbLine
 10
259.1664296984259
 20
310.284001092522
 11
259.2499114240177
 21
309.6498944320208
  0
LINE
  5
275
100
AcDbEntity
  8
0
  6
ByLayer
 62
  256
370
   -1
100
AcDbLine
 10
211.7999114240176
 20
83.53679656440357
 11
211.7999114240176
 21
245.8630978676175
  0
LINE
  5
276
100
AcDbEntity
  8
0
  6
ByLayer
 62
  256
370
   -1
100
AcDbLine
 10
211.7999114240176
 20
245.8630978676175
 11
193.0131148596138
 21
264.6498944320211
  0
LINE
  5
277
100
AcDbEntity
  8
0
  6
ByLayer
 62
  256
370
   -1
100
AcDbLine
 10
193.0131148596138
 20
264.6498944320211
 11
83.7867965644038
 21
264.6498944320211
  0
LINE
  5
278
100
AcDbEntity
  8
0
  6
ByLayer
 62
  256
370
   -1
100
AcDbLine
 10
83.7867965644038
 20
264.6498944320211
 11
65.00000000000028
 21
245.8630978676176
  0
LINE
  5
279
100
AcDbEntity
  8
0
  6
ByLayer
 62
  256
370
   -1
100
AcDbLine
 10
65.00000000000028
 20
245.8630978676176
 11
65.00000000000028
 21
83.53679656440346
  0
LINE
  5
27A
100
AcDbEntity
  8
0
  6
ByLayer
 62
  256
370
   -1
100
AcDbLine
 10
65.00000000000028
 20
83.53679656440346
 11
83.7867965644038
 21
64.74999999999997
  0
LINE
  5
27B
100
AcDbEntity
  8
0
  6
ByLayer
 62
  256
370
   -1
100
AcDbLine
 10
83.7867965644038
 20
64.74999999999997
 11
193.0131148596138
 21
64.74999999999997
  0
LINE
  5
27C
100
AcDbEntity
  8
0
  6
ByLayer
 62
  256
370
   -1
100
AcDbLine
 10
193.0131148596138
 20
64.74999999999997
 11
211.7999114240176
 21
83.53679656440357
  0
LINE
  5
27D
100
AcDbEntity
  8
0
  6
ByLayer
 62
  256
370
   -1
100
AcDbLine
 10
139.100894920249
 20
303.8282633115988
 11
138.4889951489076
 21
301.3369332811109
  0
LINE
  5
27E
100
AcDbEntity
  8
0
  6
ByLayer
 62
  256
370
   -1
100
AcDbLine
 10
138.4889951489076
 20
301.3369332811109
 11
137.8396049050052
 21
303.8282633115988
  0
LINE
  5
27F
100
AcDbEntity
  8
0
  6
ByLayer
 62
  256
370
   -1
100
AcDbLine
 10
137.8396049050052
 20
303.8282633115988
 11
139.100894920249
 21
303.8282633115988
  0
LINE
  5
280
100
AcDbEntity
  8
0
  6
ByLayer
 62
  256
370
   -1
100
AcDbLine
 10
137.3650908043953
 20
305.6509576713547
 11
138.4889951489076
 21
301.3369332811109
  0
LINE
  5
281
100
AcDbEntity
  8
0
  6
ByLayer
 62
  256
370
   -1
100
AcDbLine
 10
138.4889951489076
 20
301.3369332811109
 11
139.5504471306147
 21
305.6509576713547
  0
LINE
  5
282
100
AcDbEntity
  8
0
  6
ByLayer
 62
  256
370
   -1
100
AcDbLine
 10
139.5504471306147
 20
305.6509576713547
 11
139.100894920249
 21
303.8339797750133
  0
LINE
  5
283
100
AcDbEntity
  8
0
  6
ByLayer
 62
  256
370
   -1
100
AcDbLine
 10
139.100894920249
 20
303.8339797750133
 11
137.8396049050052
 21
303.8339797750133
  0
LINE
  5
284
100
AcDbEntity
  8
0
  6
ByLayer
 62
  256
370
   -1
100
AcDbLine
 10
137.8396049050052
 20
303.8339797750133
 11
137.3650908043953
 21
305.6509576713547
  0
CIRCLE
  5
285
100
AcDbEntity
  8
0
  6
ByLayer
 62
  256
370
   -1
100
AcDbCircle
 10
20.01293075904555
 20
19.75170236672405
 40
2.44208224842149
  0
CIRCLE
  5
286
100
AcDbEntity
  8
0
  6
ByLayer
 62
  256
370
   -1
100
AcDbCircle
 10
256.7999114240174
 20
19.75000000000001
 40
2.449999999999953
  0
CIRCLE
  5
287
100
AcDbEntity
  8
0
  6
ByLayer
 62
  256
370
   -1
100
AcDbCircle
 10
20
 20
309.6321292581518
 40
2.44546224081504
  0
CIRCLE
  5
288
100
AcDbEntity
  8
0
  6
ByLayer
 62
  256
370
   -1
100
AcDbCircle
 10
256.7905085447638
 20
309.6404915527669
 40
2.437157858207404
  0
ARC
  5
289
100
AcDbEntity
  8
0
  6
ByLayer
 62
  256
370
   -1
100
AcDbCircle
 10
77.6999802522537
 20
333.9998923232218
 40
1.999999999999961
100
AcDbArc
 50
90.00000000000203
 51
180.0000000000016
  0
ARC
  5
28A
100
AcDbEntity
  8
0
  6
ByLayer
 62
  256
370
   -1
100
AcDbCircle
 10
82.53673892845339
 20
334.0151199367481
 40
1.963296343588063
100
AcDbArc
 50
359.5556011001878
 51
83.50573113346094
  0
ENDSEC
  0
SECTION
  2
OBJECTS
  0
DICTIONARY
  5
C
330
0
100
AcDbDictionary
281
    1
  3
ACAD_GROUP
350
D
  0
DICTIONARY
  5
D
330
C
100
AcDbDictionary
281
    1
  0
ENDSEC
  0
EOF
