999
dxfrw 0.6.1
  0
SECTION
  2
HEADER
  9
$ACADVER
  1
AC1021
  9
$DWGCODEPAGE
  3
ANSI_1252
  9
$INSBASE
 10
0
 20
0
 30
0
  9
$EXTMIN
 10
-6.349997891200417
 20
-0.25
 30
0
  9
$EXTMAX
 10
336.2498923232224
 20
363.6498835520234
 30
0
  9
$LIMMIN
 10
0
 20
0
  9
$LIMMAX
 10
420
 20
297
  9
$ORTHOMODE
 70
    0
  9
$REGENMODE
 70
    1
  9
$FILLMODE
 70
    1
  9
$QTEXTMODE
 70
    0
  9
$MIRRTEXT
 70
    0
  9
$LTSCALE
 40
1
  9
$ATTMODE
 70
    0
  9
$TEXTSIZE
 40
2.5
  9
$TRACEWID
 40
15.68
  9
$TEXTSTYLE
  7
STANDARD
  9
$CLAYER
  8
0
  9
$CELTYPE
  6
BYLAYER
  9
$CECOLOR
 62
  256
  9
$CELTSCALE
 40
1
  9
$DISPSILH
 70
    0
  9
$DIMSCALE
 40
2.5
  9
$DIMASZ
 40
2.5
  9
$DIMEXO
 40
0.625
  9
$DIMDLI
 40
3.75
  9
$DIMRND
 40
0
  9
$DIMDLE
 40
0
  9
$DIMEXE
 40
1.25
  9
$DIMTP
 40
0
  9
$DIMTM
 40
0
  9
$DIMTXT
 40
2.5
  9
$DIMCEN
 40
2.5
  9
$DIMTSZ
 40
0
  9
$DIMTOL
 70
    0
  9
$DIMLIM
 70
    0
  9
$DIMTIH
 70
    0
  9
$DIMTOH
 70
    0
  9
$DIMSE1
 70
    0
  9
$DIMSE2
 70
    0
  9
$DIMTAD
 70
    1
  9
$DIMZIN
 70
    8
  9
$DIMBLK
  1

  9
$DIMASO
 70
    1
  9
$DIMSHO
 70
    1
  9
$DIMPOST
  1

  9
$DIMAPOST
  1

  9
$DIMALT
 70
    0
  9
$DIMALTD
 70
    3
  9
$DIMALTF
 40
0.03937
  9
$DIMLFAC
 40
1
  9
$DIMTOFL
 70
    1
  9
$DIMTVP
 40
0
  9
$DIMTIX
 70
    0
  9
$DIMSOXD
 70
    0
  9
$DIMSAH
 70
    0
  9
$DIMBLK1
  1

  9
$DIMBLK2
  1

  9
$DIMSTYLE
  2
STANDARD
  9
$DIMCLRD
 70
    0
  9
$DIMCLRE
 70
    0
  9
$DIMCLRT
 70
    0
  9
$DIMTFAC
 40
1
  9
$DIMGAP
 40
0.625
  9
$DIMJUST
 70
    0
  9
$DIMSD1
 70
    0
  9
$DIMSD2
 70
    0
  9
$DIMTOLJ
 70
    0
  9
$DIMTZIN
 70
    8
  9
$DIMALTZ
 70
    0
  9
$DIMALTTZ
 70
    0
  9
$DIMUPT
 70
    0
  9
$DIMDEC
 70
    2
  9
$DIMTDEC
 70
    2
  9
$DIMALTU
 70
    2
  9
$DIMALTTD
 70
    3
  9
$DIMTXSTY
  7
STANDARD
  9
$DIMAUNIT
 70
    0
  9
$DIMADEC
 70
    0
  9
$DIMALTRND
 40
0
  9
$DIMAZIN
 70
    0
  9
$DIMDSEP
 70
   44
  9
$DIMATFIT
 70
    3
  9
$DIMFRAC
 70
    0
  9
$DIMLDRBLK
  1
STANDARD
  9
$DIMLUNIT
 70
    2
  9
$DIMLWD
 70
   -2
  9
$DIMLWE
 70
   -2
  9
$DIMTMOVE
 70
    0
  9
$DIMFXL
 40
1
  9
$DIMFXLON
 70
    0
  9
$DIMJOGANG
 40
0.7854
  9
$DIMTFILL
 70
    0
  9
$DIMTFILLCLR
 70
    0
  9
$DIMARCSYM
 70
    0
  9
$DIMLTYPE
  6

  9
$DIMLTEX1
  6

  9
$DIMLTEX2
  6

  9
$LUNITS
 70
    2
  9
$LUPREC
 70
    4
  9
$SKETCHINC
 40
1
  9
$FILLETRAD
 40
0
  9
$AUNITS
 70
    0
  9
$AUPREC
 70
    2
  9
$MENU
  1
.
  9
$ELEVATION
 40
0
  9
$PELEVATION
 40
0
  9
$THICKNESS
 40
0
  9
$LIMCHECK
 70
    0
  9
$CHAMFERA
 40
0
  9
$CHAMFERB
 40
0
  9
$CHAMFERC
 40
0
  9
$CHAMFERD
 40
0
  9
$SKPOLY
 70
    0
  9
$USRTIMER
 70
    1
  9
$ANGBASE
 50
0
  9
$ANGDIR
 70
    0
  9
$PDMODE
 70
   34
  9
$PDSIZE
 40
0
  9
$PLINEWID
 40
0
  9
$SPLFRAME
 70
    0
  9
$SPLINETYPE
 70
    2
  9
$SPLINESEGS
 70
    8
  9
$HANDSEED
  5
20000
  9
$SURFTAB1
 70
    6
  9
$SURFTAB2
 70
    6
  9
$SURFTYPE
 70
    6
  9
$SURFU
 70
    6
  9
$SURFV
 70
    6
  9
$UCSBASE
  2

  9
$UCSNAME
  2

  9
$UCSORG
 10
0
 20
0
 30
0
  9
$UCSXDIR
 10
1
 20
0
 30
0
  9
$UCSYDIR
 10
0
 20
1
 30
0
  9
$UCSORTHOREF
  2

  9
$UCSORTHOVIEW
 70
    0
  9
$UCSORGTOP
 10
0
 20
0
 30
0
  9
$UCSORGBOTTOM
 10
0
 20
0
 30
0
  9
$UCSORGLEFT
 10
0
 20
0
 30
0
  9
$UCSORGRIGHT
 10
0
 20
0
 30
0
  9
$UCSORGFRONT
 10
0
 20
0
 30
0
  9
$UCSORGBACK
 10
0
 20
0
 30
0
  9
$PUCSBASE
  2

  9
$PUCSNAME
  2

  9
$PUCSORG
 10
0
 20
0
 30
0
  9
$PUCSXDIR
 10
1
 20
0
 30
0
  9
$PUCSYDIR
 10
0
 20
1
 30
0
  9
$PUCSORTHOREF
  2

  9
$PUCSORTHOVIEW
 70
    0
  9
$PUCSORGTOP
 10
0
 20
0
 30
0
  9
$PUCSORGBOTTOM
 10
0
 20
0
 30
0
  9
$PUCSORGLEFT
 10
0
 20
0
 30
0
  9
$PUCSORGRIGHT
 10
0
 20
0
 30
0
  9
$PUCSORGFRONT
 10
0
 20
0
 30
0
  9
$PUCSORGBACK
 10
0
 20
0
 30
0
  9
$USERI1
 70
    0
  9
$USERI2
 70
    0
  9
$USERI3
 70
    0
  9
$USERI4
 70
    0
  9
$USERI5
 70
    0
  9
$USERR1
 40
0
  9
$USERR2
 40
0
  9
$USERR3
 40
0
  9
$USERR4
 40
0
  9
$USERR5
 40
0
  9
$WORLDVIEW
 70
    1
  9
$SHADEDGE
 70
    3
  9
$SHADEDIF
 70
   70
  9
$TILEMODE
 70
    1
  9
$MAXACTVP
 70
   64
  9
$PINSBASE
 10
0
 20
0
 30
0
  9
$PLIMCHECK
 70
    0
  9
$PEXTMIN
 10
0
 20
0
 30
0
  9
$PEXTMAX
 10
0
 20
0
 30
0
  9
$GRIDMODE
 70
    1
  9
$SNAPSTYLE
 70
    0
  9
$PLIMMIN
 10
0
 20
0
  9
$PLIMMAX
 10
0.00073228
 20
0.00054921
  9
$UNITMODE
 70
    0
  9
$VISRETAIN
 70
    1
  9
$PLINEGEN
 70
    0
  9
$PSLTSCALE
 70
    1
  9
$TREEDEPTH
 70
 3020
  9
$CMLSTYLE
  2
Standard
  9
$CMLJUST
 70
    0
  9
$CMLSCALE
 40
20
  9
$PROXYGRAPHICS
 70
    1
  9
$MEASUREMENT
 70
    1
  9
$CELWEIGHT
370
   -1
  9
$ENDCAPS
280
    0
  9
$JOINSTYLE
280
    0
  9
$LWDISPLAY
290
    0
  9
$INSUNITS
 70
    0
  9
$HYPERLINKBASE
  1

  9
$STYLESHEET
  1

  9
$XEDIT
290
    1
  9
$CEPSNTYPE
380
    0
  9
$PSTYLEMODE
290
    1
  9
$EXTNAMES
290
    1
  9
$PSVPSCALE
 40
1
  9
$OLESTARTUP
290
    0
  9
$SORTENTS
280
  127
  9
$INDEXCTL
280
    0
  9
$HIDETEXT
280
    1
  9
$XCLIPFRAME
290
    0
  9
$HALOGAP
280
    0
  9
$OBSCOLOR
 70
  257
  9
$OBSLTYPE
280
    0
  9
$INTERSECTIONDISPLAY
280
    0
  9
$INTERSECTIONCOLOR
 70
  257
  9
$DIMASSOC
280
    0
  9
$PROJECTNAME
  1

  9
$CAMERADISPLAY
290
    0
  9
$LENSLENGTH
 40
50
  9
$CAMERAHEIGHT
 40
0
  9
$STEPSPERSEC
 40
2
  9
$STEPSIZE
 40
50
  9
$3DDWFPREC
 40
2
  9
$PSOLWIDTH
 40
5
  9
$PSOLHEIGHT
 40
80
  9
$LOFTANG1
 40
1.570796326794897
  9
$LOFTANG2
 40
1.570796326794897
  9
$LOFTMAG1
 40
0
  9
$LOFTMAG2
 40
0
  9
$LOFTPARAM
 70
    7
  9
$LOFTNORMALS
280
    1
  9
$LATITUDE
 40
1
  9
$LONGITUDE
 40
1
  9
$NORTHDIRECTION
 40
0
  9
$TIMEZONE
 70
-8000
  9
$LIGHTGLYPHDISPLAY
280
    1
  9
$TILEMODELIGHTSYNCH
280
    1
  9
$SOLIDHIST
280
    1
  9
$SHOWHIST
280
    1
  9
$DWFFRAME
280
    2
  9
$DGNFRAME
280
    0
  9
$REALWORLDSCALE
290
    1
  9
$INTERFERECOLOR
 62
    1
  9
$CSHADOW
280
    0
  9
$SHADOWPLANELOCATION
 40
0
  0
ENDSEC
  0
SECTION
  2
CLASSES
  0
ENDSEC
  0
SECTION
  2
TABLES
  0
TABLE
  2
VPORT
  5
8
330
0
100
AcDbSymbolTable
 70
    1
  0
VPORT
  5
31
330
2
100
AcDbSymbolTableRecord
100
AcDbViewportTableRecord
  2
*ACTIVE
 70
    0
 10
0
 20
0
 11
1
 21
1
 12
151.6927083333334
 22
105.7581018518519
 13
0
 23
0
 14
10
 24
10
 15
10
 25
10
 16
0
 26
0
 36
1
 17
0
 27
0
 37
0
 40
148.2928240740741
 41
2.045853658536585
 42
50
 43
0
 44
0
 50
0
 51
0
 71
    0
 72
  100
 73
    1
 74
    3
 75
    0
 76
    1
 77
    0
 78
    0
281
    0
 65
    1
110
0
120
0
130
0
111
1
121
0
131
0
112
0
122
1
132
0
 79
    0
146
0
348
10020
 60
    7
 61
    5
292
1
282
    1
141
0
142
0
 63
  250
421
3358443
  0
ENDTAB
  0
TABLE
  2
LTYPE
  5
5
330
0
100
AcDbSymbolTable
 70
    4
  0
LTYPE
  5
14
330
5
100
AcDbSymbolTableRecord
100
AcDbLinetypeTableRecord
  2
ByBlock
 70
    0
  3

 72
   65
 73
    0
 40
0
  0
LTYPE
  5
15
330
5
100
AcDbSymbolTableRecord
100
AcDbLinetypeTableRecord
  2
ByLayer
 70
    0
  3

 72
   65
 73
    0
 40
0
  0
LTYPE
  5
16
330
5
100
AcDbSymbolTableRecord
100
AcDbLinetypeTableRecord
  2
Continuous
 70
    0
  3
Solid line
 72
   65
 73
    0
 40
0
  0
LTYPE
  5
32
330
5
100
AcDbSymbolTableRecord
100
AcDbLinetypeTableRecord
  2
DOT
 70
    0
  3
Dot . . . . . . . . . . . . . . . . . . . . . .
 72
   65
 73
    2
 40
6.35
 49
0
 74
    0
 49
-6.35
 74
    0
  0
LTYPE
  5
33
330
5
100
AcDbSymbolTableRecord
100
AcDbLinetypeTableRecord
  2
DOTTINY
 70
    0
  3
Dot (.15x) .....................................
 72
   65
 73
    2
 40
0.9525
 49
0
 74
    0
 49
-0.9525
 74
    0
  0
LTYPE
  5
34
330
5
100
AcDbSymbolTableRecord
100
AcDbLinetypeTableRecord
  2
DOT2
 70
    0
  3
Dot (.5x) .....................................
 72
   65
 73
    2
 40
3.175
 49
0
 74
    0
 49
-3.175
 74
    0
  0
LTYPE
  5
35
330
5
100
AcDbSymbolTableRecord
100
AcDbLinetypeTableRecord
  2
DOTX2
 70
    0
  3
Dot (2x) .  .  .  .  .  .  .  .  .  .  .  .  .
 72
   65
 73
    2
 40
12.7
 49
0
 74
    0
 49
-12.7
 74
    0
  0
LTYPE
  5
36
330
5
100
AcDbSymbolTableRecord
100
AcDbLinetypeTableRecord
  2
DASHED
 70
    0
  3
Dashed _ _ _ _ _ _ _ _ _ _ _ _ _ _ _ _ _
 72
   65
 73
    2
 40
19.05
 49
12.7
 74
    0
 49
-6.35
 74
    0
  0
LTYPE
  5
37
330
5
100
AcDbSymbolTableRecord
100
AcDbLinetypeTableRecord
  2
DASHEDTINY
 70
    0
  3
Dashed (.15x) _ _ _ _ _ _ _ _ _ _ _ _ _ _ _ _ _
 72
   65
 73
    2
 40
2.8575
 49
1.905
 74
    0
 49
-0.9525
 74
    0
  0
LTYPE
  5
38
330
5
100
AcDbSymbolTableRecord
100
AcDbLinetypeTableRecord
  2
DASHED2
 70
    0
  3
Dashed (.5x) _ _ _ _ _ _ _ _ _ _ _ _ _ _ _ _ _
 72
   65
 73
    2
 40
9.524999999999999
 49
6.35
 74
    0
 49
-3.175
 74
    0
  0
LTYPE
  5
39
330
5
100
AcDbSymbolTableRecord
100
AcDbLinetypeTableRecord
  2
DASHEDX2
 70
    0
  3
Dashed (2x) ____  ____  ____  ____  ____  ___
 72
   65
 73
    2
 40
38.09999999999999
 49
25.4
 74
    0
 49
-12.7
 74
    0
  0
LTYPE
  5
3A
330
5
100
AcDbSymbolTableRecord
100
AcDbLinetypeTableRecord
  2
DASHDOT
 70
    0
  3
Dash dot __ . __ . __ . __ . __ . __ . __ . __
 72
   65
 73
    4
 40
25.4
 49
12.7
 74
    0
 49
-6.35
 74
    0
 49
0
 74
    0
 49
-6.35
 74
    0
  0
LTYPE
  5
3B
330
5
100
AcDbSymbolTableRecord
100
AcDbLinetypeTableRecord
  2
DASHDOTTINY
 70
    0
  3
Dash dot (.15x) _._._._._._._._._._._._._._._.
 72
   65
 73
    4
 40
3.81
 49
1.905
 74
    0
 49
-0.9525
 74
    0
 49
0
 74
    0
 49
-0.9525
 74
    0
  0
LTYPE
  5
3C
330
5
100
AcDbSymbolTableRecord
100
AcDbLinetypeTableRecord
  2
DASHDOT2
 70
    0
  3
Dash dot (.5x) _._._._._._._._._._._._._._._.
 72
   65
 73
    4
 40
12.7
 49
6.35
 74
    0
 49
-3.175
 74
    0
 49
0
 74
    0
 49
-3.175
 74
    0
  0
LTYPE
  5
3D
330
5
100
AcDbSymbolTableRecord
100
AcDbLinetypeTableRecord
  2
DASHDOTX2
 70
    0
  3
Dash dot (2x) ____  .  ____  .  ____  .  ___
 72
   65
 73
    4
 40
50.8
 49
25.4
 74
    0
 49
-12.7
 74
    0
 49
0
 74
    0
 49
-12.7
 74
    0
  0
LTYPE
  5
3E
330
5
100
AcDbSymbolTableRecord
100
AcDbLinetypeTableRecord
  2
DIVIDE
 70
    0
  3
Divide ____ . . ____ . . ____ . . ____ . . ____
 72
   65
 73
    6
 40
31.75
 49
12.7
 74
    0
 49
-6.35
 74
    0
 49
0
 74
    0
 49
-6.35
 74
    0
 49
0
 74
    0
 49
-6.35
 74
    0
  0
LTYPE
  5
3F
330
5
100
AcDbSymbolTableRecord
100
AcDbLinetypeTableRecord
  2
DIVIDETINY
 70
    0
  3
Divide (.15x) __..__..__..__..__..__..__..__.._
 72
   65
 73
    6
 40
4.7625
 49
1.905
 74
    0
 49
-0.9525
 74
    0
 49
0
 74
    0
 49
-0.9525
 74
    0
 49
0
 74
    0
 49
-0.9525
 74
    0
  0
LTYPE
  5
40
330
5
100
AcDbSymbolTableRecord
100
AcDbLinetypeTableRecord
  2
DIVIDE2
 70
    0
  3
Divide (.5x) __..__..__..__..__..__..__..__.._
 72
   65
 73
    6
 40
15.875
 49
6.35
 74
    0
 49
-3.175
 74
    0
 49
0
 74
    0
 49
-3.175
 74
    0
 49
0
 74
    0
 49
-3.175
 74
    0
  0
LTYPE
  5
41
330
5
100
AcDbSymbolTableRecord
100
AcDbLinetypeTableRecord
  2
DIVIDEX2
 70
    0
  3
Divide (2x) ________  .  .  ________  .  .  _
 72
   65
 73
    6
 40
63.5
 49
25.4
 74
    0
 49
-12.7
 74
    0
 49
0
 74
    0
 49
-12.7
 74
    0
 49
0
 74
    0
 49
-12.7
 74
    0
  0
LTYPE
  5
42
330
5
100
AcDbSymbolTableRecord
100
AcDbLinetypeTableRecord
  2
BORDER
 70
    0
  3
Border __ __ . __ __ . __ __ . __ __ . __ __ .
 72
   65
 73
    6
 40
44.45
 49
12.7
 74
    0
 49
-6.35
 74
    0
 49
12.7
 74
    0
 49
-6.35
 74
    0
 49
0
 74
    0
 49
-6.35
 74
    0
  0
LTYPE
  5
43
330
5
100
AcDbSymbolTableRecord
100
AcDbLinetypeTableRecord
  2
BORDERTINY
 70
    0
  3
Border (.15x) __.__.__.__.__.__.__.__.__.__.__.
 72
   65
 73
    6
 40
6.6675
 49
1.905
 74
    0
 49
-0.9525
 74
    0
 49
1.905
 74
    0
 49
-0.9525
 74
    0
 49
0
 74
    0
 49
-0.9525
 74
    0
  0
LTYPE
  5
44
330
5
100
AcDbSymbolTableRecord
100
AcDbLinetypeTableRecord
  2
BORDER2
 70
    0
  3
Border (.5x) __.__.__.__.__.__.__.__.__.__.__.
 72
   65
 73
    6
 40
22.225
 49
6.35
 74
    0
 49
-3.175
 74
    0
 49
6.35
 74
    0
 49
-3.175
 74
    0
 49
0
 74
    0
 49
-3.175
 74
    0
  0
LTYPE
  5
45
330
5
100
AcDbSymbolTableRecord
100
AcDbLinetypeTableRecord
  2
BORDERX2
 70
    0
  3
Border (2x) ____  ____  .  ____  ____  .  ___
 72
   65
 73
    6
 40
88.89999999999999
 49
25.4
 74
    0
 49
-12.7
 74
    0
 49
25.4
 74
    0
 49
-12.7
 74
    0
 49
0
 74
    0
 49
-12.7
 74
    0
  0
LTYPE
  5
46
330
5
100
AcDbSymbolTableRecord
100
AcDbLinetypeTableRecord
  2
CENTER
 70
    0
  3
Center ____ _ ____ _ ____ _ ____ _ ____ _ ____
 72
   65
 73
    4
 40
50.8
 49
31.75
 74
    0
 49
-6.35
 74
    0
 49
6.35
 74
    0
 49
-6.35
 74
    0
  0
LTYPE
  5
47
330
5
100
AcDbSymbolTableRecord
100
AcDbLinetypeTableRecord
  2
CENTERTINY
 70
    0
  3
Center (.15x) ___ _ ___ _ ___ _ ___ _ ___ _ ___
 72
   65
 73
    4
 40
7.619999999999999
 49
4.7625
 74
    0
 49
-0.9525
 74
    0
 49
0.9525
 74
    0
 49
-0.9525
 74
    0
  0
LTYPE
  5
48
330
5
100
AcDbSymbolTableRecord
100
AcDbLinetypeTableRecord
  2
CENTER2
 70
    0
  3
Center (.5x) ___ _ ___ _ ___ _ ___ _ ___ _ ___
 72
   65
 73
    4
 40
28.575
 49
19.05
 74
    0
 49
-3.175
 74
    0
 49
3.175
 74
    0
 49
-3.175
 74
    0
  0
LTYPE
  5
49
330
5
100
AcDbSymbolTableRecord
100
AcDbLinetypeTableRecord
  2
CENTERX2
 70
    0
  3
Center (2x) ________  __  ________  __  _____
 72
   65
 73
    4
 40
101.6
 49
63.5
 74
    0
 49
-12.7
 74
    0
 49
12.7
 74
    0
 49
-12.7
 74
    0
  0
ENDTAB
  0
TABLE
  2
LAYER
  5
2
330
0
100
AcDbSymbolTable
 70
    1
  0
LAYER
  5
10
330
2
100
AcDbSymbolTableRecord
100
AcDbLayerTableRecord
  2
0
 70
    0
 62
    7
  6
CONTINUOUS
370
    0
390
F
  0
ENDTAB
  0
TABLE
  2
STYLE
  5
3
330
0
100
AcDbSymbolTable
 70
    3
  0
STYLE
  5
4A
330
2
100
AcDbSymbolTableRecord
100
AcDbTextStyleTableRecord
  2
Standard
 70
    0
 40
0
 41
1
 50
0
 71
    0
 42
1
  3
txt
  4

  0
ENDTAB
  0
TABLE
  2
VIEW
  5
6
330
0
100
AcDbSymbolTable
 70
    0
  0
ENDTAB
  0
TABLE
  2
UCS
  5
7
330
0
100
AcDbSymbolTable
 70
    0
  0
ENDTAB
  0
TABLE
  2
APPID
  5
9
330
0
100
AcDbSymbolTable
 70
    1
  0
APPID
  5
12
330
9
100
AcDbSymbolTableRecord
100
AcDbRegAppTableRecord
  2
ACAD
 70
    0
  0
APPID
  5
4B
330
9
100
AcDbSymbolTableRecord
100
AcDbRegAppTableRecord
  2
LibreCad
 70
    0
  0
ENDTAB
  0
TABLE
  2
DIMSTYLE
  5
A
330
0
100
AcDbSymbolTable
 70
    1
100
AcDbDimStyleTable
 71
    1
  0
DIMSTYLE
105
4C
330
A
100
AcDbSymbolTableRecord
100
AcDbDimStyleTableRecord
  2
Standard
 70
    0
 40
1
 41
2.5
 42
0.625
 43
0.38
 44
1.25
 45
0
 46
0
 47
0
 48
0
140
2.5
141
0.09
142
0
143
25.4
144
1
145
0
146
1
147
0.625
148
0
 71
    0
 72
    0
 73
    0
 74
    1
 75
    0
 76
    0
 77
    0
 78
    0
 79
    0
170
    0
171
    2
172
    0
173
    0
174
    0
175
    0
176
    0
177
    0
178
    0
179
    0
271
    4
272
    4
273
    2
274
    2
275
    0
276
    0
277
    2
278
   46
279
    0
280
    0
281
    0
282
    0
283
    1
284
    0
285
    0
286
    0
288
    0
289
    3
340
Standard
341

371
   -2
372
   -2
  0
ENDTAB
  0
TABLE
  2
BLOCK_RECORD
  5
1
330
0
100
AcDbSymbolTable
 70
    2
  0
BLOCK_RECORD
  5
1F
330
1
100
AcDbSymbolTableRecord
100
AcDbBlockTableRecord
  2
*Model_Space
 70
    0
280
    1
281
    0
  0
BLOCK_RECORD
  5
1E
330
1
100
AcDbSymbolTableRecord
100
AcDbBlockTableRecord
  2
*Paper_Space
 70
    0
280
    1
281
    0
  0
ENDTAB
  0
ENDSEC
  0
SECTION
  2
BLOCKS
  0
BLOCK
  5
20
330
1F
100
AcDbEntity
  8
0
100
AcDbBlockBegin
  2
*Model_Space
 70
    0
 10
0
 20
0
 30
0
  3
*Model_Space
  1

  0
ENDBLK
  5
21
330
1F
100
AcDbEntity
  8
0
100
AcDbBlockEnd
  0
BLOCK
  5
1C
330
1B
100
AcDbEntity
  8
0
100
AcDbBlockBegin
  2
*Paper_Space
 70
    0
 10
0
 20
0
 30
0
  3
*Paper_Space
  1

  0
ENDBLK
  5
1D
330
1F
100
AcDbEntity
  8
0
100
AcDbBlockEnd
  0
ENDSEC
  0
SECTION
  2
ENTITIES
  0
LINE
  5
4D
100
AcDbEntity
  8
0
  6
ByLayer
 62
  256
370
   -1
100
AcDbLine
 10
319.4998978457209
 20
32.99999120775158
 11
319.4998978457209
 21
31.19999297585088
  0
LINE
  5
4E
100
AcDbEntity
  8
0
  6
ByLayer
 62
  256
370
   -1
100
AcDbLine
 10
107.8999624321583
 20
363.6498835520231
 11
97.39166968666621
 21
363.6498835520234
  0
LINE
  5
4F
100
AcDbEntity
  8
0
  6
ByLayer
 62
  256
370
   -1
100
AcDbLine
 10
-3.979039320256561e-13
 20
12.70000033224937
 11
-4.349997891200388
 21
12.70000033224937
  0
LINE
  5
50
100
AcDbEntity
  8
0
  6
ByLayer
 62
  256
370
   -1
100
AcDbLine
 10
112.4999640857074
 20
331.8172558477584
 11
108.5499642634075
 21
331.8172558477584
  0
LINE
  5
51
100
AcDbEntity
  8
0
  6
ByLayer
 62
  256
370
   -1
100
AcDbLine
 10
112.4999640857073
 20
182.5499384641628
 11
112.4999640857074
 21
180.7499402322622
  0
LINE
  5
52
100
AcDbEntity
  8
0
  6
ByLayer
 62
  256
370
   -1
100
AcDbLine
 10
329.8998944320213
 20
-0.25
 11
329.8998944320213
 21
12.69999660705048
  0
LINE
  5
53
100
AcDbEntity
  8
0
  6
ByLayer
 62
  256
370
   -1
100
AcDbLine
 10
112.4999640857074
 20
333.6172540796593
 11
112.4999640857074
 21
331.8172558477584
  0
LINE
  5
54
100
AcDbEntity
  8
0
  6
ByLayer
 62
  256
370
   -1
100
AcDbLine
 10
122.8999606720079
 20
327.4172511760601
 11
122.8999606720079
 21
322.1172539211598
  0
LINE
  5
55
100
AcDbEntity
  8
0
  6
ByLayer
 62
  256
370
   -1
100
AcDbLine
 10
117.5999618502077
 20
333.6172540796588
 11
112.4999640857074
 21
333.6172540796593
  0
LINE
  5
56
100
AcDbEntity
  8
0
  6
ByLayer
 62
  256
370
   -1
100
AcDbLine
 10
107.8999624321585
 20
349.2998871434228
 11
107.8999624321583
 21
353.2498869657227
  0
LINE
  5
57
100
AcDbEntity
  8
0
  6
ByLayer
 62
  256
370
   -1
100
AcDbLine
 10
14.34999640860059
 20
31.19999297585059
 11
10.3999965863008
 21
31.19999297585088
  0
LINE
  5
58
100
AcDbEntity
  8
0
  6
ByLayer
 62
  256
370
   -1
100
AcDbLine
 10
10.3999965863008
 20
31.19999297585088
 11
10.39999658630069
 21
32.99999120775158
  0
LINE
  5
59
100
AcDbEntity
  8
0
  6
ByLayer
 62
  256
370
   -1
100
AcDbLine
 10
122.899960672008
 20
345.9172438196621
 11
127.2499585632083
 21
345.9172438196621
  0
LINE
  5
5A
100
AcDbEntity
  8
0
  6
ByLayer
 62
  256
370
   -1
100
AcDbLine
 10
117.5999618502077
 20
188.7499413677613
 11
112.4999640857074
 21
188.7499413677616
  0
LINE
  5
5B
100
AcDbEntity
  8
0
  6
ByLayer
 62
  256
370
   -1
100
AcDbLine
 10
-3.979039320256561e-13
 20
26.79998830415298
 11
5.299998821800102
 21
26.79998830415298
  0
LINE
  5
5C
100
AcDbEntity
  8
0
  6
ByLayer
 62
  256
370
   -1
100
AcDbLine
 10
108.5499642634079
 20
182.5499384641628
 11
112.4999640857073
 21
182.5499384641628
  0
LINE
  5
5D
100
AcDbEntity
  8
0
  6
ByLayer
 62
  256
370
   -1
100
AcDbLine
 10
117.5999618502077
 20
331.8172558477584
 11
117.5999618502077
 21
333.6172540796588
  0
LINE
  5
5E
100
AcDbEntity
  8
0
  6
ByLayer
 62
  256
370
   -1
100
AcDbLine
 10
329.8998944320213
 20
45.29998094775448
 11
329.8998944320213
 21
58.24998128000379
  0
LINE
  5
5F
100
AcDbEntity
  8
0
  6
ByLayer
 62
  256
370
   -1
100
AcDbLine
 10
324.5998956102213
 20
24.99999007225227
 11
324.5998956102213
 21
26.79998830415241
  0
LINE
  5
60
100
AcDbEntity
  8
0
  6
ByLayer
 62
  256
370
   -1
100
AcDbLine
 10
117.5999618502077
 20
327.4172511760601
 11
122.8999606720079
 21
327.4172511760601
  0
LINE
  5
61
100
AcDbEntity
  8
0
  6
ByLayer
 62
  256
370
   -1
100
AcDbLine
 10
122.8999606720079
 20
322.1172539211598
 11
127.2499585632089
 21
322.1172539211596
  0
LINE
  5
62
100
AcDbEntity
  8
0
  6
ByLayer
 62
  256
370
   -1
100
AcDbLine
 10
0
 20
21.49999629735026
 11
-3.979039320256561e-13
 21
26.79998830415298
  0
LINE
  5
63
100
AcDbEntity
  8
0
  6
ByLayer
 62
  256
370
   -1
100
AcDbLine
 10
14.34999640860059
 20
26.7999883041532
 11
14.34999640860059
 21
31.19999297585059
  0
LINE
  5
64
100
AcDbEntity
  8
0
  6
ByLayer
 62
  256
370
   -1
100
AcDbLine
 10
122.899960672008
 20
186.9499431358609
 11
117.5999618502077
 21
186.9499431358607
  0
LINE
  5
65
100
AcDbEntity
  8
0
  6
ByLayer
 62
  256
370
   -1
100
AcDbLine
 10
122.899960672008
 20
201.0499311077644
 11
127.2499585632083
 21
201.0499311077644
  0
LINE
  5
66
100
AcDbEntity
  8
0
  6
ByLayer
 62
  256
370
   -1
100
AcDbLine
 10
108.5499642634075
 20
186.9499431358607
 11
108.5499642634079
 21
182.5499384641628
  0
LINE
  5
67
100
AcDbEntity
  8
0
  6
ByLayer
 62
  256
370
   -1
100
AcDbLine
 10
319.4998978457209
 20
24.99999007225227
 11
324.5998956102213
 21
24.99999007225227
  0
LINE
  5
68
100
AcDbEntity
  8
0
  6
ByLayer
 62
  256
370
   -1
100
AcDbLine
 10
122.899960672008
 20
331.8172558477584
 11
117.5999618502077
 21
331.8172558477584
  0
LINE
  5
69
100
AcDbEntity
  8
0
  6
ByLayer
 62
  256
370
   -1
100
AcDbLine
 10
112.4999640857074
 20
180.7499402322622
 11
117.5999618502077
 21
180.7499402322622
  0
LINE
  5
6A
100
AcDbEntity
  8
0
  6
ByLayer
 62
  256
370
   -1
100
AcDbLine
 10
112.299967103856
 20
349.2998871434228
 11
107.8999624321585
 21
349.2998871434228
  0
LINE
  5
6B
100
AcDbEntity
  8
0
  6
ByLayer
 62
  256
370
   -1
100
AcDbLine
 10
112.299967103856
 20
363.6498835520234
 11
112.299967103856
 21
358.3498847302234
  0
LINE
  5
6C
100
AcDbEntity
  8
0
  6
ByLayer
 62
  256
370
   -1
100
AcDbLine
 10
10.39999658630069
 20
32.99999120775158
 11
5.299998821800216
 21
32.99999120775158
  0
LINE
  5
6D
100
AcDbEntity
  8
0
  6
ByLayer
 62
  256
370
   -1
100
AcDbLine
 10
5.299998821800216
 20
32.99999120775158
 11
5.299998821800102
 21
31.19999297585116
  0
LINE
  5
6E
100
AcDbEntity
  8
0
  6
ByLayer
 62
  256
370
   -1
100
AcDbLine
 10
324.5998956102213
 20
26.79998830415241
 11
329.8998944320211
 21
26.79998830415281
  0
LINE
  5
6F
100
AcDbEntity
  8
0
  6
ByLayer
 62
  256
370
   -1
100
AcDbLine
 10
329.8998944320211
 20
21.49999104925206
 11
329.8998944320211
 21
26.79998830415281
  0
LINE
  5
70
100
AcDbEntity
  8
0
  6
ByLayer
 62
  256
370
   -1
100
AcDbLine
 10
315.5498980234211
 20
26.79998830415298
 11
319.4998978457206
 21
26.79998830415298
  0
LINE
  5
71
100
AcDbEntity
  8
0
  6
ByLayer
 62
  256
370
   -1
100
AcDbLine
 10
319.4998978457206
 20
26.79998830415298
 11
319.4998978457209
 21
24.99999007225227
  0
LINE
  5
72
100
AcDbEntity
  8
0
  6
ByLayer
 62
  256
370
   -1
100
AcDbLine
 10
69.72596516224471
 20
4.775985866240262
 11
70.0991146722227
 21
4.489658176683065
  0
LINE
  5
73
100
AcDbEntity
  8
0
  6
ByLayer
 62
  256
370
   -1
100
AcDbLine
 10
108.5499642634075
 20
331.8172558477584
 11
108.5499642634079
 21
327.4172511760605
  0
LINE
  5
74
100
AcDbEntity
  8
0
  6
ByLayer
 62
  256
370
   -1
100
AcDbLine
 10
117.5999618502077
 20
182.5499384641622
 11
122.8999606720079
 21
182.5499384641628
  0
LINE
  5
75
100
AcDbEntity
  8
0
  6
ByLayer
 62
  256
370
   -1
100
AcDbLine
 10
122.8999606720079
 20
177.2499412092621
 11
127.2499585632088
 21
177.2499412092621
  0
LINE
  5
76
100
AcDbEntity
  8
0
  6
ByLayer
 62
  256
370
   -1
100
AcDbLine
 10
10.39999658630057
 20
24.9999900722521
 11
10.39999658630057
 21
26.79998830415281
  0
LINE
  5
77
100
AcDbEntity
  8
0
  6
ByLayer
 62
  256
370
   -1
100
AcDbLine
 10
10.39999658630057
 20
26.79998830415281
 11
14.34999640860059
 21
26.7999883041532
  0
LINE
  5
78
100
AcDbEntity
  8
0
  6
ByLayer
 62
  256
370
   -1
100
AcDbLine
 10
106.0999642002576
 20
353.2498869657227
 11
106.0999642002576
 21
358.349884730223
  0
LINE
  5
79
100
AcDbEntity
  8
0
  6
ByLayer
 62
  256
370
   -1
100
AcDbLine
 10
114.0999653357567
 20
358.3498847302234
 11
114.099965335757
 21
353.2498869657232
  0
LINE
  5
7A
100
AcDbEntity
  8
0
  6
ByLayer
 62
  256
370
   -1
100
AcDbLine
 10
107.8999624321583
 20
353.2498869657227
 11
106.0999642002576
 21
353.2498869657227
  0
LINE
  5
7B
100
AcDbEntity
  8
0
  6
ByLayer
 62
  256
370
   -1
100
AcDbLine
 10
324.5998956102211
 20
32.99999120775118
 11
319.4998978457209
 21
32.99999120775158
  0
LINE
  5
7C
100
AcDbEntity
  8
0
  6
ByLayer
 62
  256
370
   -1
100
AcDbLine
 10
122.899960672008
 20
363.6498835520231
 11
112.299967103856
 21
363.6498835520234
  0
LINE
  5
7D
100
AcDbEntity
  8
0
  6
ByLayer
 62
  256
370
   -1
100
AcDbLine
 10
106.0999642002576
 20
358.349884730223
 11
107.8999624321579
 21
358.3498847302234
  0
LINE
  5
7E
100
AcDbEntity
  8
0
  6
ByLayer
 62
  256
370
   -1
100
AcDbLine
 10
107.8999624321579
 20
358.3498847302234
 11
107.8999624321583
 21
363.6498835520231
  0
LINE
  5
7F
100
AcDbEntity
  8
0
  6
ByLayer
 62
  256
370
   -1
100
AcDbLine
 10
117.5999618502077
 20
180.7499402322622
 11
117.5999618502077
 21
182.5499384641622
  0
LINE
  5
80
100
AcDbEntity
  8
0
  6
ByLayer
 62
  256
370
   -1
100
AcDbLine
 10
112.4999640857074
 20
188.7499413677616
 11
112.4999640857074
 21
186.9499431358609
  0
LINE
  5
81
100
AcDbEntity
  8
0
  6
ByLayer
 62
  256
370
   -1
100
AcDbLine
 10
329.8998944320211
 20
21.49999104925206
 11
334.2498923232221
 21
21.49999104925206
  0
LINE
  5
82
100
AcDbEntity
  8
0
  6
ByLayer
 62
  256
370
   -1
100
AcDbLine
 10
315.549898023421
 20
31.19999297585076
 11
315.5498980234211
 21
26.79998830415298
  0
LINE
  5
83
100
AcDbEntity
  8
0
  6
ByLayer
 62
  256
370
   -1
100
AcDbLine
 10
122.8999606720079
 20
182.5499384641628
 11
122.8999606720079
 21
177.2499412092621
  0
LINE
  5
84
100
AcDbEntity
  8
0
  6
ByLayer
 62
  256
370
   -1
100
AcDbLine
 10
108.5499642634079
 20
327.4172511760605
 11
112.4999640857073
 21
327.4172511760605
  0
LINE
  5
85
100
AcDbEntity
  8
0
  6
ByLayer
 62
  256
370
   -1
100
AcDbLine
 10
117.5999618502077
 20
325.6172529441597
 11
117.5999618502077
 21
327.4172511760601
  0
LINE
  5
86
100
AcDbEntity
  8
0
  6
ByLayer
 62
  256
370
   -1
100
AcDbLine
 10
329.8998944320213
 20
31.19999297585088
 11
329.8998944320213
 21
36.49998498265347
  0
LINE
  5
87
100
AcDbEntity
  8
0
  6
ByLayer
 62
  256
370
   -1
100
AcDbLine
 10
1.13686837721616e-13
 20
31.19999297585088
 11
-3.979039320256561e-13
 21
36.49999023075168
  0
LINE
  5
88
100
AcDbEntity
  8
0
  6
ByLayer
 62
  256
370
   -1
100
AcDbLine
 10
-3.979039320256561e-13
 20
36.49999023075168
 11
-4.349997891200388
 21
36.49999023075168
  0
LINE
  5
89
100
AcDbEntity
  8
0
  6
ByLayer
 62
  256
370
   -1
100
AcDbLine
 10
-3.979039320256561e-13
 20
12.70000033224937
 11
0
 21
-0.25
  0
LINE
  5
8A
100
AcDbEntity
  8
0
  6
ByLayer
 62
  256
370
   -1
100
AcDbLine
 10
5.299998821800102
 20
26.79998830415298
 11
5.299998821800216
 21
24.9999900722525
  0
LINE
  5
8B
100
AcDbEntity
  8
0
  6
ByLayer
 62
  256
370
   -1
100
AcDbLine
 10
5.299998821800216
 20
24.9999900722525
 11
10.39999658630057
 21
24.9999900722521
  0
LINE
  5
8C
100
AcDbEntity
  8
0
  6
ByLayer
 62
  256
370
   -1
100
AcDbLine
 10
0
 20
45.29998467295331
 11
0
 21
58.24998128000379
  0
LINE
  5
8D
100
AcDbEntity
  8
0
  6
ByLayer
 62
  256
370
   -1
100
AcDbLine
 10
122.899960672008
 20
337.1172478545611
 11
122.899960672008
 21
331.8172558477584
  0
LINE
  5
8E
100
AcDbEntity
  8
0
  6
ByLayer
 62
  256
370
   -1
100
AcDbLine
 10
97.39166968666621
 20
363.6498835520234
 11
0
 21
58.24998128000379
  0
LINE
  5
8F
100
AcDbEntity
  8
0
  6
ByLayer
 62
  256
370
   -1
100
AcDbLine
 10
112.4999640857074
 20
186.9499431358609
 11
108.5499642634075
 21
186.9499431358607
  0
LINE
  5
90
100
AcDbEntity
  8
0
  6
ByLayer
 62
  256
370
   -1
100
AcDbLine
 10
329.8998944320213
 20
31.19999297585088
 11
324.5998956102213
 21
31.19999297585059
  0
LINE
  5
91
100
AcDbEntity
  8
0
  6
ByLayer
 62
  256
370
   -1
100
AcDbLine
 10
112.2999671038562
 20
353.2498869657232
 11
112.299967103856
 21
349.2998871434228
  0
LINE
  5
92
100
AcDbEntity
  8
0
  6
ByLayer
 62
  256
370
   -1
100
AcDbLine
 10
122.899960672008
 20
192.2499351426634
 11
122.899960672008
 21
186.9499431358609
  0
LINE
  5
93
100
AcDbEntity
  8
0
  6
ByLayer
 62
  256
370
   -1
100
AcDbLine
 10
319.4998978457209
 20
31.19999297585088
 11
315.549898023421
 21
31.19999297585076
  0
LINE
  5
94
100
AcDbEntity
  8
0
  6
ByLayer
 62
  256
370
   -1
100
AcDbLine
 10
114.099965335757
 20
353.2498869657232
 11
112.2999671038562
 21
353.2498869657232
  0
LINE
  5
95
100
AcDbEntity
  8
0
  6
ByLayer
 62
  256
370
   -1
100
AcDbLine
 10
112.299967103856
 20
358.3498847302234
 11
114.0999653357567
 21
358.3498847302234
  0
LINE
  5
96
100
AcDbEntity
  8
0
  6
ByLayer
 62
  256
370
   -1
100
AcDbLine
 10
324.5998956102213
 20
31.19999297585059
 11
324.5998956102211
 21
32.99999120775118
  0
LINE
  5
97
100
AcDbEntity
  8
0
  6
ByLayer
 62
  256
370
   -1
100
AcDbLine
 10
329.8998944320213
 20
45.29998094775448
 11
334.2498923232218
 21
45.29998094775448
  0
LINE
  5
98
100
AcDbEntity
  8
0
  6
ByLayer
 62
  256
370
   -1
100
AcDbLine
 10
117.5999618502077
 20
186.9499431358607
 11
117.5999618502077
 21
188.7499413677613
  0
LINE
  5
99
100
AcDbEntity
  8
0
  6
ByLayer
 62
  256
370
   -1
100
AcDbLine
 10
5.299998821800102
 20
31.19999297585116
 11
1.13686837721616e-13
 21
31.19999297585088
  0
LINE
  5
9A
100
AcDbEntity
  8
0
  6
ByLayer
 62
  256
370
   -1
100
AcDbLine
 10
177.916264015841
 20
7.790330901589812
 11
177.4499432160115
 21
7.851723199564276
  0
LINE
  5
9B
100
AcDbEntity
  8
0
  6
ByLayer
 62
  256
370
   -1
100
AcDbLine
 10
112.4999640857073
 20
327.4172511760605
 11
112.4999640857074
 21
325.6172529441599
  0
LINE
  5
9C
100
AcDbEntity
  8
0
  6
ByLayer
 62
  256
370
   -1
100
AcDbLine
 10
112.4999640857074
 20
325.6172529441599
 11
117.5999618502077
 21
325.6172529441597
  0
LINE
  5
9D
100
AcDbEntity
  8
0
  6
ByLayer
 62
  256
370
   -1
100
AcDbLine
 10
48.3680529820609
 20
157.1976017714797
 11
48.18817014833471
 21
156.7635019321972
  0
LINE
  5
9E
100
AcDbEntity
  8
0
  6
ByLayer
 62
  256
370
   -1
100
AcDbLine
 10
46.0803155817558
 20
145.3067687285282
 11
45.9004327480298
 21
144.8726688892455
  0
LINE
  5
9F
100
AcDbEntity
  8
0
  6
ByLayer
 62
  256
370
   -1
100
AcDbLine
 10
156.7999542008086
 20
46.64998296220341
 11
158.5999524327092
 21
46.64998296220347
  0
LINE
  5
A0
100
AcDbEntity
  8
0
  6
ByLayer
 62
  256
370
   -1
100
AcDbLine
 10
156.7999542008089
 20
41.54998519770299
 11
156.7999542008086
 21
37.59998537540309
  0
LINE
  5
A1
100
AcDbEntity
  8
0
  6
ByLayer
 62
  256
370
   -1
100
AcDbLine
 10
170.899942172712
 20
51.94998178400391
 11
170.8999421727122
 21
56.2999796752037
  0
LINE
  5
A2
100
AcDbEntity
  8
0
  6
ByLayer
 62
  256
370
   -1
100
AcDbLine
 10
150.59995129721
 20
41.54998519770288
 11
150.59995129721
 21
46.64998296220307
  0
LINE
  5
A3
100
AcDbEntity
  8
0
  6
ByLayer
 62
  256
370
   -1
100
AcDbLine
 10
158.5999524327092
 20
46.64998296220347
 11
158.5999524327096
 21
41.54998519770311
  0
LINE
  5
A4
100
AcDbEntity
  8
0
  6
ByLayer
 62
  256
370
   -1
100
AcDbLine
 10
150.59995129721
 20
46.64998296220307
 11
152.3999495291105
 21
46.64998296220307
  0
LINE
  5
A5
100
AcDbEntity
  8
0
  6
ByLayer
 62
  256
370
   -1
100
AcDbLine
 10
152.399949529111
 20
37.59998537540309
 11
152.3999495291105
 21
41.54998519770277
  0
LINE
  5
A6
100
AcDbEntity
  8
0
  6
ByLayer
 62
  256
370
   -1
100
AcDbLine
 10
156.7999542008086
 20
51.9499817840034
 11
156.7999542008086
 21
46.64998296220341
  0
LINE
  5
A7
100
AcDbEntity
  8
0
  6
ByLayer
 62
  256
370
   -1
100
AcDbLine
 10
152.3999495291105
 20
46.64998296220307
 11
152.3999495291107
 21
51.94998178400317
  0
LINE
  5
A8
100
AcDbEntity
  8
0
  6
ByLayer
 62
  256
370
   -1
100
AcDbLine
 10
147.0999522742099
 20
51.94998178400391
 11
147.0999522742099
 21
56.29997967520421
  0
LINE
  5
A9
100
AcDbEntity
  8
0
  6
ByLayer
 62
  256
370
   -1
100
AcDbLine
 10
156.7999542008086
 20
37.59998537540309
 11
152.399949529111
 21
37.59998537540309
  0
LINE
  5
AA
100
AcDbEntity
  8
0
  6
ByLayer
 62
  256
370
   -1
100
AcDbLine
 10
152.3999495291105
 20
41.54998519770277
 11
150.59995129721
 21
41.54998519770288
  0
LINE
  5
AB
100
AcDbEntity
  8
0
  6
ByLayer
 62
  256
370
   -1
100
AcDbLine
 10
158.5999524327096
 20
41.54998519770311
 11
156.7999542008089
 21
41.54998519770299
  0
LINE
  5
AC
100
AcDbEntity
  8
0
  6
ByLayer
 62
  256
370
   -1
100
AcDbLine
 10
156.7999542008086
 20
51.9499817840034
 11
162.0999462076114
 21
51.9499817840034
  0
LINE
  5
AD
100
AcDbEntity
  8
0
  6
ByLayer
 62
  256
370
   -1
100
AcDbLine
 10
147.0999522742099
 20
51.94998178400391
 11
152.3999495291107
 21
51.94998178400317
  0
LINE
  5
AE
100
AcDbEntity
  8
0
  6
ByLayer
 62
  256
370
   -1
100
AcDbLine
 10
170.899942172712
 20
51.94998178400391
 11
179.843214032925
 21
51.94998178400391
  0
LINE
  5
AF
100
AcDbEntity
  8
0
  6
ByLayer
 62
  256
370
   -1
100
AcDbLine
 10
127.2499585632088
 20
177.2499412092621
 11
127.7675966534137
 21
177.1817928618401
  0
LINE
  5
B0
100
AcDbEntity
  8
0
  6
ByLayer
 62
  256
370
   -1
100
AcDbLine
 10
127.7675966534137
 20
177.1817928618401
 11
128.2499585632087
 21
176.9819920168309
  0
LINE
  5
B1
100
AcDbEntity
  8
0
  6
ByLayer
 62
  256
370
   -1
100
AcDbLine
 10
128.2499585632087
 20
176.9819920168309
 11
128.6641721255818
 21
176.6641547716352
  0
LINE
  5
B2
100
AcDbEntity
  8
0
  6
ByLayer
 62
  256
370
   -1
100
AcDbLine
 10
128.6641721255818
 20
176.6641547716352
 11
128.9820093707776
 21
176.2499412092621
  0
LINE
  5
B3
100
AcDbEntity
  8
0
  6
ByLayer
 62
  256
370
   -1
100
AcDbLine
 10
128.9820093707776
 20
176.2499412092621
 11
129.1818102157869
 21
175.7675792994672
  0
LINE
  5
B4
100
AcDbEntity
  8
0
  6
ByLayer
 62
  256
370
   -1
100
AcDbLine
 10
129.2499585632088
 20
175.2499412092622
 11
129.2499585632092
 21
170.4499467670606
  0
LINE
  5
B5
100
AcDbEntity
  8
0
  6
ByLayer
 62
  256
370
   -1
100
AcDbLine
 10
129.1818102157869
 20
175.7675792994672
 11
129.2499585632088
 21
175.2499412092622
  0
LINE
  5
B6
100
AcDbEntity
  8
0
  6
ByLayer
 62
  256
370
   -1
100
AcDbLine
 10
127.2499585632092
 20
168.4499467670603
 11
122.899960672008
 21
168.4499467670603
  0
LINE
  5
B7
100
AcDbEntity
  8
0
  6
ByLayer
 62
  256
370
   -1
100
AcDbLine
 10
127.2499585632092
 20
168.4499467670603
 11
127.7675966534142
 21
168.5180951144824
  0
LINE
  5
B8
100
AcDbEntity
  8
0
  6
ByLayer
 62
  256
370
   -1
100
AcDbLine
 10
127.7675966534142
 20
168.5180951144824
 11
128.2499585632092
 21
168.7178959594916
  0
LINE
  5
B9
100
AcDbEntity
  8
0
  6
ByLayer
 62
  256
370
   -1
100
AcDbLine
 10
128.2499585632092
 20
168.7178959594916
 11
128.6641721255823
 21
169.0357332046873
  0
LINE
  5
BA
100
AcDbEntity
  8
0
  6
ByLayer
 62
  256
370
   -1
100
AcDbLine
 10
128.6641721255823
 20
169.0357332046873
 11
128.982009370778
 21
169.4499467670603
  0
LINE
  5
BB
100
AcDbEntity
  8
0
  6
ByLayer
 62
  256
370
   -1
100
AcDbLine
 10
128.982009370778
 20
169.4499467670603
 11
129.1818102157873
 21
169.9323086768555
  0
LINE
  5
BC
100
AcDbEntity
  8
0
  6
ByLayer
 62
  256
370
   -1
100
AcDbLine
 10
129.1818102157873
 20
169.9323086768555
 11
129.2499585632092
 21
170.4499467670606
  0
LINE
  5
BD
100
AcDbEntity
  8
0
  6
ByLayer
 62
  256
370
   -1
100
AcDbLine
 10
127.2499585632089
 20
322.1172539211596
 11
127.7675966534139
 21
322.0491055737378
  0
LINE
  5
BE
100
AcDbEntity
  8
0
  6
ByLayer
 62
  256
370
   -1
100
AcDbLine
 10
127.7675966534139
 20
322.0491055737378
 11
128.2499585632087
 21
321.8493047287284
  0
LINE
  5
BF
100
AcDbEntity
  8
0
  6
ByLayer
 62
  256
370
   -1
100
AcDbLine
 10
128.2499585632087
 20
321.8493047287284
 11
128.6641721255818
 21
321.5314674835327
  0
LINE
  5
C0
100
AcDbEntity
  8
0
  6
ByLayer
 62
  256
370
   -1
100
AcDbLine
 10
128.6641721255818
 20
321.5314674835327
 11
128.9820093707776
 21
321.1172539211599
  0
LINE
  5
C1
100
AcDbEntity
  8
0
  6
ByLayer
 62
  256
370
   -1
100
AcDbLine
 10
128.9820093707776
 20
321.1172539211599
 11
129.1818102157869
 21
320.6348920113647
  0
LINE
  5
C2
100
AcDbEntity
  8
0
  6
ByLayer
 62
  256
370
   -1
100
AcDbLine
 10
129.2499585632088
 20
320.1172539211598
 11
129.2499585632092
 21
315.3172594789577
  0
LINE
  5
C3
100
AcDbEntity
  8
0
  6
ByLayer
 62
  256
370
   -1
100
AcDbLine
 10
129.1818102157869
 20
320.6348920113647
 11
129.2499585632088
 21
320.1172539211598
  0
LINE
  5
C4
100
AcDbEntity
  8
0
  6
ByLayer
 62
  256
370
   -1
100
AcDbLine
 10
127.2499585632083
 20
337.117247854561
 11
122.899960672008
 21
337.1172478545611
  0
LINE
  5
C5
100
AcDbEntity
  8
0
  6
ByLayer
 62
  256
370
   -1
100
AcDbLine
 10
127.2499585632083
 20
337.117247854561
 11
127.7675966534133
 21
337.185396201983
  0
LINE
  5
C6
100
AcDbEntity
  8
0
  6
ByLayer
 62
  256
370
   -1
100
AcDbLine
 10
127.7675966534133
 20
337.185396201983
 11
128.2499585632083
 21
337.3851970469922
  0
LINE
  5
C7
100
AcDbEntity
  8
0
  6
ByLayer
 62
  256
370
   -1
100
AcDbLine
 10
128.2499585632083
 20
337.3851970469922
 11
128.6641721255813
 21
337.7030342921879
  0
LINE
  5
C8
100
AcDbEntity
  8
0
  6
ByLayer
 62
  256
370
   -1
100
AcDbLine
 10
128.6641721255813
 20
337.7030342921879
 11
128.9820093707772
 21
338.1172478545608
  0
LINE
  5
C9
100
AcDbEntity
  8
0
  6
ByLayer
 62
  256
370
   -1
100
AcDbLine
 10
128.9820093707772
 20
338.1172478545608
 11
129.1818102157865
 21
338.599609764356
  0
LINE
  5
CA
100
AcDbEntity
  8
0
  6
ByLayer
 62
  256
370
   -1
100
AcDbLine
 10
129.1818102157865
 20
338.599609764356
 11
129.2499585632083
 21
339.1172478545608
  0
LINE
  5
CB
100
AcDbEntity
  8
0
  6
ByLayer
 62
  256
370
   -1
100
AcDbLine
 10
336.2498923232218
 20
43.29998094775436
 11
336.2498923232218
 21
38.49998498265347
  0
LINE
  5
CC
100
AcDbEntity
  8
0
  6
ByLayer
 62
  256
370
   -1
100
AcDbLine
 10
336.2498923232218
 20
43.29998094775436
 11
336.1817439758001
 21
43.8176190379595
  0
LINE
  5
CD
100
AcDbEntity
  8
0
  6
ByLayer
 62
  256
370
   -1
100
AcDbLine
 10
336.1817439758001
 20
43.8176190379595
 11
335.9819431307908
 21
44.29998094775436
  0
LINE
  5
CE
100
AcDbEntity
  8
0
  6
ByLayer
 62
  256
370
   -1
100
AcDbLine
 10
335.9819431307908
 20
44.29998094775436
 11
335.6641058855951
 21
44.71419451012747
  0
LINE
  5
CF
100
AcDbEntity
  8
0
  6
ByLayer
 62
  256
370
   -1
100
AcDbLine
 10
335.6641058855951
 20
44.71419451012747
 11
335.2498923232218
 21
45.03203175532337
  0
LINE
  5
D0
100
AcDbEntity
  8
0
  6
ByLayer
 62
  256
370
   -1
100
AcDbLine
 10
335.2498923232218
 20
45.03203175532337
 11
334.7675304134269
 21
45.23183260033261
  0
LINE
  5
D1
100
AcDbEntity
  8
0
  6
ByLayer
 62
  256
370
   -1
100
AcDbLine
 10
334.7675304134269
 20
45.23183260033261
 11
334.2498923232218
 21
45.29998094775448
  0
LINE
  5
D2
100
AcDbEntity
  8
0
  6
ByLayer
 62
  256
370
   -1
100
AcDbLine
 10
334.2498923232218
 20
36.49998498265347
 11
329.8998944320213
 21
36.49998498265347
  0
LINE
  5
D3
100
AcDbEntity
  8
0
  6
ByLayer
 62
  256
370
   -1
100
AcDbLine
 10
334.2498923232218
 20
36.49998498265347
 11
334.7675304134268
 21
36.56813333007528
  0
LINE
  5
D4
100
AcDbEntity
  8
0
  6
ByLayer
 62
  256
370
   -1
100
AcDbLine
 10
334.7675304134268
 20
36.56813333007528
 11
335.2498923232217
 21
36.76793417508446
  0
LINE
  5
D5
100
AcDbEntity
  8
0
  6
ByLayer
 62
  256
370
   -1
100
AcDbLine
 10
335.2498923232217
 20
36.76793417508446
 11
335.6641058855948
 21
37.08577142028037
  0
LINE
  5
D6
100
AcDbEntity
  8
0
  6
ByLayer
 62
  256
370
   -1
100
AcDbLine
 10
335.6641058855948
 20
37.08577142028037
 11
335.9819431307905
 21
37.49998498265347
  0
LINE
  5
D7
100
AcDbEntity
  8
0
  6
ByLayer
 62
  256
370
   -1
100
AcDbLine
 10
335.9819431307905
 20
37.49998498265347
 11
336.1817439757999
 21
37.98234689244839
  0
LINE
  5
D8
100
AcDbEntity
  8
0
  6
ByLayer
 62
  256
370
   -1
100
AcDbLine
 10
336.1817439757999
 20
37.98234689244839
 11
336.2498923232218
 21
38.49998498265347
  0
LINE
  5
D9
100
AcDbEntity
  8
0
  6
ByLayer
 62
  256
370
   -1
100
AcDbLine
 10
-4.349997891200388
 20
36.49999023075168
 11
-4.867635981405485
 21
36.56813857817349
  0
LINE
  5
DA
100
AcDbEntity
  8
0
  6
ByLayer
 62
  256
370
   -1
100
AcDbLine
 10
-4.867635981405485
 20
36.56813857817349
 11
-5.349997891200388
 21
36.76793942318267
  0
LINE
  5
DB
100
AcDbEntity
  8
0
  6
ByLayer
 62
  256
370
   -1
100
AcDbLine
 10
-5.349997891200388
 20
36.76793942318267
 11
-5.764211453573509
 21
37.08577666837857
  0
LINE
  5
DC
100
AcDbEntity
  8
0
  6
ByLayer
 62
  256
370
   -1
100
AcDbLine
 10
-5.764211453573509
 20
37.08577666837857
 11
-6.082048698769285
 21
37.49999023075168
  0
LINE
  5
DD
100
AcDbEntity
  8
0
  6
ByLayer
 62
  256
370
   -1
100
AcDbLine
 10
-6.082048698769285
 20
37.49999023075168
 11
-6.281849543778605
 21
37.9823521405466
  0
LINE
  5
DE
100
AcDbEntity
  8
0
  6
ByLayer
 62
  256
370
   -1
100
AcDbLine
 10
-6.349997891200417
 20
38.49999023075156
 11
-6.349997891200417
 21
43.29998467295331
  0
LINE
  5
DF
100
AcDbEntity
  8
0
  6
ByLayer
 62
  256
370
   -1
100
AcDbLine
 10
-6.281849543778605
 20
37.9823521405466
 11
-6.349997891200417
 21
38.49999023075156
  0
LINE
  5
E0
100
AcDbEntity
  8
0
  6
ByLayer
 62
  256
370
   -1
100
AcDbLine
 10
-4.349997891200388
 20
45.29998467295331
 11
0
 21
45.29998467295331
  0
LINE
  5
E1
100
AcDbEntity
  8
0
  6
ByLayer
 62
  256
370
   -1
100
AcDbLine
 10
-4.349997891200388
 20
45.29998467295331
 11
-4.867635981405584
 21
45.2318363255315
  0
LINE
  5
E2
100
AcDbEntity
  8
0
  6
ByLayer
 62
  256
370
   -1
100
AcDbLine
 10
-4.867635981405584
 20
45.2318363255315
 11
-5.349997891200388
 21
45.03203548052221
  0
LINE
  5
E3
100
AcDbEntity
  8
0
  6
ByLayer
 62
  256
370
   -1
100
AcDbLine
 10
-5.349997891200388
 20
45.03203548052221
 11
-5.764211453573509
 21
44.71419823532636
  0
LINE
  5
E4
100
AcDbEntity
  8
0
  6
ByLayer
 62
  256
370
   -1
100
AcDbLine
 10
-5.764211453573509
 20
44.71419823532636
 11
-6.082048698769285
 21
44.29998467295331
  0
LINE
  5
E5
100
AcDbEntity
  8
0
  6
ByLayer
 62
  256
370
   -1
100
AcDbLine
 10
-6.082048698769285
 20
44.29998467295331
 11
-6.281849543778605
 21
43.8176227631584
  0
LINE
  5
E6
100
AcDbEntity
  8
0
  6
ByLayer
 62
  256
370
   -1
100
AcDbLine
 10
-6.281849543778605
 20
43.8176227631584
 11
-6.349997891200417
 21
43.29998467295331
  0
LINE
  5
E7
100
AcDbEntity
  8
0
  6
ByLayer
 62
  256
370
   -1
100
AcDbLine
 10
127.2499585632083
 20
345.9172438196621
 11
127.7675966534134
 21
345.8490954722401
  0
LINE
  5
E8
100
AcDbEntity
  8
0
  6
ByLayer
 62
  256
370
   -1
100
AcDbLine
 10
127.7675966534134
 20
345.8490954722401
 11
128.2499585632084
 21
345.649294627231
  0
LINE
  5
E9
100
AcDbEntity
  8
0
  6
ByLayer
 62
  256
370
   -1
100
AcDbLine
 10
128.2499585632084
 20
345.649294627231
 11
128.6641721255815
 21
345.3314573820352
  0
LINE
  5
EA
100
AcDbEntity
  8
0
  6
ByLayer
 62
  256
370
   -1
100
AcDbLine
 10
128.6641721255815
 20
345.3314573820352
 11
128.9820093707772
 21
344.9172438196621
  0
LINE
  5
EB
100
AcDbEntity
  8
0
  6
ByLayer
 62
  256
370
   -1
100
AcDbLine
 10
128.9820093707772
 20
344.9172438196621
 11
129.1818102157865
 21
344.4348819098671
  0
LINE
  5
EC
100
AcDbEntity
  8
0
  6
ByLayer
 62
  256
370
   -1
100
AcDbLine
 10
129.2499585632084
 20
343.917243819662
 11
129.2499585632083
 21
339.1172478545608
  0
LINE
  5
ED
100
AcDbEntity
  8
0
  6
ByLayer
 62
  256
370
   -1
100
AcDbLine
 10
129.1818102157865
 20
344.4348819098671
 11
129.2499585632084
 21
343.917243819662
  0
LINE
  5
EE
100
AcDbEntity
  8
0
  6
ByLayer
 62
  256
370
   -1
100
AcDbLine
 10
127.2499585632092
 20
313.3172594789577
 11
122.899960672008
 21
313.3172594789577
  0
LINE
  5
EF
100
AcDbEntity
  8
0
  6
ByLayer
 62
  256
370
   -1
100
AcDbLine
 10
127.2499585632092
 20
313.3172594789577
 11
127.7675966534142
 21
313.3854078263794
  0
LINE
  5
F0
100
AcDbEntity
  8
0
  6
ByLayer
 62
  256
370
   -1
100
AcDbLine
 10
127.7675966534142
 20
313.3854078263794
 11
128.2499585632092
 21
313.5852086713888
  0
LINE
  5
F1
100
AcDbEntity
  8
0
  6
ByLayer
 62
  256
370
   -1
100
AcDbLine
 10
128.2499585632092
 20
313.5852086713888
 11
128.6641721255823
 21
313.9030459165845
  0
LINE
  5
F2
100
AcDbEntity
  8
0
  6
ByLayer
 62
  256
370
   -1
100
AcDbLine
 10
128.6641721255823
 20
313.9030459165845
 11
128.982009370778
 21
314.3172594789579
  0
LINE
  5
F3
100
AcDbEntity
  8
0
  6
ByLayer
 62
  256
370
   -1
100
AcDbLine
 10
128.982009370778
 20
314.3172594789579
 11
129.1818102157873
 21
314.7996213887528
  0
LINE
  5
F4
100
AcDbEntity
  8
0
  6
ByLayer
 62
  256
370
   -1
100
AcDbLine
 10
129.1818102157873
 20
314.7996213887528
 11
129.2499585632092
 21
315.3172594789577
  0
LINE
  5
F5
100
AcDbEntity
  8
0
  6
ByLayer
 62
  256
370
   -1
100
AcDbLine
 10
-6.349997891200303
 20
19.49999629735026
 11
-6.281849543778293
 21
20.0176343875554
  0
LINE
  5
F6
100
AcDbEntity
  8
0
  6
ByLayer
 62
  256
370
   -1
100
AcDbLine
 10
-6.281849543778293
 20
20.0176343875554
 11
-6.082048698769114
 21
20.49999629735026
  0
LINE
  5
F7
100
AcDbEntity
  8
0
  6
ByLayer
 62
  256
370
   -1
100
AcDbLine
 10
-6.082048698769114
 20
20.49999629735026
 11
-5.764211453573409
 21
20.91420985972337
  0
LINE
  5
F8
100
AcDbEntity
  8
0
  6
ByLayer
 62
  256
370
   -1
100
AcDbLine
 10
-5.764211453573409
 20
20.91420985972337
 11
-5.349997891200289
 21
21.23204710491916
  0
LINE
  5
F9
100
AcDbEntity
  8
0
  6
ByLayer
 62
  256
370
   -1
100
AcDbLine
 10
-5.349997891200289
 20
21.23204710491916
 11
-4.867635981405201
 21
21.43184794992851
  0
LINE
  5
FA
100
AcDbEntity
  8
0
  6
ByLayer
 62
  256
370
   -1
100
AcDbLine
 10
-4.349997891200303
 20
21.49999629735026
 11
0
 21
21.49999629735026
  0
LINE
  5
FB
100
AcDbEntity
  8
0
  6
ByLayer
 62
  256
370
   -1
100
AcDbLine
 10
-4.867635981405201
 20
21.43184794992851
 11
-4.349997891200303
 21
21.49999629735026
  0
LINE
  5
FC
100
AcDbEntity
  8
0
  6
ByLayer
 62
  256
370
   -1
100
AcDbLine
 10
170.8999421727122
 20
56.2999796752037
 11
170.8317938252903
 21
56.81761776540867
  0
LINE
  5
FD
100
AcDbEntity
  8
0
  6
ByLayer
 62
  256
370
   -1
100
AcDbLine
 10
170.8317938252903
 20
56.81761776540867
 11
170.631992980281
 21
57.2999796752037
  0
LINE
  5
FE
100
AcDbEntity
  8
0
  6
ByLayer
 62
  256
370
   -1
100
AcDbLine
 10
170.631992980281
 20
57.2999796752037
 11
170.3141557350854
 21
57.71419323757686
  0
LINE
  5
FF
100
AcDbEntity
  8
0
  6
ByLayer
 62
  256
370
   -1
100
AcDbLine
 10
170.3141557350854
 20
57.71419323757686
 11
169.8999421727122
 21
58.0320304827726
  0
LINE
  5
100
100
AcDbEntity
  8
0
  6
ByLayer
 62
  256
370
   -1
100
AcDbLine
 10
169.8999421727122
 20
58.0320304827726
 11
169.4175802629173
 21
58.23183132778178
  0
LINE
  5
101
100
AcDbEntity
  8
0
  6
ByLayer
 62
  256
370
   -1
100
AcDbLine
 10
168.8999421727121
 20
58.2999796752037
 11
164.0999462076112
 21
58.2999796752037
  0
LINE
  5
102
100
AcDbEntity
  8
0
  6
ByLayer
 62
  256
370
   -1
100
AcDbLine
 10
169.4175802629173
 20
58.23183132778178
 11
168.8999421727121
 21
58.2999796752037
  0
LINE
  5
103
100
AcDbEntity
  8
0
  6
ByLayer
 62
  256
370
   -1
100
AcDbLine
 10
145.0999522742099
 20
58.29997967520421
 11
140.2999578320085
 21
58.29997967520427
  0
LINE
  5
104
100
AcDbEntity
  8
0
  6
ByLayer
 62
  256
370
   -1
100
AcDbLine
 10
145.0999522742099
 20
58.29997967520421
 11
145.6175903644151
 21
58.23183132778229
  0
LINE
  5
105
100
AcDbEntity
  8
0
  6
ByLayer
 62
  256
370
   -1
100
AcDbLine
 10
145.6175903644151
 20
58.23183132778229
 11
146.09995227421
 21
58.03203048277311
  0
LINE
  5
106
100
AcDbEntity
  8
0
  6
ByLayer
 62
  256
370
   -1
100
AcDbLine
 10
146.09995227421
 20
58.03203048277311
 11
146.514165836583
 21
57.71419323757721
  0
LINE
  5
107
100
AcDbEntity
  8
0
  6
ByLayer
 62
  256
370
   -1
100
AcDbLine
 10
146.514165836583
 20
57.71419323757721
 11
146.8320030817788
 21
57.29997967520421
  0
LINE
  5
108
100
AcDbEntity
  8
0
  6
ByLayer
 62
  256
370
   -1
100
AcDbLine
 10
146.8320030817788
 20
57.29997967520421
 11
147.031803926788
 21
56.81761776540918
  0
LINE
  5
109
100
AcDbEntity
  8
0
  6
ByLayer
 62
  256
370
   -1
100
AcDbLine
 10
147.031803926788
 20
56.81761776540918
 11
147.0999522742099
 21
56.29997967520421
  0
LINE
  5
10A
100
AcDbEntity
  8
0
  6
ByLayer
 62
  256
370
   -1
100
AcDbLine
 10
138.2999578320084
 20
56.29997967520427
 11
138.2999578320084
 21
51.94998178400391
  0
LINE
  5
10B
100
AcDbEntity
  8
0
  6
ByLayer
 62
  256
370
   -1
100
AcDbLine
 10
138.2999578320084
 20
56.29997967520427
 11
138.3681061794303
 21
56.81761776540941
  0
LINE
  5
10C
100
AcDbEntity
  8
0
  6
ByLayer
 62
  256
370
   -1
100
AcDbLine
 10
138.3681061794303
 20
56.81761776540941
 11
138.5679070244396
 21
57.29997967520427
  0
LINE
  5
10D
100
AcDbEntity
  8
0
  6
ByLayer
 62
  256
370
   -1
100
AcDbLine
 10
138.5679070244396
 20
57.29997967520427
 11
138.8857442696353
 21
57.71419323757738
  0
LINE
  5
10E
100
AcDbEntity
  8
0
  6
ByLayer
 62
  256
370
   -1
100
AcDbLine
 10
138.8857442696353
 20
57.71419323757738
 11
139.2999578320084
 21
58.03203048277328
  0
LINE
  5
10F
100
AcDbEntity
  8
0
  6
ByLayer
 62
  256
370
   -1
100
AcDbLine
 10
139.2999578320084
 20
58.03203048277328
 11
139.7823197418034
 21
58.23183132778246
  0
LINE
  5
110
100
AcDbEntity
  8
0
  6
ByLayer
 62
  256
370
   -1
100
AcDbLine
 10
139.7823197418034
 20
58.23183132778246
 11
140.2999578320085
 21
58.29997967520427
  0
LINE
  5
111
100
AcDbEntity
  8
0
  6
ByLayer
 62
  256
370
   -1
100
AcDbLine
 10
162.0999462076112
 20
56.2999796752037
 11
162.0999462076114
 21
51.9499817840034
  0
LINE
  5
112
100
AcDbEntity
  8
0
  6
ByLayer
 62
  256
370
   -1
100
AcDbLine
 10
162.0999462076112
 20
56.2999796752037
 11
162.1680945550332
 21
56.81761776540867
  0
LINE
  5
113
100
AcDbEntity
  8
0
  6
ByLayer
 62
  256
370
   -1
100
AcDbLine
 10
162.1680945550332
 20
56.81761776540867
 11
162.3678954000425
 21
57.2999796752037
  0
LINE
  5
114
100
AcDbEntity
  8
0
  6
ByLayer
 62
  256
370
   -1
100
AcDbLine
 10
162.3678954000425
 20
57.2999796752037
 11
162.6857326452381
 21
57.71419323757681
  0
LINE
  5
115
100
AcDbEntity
  8
0
  6
ByLayer
 62
  256
370
   -1
100
AcDbLine
 10
162.6857326452381
 20
57.71419323757681
 11
163.0999462076112
 21
58.03203048277248
  0
LINE
  5
116
100
AcDbEntity
  8
0
  6
ByLayer
 62
  256
370
   -1
100
AcDbLine
 10
163.0999462076112
 20
58.03203048277248
 11
163.5823081174063
 21
58.23183132778178
  0
LINE
  5
117
100
AcDbEntity
  8
0
  6
ByLayer
 62
  256
370
   -1
100
AcDbLine
 10
163.5823081174063
 20
58.23183132778178
 11
164.0999462076112
 21
58.2999796752037
  0
LINE
  5
118
100
AcDbEntity
  8
0
  6
ByLayer
 62
  256
370
   -1
100
AcDbLine
 10
127.2499585632083
 20
192.2499351426634
 11
122.899960672008
 21
192.2499351426634
  0
LINE
  5
119
100
AcDbEntity
  8
0
  6
ByLayer
 62
  256
370
   -1
100
AcDbLine
 10
127.2499585632083
 20
192.2499351426634
 11
127.7675966534134
 21
192.3180834900853
  0
LINE
  5
11A
100
AcDbEntity
  8
0
  6
ByLayer
 62
  256
370
   -1
100
AcDbLine
 10
127.7675966534134
 20
192.3180834900853
 11
128.2499585632083
 21
192.5178843350944
  0
LINE
  5
11B
100
AcDbEntity
  8
0
  6
ByLayer
 62
  256
370
   -1
100
AcDbLine
 10
128.2499585632083
 20
192.5178843350944
 11
128.6641721255813
 21
192.8357215802902
  0
LINE
  5
11C
100
AcDbEntity
  8
0
  6
ByLayer
 62
  256
370
   -1
100
AcDbLine
 10
128.6641721255813
 20
192.8357215802902
 11
128.9820093707772
 21
193.2499351426633
  0
LINE
  5
11D
100
AcDbEntity
  8
0
  6
ByLayer
 62
  256
370
   -1
100
AcDbLine
 10
128.9820093707772
 20
193.2499351426633
 11
129.1818102157865
 21
193.7322970524584
  0
LINE
  5
11E
100
AcDbEntity
  8
0
  6
ByLayer
 62
  256
370
   -1
100
AcDbLine
 10
129.1818102157865
 20
193.7322970524584
 11
129.2499585632083
 21
194.2499351426632
  0
LINE
  5
11F
100
AcDbEntity
  8
0
  6
ByLayer
 62
  256
370
   -1
100
AcDbLine
 10
179.843214032925
 20
58.24998128000379
 11
179.843214032925
 21
51.94998178400391
  0
LINE
  5
120
100
AcDbEntity
  8
0
  6
ByLayer
 62
  256
370
   -1
100
AcDbLine
 10
-4.349997891200388
 20
12.70000033224937
 11
-4.867635981405485
 21
12.7681486796713
  0
LINE
  5
121
100
AcDbEntity
  8
0
  6
ByLayer
 62
  256
370
   -1
100
AcDbLine
 10
-4.867635981405485
 20
12.7681486796713
 11
-5.349997891200388
 21
12.96794952468048
  0
LINE
  5
122
100
AcDbEntity
  8
0
  6
ByLayer
 62
  256
370
   -1
100
AcDbLine
 10
-5.349997891200388
 20
12.96794952468048
 11
-5.764211453573409
 21
13.28578676987627
  0
LINE
  5
123
100
AcDbEntity
  8
0
  6
ByLayer
 62
  256
370
   -1
100
AcDbLine
 10
-5.764211453573409
 20
13.28578676987627
 11
-6.082048698769285
 21
13.70000033224937
  0
LINE
  5
124
100
AcDbEntity
  8
0
  6
ByLayer
 62
  256
370
   -1
100
AcDbLine
 10
-6.082048698769285
 20
13.70000033224937
 11
-6.281849543778407
 21
14.18236224204441
  0
LINE
  5
125
100
AcDbEntity
  8
0
  6
ByLayer
 62
  256
370
   -1
100
AcDbLine
 10
-6.349997891200417
 20
14.70000033224937
 11
-6.349997891200303
 21
19.49999629735026
  0
LINE
  5
126
100
AcDbEntity
  8
0
  6
ByLayer
 62
  256
370
   -1
100
AcDbLine
 10
-6.281849543778407
 20
14.18236224204441
 11
-6.349997891200417
 21
14.70000033224937
  0
LINE
  5
127
100
AcDbEntity
  8
0
  6
ByLayer
 62
  256
370
   -1
100
AcDbLine
 10
336.2498923232224
 20
14.69999660705037
 11
336.1817439758004
 21
14.1823585168454
  0
LINE
  5
128
100
AcDbEntity
  8
0
  6
ByLayer
 62
  256
370
   -1
100
AcDbLine
 10
336.1817439758004
 20
14.1823585168454
 11
335.9819431307913
 21
13.69999660705037
  0
LINE
  5
129
100
AcDbEntity
  8
0
  6
ByLayer
 62
  256
370
   -1
100
AcDbLine
 10
335.9819431307913
 20
13.69999660705037
 11
335.6641058855955
 21
13.28578304467726
  0
LINE
  5
12A
100
AcDbEntity
  8
0
  6
ByLayer
 62
  256
370
   -1
100
AcDbLine
 10
335.6641058855955
 20
13.28578304467726
 11
335.2498923232223
 21
12.96794579948141
  0
LINE
  5
12B
100
AcDbEntity
  8
0
  6
ByLayer
 62
  256
370
   -1
100
AcDbLine
 10
335.2498923232223
 20
12.96794579948141
 11
334.7675304134273
 21
12.76814495447218
  0
LINE
  5
12C
100
AcDbEntity
  8
0
  6
ByLayer
 62
  256
370
   -1
100
AcDbLine
 10
334.2498923232224
 20
12.69999660705031
 11
329.8998944320213
 21
12.69999660705048
  0
LINE
  5
12D
100
AcDbEntity
  8
0
  6
ByLayer
 62
  256
370
   -1
100
AcDbLine
 10
334.7675304134273
 20
12.76814495447218
 11
334.2498923232224
 21
12.69999660705031
  0
LINE
  5
12E
100
AcDbEntity
  8
0
  6
ByLayer
 62
  256
370
   -1
100
AcDbLine
 10
334.2498923232221
 20
21.49999104925206
 11
334.7675304134272
 21
21.43184270183031
  0
LINE
  5
12F
100
AcDbEntity
  8
0
  6
ByLayer
 62
  256
370
   -1
100
AcDbLine
 10
334.7675304134272
 20
21.43184270183031
 11
335.2498923232221
 21
21.23204185682107
  0
LINE
  5
130
100
AcDbEntity
  8
0
  6
ByLayer
 62
  256
370
   -1
100
AcDbLine
 10
335.2498923232221
 20
21.23204185682107
 11
335.6641058855953
 21
20.91420461162528
  0
LINE
  5
131
100
AcDbEntity
  8
0
  6
ByLayer
 62
  256
370
   -1
100
AcDbLine
 10
335.6641058855953
 20
20.91420461162528
 11
335.9819431307911
 21
20.49999104925217
  0
LINE
  5
132
100
AcDbEntity
  8
0
  6
ByLayer
 62
  256
370
   -1
100
AcDbLine
 10
335.9819431307911
 20
20.49999104925217
 11
336.1817439758003
 21
20.01762913945731
  0
LINE
  5
133
100
AcDbEntity
  8
0
  6
ByLayer
 62
  256
370
   -1
100
AcDbLine
 10
336.2498923232221
 20
19.49999104925217
 11
336.2498923232224
 21
14.69999660705037
  0
LINE
  5
134
100
AcDbEntity
  8
0
  6
ByLayer
 62
  256
370
   -1
100
AcDbLine
 10
336.1817439758003
 20
20.01762913945731
 11
336.2498923232221
 21
19.49999104925217
  0
LINE
  5
135
100
AcDbEntity
  8
0
  6
ByLayer
 62
  256
370
   -1
100
AcDbLine
 10
127.2499585632083
 20
201.0499311077644
 11
127.7675966534134
 21
200.9817827603426
  0
LINE
  5
136
100
AcDbEntity
  8
0
  6
ByLayer
 62
  256
370
   -1
100
AcDbLine
 10
127.7675966534134
 20
200.9817827603426
 11
128.2499585632084
 21
200.7819819153333
  0
LINE
  5
137
100
AcDbEntity
  8
0
  6
ByLayer
 62
  256
370
   -1
100
AcDbLine
 10
128.2499585632084
 20
200.7819819153333
 11
128.6641721255815
 21
200.4641446701376
  0
LINE
  5
138
100
AcDbEntity
  8
0
  6
ByLayer
 62
  256
370
   -1
100
AcDbLine
 10
128.6641721255815
 20
200.4641446701376
 11
128.9820093707772
 21
200.0499311077645
  0
LINE
  5
139
100
AcDbEntity
  8
0
  6
ByLayer
 62
  256
370
   -1
100
AcDbLine
 10
128.9820093707772
 20
200.0499311077645
 11
129.1818102157865
 21
199.5675691979694
  0
LINE
  5
13A
100
AcDbEntity
  8
0
  6
ByLayer
 62
  256
370
   -1
100
AcDbLine
 10
129.2499585632084
 20
199.0499311077644
 11
129.2499585632083
 21
194.2499351426632
  0
LINE
  5
13B
100
AcDbEntity
  8
0
  6
ByLayer
 62
  256
370
   -1
100
AcDbLine
 10
129.1818102157865
 20
199.5675691979694
 11
129.2499585632084
 21
199.0499311077644
  0
LINE
  5
13C
100
AcDbEntity
  8
0
  6
ByLayer
 62
  256
370
   -1
100
AcDbLine
 10
189.8432132329251
 20
58.24998128000379
 11
199.8432124329252
 21
48.24998208000386
  0
LINE
  5
13D
100
AcDbEntity
  8
0
  6
ByLayer
 62
  256
370
   -1
100
AcDbLine
 10
199.8432124329252
 20
48.24998208000386
 11
309.8998960320212
 21
48.24998208000386
  0
LINE
  5
13E
100
AcDbEntity
  8
0
  6
ByLayer
 62
  256
370
   -1
100
AcDbLine
 10
319.8998952320213
 20
58.24998128000379
 11
329.8998944320213
 21
58.24998128000379
  0
LINE
  5
13F
100
AcDbEntity
  8
0
  6
ByLayer
 62
  256
370
   -1
100
AcDbLine
 10
309.8998960320212
 20
48.24998208000386
 11
319.8998952320213
 21
58.24998128000379
  0
LINE
  5
140
100
AcDbEntity
  8
0
  6
ByLayer
 62
  256
370
   -1
100
AcDbLine
 10
44.37492068865561
 20
72.62837531835447
 11
44.8407860378617
 21
72.5669751494346
  0
LINE
  5
141
100
AcDbEntity
  8
0
  6
ByLayer
 62
  256
370
   -1
100
AcDbLine
 10
18.25942377087532
 20
63.48190091250956
 11
18.43930660460151
 21
63.91600075179207
  0
LINE
  5
142
100
AcDbEntity
  8
0
  6
ByLayer
 62
  256
370
   -1
100
AcDbLine
 10
92.16873973589921
 20
69.0182800840962
 11
91.9890161495812
 21
69.1083133010942
  0
LINE
  5
143
100
AcDbEntity
  8
0
  6
ByLayer
 62
  256
370
   -1
100
AcDbLine
 10
89.22270716779761
 20
62.46668634051008
 11
88.9367070960634
 21
62.83951936386308
  0
LINE
  5
144
100
AcDbEntity
  8
0
  6
ByLayer
 62
  256
370
   -1
100
AcDbLine
 10
46.6297113636104
 20
159.4637241444455
 11
47.09557671281692
 21
159.4023239755257
  0
LINE
  5
145
100
AcDbEntity
  8
0
  6
ByLayer
 62
  256
370
   -1
100
AcDbLine
 10
45.0707373424973
 20
158.5639475455644
 11
45.3568441231819
 21
158.9366986882596
  0
LINE
  5
146
100
AcDbEntity
  8
0
  6
ByLayer
 62
  256
370
   -1
100
AcDbLine
 10
42.78299994219211
 20
146.6731145026127
 11
43.06910672287691
 21
147.0458656453081
  0
LINE
  5
147
100
AcDbEntity
  8
0
  6
ByLayer
 62
  256
370
   -1
100
AcDbLine
 10
45.7292309387326
 20
156.1050083359624
 11
45.35647979603681
 21
156.3911151166465
  0
LINE
  5
148
100
AcDbEntity
  8
0
  6
ByLayer
 62
  256
370
   -1
100
AcDbLine
 10
44.34145872691622
 20
143.9728922903644
 11
43.8755933777102
 21
144.0342924592842
  0
LINE
  5
149
100
AcDbEntity
  8
0
  6
ByLayer
 62
  256
370
   -1
100
AcDbLine
 10
44.89072115578091
 20
157.1980994516151
 11
44.8294543398512
 21
157.6639823570754
  0
LINE
  5
14A
100
AcDbEntity
  8
0
  6
ByLayer
 62
  256
370
   -1
100
AcDbLine
 10
43.33150806075861
 20
144.3155257522884
 11
43.06874239573202
 21
144.5002820736948
  0
LINE
  5
14B
100
AcDbEntity
  8
0
  6
ByLayer
 62
  256
370
   -1
100
AcDbLine
 10
91.73625687548281
 20
156.4829692761531
 11
91.3634238521301
 21
156.1969692044188
  0
LINE
  5
14C
100
AcDbEntity
  8
0
  6
ByLayer
 62
  256
370
   -1
100
AcDbLine
 10
267.3999155228169
 20
2.749997986200469
 11
276.5999132225166
 21
2.749997986200697
  0
LINE
  5
14D
100
AcDbEntity
  8
0
  6
ByLayer
 62
  256
370
   -1
100
AcDbLine
 10
276.5999132225166
 20
2.749997986200697
 11
276.5999132225168
 21
9.349999903499793
  0
LINE
  5
14E
100
AcDbEntity
  8
0
  6
ByLayer
 62
  256
370
   -1
100
AcDbLine
 10
45.664014073099
 20
65.29826998385767
 11
46.0981653847146
 21
65.47802855237961
  0
LINE
  5
14F
100
AcDbEntity
  8
0
  6
ByLayer
 62
  256
370
   -1
100
AcDbLine
 10
47.4635672708616
 20
62.18032194163101
 11
47.02941595924611
 21
62.00056337310917
  0
LINE
  5
150
100
AcDbEntity
  8
0
  6
ByLayer
 62
  256
370
   -1
100
AcDbLine
 10
69.2596443624152
 20
6.516318783829774
 11
69.19825206444071
 21
6.04999798400047
  0
LINE
  5
151
100
AcDbEntity
  8
0
  6
ByLayer
 62
  256
370
   -1
100
AcDbLine
 10
69.43963747268731
 20
6.950860591782373
 11
69.2596443624152
 21
6.516318783829774
  0
LINE
  5
152
100
AcDbEntity
  8
0
  6
ByLayer
 62
  256
370
   -1
100
AcDbLine
 10
69.72596516224471
 20
7.324010101760564
 11
69.43963747268731
 21
6.950860591782373
  0
LINE
  5
153
100
AcDbEntity
  8
0
  6
ByLayer
 62
  256
370
   -1
100
AcDbLine
 10
70.0991146722227
 20
7.610337791317761
 11
69.72596516224471
 21
7.324010101760564
  0
LINE
  5
154
100
AcDbEntity
  8
0
  6
ByLayer
 62
  256
370
   -1
100
AcDbLine
 10
45.45974184177101
 20
72.27155626799407
 11
45.64763701983981
 21
72.10098553502399
  0
LINE
  5
155
100
AcDbEntity
  8
0
  6
ByLayer
 62
  256
370
   -1
100
AcDbLine
 10
114.991330801564
 20
64.77220255701468
 11
115.4571961507699
 21
64.71080238809458
  0
LINE
  5
156
100
AcDbEntity
  8
0
  6
ByLayer
 62
  256
370
   -1
100
AcDbLine
 10
69.43963747268731
 20
5.149135376218283
 11
69.72596516224471
 21
4.775985866240262
  0
LINE
  5
157
100
AcDbEntity
  8
0
  6
ByLayer
 62
  256
370
   -1
100
AcDbLine
 10
69.2596443624152
 20
5.583677184170881
 11
69.43963747268731
 21
5.149135376218283
  0
LINE
  5
158
100
AcDbEntity
  8
0
  6
ByLayer
 62
  256
370
   -1
100
AcDbLine
 10
116.5500472044826
 20
63.87197975033121
 11
116.7298057730044
 21
63.43782843871588
  0
LINE
  5
159
100
AcDbEntity
  8
0
  6
ByLayer
 62
  256
370
   -1
100
AcDbLine
 10
92.2636466588136
 20
157.7556856073377
 11
92.2022464898935
 21
157.2898202581314
  0
LINE
  5
15A
100
AcDbEntity
  8
0
  6
ByLayer
 62
  256
370
   -1
100
AcDbLine
 10
91.3638700599322
 20
159.3146596284512
 11
91.73662120262802
 21
159.0285528477665
  0
LINE
  5
15B
100
AcDbEntity
  8
0
  6
ByLayer
 62
  256
370
   -1
100
AcDbLine
 10
46.1417157506757
 20
145.7726340777347
 11
46.0803155817558
 21
145.3067687285282
  0
LINE
  5
15C
100
AcDbEntity
  8
0
  6
ByLayer
 62
  256
370
   -1
100
AcDbLine
 10
45.61432596734551
 20
144.4999177465501
 11
45.2414929439922
 21
144.2139176748158
  0
LINE
  5
15D
100
AcDbEntity
  8
0
  6
ByLayer
 62
  256
370
   -1
100
AcDbLine
 10
45.7296771465349
 20
159.222698759994
 11
46.16382845815022
 21
159.402457328516
  0
LINE
  5
15E
100
AcDbEntity
  8
0
  6
ByLayer
 62
  256
370
   -1
100
AcDbLine
 10
48.18842776652912
 20
158.5635013377623
 11
48.36818633505101
 21
158.1293500261465
  0
LINE
  5
15F
100
AcDbEntity
  8
0
  6
ByLayer
 62
  256
370
   -1
100
AcDbLine
 10
44.8078393125121
 20
147.5114909325742
 11
45.24193915179421
 21
147.3316080988478
  0
LINE
  5
160
100
AcDbEntity
  8
0
  6
ByLayer
 62
  256
370
   -1
100
AcDbLine
 10
184.7499413479128
 20
2.749997986200697
 11
193.9499371850129
 21
2.749997986200469
  0
LINE
  5
161
100
AcDbEntity
  8
0
  6
ByLayer
 62
  256
370
   -1
100
AcDbLine
 10
54.4999836508029
 20
9.349999903499793
 11
54.4999836508029
 21
2.749997986200469
  0
LINE
  5
162
100
AcDbEntity
  8
0
  6
ByLayer
 62
  256
370
   -1
100
AcDbLine
 10
72.5603170873222
 20
6.950860591782202
 11
72.27398939776501
 21
7.324010101760564
  0
LINE
  5
163
100
AcDbEntity
  8
0
  6
ByLayer
 62
  256
370
   -1
100
AcDbLine
 10
89.56342444656551
 20
156.1972268226137
 11
89.1906733038696
 21
156.483333603298
  0
LINE
  5
164
100
AcDbEntity
  8
0
  6
ByLayer
 62
  256
370
   -1
100
AcDbLine
 10
48.1227646930935
 20
64.6390725616256
 11
48.30252326161531
 21
64.20492125001027
  0
LINE
  5
165
100
AcDbEntity
  8
0
  6
ByLayer
 62
  256
370
   -1
100
AcDbLine
 10
71.9008398877867
 20
7.610337791317761
 11
71.46629807983422
 21
7.790330901589812
  0
LINE
  5
166
100
AcDbEntity
  8
0
  6
ByLayer
 62
  256
370
   -1
100
AcDbLine
 10
72.27398939776501
 20
7.324010101760564
 11
71.9008398877867
 21
7.610337791317761
  0
LINE
  5
167
100
AcDbEntity
  8
0
  6
ByLayer
 62
  256
370
   -1
100
AcDbLine
 10
88.7570818805321
 20
64.20541893014541
 11
88.9369647142581
 21
64.6395187694277
  0
LINE
  5
168
100
AcDbEntity
  8
0
  6
ByLayer
 62
  256
370
   -1
100
AcDbLine
 10
89.5959045182957
 20
65.29826998385767
 11
90.03005582991091
 21
65.47802855237961
  0
LINE
  5
169
100
AcDbEntity
  8
0
  6
ByLayer
 62
  256
370
   -1
100
AcDbLine
 10
21.27063262975391
 20
61.74280399572956
 11
20.89779960640131
 21
61.45680392399538
  0
LINE
  5
16A
100
AcDbEntity
  8
0
  6
ByLayer
 62
  256
370
   -1
100
AcDbLine
 10
89.5954583104934
 20
62.18057955982556
 11
89.22270716779761
 21
62.46668634051008
  0
LINE
  5
16B
100
AcDbEntity
  8
0
  6
ByLayer
 62
  256
370
   -1
100
AcDbLine
 10
20.89779960640131
 20
61.45680392399538
 11
20.46364829478591
 21
61.27704535547338
  0
LINE
  5
16C
100
AcDbEntity
  8
0
  6
ByLayer
 62
  256
370
   -1
100
AcDbLine
 10
45.6472726926948
 20
69.55540196341076
 11
45.2744396693424
 21
69.26940189167647
  0
LINE
  5
16D
100
AcDbEntity
  8
0
  6
ByLayer
 62
  256
370
   -1
100
AcDbLine
 10
18.25929041788501
 20
62.55015265784289
 11
18.19802360195521
 21
63.01603556330338
  0
LINE
  5
16E
100
AcDbEntity
  8
0
  6
ByLayer
 62
  256
370
   -1
100
AcDbLine
 10
19.09824640863891
 20
64.57475196622187
 11
19.53239772025411
 21
64.75451053474382
  0
LINE
  5
16F
100
AcDbEntity
  8
0
  6
ByLayer
 62
  256
370
   -1
100
AcDbLine
 10
91.04591176269841
 20
151.173789958497
 11
90.86615319417692
 21
151.6079412701125
  0
LINE
  5
170
100
AcDbEntity
  8
0
  6
ByLayer
 62
  256
370
   -1
100
AcDbLine
 10
89.19103763101469
 20
159.0289171749116
 11
89.56387065436761
 21
159.3149172466457
  0
LINE
  5
171
100
AcDbEntity
  8
0
  6
ByLayer
 62
  256
370
   -1
100
AcDbLine
 10
93.3553619236655
 20
72.40562894065749
 11
93.5350855099837
 21
72.3155957236599
  0
LINE
  5
172
100
AcDbEntity
  8
0
  6
ByLayer
 62
  256
370
   -1
100
AcDbLine
 10
115.8668574549981
 20
157.3696931519248
 11
115.4327061433827
 21
157.189934583403
  0
LINE
  5
173
100
AcDbEntity
  8
0
  6
ByLayer
 62
  256
370
   -1
100
AcDbLine
 10
91.70466297712832
 20
150.5148501544596
 11
91.55389283112891
 21
150.6565794976833
  0
LINE
  5
174
100
AcDbEntity
  8
0
  6
ByLayer
 62
  256
370
   -1
100
AcDbLine
 10
116.5257972590354
 20
158.0284443663546
 11
116.2396904783511
 21
157.6556932236591
  0
LINE
  5
175
100
AcDbEntity
  8
0
  6
ByLayer
 62
  256
370
   -1
100
AcDbLine
 10
93.9074723255342
 20
69.48390537136191
 11
93.53463930218152
 21
69.19790529962768
  0
LINE
  5
176
100
AcDbEntity
  8
0
  6
ByLayer
 62
  256
370
   -1
100
AcDbLine
 10
91.39545771605802
 20
62.18032194163101
 11
90.96130640444269
 21
62.00056337310917
  0
LINE
  5
177
100
AcDbEntity
  8
0
  6
ByLayer
 62
  256
370
   -1
100
AcDbLine
 10
21.55699702863321
 20
63.91555454399008
 11
21.73675559715551
 21
63.48140323237436
  0
LINE
  5
178
100
AcDbEntity
  8
0
  6
ByLayer
 62
  256
370
   -1
100
AcDbLine
 10
70.9999772800048
 20
7.851723199564276
 11
70.53365648017541
 21
7.790330901589812
  0
LINE
  5
179
100
AcDbEntity
  8
0
  6
ByLayer
 62
  256
370
   -1
100
AcDbLine
 10
89.99802196598282
 20
159.4946758151675
 11
90.4639048714435
 21
159.5559426310971
  0
LINE
  5
17A
100
AcDbEntity
  8
0
  6
ByLayer
 62
  256
370
   -1
100
AcDbLine
 10
18.4390489864066
 20
62.11600134622716
 11
18.25929041788501
 21
62.55015265784289
  0
LINE
  5
17B
100
AcDbEntity
  8
0
  6
ByLayer
 62
  256
370
   -1
100
AcDbLine
 10
91.7682907394109
 20
62.46632201336507
 11
91.39545771605802
 21
62.18032194163101
  0
LINE
  5
17C
100
AcDbEntity
  8
0
  6
ByLayer
 62
  256
370
   -1
100
AcDbLine
 10
46.16333077801511
 20
155.9251255022359
 11
45.7292309387326
 21
156.1050083359624
  0
LINE
  5
17D
100
AcDbEntity
  8
0
  6
ByLayer
 62
  256
370
   -1
100
AcDbLine
 10
45.07047972430271
 20
156.7639481399994
 11
44.89072115578091
 21
157.1980994516151
  0
LINE
  5
17E
100
AcDbEntity
  8
0
  6
ByLayer
 62
  256
370
   -1
100
AcDbLine
 10
43.06910672287691
 20
147.0458656453081
 11
43.44193974622971
 21
147.3318657170424
  0
LINE
  5
17F
100
AcDbEntity
  8
0
  6
ByLayer
 62
  256
370
   -1
100
AcDbLine
 10
43.44193974622971
 20
147.3318657170424
 11
43.87609105784512
 21
147.5116242855641
  0
LINE
  5
180
100
AcDbEntity
  8
0
  6
ByLayer
 62
  256
370
   -1
100
AcDbLine
 10
43.44149353842741
 20
144.2141752930104
 11
43.33150806075861
 21
144.3155257522884
  0
LINE
  5
181
100
AcDbEntity
  8
0
  6
ByLayer
 62
  256
370
   -1
100
AcDbLine
 10
43.06874239573202
 20
144.5002820736948
 11
42.78274232399751
 21
144.8731150970478
  0
LINE
  5
182
100
AcDbEntity
  8
0
  6
ByLayer
 62
  256
370
   -1
100
AcDbLine
 10
47.09507903268189
 20
155.9249921492456
 11
46.62919612722132
 21
155.8637253333159
  0
LINE
  5
183
100
AcDbEntity
  8
0
  6
ByLayer
 62
  256
370
   -1
100
AcDbLine
 10
48.18817014833471
 20
156.7635019321972
 11
47.9020633676503
 21
156.3907507895017
  0
LINE
  5
184
100
AcDbEntity
  8
0
  6
ByLayer
 62
  256
370
   -1
100
AcDbLine
 10
92.05465513829012
 20
64.6390725616256
 11
92.23441370681201
 21
64.20492125001027
  0
LINE
  5
185
100
AcDbEntity
  8
0
  6
ByLayer
 62
  256
370
   -1
100
AcDbLine
 10
114.0912965844879
 20
64.53117717256339
 11
114.5254478961032
 21
64.71093574108517
  0
LINE
  5
186
100
AcDbEntity
  8
0
  6
ByLayer
 62
  256
370
   -1
100
AcDbLine
 10
93.3003015531863
 20
72.41288579299487
 11
93.3553619236655
 21
72.40562894065749
  0
LINE
  5
187
100
AcDbEntity
  8
0
  6
ByLayer
 62
  256
370
   -1
100
AcDbLine
 10
42.81594666754231
 20
71.72859871947321
 11
43.1020534482264
 21
72.1013498621686
  0
LINE
  5
188
100
AcDbEntity
  8
0
  6
ByLayer
 62
  256
370
   -1
100
AcDbLine
 10
46.1133956600959
 20
71.2940012000555
 11
46.17466247602582
 21
70.82811829459501
  0
LINE
  5
189
100
AcDbEntity
  8
0
  6
ByLayer
 62
  256
370
   -1
100
AcDbLine
 10
46.17466247602582
 20
70.82811829459501
 11
46.113262307106
 21
70.36225294538866
  0
LINE
  5
18A
100
AcDbEntity
  8
0
  6
ByLayer
 62
  256
370
   -1
100
AcDbLine
 10
88.72504801660401
 20
158.2220661929334
 11
88.90493085033012
 21
158.6561660322156
  0
LINE
  5
18B
100
AcDbEntity
  8
0
  6
ByLayer
 62
  256
370
   -1
100
AcDbLine
 10
19.53190004011921
 20
61.27717870846368
 11
19.0978002008367
 21
61.4570615421901
  0
LINE
  5
18C
100
AcDbEntity
  8
0
  6
ByLayer
 62
  256
370
   -1
100
AcDbLine
 10
94.34348502045671
 20
151.6074435899775
 11
94.1636021867304
 21
151.1733437506949
  0
LINE
  5
18D
100
AcDbEntity
  8
0
  6
ByLayer
 62
  256
370
   -1
100
AcDbLine
 10
115.8908497822503
 20
61.4132291303365
 11
115.4566984706351
 21
61.23347056181467
  0
LINE
  5
18E
100
AcDbEntity
  8
0
  6
ByLayer
 62
  256
370
   -1
100
AcDbLine
 10
114.9673384743113
 20
160.7286665786029
 11
115.4332038235177
 21
160.6672664096829
  0
LINE
  5
18F
100
AcDbEntity
  8
0
  6
ByLayer
 62
  256
370
   -1
100
AcDbLine
 10
113.2283482664818
 20
158.4630418857723
 11
113.1670814505521
 21
158.9289247912329
  0
LINE
  5
190
100
AcDbEntity
  8
0
  6
ByLayer
 62
  256
370
   -1
100
AcDbLine
 10
93.6534569975733
 20
153.5184174873121
 11
93.7270895871913
 21
153.4879055228362
  0
LINE
  5
191
100
AcDbEntity
  8
0
  6
ByLayer
 62
  256
370
   -1
100
AcDbLine
 10
44.76379126641561
 20
63.73955358093906
 11
44.8251914353354
 21
64.20541893014541
  0
LINE
  5
192
100
AcDbEntity
  8
0
  6
ByLayer
 62
  256
370
   -1
100
AcDbLine
 10
47.02941595924611
 20
62.00056337310917
 11
46.5635330537857
 21
61.9392965571796
  0
LINE
  5
193
100
AcDbEntity
  8
0
  6
ByLayer
 62
  256
370
   -1
100
AcDbLine
 10
90.96130640444269
 20
62.00056337310917
 11
90.49542349898221
 21
61.9392965571796
  0
LINE
  5
194
100
AcDbEntity
  8
0
  6
ByLayer
 62
  256
370
   -1
100
AcDbLine
 10
88.9369647142581
 20
64.6395187694277
 11
89.2230714949427
 21
65.0122699121236
  0
LINE
  5
195
100
AcDbEntity
  8
0
  6
ByLayer
 62
  256
370
   -1
100
AcDbLine
 10
92.2022464898935
 20
157.2898202581314
 11
92.02236365616741
 21
156.8557204188489
  0
LINE
  5
196
100
AcDbEntity
  8
0
  6
ByLayer
 62
  256
370
   -1
100
AcDbLine
 10
45.2748858771443
 20
72.38709231570829
 11
45.38512982342692
 21
72.30247408936901
  0
LINE
  5
197
100
AcDbEntity
  8
0
  6
ByLayer
 62
  256
370
   -1
100
AcDbLine
 10
71.9008398877867
 20
4.489658176683065
 11
72.27398939776501
 21
4.775985866240489
  0
LINE
  5
198
100
AcDbEntity
  8
0
  6
ByLayer
 62
  256
370
   -1
100
AcDbLine
 10
71.4662980798343
 20
4.309665066411071
 11
71.9008398877867
 21
4.489658176683065
  0
LINE
  5
199
100
AcDbEntity
  8
0
  6
ByLayer
 62
  256
370
   -1
100
AcDbLine
 10
90.92977022065
 20
159.4945424621771
 11
91.3638700599322
 21
159.3146596284512
  0
LINE
  5
19A
100
AcDbEntity
  8
0
  6
ByLayer
 62
  256
370
   -1
100
AcDbLine
 10
113.191073777804
 20
62.97246076964467
 11
113.2524739467245
 21
63.43832611885097
  0
LINE
  5
19B
100
AcDbEntity
  8
0
  6
ByLayer
 62
  256
370
   -1
100
AcDbLine
 10
114.5249502159681
 20
61.2336039148052
 11
114.0908503766858
 21
61.41348674853117
  0
LINE
  5
19C
100
AcDbEntity
  8
0
  6
ByLayer
 62
  256
370
   -1
100
AcDbLine
 10
170.1499472865097
 20
9.349999903499793
 11
160.9499495868101
 21
9.349999903499793
  0
LINE
  5
19D
100
AcDbEntity
  8
0
  6
ByLayer
 62
  256
370
   -1
100
AcDbLine
 10
160.94994958681
 20
2.749997986200469
 11
170.1499472865097
 21
2.749997986200697
  0
LINE
  5
19E
100
AcDbEntity
  8
0
  6
ByLayer
 62
  256
370
   -1
100
AcDbLine
 10
184.7499413479125
 20
9.349999903499793
 11
184.7499413479128
 21
2.749997986200697
  0
LINE
  5
19F
100
AcDbEntity
  8
0
  6
ByLayer
 62
  256
370
   -1
100
AcDbLine
 10
178.7239553337718
 20
7.324010101760564
 11
178.3508058237936
 21
7.610337791317761
  0
LINE
  5
1A0
100
AcDbEntity
  8
0
  6
ByLayer
 62
  256
370
   -1
100
AcDbLine
 10
170.1499472865097
 20
2.749997986200697
 11
170.1499472865097
 21
9.349999903499793
  0
LINE
  5
1A1
100
AcDbEntity
  8
0
  6
ByLayer
 62
  256
370
   -1
100
AcDbLine
 10
176.1759310982515
 20
4.775985866240262
 11
176.5490806082296
 21
4.489658176683065
  0
LINE
  5
1A2
100
AcDbEntity
  8
0
  6
ByLayer
 62
  256
370
   -1
100
AcDbLine
 10
175.6482180004477
 20
6.04999798400047
 11
175.7096102984221
 21
5.583677184170881
  0
LINE
  5
1A3
100
AcDbEntity
  8
0
  6
ByLayer
 62
  256
370
   -1
100
AcDbLine
 10
193.9499371850129
 20
2.749997986200469
 11
193.9499371850129
 21
9.349999903499793
  0
LINE
  5
1A4
100
AcDbEntity
  8
0
  6
ByLayer
 62
  256
370
   -1
100
AcDbLine
 10
116.2640471327484
 20
64.2448127736842
 11
116.5500472044826
 21
63.87197975033121
  0
LINE
  5
1A5
100
AcDbEntity
  8
0
  6
ByLayer
 62
  256
370
   -1
100
AcDbLine
 10
116.7670802616816
 20
158.9284095548435
 11
116.7056800927617
 21
158.462544205637
  0
LINE
  5
1A6
100
AcDbEntity
  8
0
  6
ByLayer
 62
  256
370
   -1
100
AcDbLine
 10
113.6941069067376
 20
157.6560575508038
 11
113.4081068350035
 21
158.0288905741568
  0
LINE
  5
1A7
100
AcDbEntity
  8
0
  6
ByLayer
 62
  256
370
   -1
100
AcDbLine
 10
114.5009578887158
 20
157.1900679363933
 11
114.0668580494331
 21
157.3699507701195
  0
LINE
  5
1A8
100
AcDbEntity
  8
0
  6
ByLayer
 62
  256
370
   -1
100
AcDbLine
 10
116.7058134457519
 20
159.3942924603039
 11
116.7670802616816
 21
158.9284095548435
  0
LINE
  5
1A9
100
AcDbEntity
  8
0
  6
ByLayer
 62
  256
370
   -1
100
AcDbLine
 10
44.8407860378617
 20
72.5669751494346
 11
45.2748858771443
 21
72.38709231570829
  0
LINE
  5
1AA
100
AcDbEntity
  8
0
  6
ByLayer
 62
  256
370
   -1
100
AcDbLine
 10
44.8294543398512
 20
157.6639823570754
 11
44.8908545087713
 21
158.1298477062819
  0
LINE
  5
1AB
100
AcDbEntity
  8
0
  6
ByLayer
 62
  256
370
   -1
100
AcDbLine
 10
113.2524739467245
 20
63.43832611885097
 11
113.4323567804505
 21
63.87242595813336
  0
LINE
  5
1AC
100
AcDbEntity
  8
0
  6
ByLayer
 62
  256
370
   -1
100
AcDbLine
 10
20.46414597492101
 20
64.75437718175351
 11
20.89824581420341
 21
64.57449434802732
  0
LINE
  5
1AD
100
AcDbEntity
  8
0
  6
ByLayer
 62
  256
370
   -1
100
AcDbLine
 10
90.03005582991091
 20
65.47802855237961
 11
90.4959387353714
 21
65.53929536830907
  0
LINE
  5
1AE
100
AcDbEntity
  8
0
  6
ByLayer
 62
  256
370
   -1
100
AcDbLine
 10
178.3508058237936
 20
4.489658176683065
 11
178.7239553337716
 21
4.775985866240489
  0
LINE
  5
1AF
100
AcDbEntity
  8
0
  6
ByLayer
 62
  256
370
   -1
100
AcDbLine
 10
177.916264015841
 20
4.309665066411071
 11
178.3508058237936
 21
4.489658176683065
  0
LINE
  5
1B0
100
AcDbEntity
  8
0
  6
ByLayer
 62
  256
370
   -1
100
AcDbLine
 10
177.4499432160115
 20
7.851723199564276
 11
176.9836224161821
 21
7.790330901589812
  0
LINE
  5
1B1
100
AcDbEntity
  8
0
  6
ByLayer
 62
  256
370
   -1
100
AcDbLine
 10
92.13926049654592
 20
153.8122991470134
 11
92.60514340200641
 21
153.8735659629431
  0
LINE
  5
1B2
100
AcDbEntity
  8
0
  6
ByLayer
 62
  256
370
   -1
100
AcDbLine
 10
18.72504905814091
 20
61.7431683228744
 11
18.4390489864066
 21
62.11600134622716
  0
LINE
  5
1B3
100
AcDbEntity
  8
0
  6
ByLayer
 62
  256
370
   -1
100
AcDbLine
 10
91.0758886821867
 20
69.85710272185986
 11
90.89613011366509
 21
70.29125403347518
  0
LINE
  5
1B4
100
AcDbEntity
  8
0
  6
ByLayer
 62
  256
370
   -1
100
AcDbLine
 10
94.1938367244133
 20
71.65665591962227
 11
94.37359529293531
 21
71.22250460800677
  0
LINE
  5
1B5
100
AcDbEntity
  8
0
  6
ByLayer
 62
  256
370
   -1
100
AcDbLine
 10
94.37359529293531
 20
71.22250460800677
 11
94.43486210886491
 21
70.7566217025464
  0
LINE
  5
1B6
100
AcDbEntity
  8
0
  6
ByLayer
 62
  256
370
   -1
100
AcDbLine
 10
94.43486210886491
 20
70.7566217025464
 11
94.373461939945
 21
70.2907563533401
  0
LINE
  5
1B7
100
AcDbEntity
  8
0
  6
ByLayer
 62
  256
370
   -1
100
AcDbLine
 10
179.0102830233288
 20
6.950860591782202
 11
178.7239553337718
 21
7.324010101760564
  0
LINE
  5
1B8
100
AcDbEntity
  8
0
  6
ByLayer
 62
  256
370
   -1
100
AcDbLine
 10
47.9020633676503
 20
156.3907507895017
 11
47.5292303442973
 21
156.1047507177676
  0
LINE
  5
1B9
100
AcDbEntity
  8
0
  6
ByLayer
 62
  256
370
   -1
100
AcDbLine
 10
45.9004327480298
 20
144.8726688892455
 11
45.61432596734551
 21
144.4999177465501
  0
LINE
  5
1BA
100
AcDbEntity
  8
0
  6
ByLayer
 62
  256
370
   -1
100
AcDbLine
 10
42.60311710846611
 20
146.2390146633302
 11
42.78299994219211
 21
146.6731145026127
  0
LINE
  5
1BB
100
AcDbEntity
  8
0
  6
ByLayer
 62
  256
370
   -1
100
AcDbLine
 10
42.5417169395464
 20
145.7731493141235
 11
42.60311710846611
 21
146.2390146633302
  0
LINE
  5
1BC
100
AcDbEntity
  8
0
  6
ByLayer
 62
  256
370
   -1
100
AcDbLine
 10
44.8908545087713
 20
158.1298477062819
 11
45.0707373424973
 21
158.5639475455644
  0
LINE
  5
1BD
100
AcDbEntity
  8
0
  6
ByLayer
 62
  256
370
   -1
100
AcDbLine
 10
47.5296765520996
 20
159.2224411417994
 11
47.90242769479491
 21
158.9363343611151
  0
LINE
  5
1BE
100
AcDbEntity
  8
0
  6
ByLayer
 62
  256
370
   -1
100
AcDbLine
 10
45.2414929439922
 20
144.2139176748158
 11
44.80734163237682
 21
144.034159106294
  0
LINE
  5
1BF
100
AcDbEntity
  8
0
  6
ByLayer
 62
  256
370
   -1
100
AcDbLine
 10
91.36188875392111
 20
69.48426969850681
 11
91.0758886821867
 21
69.85710272185986
  0
LINE
  5
1C0
100
AcDbEntity
  8
0
  6
ByLayer
 62
  256
370
   -1
100
AcDbLine
 10
91.76865506655611
 20
65.01190558497871
 11
92.05465513829012
 21
64.6390725616256
  0
LINE
  5
1C1
100
AcDbEntity
  8
0
  6
ByLayer
 62
  256
370
   -1
100
AcDbLine
 10
88.90467323213551
 20
156.8561666266511
 11
88.7249146636135
 21
157.2903179382665
  0
LINE
  5
1C2
100
AcDbEntity
  8
0
  6
ByLayer
 62
  256
370
   -1
100
AcDbLine
 10
115.4566984706351
 20
61.23347056181467
 11
114.9908155651745
 21
61.1722037458851
  0
LINE
  5
1C3
100
AcDbEntity
  8
0
  6
ByLayer
 62
  256
370
   -1
100
AcDbLine
 10
19.99776538932521
 20
61.21577853954381
 11
19.53190004011921
 21
61.27717870846368
  0
LINE
  5
1C4
100
AcDbEntity
  8
0
  6
ByLayer
 62
  256
370
   -1
100
AcDbLine
 10
20.89824581420341
 20
64.57449434802732
 11
21.27099695689921
 21
64.2883875673428
  0
LINE
  5
1C5
100
AcDbEntity
  8
0
  6
ByLayer
 62
  256
370
   -1
100
AcDbLine
 10
92.05439752009551
 20
62.83907315606086
 11
91.7682907394109
 21
62.46632201336507
  0
LINE
  5
1C6
100
AcDbEntity
  8
0
  6
ByLayer
 62
  256
370
   -1
100
AcDbLine
 10
90.86628654716702
 20
152.5396895247794
 11
91.0461693808931
 21
152.9737893640617
  0
LINE
  5
1C7
100
AcDbEntity
  8
0
  6
ByLayer
 62
  256
370
   -1
100
AcDbLine
 10
90.80488637824692
 20
152.0738241755728
 11
90.86628654716702
 21
152.5396895247794
  0
LINE
  5
1C8
100
AcDbEntity
  8
0
  6
ByLayer
 62
  256
370
   -1
100
AcDbLine
 10
87.49997124900599
 20
2.749997986200469
 11
87.49997124900599
 21
9.349999903499793
  0
LINE
  5
1C9
100
AcDbEntity
  8
0
  6
ByLayer
 62
  256
370
   -1
100
AcDbLine
 10
63.69998135050281
 20
9.349999903499793
 11
54.4999836508029
 21
9.349999903499793
  0
LINE
  5
1CA
100
AcDbEntity
  8
0
  6
ByLayer
 62
  256
370
   -1
100
AcDbLine
 10
282.6258970342584
 20
7.324010101760564
 11
282.3395693447011
 21
6.950860591782373
  0
LINE
  5
1CB
100
AcDbEntity
  8
0
  6
ByLayer
 62
  256
370
   -1
100
AcDbLine
 10
90.96180408457801
 20
65.47789519938908
 11
91.3959039238602
 21
65.298012365663
  0
LINE
  5
1CC
100
AcDbEntity
  8
0
  6
ByLayer
 62
  256
370
   -1
100
AcDbLine
 10
91.36225308106592
 20
72.02985327012021
 11
91.7350861044186
 21
72.31585334185456
  0
LINE
  5
1CD
100
AcDbEntity
  8
0
  6
ByLayer
 62
  256
370
   -1
100
AcDbLine
 10
21.73675559715551
 20
63.48140323237436
 11
21.79802241308501
 21
63.01552032691387
  0
LINE
  5
1CE
100
AcDbEntity
  8
0
  6
ByLayer
 62
  256
370
   -1
100
AcDbLine
 10
113.6944712338827
 20
160.201641122417
 11
114.0673042572354
 21
160.4876411941515
  0
LINE
  5
1CF
100
AcDbEntity
  8
0
  6
ByLayer
 62
  256
370
   -1
100
AcDbLine
 10
175.7096102984221
 20
5.583677184170881
 11
175.8896034086941
 21
5.149135376218283
  0
LINE
  5
1D0
100
AcDbEntity
  8
0
  6
ByLayer
 62
  256
370
   -1
100
AcDbLine
 10
176.9836224161821
 20
4.309665066411071
 11
177.4499432160116
 21
4.248272768436607
  0
LINE
  5
1D1
100
AcDbEntity
  8
0
  6
ByLayer
 62
  256
370
   -1
100
AcDbLine
 10
176.5490806082296
 20
4.489658176683065
 11
176.9836224161821
 21
4.309665066411071
  0
LINE
  5
1D2
100
AcDbEntity
  8
0
  6
ByLayer
 62
  256
370
   -1
100
AcDbLine
 10
179.2516684315753
 20
6.04999798400047
 11
179.1902761336011
 21
6.516318783830002
  0
LINE
  5
1D3
100
AcDbEntity
  8
0
  6
ByLayer
 62
  256
370
   -1
100
AcDbLine
 10
285.1739212697787
 20
7.324010101760564
 11
284.8007717598005
 21
7.610337791317761
  0
LINE
  5
1D4
100
AcDbEntity
  8
0
  6
ByLayer
 62
  256
370
   -1
100
AcDbLine
 10
44.8251914353354
 20
64.20541893014541
 11
45.00507426906151
 21
64.6395187694277
  0
LINE
  5
1D5
100
AcDbEntity
  8
0
  6
ByLayer
 62
  256
370
   -1
100
AcDbLine
 10
116.549789586288
 20
62.07198034476647
 11
116.263682805603
 21
61.6992292020708
  0
LINE
  5
1D6
100
AcDbEntity
  8
0
  6
ByLayer
 62
  256
370
   -1
100
AcDbLine
 10
284.8007717598002
 20
4.489658176683065
 11
285.1739212697784
 21
4.775985866240489
  0
LINE
  5
1D7
100
AcDbEntity
  8
0
  6
ByLayer
 62
  256
370
   -1
100
AcDbLine
 10
72.27398939776501
 20
4.775985866240489
 11
72.5603170873222
 21
5.149135376218283
  0
LINE
  5
1D8
100
AcDbEntity
  8
0
  6
ByLayer
 62
  256
370
   -1
100
AcDbLine
 10
72.5603170873222
 20
5.149135376218283
 11
72.7403101975942
 21
5.583677184171108
  0
LINE
  5
1D9
100
AcDbEntity
  8
0
  6
ByLayer
 62
  256
370
   -1
100
AcDbLine
 10
45.24193915179421
 20
147.3316080988478
 11
45.4567662306101
 21
147.1667166286853
  0
LINE
  5
1DA
100
AcDbEntity
  8
0
  6
ByLayer
 62
  256
370
   -1
100
AcDbLine
 10
42.60298375547561
 20
145.3072664086633
 11
42.5417169395464
 21
145.7731493141235
  0
LINE
  5
1DB
100
AcDbEntity
  8
0
  6
ByLayer
 62
  256
370
   -1
100
AcDbLine
 10
47.09557671281692
 20
159.4023239755257
 11
47.5296765520996
 21
159.2224411417994
  0
LINE
  5
1DC
100
AcDbEntity
  8
0
  6
ByLayer
 62
  256
370
   -1
100
AcDbLine
 10
46.0804489347461
 20
146.2385169831949
 11
46.1417157506757
 21
145.7726340777347
  0
LINE
  5
1DD
100
AcDbEntity
  8
0
  6
ByLayer
 62
  256
370
   -1
100
AcDbLine
 10
45.4567662306101
 20
147.1667166286853
 11
45.5047048168212
 21
147.146851777441
  0
LINE
  5
1DE
100
AcDbEntity
  8
0
  6
ByLayer
 62
  256
370
   -1
100
AcDbLine
 10
44.80734163237682
 20
144.034159106294
 11
44.34145872691622
 21
143.9728922903644
  0
LINE
  5
1DF
100
AcDbEntity
  8
0
  6
ByLayer
 62
  256
370
   -1
100
AcDbLine
 10
45.9006903662241
 20
146.6726682948106
 11
46.0804489347461
 21
146.2385169831949
  0
LINE
  5
1E0
100
AcDbEntity
  8
0
  6
ByLayer
 62
  256
370
   -1
100
AcDbLine
 10
44.34197396330561
 20
147.572891101494
 11
44.8078393125121
 21
147.5114909325742
  0
LINE
  5
1E1
100
AcDbEntity
  8
0
  6
ByLayer
 62
  256
370
   -1
100
AcDbLine
 10
175.7096102984221
 20
6.516318783829774
 11
175.6482180004477
 21
6.04999798400047
  0
LINE
  5
1E2
100
AcDbEntity
  8
0
  6
ByLayer
 62
  256
370
   -1
100
AcDbLine
 10
282.9990465442366
 20
7.610337791317761
 11
282.6258970342584
 21
7.324010101760564
  0
LINE
  5
1E3
100
AcDbEntity
  8
0
  6
ByLayer
 62
  256
370
   -1
100
AcDbLine
 10
276.5999132225168
 20
9.349999903499793
 11
267.3999155228169
 21
9.349999903499793
  0
LINE
  5
1E4
100
AcDbEntity
  8
0
  6
ByLayer
 62
  256
370
   -1
100
AcDbLine
 10
70.53365648017541
 20
7.790330901589812
 11
70.0991146722227
 21
7.610337791317761
  0
LINE
  5
1E5
100
AcDbEntity
  8
0
  6
ByLayer
 62
  256
370
   -1
100
AcDbLine
 10
70.53365648017541
 20
4.309665066411071
 11
70.9999772800048
 21
4.248272768436607
  0
LINE
  5
1E6
100
AcDbEntity
  8
0
  6
ByLayer
 62
  256
370
   -1
100
AcDbLine
 10
282.9990465442364
 20
4.489658176683065
 11
283.4335883521893
 21
4.309665066411071
  0
LINE
  5
1E7
100
AcDbEntity
  8
0
  6
ByLayer
 62
  256
370
   -1
100
AcDbLine
 10
78.29997541190582
 20
2.749997986200697
 11
87.49997124900599
 21
2.749997986200469
  0
LINE
  5
1E8
100
AcDbEntity
  8
0
  6
ByLayer
 62
  256
370
   -1
100
AcDbLine
 10
63.69998135050281
 20
2.749997986200697
 11
63.69998135050281
 21
9.349999903499793
  0
LINE
  5
1E9
100
AcDbEntity
  8
0
  6
ByLayer
 62
  256
370
   -1
100
AcDbLine
 10
91.33227616157791
 20
153.3465405067573
 11
91.7051091849309
 21
153.6325405784917
  0
LINE
  5
1EA
100
AcDbEntity
  8
0
  6
ByLayer
 62
  256
370
   -1
100
AcDbLine
 10
116.7298057730044
 20
63.43782843871588
 11
116.7910725889338
 21
62.97194553325528
  0
LINE
  5
1EB
100
AcDbEntity
  8
0
  6
ByLayer
 62
  256
370
   -1
100
AcDbLine
 10
179.0102830233288
 20
5.149135376218283
 11
179.1902761336009
 21
5.583677184171108
  0
LINE
  5
1EC
100
AcDbEntity
  8
0
  6
ByLayer
 62
  256
370
   -1
100
AcDbLine
 10
178.7239553337716
 20
4.775985866240489
 11
179.0102830233288
 21
5.149135376218283
  0
LINE
  5
1ED
100
AcDbEntity
  8
0
  6
ByLayer
 62
  256
370
   -1
100
AcDbLine
 10
89.9975242858481
 20
156.0173439888875
 11
89.56342444656551
 21
156.1972268226137
  0
LINE
  5
1EE
100
AcDbEntity
  8
0
  6
ByLayer
 62
  256
370
   -1
100
AcDbLine
 10
115.4327061433827
 20
157.189934583403
 11
114.9668232379222
 21
157.1286677674731
  0
LINE
  5
1EF
100
AcDbEntity
  8
0
  6
ByLayer
 62
  256
370
   -1
100
AcDbLine
 10
42.81568904934751
 20
69.92859931390831
 11
42.63593048082581
 21
70.36275062552397
  0
LINE
  5
1F0
100
AcDbEntity
  8
0
  6
ByLayer
 62
  256
370
   -1
100
AcDbLine
 10
93.50466238269291
 20
150.5145925362651
 11
93.0705110710777
 21
150.334833967743
  0
LINE
  5
1F1
100
AcDbEntity
  8
0
  6
ByLayer
 62
  256
370
   -1
100
AcDbLine
 10
21.27099695689921
 20
64.2883875673428
 11
21.55699702863321
 21
63.91555454399008
  0
LINE
  5
1F2
100
AcDbEntity
  8
0
  6
ByLayer
 62
  256
370
   -1
100
AcDbLine
 10
113.7180992339901
 20
61.69959352921569
 11
113.4320991622558
 21
62.07242655256869
  0
LINE
  5
1F3
100
AcDbEntity
  8
0
  6
ByLayer
 62
  256
370
   -1
100
AcDbLine
 10
90.86615319417692
 20
151.6079412701125
 11
90.80488637824692
 21
152.0738241755728
  0
LINE
  5
1F4
100
AcDbEntity
  8
0
  6
ByLayer
 62
  256
370
   -1
100
AcDbLine
 10
90.89613011366509
 20
70.29125403347518
 11
90.83486329773521
 21
70.7571369389359
  0
LINE
  5
1F5
100
AcDbEntity
  8
0
  6
ByLayer
 62
  256
370
   -1
100
AcDbLine
 10
91.7350861044186
 20
72.31585334185456
 11
92.16923741603421
 21
72.49561191037617
  0
LINE
  5
1F6
100
AcDbEntity
  8
0
  6
ByLayer
 62
  256
370
   -1
100
AcDbLine
 10
18.19802360195521
 20
63.01603556330338
 11
18.25942377087532
 21
63.48190091250956
  0
LINE
  5
1F7
100
AcDbEntity
  8
0
  6
ByLayer
 62
  256
370
   -1
100
AcDbLine
 10
178.3508058237936
 20
7.610337791317761
 11
177.916264015841
 21
7.790330901589812
  0
LINE
  5
1F8
100
AcDbEntity
  8
0
  6
ByLayer
 62
  256
370
   -1
100
AcDbLine
 10
88.90493085033012
 20
158.6561660322156
 11
89.19103763101469
 21
159.0289171749116
  0
LINE
  5
1F9
100
AcDbEntity
  8
0
  6
ByLayer
 62
  256
370
   -1
100
AcDbLine
 10
114.0668580494331
 20
157.3699507701195
 11
113.6941069067376
 21
157.6560575508038
  0
LINE
  5
1FA
100
AcDbEntity
  8
0
  6
ByLayer
 62
  256
370
   -1
100
AcDbLine
 10
47.02991363938122
 20
65.47789519938908
 11
47.4640134786637
 21
65.298012365663
  0
LINE
  5
1FB
100
AcDbEntity
  8
0
  6
ByLayer
 62
  256
370
   -1
100
AcDbLine
 10
91.07614630038151
 20
71.65710212742448
 11
91.36225308106592
 21
72.02985327012021
  0
LINE
  5
1FC
100
AcDbEntity
  8
0
  6
ByLayer
 62
  256
370
   -1
100
AcDbLine
 10
93.0710087512125
 20
153.8121657940231
 11
93.50510859049521
 21
153.632282960297
  0
LINE
  5
1FD
100
AcDbEntity
  8
0
  6
ByLayer
 62
  256
370
   -1
100
AcDbLine
 10
90.02955814977602
 20
62.00069672609936
 11
89.5954583104934
 21
62.18057955982556
  0
LINE
  5
1FE
100
AcDbEntity
  8
0
  6
ByLayer
 62
  256
370
   -1
100
AcDbLine
 10
89.56387065436761
 20
159.3149172466457
 11
89.99802196598282
 21
159.4946758151675
  0
LINE
  5
1FF
100
AcDbEntity
  8
0
  6
ByLayer
 62
  256
370
   -1
100
AcDbLine
 10
43.47488647157931
 20
72.38734993390301
 11
43.909037783195
 21
72.5671085024249
  0
LINE
  5
200
100
AcDbEntity
  8
0
  6
ByLayer
 62
  256
370
   -1
100
AcDbLine
 10
43.909037783195
 20
72.5671085024249
 11
44.37492068865561
 21
72.62837531835447
  0
LINE
  5
201
100
AcDbEntity
  8
0
  6
ByLayer
 62
  256
370
   -1
100
AcDbLine
 10
116.2400548054957
 20
160.2012767952722
 11
116.52605487723
 21
159.8284437719194
  0
LINE
  5
202
100
AcDbEntity
  8
0
  6
ByLayer
 62
  256
370
   -1
100
AcDbLine
 10
46.09766770457921
 20
62.00069672609936
 11
45.66356786529681
 21
62.18057955982556
  0
LINE
  5
203
100
AcDbEntity
  8
0
  6
ByLayer
 62
  256
370
   -1
100
AcDbLine
 10
114.9908155651745
 20
61.1722037458851
 11
114.5249502159681
 21
61.2336039148052
  0
LINE
  5
204
100
AcDbEntity
  8
0
  6
ByLayer
 62
  256
370
   -1
100
AcDbLine
 10
179.1902761336009
 20
5.583677184171108
 11
179.2516684315753
 21
6.04999798400047
  0
LINE
  5
205
100
AcDbEntity
  8
0
  6
ByLayer
 62
  256
370
   -1
100
AcDbLine
 10
175.8896034086941
 20
6.950860591782373
 11
175.7096102984221
 21
6.516318783829774
  0
LINE
  5
206
100
AcDbEntity
  8
0
  6
ByLayer
 62
  256
370
   -1
100
AcDbLine
 10
19.99828062571461
 20
64.8157773506735
 11
20.46414597492101
 21
64.75437718175351
  0
LINE
  5
207
100
AcDbEntity
  8
0
  6
ByLayer
 62
  256
370
   -1
100
AcDbLine
 10
45.29081672260122
 20
62.46668634051008
 11
45.0048166508667
 21
62.83951936386308
  0
LINE
  5
208
100
AcDbEntity
  8
0
  6
ByLayer
 62
  256
370
   -1
100
AcDbLine
 10
43.1016891210819
 20
69.55576629055537
 11
42.81568904934751
 21
69.92859931390831
  0
LINE
  5
209
100
AcDbEntity
  8
0
  6
ByLayer
 62
  256
370
   -1
100
AcDbLine
 10
46.56404829017481
 20
65.53929536830907
 11
47.02991363938122
 21
65.47789519938908
  0
LINE
  5
20A
100
AcDbEntity
  8
0
  6
ByLayer
 62
  256
370
   -1
100
AcDbLine
 10
115.4571961507699
 20
64.71080238809458
 11
115.8912959900524
 21
64.53091955436878
  0
LINE
  5
20B
100
AcDbEntity
  8
0
  6
ByLayer
 62
  256
370
   -1
100
AcDbLine
 10
94.373461939945
 20
70.2907563533401
 11
94.193579106219
 21
69.8566565140577
  0
LINE
  5
20C
100
AcDbEntity
  8
0
  6
ByLayer
 62
  256
370
   -1
100
AcDbLine
 10
91.3959039238602
 20
65.298012365663
 11
91.76865506655611
 21
65.01190558497871
  0
LINE
  5
20D
100
AcDbEntity
  8
0
  6
ByLayer
 62
  256
370
   -1
100
AcDbLine
 10
18.43930660460151
 20
63.91600075179207
 11
18.7254133852861
 21
64.28875189448758
  0
LINE
  5
20E
100
AcDbEntity
  8
0
  6
ByLayer
 62
  256
370
   -1
100
AcDbLine
 10
88.69568171161231
 20
63.73955358093906
 11
88.7570818805321
 21
64.20541893014541
  0
LINE
  5
20F
100
AcDbEntity
  8
0
  6
ByLayer
 62
  256
370
   -1
100
AcDbLine
 10
21.73662224416491
 20
62.5496549777078
 11
21.55673941043871
 21
62.11555513842501
  0
LINE
  5
210
100
AcDbEntity
  8
0
  6
ByLayer
 62
  256
370
   -1
100
AcDbLine
 10
284.8007717598005
 20
7.610337791317761
 11
284.3662299518479
 21
7.790330901589812
  0
LINE
  5
211
100
AcDbEntity
  8
0
  6
ByLayer
 62
  256
370
   -1
100
AcDbLine
 10
45.3568441231819
 20
158.9366986882596
 11
45.7296771465349
 21
159.222698759994
  0
LINE
  5
212
100
AcDbEntity
  8
0
  6
ByLayer
 62
  256
370
   -1
100
AcDbLine
 10
45.5047048168212
 20
147.146851777441
 11
45.61469029449012
 21
147.0455013181633
  0
LINE
  5
213
100
AcDbEntity
  8
0
  6
ByLayer
 62
  256
370
   -1
100
AcDbLine
 10
43.87609105784512
 20
147.5116242855641
 11
44.34197396330561
 21
147.572891101494
  0
LINE
  5
214
100
AcDbEntity
  8
0
  6
ByLayer
 62
  256
370
   -1
100
AcDbLine
 10
45.61469029449012
 20
147.0455013181633
 11
45.9006903662241
 21
146.6726682948106
  0
LINE
  5
215
100
AcDbEntity
  8
0
  6
ByLayer
 62
  256
370
   -1
100
AcDbLine
 10
47.5292303442973
 20
156.1047507177676
 11
47.09507903268189
 21
155.9249921492456
  0
LINE
  5
216
100
AcDbEntity
  8
0
  6
ByLayer
 62
  256
370
   -1
100
AcDbLine
 10
46.16382845815022
 20
159.402457328516
 11
46.6297113636104
 21
159.4637241444455
  0
LINE
  5
217
100
AcDbEntity
  8
0
  6
ByLayer
 62
  256
370
   -1
100
AcDbLine
 10
43.47444026377701
 20
69.26965950987119
 11
43.28654508570861
 21
69.44023024284121
  0
LINE
  5
218
100
AcDbEntity
  8
0
  6
ByLayer
 62
  256
370
   -1
100
AcDbLine
 10
113.4083644531982
 20
159.8288899797215
 11
113.6944712338827
 21
160.201641122417
  0
LINE
  5
219
100
AcDbEntity
  8
0
  6
ByLayer
 62
  256
370
   -1
100
AcDbLine
 10
116.7910725889338
 20
62.97194553325528
 11
116.7296724200139
 21
62.50608018404898
  0
LINE
  5
21A
100
AcDbEntity
  8
0
  6
ByLayer
 62
  256
370
   -1
100
AcDbLine
 10
93.50510859049521
 20
153.632282960297
 11
93.6534569975733
 21
153.5184174873121
  0
LINE
  5
21B
100
AcDbEntity
  8
0
  6
ByLayer
 62
  256
370
   -1
100
AcDbLine
 10
94.16385980492521
 20
152.9733431562597
 11
94.3436183734471
 21
152.5391918446442
  0
LINE
  5
21C
100
AcDbEntity
  8
0
  6
ByLayer
 62
  256
370
   -1
100
AcDbLine
 10
113.4081068350035
 20
158.0288905741568
 11
113.2283482664818
 21
158.4630418857723
  0
LINE
  5
21D
100
AcDbEntity
  8
0
  6
ByLayer
 62
  256
370
   -1
100
AcDbLine
 10
92.63512032149501
 20
72.55687872630591
 11
93.10098567070111
 21
72.49547855738581
  0
LINE
  5
21E
100
AcDbEntity
  8
0
  6
ByLayer
 62
  256
370
   -1
100
AcDbLine
 10
93.10098567070111
 20
72.49547855738581
 11
93.3003015531863
 21
72.41288579299487
  0
LINE
  5
21F
100
AcDbEntity
  8
0
  6
ByLayer
 62
  256
370
   -1
100
AcDbLine
 10
93.5350855099837
 20
72.3155957236599
 11
93.90783665267901
 21
72.02948894297521
  0
LINE
  5
220
100
AcDbEntity
  8
0
  6
ByLayer
 62
  256
370
   -1
100
AcDbLine
 10
46.113262307106
 20
70.36225294538866
 11
45.9333794733796
 21
69.92815310610621
  0
LINE
  5
221
100
AcDbEntity
  8
0
  6
ByLayer
 62
  256
370
   -1
100
AcDbLine
 10
71.46629807983422
 20
7.790330901589812
 11
70.9999772800048
 21
7.851723199564276
  0
LINE
  5
222
100
AcDbEntity
  8
0
  6
ByLayer
 62
  256
370
   -1
100
AcDbLine
 10
87.49997124900599
 20
9.349999903499793
 11
78.29997541190582
 21
9.349999903499793
  0
LINE
  5
223
100
AcDbEntity
  8
0
  6
ByLayer
 62
  256
370
   -1
100
AcDbLine
 10
283.8999091520185
 20
4.248272768436607
 11
284.3662299518479
 21
4.309665066411071
  0
LINE
  5
224
100
AcDbEntity
  8
0
  6
ByLayer
 62
  256
370
   -1
100
AcDbLine
 10
283.4335883521893
 20
7.790330901589812
 11
282.9990465442366
 21
7.610337791317761
  0
LINE
  5
225
100
AcDbEntity
  8
0
  6
ByLayer
 62
  256
370
   -1
100
AcDbLine
 10
282.3395693447011
 20
6.950860591782373
 11
282.1595762344291
 21
6.516318783829774
  0
LINE
  5
226
100
AcDbEntity
  8
0
  6
ByLayer
 62
  256
370
   -1
100
AcDbLine
 10
285.6402420696081
 20
5.583677184171108
 11
285.7016343675824
 21
6.04999798400047
  0
LINE
  5
227
100
AcDbEntity
  8
0
  6
ByLayer
 62
  256
370
   -1
100
AcDbLine
 10
72.80170249556861
 20
6.04999798400047
 11
72.7403101975942
 21
6.516318783830002
  0
LINE
  5
228
100
AcDbEntity
  8
0
  6
ByLayer
 62
  256
370
   -1
100
AcDbLine
 10
176.1759310982515
 20
7.324010101760564
 11
175.8896034086941
 21
6.950860591782373
  0
LINE
  5
229
100
AcDbEntity
  8
0
  6
ByLayer
 62
  256
370
   -1
100
AcDbLine
 10
176.5490806082298
 20
7.610337791317761
 11
176.1759310982515
 21
7.324010101760564
  0
LINE
  5
22A
100
AcDbEntity
  8
0
  6
ByLayer
 62
  256
370
   -1
100
AcDbLine
 10
176.9836224161821
 20
7.790330901589812
 11
176.5490806082298
 21
7.610337791317761
  0
LINE
  5
22B
100
AcDbEntity
  8
0
  6
ByLayer
 62
  256
370
   -1
100
AcDbLine
 10
160.9499495868101
 20
9.349999903499793
 11
160.94994958681
 21
2.749997986200469
  0
LINE
  5
22C
100
AcDbEntity
  8
0
  6
ByLayer
 62
  256
370
   -1
100
AcDbLine
 10
179.1902761336011
 20
6.516318783830002
 11
179.0102830233288
 21
6.950860591782202
  0
LINE
  5
22D
100
AcDbEntity
  8
0
  6
ByLayer
 62
  256
370
   -1
100
AcDbLine
 10
193.9499371850129
 20
9.349999903499793
 11
184.7499413479125
 21
9.349999903499793
  0
LINE
  5
22E
100
AcDbEntity
  8
0
  6
ByLayer
 62
  256
370
   -1
100
AcDbLine
 10
175.8896034086941
 20
5.149135376218283
 11
176.1759310982515
 21
4.775985866240262
  0
LINE
  5
22F
100
AcDbEntity
  8
0
  6
ByLayer
 62
  256
370
   -1
100
AcDbLine
 10
177.4499432160116
 20
4.248272768436607
 11
177.916264015841
 21
4.309665066411071
  0
LINE
  5
230
100
AcDbEntity
  8
0
  6
ByLayer
 62
  256
370
   -1
100
AcDbLine
 10
94.3436183734471
 20
152.5391918446442
 11
94.40488518937661
 21
152.0733089391835
  0
LINE
  5
231
100
AcDbEntity
  8
0
  6
ByLayer
 62
  256
370
   -1
100
AcDbLine
 10
46.0981653847146
 20
65.47802855237961
 11
46.56404829017481
 21
65.53929536830907
  0
LINE
  5
232
100
AcDbEntity
  8
0
  6
ByLayer
 62
  256
370
   -1
100
AcDbLine
 10
91.3319118344329
 20
150.8009569351443
 11
91.04591176269841
 21
151.173789958497
  0
LINE
  5
233
100
AcDbEntity
  8
0
  6
ByLayer
 62
  256
370
   -1
100
AcDbLine
 10
92.6046281656171
 20
150.2735671518138
 11
92.1387628164108
 21
150.3349673207336
  0
LINE
  5
234
100
AcDbEntity
  8
0
  6
ByLayer
 62
  256
370
   -1
100
AcDbLine
 10
88.9367070960634
 20
62.83951936386308
 11
88.75694852754179
 21
63.27367067547851
  0
LINE
  5
235
100
AcDbEntity
  8
0
  6
ByLayer
 62
  256
370
   -1
100
AcDbLine
 10
47.8364002942144
 20
62.46632201336507
 11
47.4635672708616
 21
62.18032194163101
  0
LINE
  5
236
100
AcDbEntity
  8
0
  6
ByLayer
 62
  256
370
   -1
100
AcDbLine
 10
113.228481619472
 20
159.3947901404389
 11
113.4083644531982
 21
159.8288899797215
  0
LINE
  5
237
100
AcDbEntity
  8
0
  6
ByLayer
 62
  256
370
   -1
100
AcDbLine
 10
89.1906733038696
 20
156.483333603298
 11
88.90467323213551
 21
156.8561666266511
  0
LINE
  5
238
100
AcDbEntity
  8
0
  6
ByLayer
 62
  256
370
   -1
100
AcDbLine
 10
45.2744396693424
 20
69.26940189167647
 11
44.84028835772651
 21
69.08964332315446
  0
LINE
  5
239
100
AcDbEntity
  8
0
  6
ByLayer
 62
  256
370
   -1
100
AcDbLine
 10
45.9333794733796
 20
69.92815310610621
 11
45.6472726926948
 21
69.55540196341076
  0
LINE
  5
23A
100
AcDbEntity
  8
0
  6
ByLayer
 62
  256
370
   -1
100
AcDbLine
 10
89.44748573663361
 20
17.70999496960087
 11
89.44748573663361
 21
22.18999210240156
  0
LINE
  5
23B
100
AcDbEntity
  8
0
  6
ByLayer
 62
  256
370
   -1
100
AcDbLine
 10
91.82748573663361
 20
24.42999210240151
 11
106.1026836084793
 21
24.42999210240151
  0
LINE
  5
23C
100
AcDbEntity
  8
0
  6
ByLayer
 62
  256
370
   -1
100
AcDbLine
 10
106.1026836084793
 20
15.46999496960086
 11
108.4826836084793
 21
17.70999496960087
  0
LINE
  5
23D
100
AcDbEntity
  8
0
  6
ByLayer
 62
  256
370
   -1
100
AcDbLine
 10
91.82748573663361
 20
24.42999210240151
 11
89.44748573663361
 21
22.18999210240156
  0
LINE
  5
23E
100
AcDbEntity
  8
0
  6
ByLayer
 62
  256
370
   -1
100
AcDbLine
 10
91.82748573663361
 20
15.46999496960086
 11
106.1026836084793
 21
15.46999496960086
  0
LINE
  5
23F
100
AcDbEntity
  8
0
  6
ByLayer
 62
  256
370
   -1
100
AcDbLine
 10
108.4826836084793
 20
22.18999210240156
 11
106.1026836084793
 21
24.42999210240151
  0
LINE
  5
240
100
AcDbEntity
  8
0
  6
ByLayer
 62
  256
370
   -1
100
AcDbLine
 10
108.4826836084793
 20
22.18999210240156
 11
108.4826836084793
 21
17.70999496960087
  0
LINE
  5
241
100
AcDbEntity
  8
0
  6
ByLayer
 62
  256
370
   -1
100
AcDbLine
 10
89.44748573663361
 20
17.70999496960087
 11
91.82748573663361
 21
15.46999496960086
  0
LINE
  5
242
100
AcDbEntity
  8
0
  6
ByLayer
 62
  256
370
   -1
100
AcDbLine
 10
92.2342803538217
 20
63.27317299534326
 11
92.05439752009551
 21
62.83907315606086
  0
LINE
  5
243
100
AcDbEntity
  8
0
  6
ByLayer
 62
  256
370
   -1
100
AcDbLine
 10
20.46364829478591
 20
61.27704535547338
 11
19.99776538932521
 21
61.21577853954381
  0
LINE
  5
244
100
AcDbEntity
  8
0
  6
ByLayer
 62
  256
370
   -1
100
AcDbLine
 10
283.4335883521893
 20
4.309665066411071
 11
283.8999091520185
 21
4.248272768436607
  0
LINE
  5
245
100
AcDbEntity
  8
0
  6
ByLayer
 62
  256
370
   -1
100
AcDbLine
 10
43.1020534482264
 20
72.1013498621686
 11
43.47488647157931
 21
72.38734993390301
  0
LINE
  5
246
100
AcDbEntity
  8
0
  6
ByLayer
 62
  256
370
   -1
100
AcDbLine
 10
47.4640134786637
 20
65.298012365663
 11
47.83676462135932
 21
65.01190558497871
  0
LINE
  5
247
100
AcDbEntity
  8
0
  6
ByLayer
 62
  256
370
   -1
100
AcDbLine
 10
285.6402420696081
 20
6.516318783830002
 11
285.4602489593356
 21
6.950860591782202
  0
LINE
  5
248
100
AcDbEntity
  8
0
  6
ByLayer
 62
  256
370
   -1
100
AcDbLine
 10
285.4602489593356
 20
6.950860591782202
 11
285.1739212697787
 21
7.324010101760564
  0
LINE
  5
249
100
AcDbEntity
  8
0
  6
ByLayer
 62
  256
370
   -1
100
AcDbLine
 10
42.78274232399751
 20
144.8731150970478
 11
42.60298375547561
 21
145.3072664086633
  0
LINE
  5
24A
100
AcDbEntity
  8
0
  6
ByLayer
 62
  256
370
   -1
100
AcDbLine
 10
282.3395693447009
 20
5.149135376218283
 11
282.6258970342584
 21
4.775985866240262
  0
LINE
  5
24B
100
AcDbEntity
  8
0
  6
ByLayer
 62
  256
370
   -1
100
AcDbLine
 10
285.7016343675824
 20
6.04999798400047
 11
285.6402420696081
 21
6.516318783830002
  0
LINE
  5
24C
100
AcDbEntity
  8
0
  6
ByLayer
 62
  256
370
   -1
100
AcDbLine
 10
291.1999072839194
 20
9.349999903499793
 11
291.1999072839197
 21
2.749997986200697
  0
LINE
  5
24D
100
AcDbEntity
  8
0
  6
ByLayer
 62
  256
370
   -1
100
AcDbLine
 10
300.3999031210197
 20
9.349999903499793
 11
291.1999072839194
 21
9.349999903499793
  0
LINE
  5
24E
100
AcDbEntity
  8
0
  6
ByLayer
 62
  256
370
   -1
100
AcDbLine
 10
282.6258970342584
 20
4.775985866240262
 11
282.9990465442364
 21
4.489658176683065
  0
LINE
  5
24F
100
AcDbEntity
  8
0
  6
ByLayer
 62
  256
370
   -1
100
AcDbLine
 10
267.3999155228169
 20
9.349999903499793
 11
267.3999155228169
 21
2.749997986200469
  0
LINE
  5
250
100
AcDbEntity
  8
0
  6
ByLayer
 62
  256
370
   -1
100
AcDbLine
 10
284.3662299518479
 20
7.790330901589812
 11
283.8999091520183
 21
7.851723199564276
  0
LINE
  5
251
100
AcDbEntity
  8
0
  6
ByLayer
 62
  256
370
   -1
100
AcDbLine
 10
291.1999072839197
 20
2.749997986200697
 11
300.3999031210197
 21
2.749997986200469
  0
LINE
  5
252
100
AcDbEntity
  8
0
  6
ByLayer
 62
  256
370
   -1
100
AcDbLine
 10
47.83676462135932
 20
65.01190558497871
 11
48.1227646930935
 21
64.6390725616256
  0
LINE
  5
253
100
AcDbEntity
  8
0
  6
ByLayer
 62
  256
370
   -1
100
AcDbLine
 10
88.6636478476841
 20
157.756200843727
 11
88.72504801660401
 21
158.2220661929334
  0
LINE
  5
254
100
AcDbEntity
  8
0
  6
ByLayer
 62
  256
370
   -1
100
AcDbLine
 10
70.9999772800048
 20
4.248272768436607
 11
71.4662980798343
 21
4.309665066411071
  0
LINE
  5
255
100
AcDbEntity
  8
0
  6
ByLayer
 62
  256
370
   -1
100
AcDbLine
 10
72.7403101975942
 20
5.583677184171108
 11
72.80170249556861
 21
6.04999798400047
  0
LINE
  5
256
100
AcDbEntity
  8
0
  6
ByLayer
 62
  256
370
   -1
100
AcDbLine
 10
93.7270895871913
 20
153.4879055228362
 11
93.877859733191
 21
153.3461761796125
  0
LINE
  5
257
100
AcDbEntity
  8
0
  6
ByLayer
 62
  256
370
   -1
100
AcDbLine
 10
114.5014555688511
 20
160.6673997626734
 11
114.9673384743113
 21
160.7286665786029
  0
LINE
  5
258
100
AcDbEntity
  8
0
  6
ByLayer
 62
  256
370
   -1
100
AcDbLine
 10
18.7254133852861
 20
64.28875189448758
 11
19.09824640863891
 21
64.57475196622187
  0
LINE
  5
259
100
AcDbEntity
  8
0
  6
ByLayer
 62
  256
370
   -1
100
AcDbLine
 10
93.90783665267901
 20
72.02948894297521
 11
94.1938367244133
 21
71.65665591962227
  0
LINE
  5
25A
100
AcDbEntity
  8
0
  6
ByLayer
 62
  256
370
   -1
100
AcDbLine
 10
21.55673941043871
 20
62.11555513842501
 11
21.27063262975391
 21
61.74280399572956
  0
LINE
  5
25B
100
AcDbEntity
  8
0
  6
ByLayer
 62
  256
370
   -1
100
AcDbLine
 10
115.8912959900524
 20
64.53091955436878
 11
116.2640471327484
 21
64.2448127736842
  0
LINE
  5
25C
100
AcDbEntity
  8
0
  6
ByLayer
 62
  256
370
   -1
100
AcDbLine
 10
115.4332038235177
 20
160.6672664096829
 11
115.8673036628003
 21
160.487383575957
  0
LINE
  5
25D
100
AcDbEntity
  8
0
  6
ByLayer
 62
  256
370
   -1
100
AcDbLine
 10
116.52605487723
 20
159.8284437719194
 11
116.7058134457519
 21
159.3942924603039
  0
LINE
  5
25E
100
AcDbEntity
  8
0
  6
ByLayer
 62
  256
370
   -1
100
AcDbLine
 10
113.4323567804505
 20
63.87242595813336
 11
113.7184635611352
 21
64.24517710082921
  0
LINE
  5
25F
100
AcDbEntity
  8
0
  6
ByLayer
 62
  256
370
   -1
100
AcDbLine
 10
116.2396904783511
 20
157.6556932236591
 11
115.8668574549981
 21
157.3696931519248
  0
LINE
  5
260
100
AcDbEntity
  8
0
  6
ByLayer
 62
  256
370
   -1
100
AcDbLine
 10
48.12250707489892
 20
62.83907315606086
 11
47.8364002942144
 21
62.46632201336507
  0
LINE
  5
261
100
AcDbEntity
  8
0
  6
ByLayer
 62
  256
370
   -1
100
AcDbLine
 10
92.16923741603421
 20
72.49561191037617
 11
92.63512032149501
 21
72.55687872630591
  0
LINE
  5
262
100
AcDbEntity
  8
0
  6
ByLayer
 62
  256
370
   -1
100
AcDbLine
 10
93.87749540604591
 20
150.8005926079992
 11
93.50466238269291
 21
150.5145925362651
  0
LINE
  5
263
100
AcDbEntity
  8
0
  6
ByLayer
 62
  256
370
   -1
100
AcDbLine
 10
42.63606383381591
 20
71.2944988801907
 11
42.81594666754231
 21
71.72859871947321
  0
LINE
  5
264
100
AcDbEntity
  8
0
  6
ByLayer
 62
  256
370
   -1
100
AcDbLine
 10
42.57466366489581
 20
70.8286335309844
 11
42.63606383381591
 21
71.2944988801907
  0
LINE
  5
265
100
AcDbEntity
  8
0
  6
ByLayer
 62
  256
370
   -1
100
AcDbLine
 10
92.60514340200641
 20
153.8735659629431
 11
93.0710087512125
 21
153.8121657940231
  0
LINE
  5
266
100
AcDbEntity
  8
0
  6
ByLayer
 62
  256
370
   -1
100
AcDbLine
 10
113.1670814505521
 20
158.9289247912329
 11
113.228481619472
 21
159.3947901404389
  0
LINE
  5
267
100
AcDbEntity
  8
0
  6
ByLayer
 62
  256
370
   -1
100
AcDbLine
 10
45.66356786529681
 20
62.18057955982556
 11
45.29081672260122
 21
62.46668634051008
  0
LINE
  5
268
100
AcDbEntity
  8
0
  6
ByLayer
 62
  256
370
   -1
100
AcDbLine
 10
45.00507426906151
 20
64.6395187694277
 11
45.29118104974611
 21
65.0122699121236
  0
LINE
  5
269
100
AcDbEntity
  8
0
  6
ByLayer
 62
  256
370
   -1
100
AcDbLine
 10
92.02236365616741
 20
156.8557204188489
 11
91.73625687548281
 21
156.4829692761531
  0
LINE
  5
26A
100
AcDbEntity
  8
0
  6
ByLayer
 62
  256
370
   -1
100
AcDbLine
 10
92.02262127436231
 20
158.6557198244137
 11
92.202379842884
 21
158.2215685127983
  0
LINE
  5
26B
100
AcDbEntity
  8
0
  6
ByLayer
 62
  256
370
   -1
100
AcDbLine
 10
94.40488518937661
 20
152.0733089391835
 11
94.34348502045671
 21
151.6074435899775
  0
LINE
  5
26C
100
AcDbEntity
  8
0
  6
ByLayer
 62
  256
370
   -1
100
AcDbLine
 10
113.4320991622558
 20
62.07242655256869
 11
113.252340593734
 21
62.50657786418407
  0
LINE
  5
26D
100
AcDbEntity
  8
0
  6
ByLayer
 62
  256
370
   -1
100
AcDbLine
 10
94.193579106219
 20
69.8566565140577
 11
93.9074723255342
 21
69.48390537136191
  0
LINE
  5
26E
100
AcDbEntity
  8
0
  6
ByLayer
 62
  256
370
   -1
100
AcDbLine
 10
115.8673036628003
 20
160.487383575957
 11
116.2400548054957
 21
160.2012767952722
  0
LINE
  5
26F
100
AcDbEntity
  8
0
  6
ByLayer
 62
  256
370
   -1
100
AcDbLine
 10
114.0673042572354
 20
160.4876411941515
 11
114.5014555688511
 21
160.6673997626734
  0
LINE
  5
270
100
AcDbEntity
  8
0
  6
ByLayer
 62
  256
370
   -1
100
AcDbLine
 10
45.29118104974611
 20
65.0122699121236
 11
45.664014073099
 21
65.29826998385767
  0
LINE
  5
271
100
AcDbEntity
  8
0
  6
ByLayer
 62
  256
370
   -1
100
AcDbLine
 10
42.63593048082581
 20
70.36275062552397
 11
42.57466366489581
 21
70.8286335309844
  0
LINE
  5
272
100
AcDbEntity
  8
0
  6
ByLayer
 62
  256
370
   -1
100
AcDbLine
 10
45.93363709157421
 20
71.72815251167117
 11
46.1133956600959
 21
71.2940012000555
  0
LINE
  5
273
100
AcDbEntity
  8
0
  6
ByLayer
 62
  256
370
   -1
100
AcDbLine
 10
90.4639048714435
 20
159.5559426310971
 11
90.92977022065
 21
159.4945424621771
  0
LINE
  5
274
100
AcDbEntity
  8
0
  6
ByLayer
 62
  256
370
   -1
100
AcDbLine
 10
89.2230714949427
 20
65.0122699121236
 11
89.5959045182957
 21
65.29826998385767
  0
LINE
  5
275
100
AcDbEntity
  8
0
  6
ByLayer
 62
  256
370
   -1
100
AcDbLine
 10
92.29568052274192
 20
63.73903834454961
 11
92.2342803538217
 21
63.27317299534326
  0
LINE
  5
276
100
AcDbEntity
  8
0
  6
ByLayer
 62
  256
370
   -1
100
AcDbLine
 10
93.53463930218152
 20
69.19790529962768
 11
93.10048799056591
 21
69.01814673110601
  0
LINE
  5
277
100
AcDbEntity
  8
0
  6
ByLayer
 62
  256
370
   -1
100
AcDbLine
 10
93.10048799056591
 20
69.01814673110601
 11
92.63460508510551
 21
68.95687991517627
  0
LINE
  5
278
100
AcDbEntity
  8
0
  6
ByLayer
 62
  256
370
   -1
100
AcDbLine
 10
113.7184635611352
 20
64.24517710082921
 11
114.0912965844879
 21
64.53117717256339
  0
LINE
  5
279
100
AcDbEntity
  8
0
  6
ByLayer
 62
  256
370
   -1
100
AcDbLine
 10
116.7296724200139
 20
62.50608018404898
 11
116.549789586288
 21
62.07198034476647
  0
LINE
  5
27A
100
AcDbEntity
  8
0
  6
ByLayer
 62
  256
370
   -1
100
AcDbLine
 10
94.1636021867304
 20
151.1733437506949
 11
93.87749540604591
 21
150.8005926079992
  0
LINE
  5
27B
100
AcDbEntity
  8
0
  6
ByLayer
 62
  256
370
   -1
100
AcDbLine
 10
93.0705110710777
 20
150.334833967743
 11
92.6046281656171
 21
150.2735671518138
  0
LINE
  5
27C
100
AcDbEntity
  8
0
  6
ByLayer
 62
  256
370
   -1
100
AcDbLine
 10
91.55389283112891
 20
150.6565794976833
 11
91.3319118344329
 21
150.8009569351443
  0
LINE
  5
27D
100
AcDbEntity
  8
0
  6
ByLayer
 62
  256
370
   -1
100
AcDbLine
 10
43.28654508570861
 20
69.44023024284121
 11
43.1016891210819
 21
69.55576629055537
  0
LINE
  5
27E
100
AcDbEntity
  8
0
  6
ByLayer
 62
  256
370
   -1
100
AcDbLine
 10
45.35647979603681
 20
156.3911151166465
 11
45.07047972430271
 21
156.7639481399994
  0
LINE
  5
27F
100
AcDbEntity
  8
0
  6
ByLayer
 62
  256
370
   -1
100
AcDbLine
 10
47.90242769479491
 20
158.9363343611151
 11
48.18842776652912
 21
158.5635013377623
  0
LINE
  5
280
100
AcDbEntity
  8
0
  6
ByLayer
 62
  256
370
   -1
100
AcDbLine
 10
91.0461693808931
 20
152.9737893640617
 11
91.33227616157791
 21
153.3465405067573
  0
LINE
  5
281
100
AcDbEntity
  8
0
  6
ByLayer
 62
  256
370
   -1
100
AcDbLine
 10
45.0048166508667
 20
62.83951936386308
 11
44.82505808234509
 21
63.27367067547851
  0
LINE
  5
282
100
AcDbEntity
  8
0
  6
ByLayer
 62
  256
370
   -1
100
AcDbLine
 10
93.877859733191
 20
153.3461761796125
 11
94.16385980492521
 21
152.9733431562597
  0
LINE
  5
283
100
AcDbEntity
  8
0
  6
ByLayer
 62
  256
370
   -1
100
AcDbLine
 10
91.3634238521301
 20
156.1969692044188
 11
90.92927254051492
 21
156.0172106358971
  0
LINE
  5
284
100
AcDbEntity
  8
0
  6
ByLayer
 62
  256
370
   -1
100
AcDbLine
 10
114.0908503766858
 20
61.41348674853117
 11
113.7180992339901
 21
61.69959352921569
  0
LINE
  5
285
100
AcDbEntity
  8
0
  6
ByLayer
 62
  256
370
   -1
100
AcDbLine
 10
44.84028835772651
 20
69.08964332315446
 11
44.3744054522663
 21
69.02837650722478
  0
LINE
  5
286
100
AcDbEntity
  8
0
  6
ByLayer
 62
  256
370
   -1
100
AcDbLine
 10
44.3744054522663
 20
69.02837650722478
 11
43.90854010306001
 21
69.08977667614477
  0
LINE
  5
287
100
AcDbEntity
  8
0
  6
ByLayer
 62
  256
370
   -1
100
AcDbLine
 10
91.7051091849309
 20
153.6325405784917
 11
92.13926049654592
 21
153.8122991470134
  0
LINE
  5
288
100
AcDbEntity
  8
0
  6
ByLayer
 62
  256
370
   -1
100
AcDbLine
 10
78.29997541190582
 20
9.349999903499793
 11
78.29997541190582
 21
2.749997986200697
  0
LINE
  5
289
100
AcDbEntity
  8
0
  6
ByLayer
 62
  256
370
   -1
100
AcDbLine
 10
72.7403101975942
 20
6.516318783830002
 11
72.5603170873222
 21
6.950860591782202
  0
LINE
  5
28A
100
AcDbEntity
  8
0
  6
ByLayer
 62
  256
370
   -1
100
AcDbLine
 10
90.83486329773521
 20
70.7571369389359
 11
90.89626346665511
 21
71.22300228814208
  0
LINE
  5
28B
100
AcDbEntity
  8
0
  6
ByLayer
 62
  256
370
   -1
100
AcDbLine
 10
45.38512982342692
 20
72.30247408936901
 11
45.45974184177101
 21
72.27155626799407
  0
LINE
  5
28C
100
AcDbEntity
  8
0
  6
ByLayer
 62
  256
370
   -1
100
AcDbLine
 10
48.42945315098081
 20
157.6634671206862
 11
48.3680529820609
 21
157.1976017714797
  0
LINE
  5
28D
100
AcDbEntity
  8
0
  6
ByLayer
 62
  256
370
   -1
100
AcDbLine
 10
19.0978002008367
 20
61.4570615421901
 11
18.72504905814091
 21
61.7431683228744
  0
LINE
  5
28E
100
AcDbEntity
  8
0
  6
ByLayer
 62
  256
370
   -1
100
AcDbLine
 10
45.64763701983981
 20
72.10098553502399
 11
45.93363709157421
 21
71.72815251167117
  0
LINE
  5
28F
100
AcDbEntity
  8
0
  6
ByLayer
 62
  256
370
   -1
100
AcDbLine
 10
91.9890161495812
 20
69.1083133010942
 11
91.73463989661661
 21
69.1981629178224
  0
LINE
  5
290
100
AcDbEntity
  8
0
  6
ByLayer
 62
  256
370
   -1
100
AcDbLine
 10
44.82505808234509
 20
63.27367067547851
 11
44.76379126641561
 21
63.73955358093906
  0
LINE
  5
291
100
AcDbEntity
  8
0
  6
ByLayer
 62
  256
370
   -1
100
AcDbLine
 10
282.1595762344291
 20
5.583677184170881
 11
282.3395693447009
 21
5.149135376218283
  0
LINE
  5
292
100
AcDbEntity
  8
0
  6
ByLayer
 62
  256
370
   -1
100
AcDbLine
 10
91.73463989661661
 20
69.1981629178224
 11
91.36188875392111
 21
69.48426969850681
  0
LINE
  5
293
100
AcDbEntity
  8
0
  6
ByLayer
 62
  256
370
   -1
100
AcDbLine
 10
116.7056800927617
 20
158.462544205637
 11
116.5257972590354
 21
158.0284443663546
  0
LINE
  5
294
100
AcDbEntity
  8
0
  6
ByLayer
 62
  256
370
   -1
100
AcDbLine
 10
282.0981839364545
 20
6.04999798400047
 11
282.1595762344291
 21
5.583677184170881
  0
LINE
  5
295
100
AcDbEntity
  8
0
  6
ByLayer
 62
  256
370
   -1
100
AcDbLine
 10
300.3999031210197
 20
2.749997986200469
 11
300.3999031210197
 21
9.349999903499793
  0
LINE
  5
296
100
AcDbEntity
  8
0
  6
ByLayer
 62
  256
370
   -1
100
AcDbLine
 10
91.73662120262802
 20
159.0285528477665
 11
92.02262127436231
 21
158.6557198244137
  0
LINE
  5
297
100
AcDbEntity
  8
0
  6
ByLayer
 62
  256
370
   -1
100
AcDbLine
 10
116.263682805603
 20
61.6992292020708
 11
115.8908497822503
 21
61.4132291303365
  0
LINE
  5
298
100
AcDbEntity
  8
0
  6
ByLayer
 62
  256
370
   -1
100
AcDbLine
 10
285.1739212697784
 20
4.775985866240489
 11
285.4602489593356
 21
5.149135376218283
  0
LINE
  5
299
100
AcDbEntity
  8
0
  6
ByLayer
 62
  256
370
   -1
100
AcDbLine
 10
285.4602489593356
 20
5.149135376218283
 11
285.6402420696081
 21
5.583677184171108
  0
LINE
  5
29A
100
AcDbEntity
  8
0
  6
ByLayer
 62
  256
370
   -1
100
AcDbLine
 10
282.1595762344291
 20
6.516318783829774
 11
282.0981839364545
 21
6.04999798400047
  0
LINE
  5
29B
100
AcDbEntity
  8
0
  6
ByLayer
 62
  256
370
   -1
100
AcDbLine
 10
283.8999091520183
 20
7.851723199564276
 11
283.4335883521893
 21
7.790330901589812
  0
LINE
  5
29C
100
AcDbEntity
  8
0
  6
ByLayer
 62
  256
370
   -1
100
AcDbLine
 10
284.3662299518479
 20
4.309665066411071
 11
284.8007717598002
 21
4.489658176683065
  0
LINE
  5
29D
100
AcDbEntity
  8
0
  6
ByLayer
 62
  256
370
   -1
100
AcDbLine
 10
69.19825206444071
 20
6.04999798400047
 11
69.2596443624152
 21
5.583677184170881
  0
LINE
  5
29E
100
AcDbEntity
  8
0
  6
ByLayer
 62
  256
370
   -1
100
AcDbLine
 10
54.4999836508029
 20
2.749997986200469
 11
63.69998135050281
 21
2.749997986200697
  0
LINE
  5
29F
100
AcDbEntity
  8
0
  6
ByLayer
 62
  256
370
   -1
100
AcDbLine
 10
90.89626346665511
 20
71.22300228814208
 11
91.07614630038151
 21
71.65710212742448
  0
LINE
  5
2A0
100
AcDbEntity
  8
0
  6
ByLayer
 62
  256
370
   -1
100
AcDbLine
 10
48.3023899086254
 20
63.27317299534326
 11
48.12250707489892
 21
62.83907315606086
  0
LINE
  5
2A1
100
AcDbEntity
  8
0
  6
ByLayer
 62
  256
370
   -1
100
AcDbLine
 10
70.0991146722227
 20
4.489658176683065
 11
70.53365648017541
 21
4.309665066411071
  0
LINE
  5
2A2
100
AcDbEntity
  8
0
  6
ByLayer
 62
  256
370
   -1
100
AcDbLine
 10
122.899960672008
 20
363.6498835520231
 11
122.899960672008
 21
345.9172438196621
  0
LINE
  5
2A3
100
AcDbEntity
  8
0
  6
ByLayer
 62
  256
370
   -1
100
AcDbLine
 10
122.899960672008
 20
51.94998178400391
 11
122.899960672008
 21
168.4499467670603
  0
LINE
  5
2A4
100
AcDbEntity
  8
0
  6
ByLayer
 62
  256
370
   -1
100
AcDbLine
 10
122.899960672008
 20
313.3172594789577
 11
122.899960672008
 21
201.0499311077644
  0
LINE
  5
2A5
100
AcDbEntity
  8
0
  6
ByLayer
 62
  256
370
   -1
100
AcDbLine
 10
329.8998944320213
 20
-0.25
 11
0
 21
-0.25
  0
LINE
  5
2A6
100
AcDbEntity
  8
0
  6
ByLayer
 62
  256
370
   -1
100
AcDbLine
 10
122.899960672008
 20
51.94998178400391
 11
138.2999578320084
 21
51.94998178400391
  0
LINE
  5
2A7
100
AcDbEntity
  8
0
  6
ByLayer
 62
  256
370
   -1
100
AcDbLine
 10
189.8432132329251
 20
58.24998128000379
 11
179.843214032925
 21
58.24998128000379
  0
LINE
  5
2A8
100
AcDbEntity
  8
0
  6
ByLayer
 62
  256
370
   -1
100
AcDbLine
 10
92.23441370681201
 20
64.20492125001027
 11
92.29568052274192
 21
63.73903834454961
  0
LINE
  5
2A9
100
AcDbEntity
  8
0
  6
ByLayer
 62
  256
370
   -1
100
AcDbLine
 10
90.46338963505391
 20
155.9559438199674
 11
90.92927254051492
 21
156.0172106358971
  0
LINE
  5
2AA
100
AcDbEntity
  8
0
  6
ByLayer
 62
  256
370
   -1
100
AcDbLine
 10
88.7249146636135
 20
157.2903179382665
 11
88.6636478476841
 21
157.756200843727
  0
LINE
  5
2AB
100
AcDbEntity
  8
0
  6
ByLayer
 62
  256
370
   -1
100
AcDbLine
 10
48.3023899086254
 20
63.27317299534326
 11
48.36379007754491
 21
63.73903834454961
  0
LINE
  5
2AC
100
AcDbEntity
  8
0
  6
ByLayer
 62
  256
370
   -1
100
AcDbLine
 10
92.202379842884
 20
158.2215685127983
 11
92.2636466588136
 21
157.7556856073377
  0
LINE
  5
2AD
100
AcDbEntity
  8
0
  6
ByLayer
 62
  256
370
   -1
100
AcDbLine
 10
46.16333077801511
 20
155.9251255022359
 11
46.62919612722132
 21
155.8637253333159
  0
LINE
  5
2AE
100
AcDbEntity
  8
0
  6
ByLayer
 62
  256
370
   -1
100
AcDbLine
 10
88.75694852754179
 20
63.27367067547851
 11
88.69568171161231
 21
63.73955358093906
  0
LINE
  5
2AF
100
AcDbEntity
  8
0
  6
ByLayer
 62
  256
370
   -1
100
AcDbLine
 10
19.53239772025411
 20
64.75451053474382
 11
19.99828062571461
 21
64.8157773506735
  0
LINE
  5
2B0
100
AcDbEntity
  8
0
  6
ByLayer
 62
  256
370
   -1
100
AcDbLine
 10
92.1387628164108
 20
150.3349673207336
 11
91.70466297712832
 21
150.5148501544596
  0
LINE
  5
2B1
100
AcDbEntity
  8
0
  6
ByLayer
 62
  256
370
   -1
100
AcDbLine
 10
114.9668232379222
 20
157.1286677674731
 11
114.5009578887158
 21
157.1900679363933
  0
LINE
  5
2B2
100
AcDbEntity
  8
0
  6
ByLayer
 62
  256
370
   -1
100
AcDbLine
 10
43.44149353842741
 20
144.2141752930104
 11
43.8755933777102
 21
144.0342924592842
  0
LINE
  5
2B3
100
AcDbEntity
  8
0
  6
ByLayer
 62
  256
370
   -1
100
AcDbLine
 10
114.991330801564
 20
64.77220255701468
 11
114.5254478961032
 21
64.71093574108517
  0
LINE
  5
2B4
100
AcDbEntity
  8
0
  6
ByLayer
 62
  256
370
   -1
100
AcDbLine
 10
92.63460508510551
 20
68.95687991517627
 11
92.16873973589921
 21
69.0182800840962
  0
LINE
  5
2B5
100
AcDbEntity
  8
0
  6
ByLayer
 62
  256
370
   -1
100
AcDbLine
 10
21.73662224416491
 20
62.5496549777078
 11
21.79802241308501
 21
63.01552032691387
  0
LINE
  5
2B6
100
AcDbEntity
  8
0
  6
ByLayer
 62
  256
370
   -1
100
AcDbLine
 10
90.46338963505391
 20
155.9559438199674
 11
89.9975242858481
 21
156.0173439888875
  0
LINE
  5
2B7
100
AcDbEntity
  8
0
  6
ByLayer
 62
  256
370
   -1
100
AcDbLine
 10
46.09766770457921
 20
62.00069672609936
 11
46.5635330537857
 21
61.9392965571796
  0
LINE
  5
2B8
100
AcDbEntity
  8
0
  6
ByLayer
 62
  256
370
   -1
100
AcDbLine
 10
43.90854010306001
 20
69.08977667614477
 11
43.47444026377701
 21
69.26965950987119
  0
LINE
  5
2B9
100
AcDbEntity
  8
0
  6
ByLayer
 62
  256
370
   -1
100
AcDbLine
 10
113.252340593734
 20
62.50657786418407
 11
113.191073777804
 21
62.97246076964467
  0
LINE
  5
2BA
100
AcDbEntity
  8
0
  6
ByLayer
 62
  256
370
   -1
100
AcDbLine
 10
90.49542349898221
 20
61.9392965571796
 11
90.02955814977602
 21
62.00069672609936
  0
LINE
  5
2BB
100
AcDbEntity
  8
0
  6
ByLayer
 62
  256
370
   -1
100
AcDbLine
 10
90.4959387353714
 20
65.53929536830907
 11
90.96180408457801
 21
65.47789519938908
  0
LINE
  5
2BC
100
AcDbEntity
  8
0
  6
ByLayer
 62
  256
370
   -1
100
AcDbLine
 10
48.36818633505101
 20
158.1293500261465
 11
48.42945315098081
 21
157.6634671206862
  0
LINE
  5
2BD
100
AcDbEntity
  8
0
  6
ByLayer
 62
  256
370
   -1
100
AcDbLine
 10
48.30252326161531
 20
64.20492125001027
 11
48.36379007754491
 21
63.73903834454961
  0
LINE
  5
2BE
100
AcDbEntity
  8
0
  6
ByLayer
 62
  256
370
   -1
100
AcDbLine
 10
110.9350839288469
 20
67.3125351545259
 11
110.9350839288469
 21
68.41253480252578
  0
LINE
  5
2BF
100
AcDbEntity
  8
0
  6
ByLayer
 62
  256
370
   -1
100
AcDbLine
 10
110.9350839288469
 20
68.41253480252578
 11
112.085083560847
 21
68.41253480252578
  0
LINE
  5
2C0
100
AcDbEntity
  8
0
  6
ByLayer
 62
  256
370
   -1
100
AcDbLine
 10
87.0489872094559
 20
68.51644208715408
 11
87.0489872094559
 21
67.4164424391542
  0
LINE
  5
2C1
100
AcDbEntity
  8
0
  6
ByLayer
 62
  256
370
   -1
100
AcDbLine
 10
51.11957089483352
 20
68.8802447464422
 11
51.11957089483352
 21
67.78024509844209
  0
LINE
  5
2C2
100
AcDbEntity
  8
0
  6
ByLayer
 62
  256
370
   -1
100
AcDbLine
 10
49.37782727200042
 20
154.3926734941479
 11
49.37782727200042
 21
153.2926738461476
  0
LINE
  5
2C3
100
AcDbEntity
  8
0
  6
ByLayer
 62
  256
370
   -1
100
AcDbLine
 10
48.2278276399997
 20
153.2926738461476
 11
49.37782727200042
 21
153.2926738461476
  0
LINE
  5
2C4
100
AcDbEntity
  8
0
  6
ByLayer
 62
  256
370
   -1
100
AcDbLine
 10
47.01812323581922
 20
140.3775235203685
 11
46.71812333181882
 21
140.3775235203685
  0
LINE
  5
2C5
100
AcDbEntity
  8
0
  6
ByLayer
 62
  256
370
   -1
100
AcDbLine
 10
47.01812323581922
 20
142.5775228163686
 11
47.01812323581922
 21
140.3775235203685
  0
LINE
  5
2C6
100
AcDbEntity
  8
0
  6
ByLayer
 62
  256
370
   -1
100
AcDbLine
 10
48.14415866266322
 20
74.7189675598193
 11
47.84415875866321
 21
74.7189675598193
  0
LINE
  5
2C7
100
AcDbEntity
  8
0
  6
ByLayer
 62
  256
370
   -1
100
AcDbLine
 10
89.07005948079811
 20
76.65835299741781
 11
88.77005957679771
 21
76.34908970749348
  0
LINE
  5
2C8
100
AcDbEntity
  8
0
  6
ByLayer
 62
  256
370
   -1
100
AcDbLine
 10
87.8894286408262
 20
152.8433050678991
 11
87.8894286408262
 21
151.7433054198989
  0
LINE
  5
2C9
100
AcDbEntity
  8
0
  6
ByLayer
 62
  256
370
   -1
100
AcDbLine
 10
87.0489872094559
 20
69.61644173515407
 11
85.8989875774559
 21
69.61644173515407
  0
LINE
  5
2CA
100
AcDbEntity
  8
0
  6
ByLayer
 62
  256
370
   -1
100
AcDbLine
 10
86.73942900882579
 20
152.8433050678991
 11
87.8894286408262
 21
152.8433050678991
  0
LINE
  5
2CB
100
AcDbEntity
  8
0
  6
ByLayer
 62
  256
370
   -1
100
AcDbLine
 10
49.9695712628334
 20
67.78024509844209
 11
51.11957089483352
 21
67.78024509844209
  0
LINE
  5
2CC
100
AcDbEntity
  8
0
  6
ByLayer
 62
  256
370
   -1
100
AcDbLine
 10
51.11957089483352
 20
69.98024439444231
 11
51.11957089483352
 21
68.8802447464422
  0
LINE
  5
2CD
100
AcDbEntity
  8
0
  6
ByLayer
 62
  256
370
   -1
100
AcDbLine
 10
87.0489872094559
 20
69.61644173515407
 11
87.0489872094559
 21
68.51644208715408
  0
LINE
  5
2CE
100
AcDbEntity
  8
0
  6
ByLayer
 62
  256
370
   -1
100
AcDbLine
 10
23.61281958227922
 20
68.23817578765238
 11
24.7628192142795
 21
68.23817578765238
  0
LINE
  5
2CF
100
AcDbEntity
  8
0
  6
ByLayer
 62
  256
370
   -1
100
AcDbLine
 10
23.61281958227922
 20
67.13817613965227
 11
24.7628192142795
 21
67.13817613965227
  0
LINE
  5
2D0
100
AcDbEntity
  8
0
  6
ByLayer
 62
  256
370
   -1
100
AcDbLine
 10
85.8989875774559
 20
67.4164424391542
 11
87.0489872094559
 21
67.4164424391542
  0
LINE
  5
2D1
100
AcDbEntity
  8
0
  6
ByLayer
 62
  256
370
   -1
100
AcDbLine
 10
89.21050047710932
 20
148.7859507916876
 11
89.21050047710932
 21
146.5859514956875
  0
LINE
  5
2D2
100
AcDbEntity
  8
0
  6
ByLayer
 62
  256
370
   -1
100
AcDbLine
 10
48.14415866266322
 20
74.7189675598193
 11
48.46461479162531
 21
74.7189675598193
  0
LINE
  5
2D3
100
AcDbEntity
  8
0
  6
ByLayer
 62
  256
370
   -1
100
AcDbLine
 10
111.9663842093762
 20
153.7845040474951
 11
111.9663842093762
 21
154.8845036954951
  0
LINE
  5
2D4
100
AcDbEntity
  8
0
  6
ByLayer
 62
  256
370
   -1
100
AcDbLine
 10
48.14415866266322
 20
76.91896685581906
 11
47.84415875866321
 21
76.6097035658949
  0
LINE
  5
2D5
100
AcDbEntity
  8
0
  6
ByLayer
 62
  256
370
   -1
100
AcDbLine
 10
110.8163845773758
 20
152.6845043994951
 11
111.9663842093762
 21
152.6845043994951
  0
LINE
  5
2D6
100
AcDbEntity
  8
0
  6
ByLayer
 62
  256
370
   -1
100
AcDbLine
 10
110.8163845773758
 20
153.7845040474951
 11
111.9663842093762
 21
153.7845040474951
  0
LINE
  5
2D7
100
AcDbEntity
  8
0
  6
ByLayer
 62
  256
370
   -1
100
AcDbLine
 10
111.9663842093762
 20
154.8845036954951
 11
110.8163845773758
 21
154.8845036954951
  0
LINE
  5
2D8
100
AcDbEntity
  8
0
  6
ByLayer
 62
  256
370
   -1
100
AcDbLine
 10
85.8989875774559
 20
68.51644208715408
 11
87.0489872094559
 21
68.51644208715408
  0
LINE
  5
2D9
100
AcDbEntity
  8
0
  6
ByLayer
 62
  256
370
   -1
100
AcDbLine
 10
89.07005948079811
 20
76.65835299741781
 11
89.07005948079811
 21
74.45835370141771
  0
LINE
  5
2DA
100
AcDbEntity
  8
0
  6
ByLayer
 62
  256
370
   -1
100
AcDbLine
 10
87.8894286408262
 20
153.9433047158992
 11
86.73942900882579
 21
153.9433047158992
  0
LINE
  5
2DB
100
AcDbEntity
  8
0
  6
ByLayer
 62
  256
370
   -1
100
AcDbLine
 10
48.14415866266322
 20
76.91896685581906
 11
48.14415866266322
 21
74.7189675598193
  0
LINE
  5
2DC
100
AcDbEntity
  8
0
  6
ByLayer
 62
  256
370
   -1
100
AcDbLine
 10
89.21050047710932
 20
146.5859514956875
 11
88.91050057310952
 21
146.5859514956875
  0
LINE
  5
2DD
100
AcDbEntity
  8
0
  6
ByLayer
 62
  256
370
   -1
100
AcDbLine
 10
24.7628192142795
 20
69.33817543565237
 11
23.61281958227922
 21
69.33817543565237
  0
LINE
  5
2DE
100
AcDbEntity
  8
0
  6
ByLayer
 62
  256
370
   -1
100
AcDbLine
 10
47.01812323581922
 20
140.3775235203685
 11
47.338579364781
 21
140.3775235203685
  0
LINE
  5
2DF
100
AcDbEntity
  8
0
  6
ByLayer
 62
  256
370
   -1
100
AcDbLine
 10
49.37782727200042
 20
153.2926738461476
 11
49.37782727200042
 21
152.1926741981475
  0
LINE
  5
2E0
100
AcDbEntity
  8
0
  6
ByLayer
 62
  256
370
   -1
100
AcDbLine
 10
47.01812323581922
 20
142.5775228163686
 11
46.71812333181882
 21
142.2682595264443
  0
LINE
  5
2E1
100
AcDbEntity
  8
0
  6
ByLayer
 62
  256
370
   -1
100
AcDbLine
 10
48.2278276399997
 20
152.1926741981475
 11
49.37782727200042
 21
152.1926741981475
  0
LINE
  5
2E2
100
AcDbEntity
  8
0
  6
ByLayer
 62
  256
370
   -1
100
AcDbLine
 10
49.37782727200042
 20
154.3926734941479
 11
48.2278276399997
 21
154.3926734941479
  0
LINE
  5
2E3
100
AcDbEntity
  8
0
  6
ByLayer
 62
  256
370
   -1
100
AcDbLine
 10
110.9350839288469
 20
67.3125351545259
 11
112.085083560847
 21
67.3125351545259
  0
LINE
  5
2E4
100
AcDbEntity
  8
0
  6
ByLayer
 62
  256
370
   -1
100
AcDbLine
 10
112.085083560847
 20
69.51253445052589
 11
110.9350839288469
 21
69.51253445052589
  0
LINE
  5
2E5
100
AcDbEntity
  8
0
  6
ByLayer
 62
  256
370
   -1
100
AcDbLine
 10
89.21050047710932
 20
146.5859514956875
 11
89.53095660607102
 21
146.5859514956875
  0
LINE
  5
2E6
100
AcDbEntity
  8
0
  6
ByLayer
 62
  256
370
   -1
100
AcDbLine
 10
24.7628192142795
 20
68.23817578765238
 11
24.7628192142795
 21
69.33817543565237
  0
LINE
  5
2E7
100
AcDbEntity
  8
0
  6
ByLayer
 62
  256
370
   -1
100
AcDbLine
 10
51.11957089483352
 20
69.98024439444231
 11
49.9695712628334
 21
69.98024439444231
  0
LINE
  5
2E8
100
AcDbEntity
  8
0
  6
ByLayer
 62
  256
370
   -1
100
AcDbLine
 10
23.61281958227922
 20
67.13817613965227
 11
23.61281958227922
 21
68.23817578765238
  0
LINE
  5
2E9
100
AcDbEntity
  8
0
  6
ByLayer
 62
  256
370
   -1
100
AcDbLine
 10
112.085083560847
 20
68.41253480252578
 11
112.085083560847
 21
69.51253445052589
  0
LINE
  5
2EA
100
AcDbEntity
  8
0
  6
ByLayer
 62
  256
370
   -1
100
AcDbLine
 10
87.8894286408262
 20
153.9433047158992
 11
87.8894286408262
 21
152.8433050678991
  0
LINE
  5
2EB
100
AcDbEntity
  8
0
  6
ByLayer
 62
  256
370
   -1
100
AcDbLine
 10
86.73942900882579
 20
151.7433054198989
 11
87.8894286408262
 21
151.7433054198989
  0
LINE
  5
2EC
100
AcDbEntity
  8
0
  6
ByLayer
 62
  256
370
   -1
100
AcDbLine
 10
89.07005948079811
 20
74.45835370141771
 11
88.77005957679771
 21
74.45835370141771
  0
LINE
  5
2ED
100
AcDbEntity
  8
0
  6
ByLayer
 62
  256
370
   -1
100
AcDbLine
 10
89.07005948079811
 20
74.45835370141771
 11
89.3905156097598
 21
74.45835370141771
  0
LINE
  5
2EE
100
AcDbEntity
  8
0
  6
ByLayer
 62
  256
370
   -1
100
AcDbLine
 10
89.21050047710932
 20
148.7859507916876
 11
88.91050057310952
 21
148.4766875017631
  0
LINE
  5
2EF
100
AcDbEntity
  8
0
  6
ByLayer
 62
  256
370
   -1
100
AcDbLine
 10
49.9695712628334
 20
68.8802447464422
 11
51.11957089483352
 21
68.8802447464422
  0
LINE
  5
2F0
100
AcDbEntity
  8
0
  6
ByLayer
 62
  256
370
   -1
100
AcDbLine
 10
110.8163845773758
 20
152.6845043994951
 11
110.8163845773758
 21
153.7845040474951
  0
LINE
  5
2F1
100
AcDbEntity
  8
0
  6
ByLayer
 62
  256
370
   -1
100
AcDbLine
 10
7.813095107539482
 20
5.316452540123976
 11
7.813095107539482
 21
7.514289811465403
  0
LINE
  5
2F2
100
AcDbEntity
  8
0
  6
ByLayer
 62
  256
370
   -1
100
AcDbLine
 10
7.813095107539482
 20
7.514289811465403
 11
8.83086378132009
 21
7.514289811465403
  0
LINE
  5
2F3
100
AcDbEntity
  8
0
  6
ByLayer
 62
  256
370
   -1
100
AcDbLine
 10
8.83086378132009
 20
7.514289811465403
 11
9.388111780557892
 21
7.445620794697163
  0
LINE
  5
2F4
100
AcDbEntity
  8
0
  6
ByLayer
 62
  256
370
   -1
100
AcDbLine
 10
9.388111780557892
 20
7.445620794697163
 11
9.723727729490719
 21
7.339461305367877
  0
LINE
  5
2F5
100
AcDbEntity
  8
0
  6
ByLayer
 62
  256
370
   -1
100
AcDbLine
 10
9.723727729490719
 20
7.339461305367877
 11
9.897008026746789
 21
7.205231598812873
  0
LINE
  5
2F6
100
AcDbEntity
  8
0
  6
ByLayer
 62
  256
370
   -1
100
AcDbLine
 10
9.897008026746789
 20
7.205231598812873
 11
9.954768125832317
 21
7.052256655977601
  0
LINE
  5
2F7
100
AcDbEntity
  8
0
  6
ByLayer
 62
  256
370
   -1
100
AcDbLine
 10
9.954768125832317
 20
7.052256655977601
 11
9.954768125832317
 21
5.797254750489799
  0
LINE
  5
2F8
100
AcDbEntity
  8
0
  6
ByLayer
 62
  256
370
   -1
100
AcDbLine
 10
9.954768125832317
 20
5.797254750489799
 11
9.934084651175283
 21
5.69851177697609
  0
LINE
  5
2F9
100
AcDbEntity
  8
0
  6
ByLayer
 62
  256
370
   -1
100
AcDbLine
 10
9.934084651175283
 20
5.69851177697609
 11
9.872034227204097
 21
5.608361362532492
  0
LINE
  5
2FA
100
AcDbEntity
  8
0
  6
ByLayer
 62
  256
370
   -1
100
AcDbLine
 10
9.872034227204097
 20
5.608361362532492
 11
9.62383253132009
 21
5.453838210855679
  0
LINE
  5
2FB
100
AcDbEntity
  8
0
  6
ByLayer
 62
  256
370
   -1
100
AcDbLine
 10
9.62383253132009
 20
5.453838210855679
 11
9.263242782844515
 21
5.350798957806887
  0
LINE
  5
2FC
100
AcDbEntity
  8
0
  6
ByLayer
 62
  256
370
   -1
100
AcDbLine
 10
9.263242782844515
 20
5.350798957806887
 11
8.83086378132009
 21
5.316452540123976
  0
LINE
  5
2FD
100
AcDbEntity
  8
0
  6
ByLayer
 62
  256
370
   -1
100
AcDbLine
 10
8.83086378132009
 20
5.316452540123976
 11
7.813095107539482
 21
5.316452540123976
  0
LINE
  5
2FE
100
AcDbEntity
  8
0
  6
ByLayer
 62
  256
370
   -1
100
AcDbLine
 10
7.813095107539482
 20
9.624379369392273
 11
7.813095107539482
 21
5.316452540123976
  0
LINE
  5
2FF
100
AcDbEntity
  8
0
  6
ByLayer
 62
  256
370
   -1
100
AcDbLine
 10
7.813095107539482
 20
5.316452540123976
 11
8.83086378132009
 21
5.316452540123976
  0
LINE
  5
300
100
AcDbEntity
  8
0
  6
ByLayer
 62
  256
370
   -1
100
AcDbLine
 10
8.83086378132009
 20
5.316452540123976
 11
9.263242782844515
 21
5.350787048508096
  0
LINE
  5
301
100
AcDbEntity
  8
0
  6
ByLayer
 62
  256
370
   -1
100
AcDbLine
 10
9.263242782844515
 20
5.350787048508096
 11
9.62383253132009
 21
5.453790573660569
  0
LINE
  5
302
100
AcDbEntity
  8
0
  6
ByLayer
 62
  256
370
   -1
100
AcDbLine
 10
9.62383253132009
 20
5.453790573660569
 11
9.872034227204097
 21
5.608337543934908
  0
LINE
  5
303
100
AcDbEntity
  8
0
  6
ByLayer
 62
  256
370
   -1
100
AcDbLine
 10
9.872034227204097
 20
5.608337543934908
 11
9.934084651175283
 21
5.698482003729168
  0
LINE
  5
304
100
AcDbEntity
  8
0
  6
ByLayer
 62
  256
370
   -1
100
AcDbLine
 10
9.934084651175283
 20
5.698482003729168
 11
9.954768125832317
 21
5.797207113294689
  0
LINE
  5
305
100
AcDbEntity
  8
0
  6
ByLayer
 62
  256
370
   -1
100
AcDbLine
 10
9.954768125832317
 20
5.797207113294689
 11
9.954768125832317
 21
7.052113744392159
  0
LINE
  5
306
100
AcDbEntity
  8
0
  6
ByLayer
 62
  256
370
   -1
100
AcDbLine
 10
9.954768125832317
 20
7.052113744392159
 11
9.897008026746789
 21
7.205052959331283
  0
LINE
  5
307
100
AcDbEntity
  8
0
  6
ByLayer
 62
  256
370
   -1
100
AcDbLine
 10
9.897008026746789
 20
7.205052959331283
 11
9.723727729490719
 21
7.339270756587268
  0
LINE
  5
308
100
AcDbEntity
  8
0
  6
ByLayer
 62
  256
370
   -1
100
AcDbLine
 10
9.723727729490719
 20
7.339270756587268
 11
9.388111780557892
 21
7.445430245916668
  0
LINE
  5
309
100
AcDbEntity
  8
0
  6
ByLayer
 62
  256
370
   -1
100
AcDbLine
 10
9.388111780557892
 20
7.445430245916668
 11
8.83086378132009
 21
7.514099262684908
  0
LINE
  5
30A
100
AcDbEntity
  8
0
  6
ByLayer
 62
  256
370
   -1
100
AcDbLine
 10
8.83086378132009
 20
7.514099262684908
 11
9.381871307996789
 21
7.578087925032492
  0
LINE
  5
30B
100
AcDbEntity
  8
0
  6
ByLayer
 62
  256
370
   -1
100
AcDbLine
 10
9.381871307996789
 20
7.578087925032492
 11
9.723727729490719
 21
7.682687296221502
  0
LINE
  5
30C
100
AcDbEntity
  8
0
  6
ByLayer
 62
  256
370
   -1
100
AcDbLine
 10
9.723727729490719
 20
7.682687296221502
 11
9.897008026746789
 21
7.821597357197163
  0
LINE
  5
30D
100
AcDbEntity
  8
0
  6
ByLayer
 62
  256
370
   -1
100
AcDbLine
 10
9.897008026746789
 20
7.821597357197163
 11
9.954768125832317
 21
7.97613241817271
  0
LINE
  5
30E
100
AcDbEntity
  8
0
  6
ByLayer
 62
  256
370
   -1
100
AcDbLine
 10
9.954768125832317
 20
7.97613241817271
 11
9.954768125832317
 21
9.143624796221502
  0
LINE
  5
30F
100
AcDbEntity
  8
0
  6
ByLayer
 62
  256
370
   -1
100
AcDbLine
 10
9.954768125832317
 20
9.143624796221502
 11
9.934084651175283
 21
9.237279521831283
  0
LINE
  5
310
100
AcDbEntity
  8
0
  6
ByLayer
 62
  256
370
   -1
100
AcDbLine
 10
9.934084651175283
 20
9.237279521831283
 11
9.872034227204097
 21
9.324693774880075
  0
LINE
  5
311
100
AcDbEntity
  8
0
  6
ByLayer
 62
  256
370
   -1
100
AcDbLine
 10
9.872034227204097
 20
9.324693774880075
 11
9.62383253132009
 21
9.480800863294689
  0
LINE
  5
312
100
AcDbEntity
  8
0
  6
ByLayer
 62
  256
370
   -1
100
AcDbLine
 10
9.62383253132009
 20
9.480800863294689
 11
9.260122546563991
 21
9.588484742867763
  0
LINE
  5
313
100
AcDbEntity
  8
0
  6
ByLayer
 62
  256
370
   -1
100
AcDbLine
 10
9.260122546563991
 20
9.588484742867763
 11
8.83086378132009
 21
9.624379369392273
  0
LINE
  5
314
100
AcDbEntity
  8
0
  6
ByLayer
 62
  256
370
   -1
100
AcDbLine
 10
8.83086378132009
 20
9.624379369392273
 11
7.813095107539482
 21
9.624379369392273
  0
LINE
  5
315
100
AcDbEntity
  8
0
  6
ByLayer
 62
  256
370
   -1
100
AcDbLine
 10
8.83086378132009
 20
7.513908713904414
 11
7.813095107539482
 21
7.513908713904414
  0
LINE
  5
316
100
AcDbEntity
  8
0
  6
ByLayer
 62
  256
370
   -1
100
AcDbLine
 10
7.813095107539482
 20
7.513908713904414
 11
7.813095107539482
 21
9.624379369392273
  0
LINE
  5
317
100
AcDbEntity
  8
0
  6
ByLayer
 62
  256
370
   -1
100
AcDbLine
 10
7.813095107539482
 20
9.624379369392273
 11
8.83086378132009
 21
9.624379369392273
  0
LINE
  5
318
100
AcDbEntity
  8
0
  6
ByLayer
 62
  256
370
   -1
100
AcDbLine
 10
8.83086378132009
 20
9.624379369392273
 11
9.260122546563991
 21
9.588472833569085
  0
LINE
  5
319
100
AcDbEntity
  8
0
  6
ByLayer
 62
  256
370
   -1
100
AcDbLine
 10
9.260122546563991
 20
9.588472833569085
 11
9.62383253132009
 21
9.48075322609958
  0
LINE
  5
31A
100
AcDbEntity
  8
0
  6
ByLayer
 62
  256
370
   -1
100
AcDbLine
 10
9.62383253132009
 20
9.48075322609958
 11
9.872034227204097
 21
9.324646137684965
  0
LINE
  5
31B
100
AcDbEntity
  8
0
  6
ByLayer
 62
  256
370
   -1
100
AcDbLine
 10
9.872034227204097
 20
9.324646137684965
 11
9.934084651175283
 21
9.23723188463606
  0
LINE
  5
31C
100
AcDbEntity
  8
0
  6
ByLayer
 62
  256
370
   -1
100
AcDbLine
 10
9.934084651175283
 20
9.23723188463606
 11
9.954768125832317
 21
9.143577159026393
  0
LINE
  5
31D
100
AcDbEntity
  8
0
  6
ByLayer
 62
  256
370
   -1
100
AcDbLine
 10
9.954768125832317
 20
9.143577159026393
 11
9.954768125832317
 21
7.975989506587382
  0
LINE
  5
31E
100
AcDbEntity
  8
0
  6
ByLayer
 62
  256
370
   -1
100
AcDbLine
 10
9.954768125832317
 20
7.975989506587382
 11
9.897008026746789
 21
7.821442536312873
  0
LINE
  5
31F
100
AcDbEntity
  8
0
  6
ByLayer
 62
  256
370
   -1
100
AcDbLine
 10
9.897008026746789
 20
7.821442536312873
 11
9.723727729490719
 21
7.682496747441064
  0
LINE
  5
320
100
AcDbEntity
  8
0
  6
ByLayer
 62
  256
370
   -1
100
AcDbLine
 10
9.723727729490719
 20
7.682496747441064
 11
9.381871307996789
 21
7.577921194849466
  0
LINE
  5
321
100
AcDbEntity
  8
0
  6
ByLayer
 62
  256
370
   -1
100
AcDbLine
 10
9.381871307996789
 20
7.577921194849466
 11
8.83086378132009
 21
7.513908713904414
  0
LINE
  5
322
100
AcDbEntity
  8
0
  6
ByLayer
 62
  256
370
   -1
100
AcDbLine
 10
54.4999836508029
 20
9.349999903499793
 11
63.69998135050281
 21
9.349999903499793
  0
LINE
  5
323
100
AcDbEntity
  8
0
  6
ByLayer
 62
  256
370
   -1
100
AcDbLine
 10
63.69998135050281
 20
9.349999903499793
 11
63.69998135050281
 21
2.749997986200697
  0
LINE
  5
324
100
AcDbEntity
  8
0
  6
ByLayer
 62
  256
370
   -1
100
AcDbLine
 10
63.69998135050281
 20
2.749997986200697
 11
54.4999836508029
 21
2.749997986200697
  0
LINE
  5
325
100
AcDbEntity
  8
0
  6
ByLayer
 62
  256
370
   -1
100
AcDbLine
 10
54.4999836508029
 20
2.749997986200697
 11
54.4999836508029
 21
9.349999903499793
  0
LINE
  5
326
100
AcDbEntity
  8
0
  6
ByLayer
 62
  256
370
   -1
100
AcDbLine
 10
78.29997541190582
 20
9.349999903499793
 11
87.49997124900599
 21
9.349999903499793
  0
LINE
  5
327
100
AcDbEntity
  8
0
  6
ByLayer
 62
  256
370
   -1
100
AcDbLine
 10
87.49997124900599
 20
9.349999903499793
 11
87.49997124900599
 21
2.749997986200469
  0
LINE
  5
328
100
AcDbEntity
  8
0
  6
ByLayer
 62
  256
370
   -1
100
AcDbLine
 10
87.49997124900599
 20
2.749997986200469
 11
78.29997541190582
 21
2.749997986200469
  0
LINE
  5
329
100
AcDbEntity
  8
0
  6
ByLayer
 62
  256
370
   -1
100
AcDbLine
 10
78.29997541190582
 20
2.749997986200469
 11
78.29997541190582
 21
9.349999903499793
  0
LINE
  5
32A
100
AcDbEntity
  8
0
  6
ByLayer
 62
  256
370
   -1
100
AcDbLine
 10
160.9499495868101
 20
9.349999903499793
 11
170.1499472865097
 21
9.349999903499793
  0
LINE
  5
32B
100
AcDbEntity
  8
0
  6
ByLayer
 62
  256
370
   -1
100
AcDbLine
 10
170.1499472865097
 20
9.349999903499793
 11
170.1499472865097
 21
2.749997986200697
  0
LINE
  5
32C
100
AcDbEntity
  8
0
  6
ByLayer
 62
  256
370
   -1
100
AcDbLine
 10
170.1499472865097
 20
2.749997986200697
 11
160.9499495868101
 21
2.749997986200697
  0
LINE
  5
32D
100
AcDbEntity
  8
0
  6
ByLayer
 62
  256
370
   -1
100
AcDbLine
 10
160.9499495868101
 20
2.749997986200697
 11
160.9499495868101
 21
9.349999903499793
  0
LINE
  5
32E
100
AcDbEntity
  8
0
  6
ByLayer
 62
  256
370
   -1
100
AcDbLine
 10
184.7499413479125
 20
9.349999903499793
 11
193.9499371850129
 21
9.349999903499793
  0
LINE
  5
32F
100
AcDbEntity
  8
0
  6
ByLayer
 62
  256
370
   -1
100
AcDbLine
 10
193.9499371850129
 20
9.349999903499793
 11
193.9499371850129
 21
2.749997986200469
  0
LINE
  5
330
100
AcDbEntity
  8
0
  6
ByLayer
 62
  256
370
   -1
100
AcDbLine
 10
193.9499371850129
 20
2.749997986200469
 11
184.7499413479125
 21
2.749997986200469
  0
LINE
  5
331
100
AcDbEntity
  8
0
  6
ByLayer
 62
  256
370
   -1
100
AcDbLine
 10
184.7499413479125
 20
2.749997986200469
 11
184.7499413479125
 21
9.349999903499793
  0
LINE
  5
332
100
AcDbEntity
  8
0
  6
ByLayer
 62
  256
370
   -1
100
AcDbLine
 10
267.3999155228169
 20
9.349999903499793
 11
276.5999132225166
 21
9.349999903499793
  0
LINE
  5
333
100
AcDbEntity
  8
0
  6
ByLayer
 62
  256
370
   -1
100
AcDbLine
 10
276.5999132225166
 20
9.349999903499793
 11
276.5999132225166
 21
2.749997986200697
  0
LINE
  5
334
100
AcDbEntity
  8
0
  6
ByLayer
 62
  256
370
   -1
100
AcDbLine
 10
276.5999132225166
 20
2.749997986200697
 11
267.3999155228169
 21
2.749997986200697
  0
LINE
  5
335
100
AcDbEntity
  8
0
  6
ByLayer
 62
  256
370
   -1
100
AcDbLine
 10
267.3999155228169
 20
2.749997986200697
 11
267.3999155228169
 21
9.349999903499793
  0
LINE
  5
336
100
AcDbEntity
  8
0
  6
ByLayer
 62
  256
370
   -1
100
AcDbLine
 10
291.1999072839195
 20
9.349999903499793
 11
300.3999031210197
 21
9.349999903499793
  0
LINE
  5
337
100
AcDbEntity
  8
0
  6
ByLayer
 62
  256
370
   -1
100
AcDbLine
 10
300.3999031210197
 20
9.349999903499793
 11
300.3999031210197
 21
2.749997986200469
  0
LINE
  5
338
100
AcDbEntity
  8
0
  6
ByLayer
 62
  256
370
   -1
100
AcDbLine
 10
300.3999031210197
 20
2.749997986200469
 11
291.1999072839195
 21
2.749997986200469
  0
LINE
  5
339
100
AcDbEntity
  8
0
  6
ByLayer
 62
  256
370
   -1
100
AcDbLine
 10
291.1999072839195
 20
2.749997986200469
 11
291.1999072839195
 21
9.349999903499793
  0
CIRCLE
  5
33A
100
AcDbEntity
  8
0
  6
ByLayer
 62
  256
370
   -1
100
AcDbCircle
 10
70.99997728000476
 20
6.049997984000565
 40
1.801725215564045
  0
CIRCLE
  5
33B
100
AcDbEntity
  8
0
  6
ByLayer
 62
  256
370
   -1
100
AcDbCircle
 10
177.4499432160115
 20
6.049997984000476
 40
1.801725215563929
  0
CIRCLE
  5
33C
100
AcDbEntity
  8
0
  6
ByLayer
 62
  256
370
   -1
100
AcDbCircle
 10
283.8999091520183
 20
6.049997984000481
 40
1.801725215563874
  0
CIRCLE
  5
33D
100
AcDbEntity
  8
0
  6
ByLayer
 62
  256
370
   -1
100
AcDbCircle
 10
114.9910731833692
 20
62.97220315144995
 40
1.799999424000172
  0
CIRCLE
  5
33E
100
AcDbEntity
  8
0
  6
ByLayer
 62
  256
370
   -1
100
AcDbCircle
 10
90.49568111717693
 20
63.73929596274427
 40
1.799999424000076
  0
CIRCLE
  5
33F
100
AcDbEntity
  8
0
  6
ByLayer
 62
  256
370
   -1
100
AcDbCircle
 10
92.63486270330017
 20
70.75687932074102
 40
1.799999424000042
  0
CIRCLE
  5
340
100
AcDbEntity
  8
0
  6
ByLayer
 62
  256
370
   -1
100
AcDbCircle
 10
46.56379067198046
 20
63.73929596274419
 40
1.799999424000194
  0
CIRCLE
  5
341
100
AcDbEntity
  8
0
  6
ByLayer
 62
  256
370
   -1
100
AcDbCircle
 10
44.37466307046093
 20
70.82837591278968
 40
1.799999424000205
  0
CIRCLE
  5
342
100
AcDbEntity
  8
0
  6
ByLayer
 62
  256
370
   -1
100
AcDbCircle
 10
19.99802300752004
 20
63.0157779451088
 40
1.799999424000019
  0
CIRCLE
  5
343
100
AcDbEntity
  8
0
  6
ByLayer
 62
  256
370
   -1
100
AcDbCircle
 10
44.34171634511092
 20
145.7728916959289
 40
1.7999994240002
  0
CIRCLE
  5
344
100
AcDbEntity
  8
0
  6
ByLayer
 62
  256
370
   -1
100
AcDbCircle
 10
46.62945374541596
 20
157.6637247388808
 40
1.799999424000225
  0
CIRCLE
  5
345
100
AcDbEntity
  8
0
  6
ByLayer
 62
  256
370
   -1
100
AcDbCircle
 10
90.46364725324894
 20
157.7559432255323
 40
1.799999424000209
  0
CIRCLE
  5
346
100
AcDbEntity
  8
0
  6
ByLayer
 62
  256
370
   -1
100
AcDbCircle
 10
92.60488578381192
 20
152.0735665573785
 40
1.799999424000012
  0
CIRCLE
  5
347
100
AcDbEntity
  8
0
  6
ByLayer
 62
  256
370
   -1
100
AcDbCircle
 10
114.9670808561169
 20
158.9286671730381
 40
1.79999942400004
  0
ENDSEC
  0
SECTION
  2
OBJECTS
  0
DICTIONARY
  5
C
330
0
100
AcDbDictionary
281
    1
  3
ACAD_GROUP
350
D
  0
DICTIONARY
  5
D
330
C
100
AcDbDictionary
281
    1
  0
ENDSEC
  0
EOF
