999
dxfrw 0.6.1
  0
SECTION
  2
HEADER
  9
$ACADVER
  1
AC1021
  9
$DWGCODEPAGE
  3
ANSI_1252
  9
$INSBASE
 10
0
 20
0
 30
0
  9
$EXTMIN
 10
-6.099997891200985
 20
0
 30
0
  9
$EXTMAX
 10
336.4998923232216
 20
363.899883552023
 30
0
  9
$LIMMIN
 10
0
 20
0
  9
$LIMMAX
 10
420
 20
297
  9
$ORTHOMODE
 70
    0
  9
$REGENMODE
 70
    1
  9
$FILLMODE
 70
    1
  9
$QTEXTMODE
 70
    0
  9
$MIRRTEXT
 70
    0
  9
$LTSCALE
 40
1
  9
$ATTMODE
 70
    0
  9
$TEXTSIZE
 40
2.5
  9
$TRACEWID
 40
15.68
  9
$TEXTSTYLE
  7
STANDARD
  9
$CLAYER
  8
0
  9
$CELTYPE
  6
BYLAYER
  9
$CECOLOR
 62
  256
  9
$CELTSCALE
 40
1
  9
$DISPSILH
 70
    0
  9
$DIMSCALE
 40
2.5
  9
$DIMASZ
 40
2.5
  9
$DIMEXO
 40
0.625
  9
$DIMDLI
 40
3.75
  9
$DIMRND
 40
0
  9
$DIMDLE
 40
0
  9
$DIMEXE
 40
1.25
  9
$DIMTP
 40
0
  9
$DIMTM
 40
0
  9
$DIMTXT
 40
2.5
  9
$DIMCEN
 40
2.5
  9
$DIMTSZ
 40
0
  9
$DIMTOL
 70
    0
  9
$DIMLIM
 70
    0
  9
$DIMTIH
 70
    0
  9
$DIMTOH
 70
    0
  9
$DIMSE1
 70
    0
  9
$DIMSE2
 70
    0
  9
$DIMTAD
 70
    1
  9
$DIMZIN
 70
    8
  9
$DIMBLK
  1

  9
$DIMASO
 70
    1
  9
$DIMSHO
 70
    1
  9
$DIMPOST
  1

  9
$DIMAPOST
  1

  9
$DIMALT
 70
    0
  9
$DIMALTD
 70
    3
  9
$DIMALTF
 40
0.03937
  9
$DIMLFAC
 40
1
  9
$DIMTOFL
 70
    1
  9
$DIMTVP
 40
0
  9
$DIMTIX
 70
    0
  9
$DIMSOXD
 70
    0
  9
$DIMSAH
 70
    0
  9
$DIMBLK1
  1

  9
$DIMBLK2
  1

  9
$DIMSTYLE
  2
STANDARD
  9
$DIMCLRD
 70
    0
  9
$DIMCLRE
 70
    0
  9
$DIMCLRT
 70
    0
  9
$DIMTFAC
 40
1
  9
$DIMGAP
 40
0.625
  9
$DIMJUST
 70
    0
  9
$DIMSD1
 70
    0
  9
$DIMSD2
 70
    0
  9
$DIMTOLJ
 70
    0
  9
$DIMTZIN
 70
    8
  9
$DIMALTZ
 70
    0
  9
$DIMALTTZ
 70
    0
  9
$DIMUPT
 70
    0
  9
$DIMDEC
 70
    2
  9
$DIMTDEC
 70
    2
  9
$DIMALTU
 70
    2
  9
$DIMALTTD
 70
    3
  9
$DIMTXSTY
  7
STANDARD
  9
$DIMAUNIT
 70
    0
  9
$DIMADEC
 70
    0
  9
$DIMALTRND
 40
0
  9
$DIMAZIN
 70
    0
  9
$DIMDSEP
 70
   44
  9
$DIMATFIT
 70
    3
  9
$DIMFRAC
 70
    0
  9
$DIMLDRBLK
  1
STANDARD
  9
$DIMLUNIT
 70
    2
  9
$DIMLWD
 70
   -2
  9
$DIMLWE
 70
   -2
  9
$DIMTMOVE
 70
    0
  9
$DIMFXL
 40
1
  9
$DIMFXLON
 70
    0
  9
$DIMJOGANG
 40
0.7854
  9
$DIMTFILL
 70
    0
  9
$DIMTFILLCLR
 70
    0
  9
$DIMARCSYM
 70
    0
  9
$DIMLTYPE
  6

  9
$DIMLTEX1
  6

  9
$DIMLTEX2
  6

  9
$LUNITS
 70
    2
  9
$LUPREC
 70
    4
  9
$SKETCHINC
 40
1
  9
$FILLETRAD
 40
0
  9
$AUNITS
 70
    0
  9
$AUPREC
 70
    2
  9
$MENU
  1
.
  9
$ELEVATION
 40
0
  9
$PELEVATION
 40
0
  9
$THICKNESS
 40
0
  9
$LIMCHECK
 70
    0
  9
$CHAMFERA
 40
0
  9
$CHAMFERB
 40
0
  9
$CHAMFERC
 40
0
  9
$CHAMFERD
 40
0
  9
$SKPOLY
 70
    0
  9
$USRTIMER
 70
    1
  9
$ANGBASE
 50
0
  9
$ANGDIR
 70
    0
  9
$PDMODE
 70
   34
  9
$PDSIZE
 40
0
  9
$PLINEWID
 40
0
  9
$SPLFRAME
 70
    0
  9
$SPLINETYPE
 70
    2
  9
$SPLINESEGS
 70
    8
  9
$HANDSEED
  5
20000
  9
$SURFTAB1
 70
    6
  9
$SURFTAB2
 70
    6
  9
$SURFTYPE
 70
    6
  9
$SURFU
 70
    6
  9
$SURFV
 70
    6
  9
$UCSBASE
  2

  9
$UCSNAME
  2

  9
$UCSORG
 10
0
 20
0
 30
0
  9
$UCSXDIR
 10
1
 20
0
 30
0
  9
$UCSYDIR
 10
0
 20
1
 30
0
  9
$UCSORTHOREF
  2

  9
$UCSORTHOVIEW
 70
    0
  9
$UCSORGTOP
 10
0
 20
0
 30
0
  9
$UCSORGBOTTOM
 10
0
 20
0
 30
0
  9
$UCSORGLEFT
 10
0
 20
0
 30
0
  9
$UCSORGRIGHT
 10
0
 20
0
 30
0
  9
$UCSORGFRONT
 10
0
 20
0
 30
0
  9
$UCSORGBACK
 10
0
 20
0
 30
0
  9
$PUCSBASE
  2

  9
$PUCSNAME
  2

  9
$PUCSORG
 10
0
 20
0
 30
0
  9
$PUCSXDIR
 10
1
 20
0
 30
0
  9
$PUCSYDIR
 10
0
 20
1
 30
0
  9
$PUCSORTHOREF
  2

  9
$PUCSORTHOVIEW
 70
    0
  9
$PUCSORGTOP
 10
0
 20
0
 30
0
  9
$PUCSORGBOTTOM
 10
0
 20
0
 30
0
  9
$PUCSORGLEFT
 10
0
 20
0
 30
0
  9
$PUCSORGRIGHT
 10
0
 20
0
 30
0
  9
$PUCSORGFRONT
 10
0
 20
0
 30
0
  9
$PUCSORGBACK
 10
0
 20
0
 30
0
  9
$USERI1
 70
    0
  9
$USERI2
 70
    0
  9
$USERI3
 70
    0
  9
$USERI4
 70
    0
  9
$USERI5
 70
    0
  9
$USERR1
 40
0
  9
$USERR2
 40
0
  9
$USERR3
 40
0
  9
$USERR4
 40
0
  9
$USERR5
 40
0
  9
$WORLDVIEW
 70
    1
  9
$SHADEDGE
 70
    3
  9
$SHADEDIF
 70
   70
  9
$TILEMODE
 70
    1
  9
$MAXACTVP
 70
   64
  9
$PINSBASE
 10
0
 20
0
 30
0
  9
$PLIMCHECK
 70
    0
  9
$PEXTMIN
 10
0
 20
0
 30
0
  9
$PEXTMAX
 10
0
 20
0
 30
0
  9
$GRIDMODE
 70
    1
  9
$SNAPSTYLE
 70
    0
  9
$PLIMMIN
 10
0
 20
0
  9
$PLIMMAX
 10
0.00073228
 20
0.00054921
  9
$UNITMODE
 70
    0
  9
$VISRETAIN
 70
    1
  9
$PLINEGEN
 70
    0
  9
$PSLTSCALE
 70
    1
  9
$TREEDEPTH
 70
 3020
  9
$CMLSTYLE
  2
Standard
  9
$CMLJUST
 70
    0
  9
$CMLSCALE
 40
20
  9
$PROXYGRAPHICS
 70
    1
  9
$MEASUREMENT
 70
    1
  9
$CELWEIGHT
370
   -1
  9
$ENDCAPS
280
    0
  9
$JOINSTYLE
280
    0
  9
$LWDISPLAY
290
    0
  9
$INSUNITS
 70
    0
  9
$HYPERLINKBASE
  1

  9
$STYLESHEET
  1

  9
$XEDIT
290
    1
  9
$CEPSNTYPE
380
    0
  9
$PSTYLEMODE
290
    1
  9
$EXTNAMES
290
    1
  9
$PSVPSCALE
 40
1
  9
$OLESTARTUP
290
    0
  9
$SORTENTS
280
  127
  9
$INDEXCTL
280
    0
  9
$HIDETEXT
280
    1
  9
$XCLIPFRAME
290
    0
  9
$HALOGAP
280
    0
  9
$OBSCOLOR
 70
  257
  9
$OBSLTYPE
280
    0
  9
$INTERSECTIONDISPLAY
280
    0
  9
$INTERSECTIONCOLOR
 70
  257
  9
$DIMASSOC
280
    0
  9
$PROJECTNAME
  1

  9
$CAMERADISPLAY
290
    0
  9
$LENSLENGTH
 40
50
  9
$CAMERAHEIGHT
 40
0
  9
$STEPSPERSEC
 40
2
  9
$STEPSIZE
 40
50
  9
$3DDWFPREC
 40
2
  9
$PSOLWIDTH
 40
5
  9
$PSOLHEIGHT
 40
80
  9
$LOFTANG1
 40
1.570796326794897
  9
$LOFTANG2
 40
1.570796326794897
  9
$LOFTMAG1
 40
0
  9
$LOFTMAG2
 40
0
  9
$LOFTPARAM
 70
    7
  9
$LOFTNORMALS
280
    1
  9
$LATITUDE
 40
1
  9
$LONGITUDE
 40
1
  9
$NORTHDIRECTION
 40
0
  9
$TIMEZONE
 70
-8000
  9
$LIGHTGLYPHDISPLAY
280
    1
  9
$TILEMODELIGHTSYNCH
280
    1
  9
$SOLIDHIST
280
    1
  9
$SHOWHIST
280
    1
  9
$DWFFRAME
280
    2
  9
$DGNFRAME
280
    0
  9
$REALWORLDSCALE
290
    1
  9
$INTERFERECOLOR
 62
    1
  9
$CSHADOW
280
    0
  9
$SHADOWPLANELOCATION
 40
0
  0
ENDSEC
  0
SECTION
  2
CLASSES
  0
ENDSEC
  0
SECTION
  2
TABLES
  0
TABLE
  2
VPORT
  5
8
330
0
100
AcDbSymbolTable
 70
    1
  0
VPORT
  5
31
330
2
100
AcDbSymbolTableRecord
100
AcDbViewportTableRecord
  2
*ACTIVE
 70
    0
 10
0
 20
0
 11
1
 21
1
 12
166.7791923868314
 22
190.4313619898835
 13
0
 23
0
 14
10
 24
10
 15
10
 25
10
 16
0
 26
0
 36
1
 17
0
 27
0
 37
0
 40
85.81760652434848
 41
2.045853658536585
 42
50
 43
0
 44
0
 50
0
 51
0
 71
    0
 72
  100
 73
    1
 74
    3
 75
    0
 76
    1
 77
    0
 78
    0
281
    0
 65
    1
110
0
120
0
130
0
111
1
121
0
131
0
112
0
122
1
132
0
 79
    0
146
0
348
10020
 60
    7
 61
    5
292
1
282
    1
141
0
142
0
 63
  250
421
3358443
  0
ENDTAB
  0
TABLE
  2
LTYPE
  5
5
330
0
100
AcDbSymbolTable
 70
    4
  0
LTYPE
  5
14
330
5
100
AcDbSymbolTableRecord
100
AcDbLinetypeTableRecord
  2
ByBlock
 70
    0
  3

 72
   65
 73
    0
 40
0
  0
LTYPE
  5
15
330
5
100
AcDbSymbolTableRecord
100
AcDbLinetypeTableRecord
  2
ByLayer
 70
    0
  3

 72
   65
 73
    0
 40
0
  0
LTYPE
  5
16
330
5
100
AcDbSymbolTableRecord
100
AcDbLinetypeTableRecord
  2
Continuous
 70
    0
  3
Solid line
 72
   65
 73
    0
 40
0
  0
LTYPE
  5
32
330
5
100
AcDbSymbolTableRecord
100
AcDbLinetypeTableRecord
  2
DOT
 70
    0
  3
Dot . . . . . . . . . . . . . . . . . . . . . .
 72
   65
 73
    2
 40
6.35
 49
0
 74
    0
 49
-6.35
 74
    0
  0
LTYPE
  5
33
330
5
100
AcDbSymbolTableRecord
100
AcDbLinetypeTableRecord
  2
DOTTINY
 70
    0
  3
Dot (.15x) .....................................
 72
   65
 73
    2
 40
0.9525
 49
0
 74
    0
 49
-0.9525
 74
    0
  0
LTYPE
  5
34
330
5
100
AcDbSymbolTableRecord
100
AcDbLinetypeTableRecord
  2
DOT2
 70
    0
  3
Dot (.5x) .....................................
 72
   65
 73
    2
 40
3.175
 49
0
 74
    0
 49
-3.175
 74
    0
  0
LTYPE
  5
35
330
5
100
AcDbSymbolTableRecord
100
AcDbLinetypeTableRecord
  2
DOTX2
 70
    0
  3
Dot (2x) .  .  .  .  .  .  .  .  .  .  .  .  .
 72
   65
 73
    2
 40
12.7
 49
0
 74
    0
 49
-12.7
 74
    0
  0
LTYPE
  5
36
330
5
100
AcDbSymbolTableRecord
100
AcDbLinetypeTableRecord
  2
DASHED
 70
    0
  3
Dashed _ _ _ _ _ _ _ _ _ _ _ _ _ _ _ _ _
 72
   65
 73
    2
 40
19.05
 49
12.7
 74
    0
 49
-6.35
 74
    0
  0
LTYPE
  5
37
330
5
100
AcDbSymbolTableRecord
100
AcDbLinetypeTableRecord
  2
DASHEDTINY
 70
    0
  3
Dashed (.15x) _ _ _ _ _ _ _ _ _ _ _ _ _ _ _ _ _
 72
   65
 73
    2
 40
2.8575
 49
1.905
 74
    0
 49
-0.9525
 74
    0
  0
LTYPE
  5
38
330
5
100
AcDbSymbolTableRecord
100
AcDbLinetypeTableRecord
  2
DASHED2
 70
    0
  3
Dashed (.5x) _ _ _ _ _ _ _ _ _ _ _ _ _ _ _ _ _
 72
   65
 73
    2
 40
9.524999999999999
 49
6.35
 74
    0
 49
-3.175
 74
    0
  0
LTYPE
  5
39
330
5
100
AcDbSymbolTableRecord
100
AcDbLinetypeTableRecord
  2
DASHEDX2
 70
    0
  3
Dashed (2x) ____  ____  ____  ____  ____  ___
 72
   65
 73
    2
 40
38.09999999999999
 49
25.4
 74
    0
 49
-12.7
 74
    0
  0
LTYPE
  5
3A
330
5
100
AcDbSymbolTableRecord
100
AcDbLinetypeTableRecord
  2
DASHDOT
 70
    0
  3
Dash dot __ . __ . __ . __ . __ . __ . __ . __
 72
   65
 73
    4
 40
25.4
 49
12.7
 74
    0
 49
-6.35
 74
    0
 49
0
 74
    0
 49
-6.35
 74
    0
  0
LTYPE
  5
3B
330
5
100
AcDbSymbolTableRecord
100
AcDbLinetypeTableRecord
  2
DASHDOTTINY
 70
    0
  3
Dash dot (.15x) _._._._._._._._._._._._._._._.
 72
   65
 73
    4
 40
3.81
 49
1.905
 74
    0
 49
-0.9525
 74
    0
 49
0
 74
    0
 49
-0.9525
 74
    0
  0
LTYPE
  5
3C
330
5
100
AcDbSymbolTableRecord
100
AcDbLinetypeTableRecord
  2
DASHDOT2
 70
    0
  3
Dash dot (.5x) _._._._._._._._._._._._._._._.
 72
   65
 73
    4
 40
12.7
 49
6.35
 74
    0
 49
-3.175
 74
    0
 49
0
 74
    0
 49
-3.175
 74
    0
  0
LTYPE
  5
3D
330
5
100
AcDbSymbolTableRecord
100
AcDbLinetypeTableRecord
  2
DASHDOTX2
 70
    0
  3
Dash dot (2x) ____  .  ____  .  ____  .  ___
 72
   65
 73
    4
 40
50.8
 49
25.4
 74
    0
 49
-12.7
 74
    0
 49
0
 74
    0
 49
-12.7
 74
    0
  0
LTYPE
  5
3E
330
5
100
AcDbSymbolTableRecord
100
AcDbLinetypeTableRecord
  2
DIVIDE
 70
    0
  3
Divide ____ . . ____ . . ____ . . ____ . . ____
 72
   65
 73
    6
 40
31.75
 49
12.7
 74
    0
 49
-6.35
 74
    0
 49
0
 74
    0
 49
-6.35
 74
    0
 49
0
 74
    0
 49
-6.35
 74
    0
  0
LTYPE
  5
3F
330
5
100
AcDbSymbolTableRecord
100
AcDbLinetypeTableRecord
  2
DIVIDETINY
 70
    0
  3
Divide (.15x) __..__..__..__..__..__..__..__.._
 72
   65
 73
    6
 40
4.7625
 49
1.905
 74
    0
 49
-0.9525
 74
    0
 49
0
 74
    0
 49
-0.9525
 74
    0
 49
0
 74
    0
 49
-0.9525
 74
    0
  0
LTYPE
  5
40
330
5
100
AcDbSymbolTableRecord
100
AcDbLinetypeTableRecord
  2
DIVIDE2
 70
    0
  3
Divide (.5x) __..__..__..__..__..__..__..__.._
 72
   65
 73
    6
 40
15.875
 49
6.35
 74
    0
 49
-3.175
 74
    0
 49
0
 74
    0
 49
-3.175
 74
    0
 49
0
 74
    0
 49
-3.175
 74
    0
  0
LTYPE
  5
41
330
5
100
AcDbSymbolTableRecord
100
AcDbLinetypeTableRecord
  2
DIVIDEX2
 70
    0
  3
Divide (2x) ________  .  .  ________  .  .  _
 72
   65
 73
    6
 40
63.5
 49
25.4
 74
    0
 49
-12.7
 74
    0
 49
0
 74
    0
 49
-12.7
 74
    0
 49
0
 74
    0
 49
-12.7
 74
    0
  0
LTYPE
  5
42
330
5
100
AcDbSymbolTableRecord
100
AcDbLinetypeTableRecord
  2
BORDER
 70
    0
  3
Border __ __ . __ __ . __ __ . __ __ . __ __ .
 72
   65
 73
    6
 40
44.45
 49
12.7
 74
    0
 49
-6.35
 74
    0
 49
12.7
 74
    0
 49
-6.35
 74
    0
 49
0
 74
    0
 49
-6.35
 74
    0
  0
LTYPE
  5
43
330
5
100
AcDbSymbolTableRecord
100
AcDbLinetypeTableRecord
  2
BORDERTINY
 70
    0
  3
Border (.15x) __.__.__.__.__.__.__.__.__.__.__.
 72
   65
 73
    6
 40
6.6675
 49
1.905
 74
    0
 49
-0.9525
 74
    0
 49
1.905
 74
    0
 49
-0.9525
 74
    0
 49
0
 74
    0
 49
-0.9525
 74
    0
  0
LTYPE
  5
44
330
5
100
AcDbSymbolTableRecord
100
AcDbLinetypeTableRecord
  2
BORDER2
 70
    0
  3
Border (.5x) __.__.__.__.__.__.__.__.__.__.__.
 72
   65
 73
    6
 40
22.225
 49
6.35
 74
    0
 49
-3.175
 74
    0
 49
6.35
 74
    0
 49
-3.175
 74
    0
 49
0
 74
    0
 49
-3.175
 74
    0
  0
LTYPE
  5
45
330
5
100
AcDbSymbolTableRecord
100
AcDbLinetypeTableRecord
  2
BORDERX2
 70
    0
  3
Border (2x) ____  ____  .  ____  ____  .  ___
 72
   65
 73
    6
 40
88.89999999999999
 49
25.4
 74
    0
 49
-12.7
 74
    0
 49
25.4
 74
    0
 49
-12.7
 74
    0
 49
0
 74
    0
 49
-12.7
 74
    0
  0
LTYPE
  5
46
330
5
100
AcDbSymbolTableRecord
100
AcDbLinetypeTableRecord
  2
CENTER
 70
    0
  3
Center ____ _ ____ _ ____ _ ____ _ ____ _ ____
 72
   65
 73
    4
 40
50.8
 49
31.75
 74
    0
 49
-6.35
 74
    0
 49
6.35
 74
    0
 49
-6.35
 74
    0
  0
LTYPE
  5
47
330
5
100
AcDbSymbolTableRecord
100
AcDbLinetypeTableRecord
  2
CENTERTINY
 70
    0
  3
Center (.15x) ___ _ ___ _ ___ _ ___ _ ___ _ ___
 72
   65
 73
    4
 40
7.619999999999999
 49
4.7625
 74
    0
 49
-0.9525
 74
    0
 49
0.9525
 74
    0
 49
-0.9525
 74
    0
  0
LTYPE
  5
48
330
5
100
AcDbSymbolTableRecord
100
AcDbLinetypeTableRecord
  2
CENTER2
 70
    0
  3
Center (.5x) ___ _ ___ _ ___ _ ___ _ ___ _ ___
 72
   65
 73
    4
 40
28.575
 49
19.05
 74
    0
 49
-3.175
 74
    0
 49
3.175
 74
    0
 49
-3.175
 74
    0
  0
LTYPE
  5
49
330
5
100
AcDbSymbolTableRecord
100
AcDbLinetypeTableRecord
  2
CENTERX2
 70
    0
  3
Center (2x) ________  __  ________  __  _____
 72
   65
 73
    4
 40
101.6
 49
63.5
 74
    0
 49
-12.7
 74
    0
 49
12.7
 74
    0
 49
-12.7
 74
    0
  0
ENDTAB
  0
TABLE
  2
LAYER
  5
2
330
0
100
AcDbSymbolTable
 70
    1
  0
LAYER
  5
10
330
2
100
AcDbSymbolTableRecord
100
AcDbLayerTableRecord
  2
0
 70
    0
 62
    7
  6
CONTINUOUS
370
    0
390
F
  0
ENDTAB
  0
TABLE
  2
STYLE
  5
3
330
0
100
AcDbSymbolTable
 70
    3
  0
STYLE
  5
4A
330
2
100
AcDbSymbolTableRecord
100
AcDbTextStyleTableRecord
  2
Standard
 70
    0
 40
0
 41
1
 50
0
 71
    0
 42
1
  3
txt
  4

  0
ENDTAB
  0
TABLE
  2
VIEW
  5
6
330
0
100
AcDbSymbolTable
 70
    0
  0
ENDTAB
  0
TABLE
  2
UCS
  5
7
330
0
100
AcDbSymbolTable
 70
    0
  0
ENDTAB
  0
TABLE
  2
APPID
  5
9
330
0
100
AcDbSymbolTable
 70
    1
  0
APPID
  5
12
330
9
100
AcDbSymbolTableRecord
100
AcDbRegAppTableRecord
  2
ACAD
 70
    0
  0
APPID
  5
4B
330
9
100
AcDbSymbolTableRecord
100
AcDbRegAppTableRecord
  2
LibreCad
 70
    0
  0
ENDTAB
  0
TABLE
  2
DIMSTYLE
  5
A
330
0
100
AcDbSymbolTable
 70
    1
100
AcDbDimStyleTable
 71
    1
  0
DIMSTYLE
105
4C
330
A
100
AcDbSymbolTableRecord
100
AcDbDimStyleTableRecord
  2
Standard
 70
    0
 40
1
 41
2.5
 42
0.625
 43
0.38
 44
1.25
 45
0
 46
0
 47
0
 48
0
140
2.5
141
0.09
142
0
143
25.4
144
1
145
0
146
1
147
0.625
148
0
 71
    0
 72
    0
 73
    0
 74
    1
 75
    0
 76
    0
 77
    0
 78
    0
 79
    0
170
    0
171
    2
172
    0
173
    0
174
    0
175
    0
176
    0
177
    0
178
    0
179
    0
271
    4
272
    4
273
    2
274
    2
275
    0
276
    0
277
    2
278
   46
279
    0
280
    0
281
    0
282
    0
283
    1
284
    0
285
    0
286
    0
288
    0
289
    3
340
Standard
341

371
   -2
372
   -2
  0
ENDTAB
  0
TABLE
  2
BLOCK_RECORD
  5
1
330
0
100
AcDbSymbolTable
 70
    2
  0
BLOCK_RECORD
  5
1F
330
1
100
AcDbSymbolTableRecord
100
AcDbBlockTableRecord
  2
*Model_Space
 70
    0
280
    1
281
    0
  0
BLOCK_RECORD
  5
1E
330
1
100
AcDbSymbolTableRecord
100
AcDbBlockTableRecord
  2
*Paper_Space
 70
    0
280
    1
281
    0
  0
ENDTAB
  0
ENDSEC
  0
SECTION
  2
BLOCKS
  0
BLOCK
  5
20
330
1F
100
AcDbEntity
  8
0
100
AcDbBlockBegin
  2
*Model_Space
 70
    0
 10
0
 20
0
 30
0
  3
*Model_Space
  1

  0
ENDBLK
  5
21
330
1F
100
AcDbEntity
  8
0
100
AcDbBlockEnd
  0
BLOCK
  5
1C
330
1B
100
AcDbEntity
  8
0
100
AcDbBlockBegin
  2
*Paper_Space
 70
    0
 10
0
 20
0
 30
0
  3
*Paper_Space
  1

  0
ENDBLK
  5
1D
330
1F
100
AcDbEntity
  8
0
100
AcDbBlockEnd
  0
ENDSEC
  0
SECTION
  2
ENTITIES
  0
LINE
  5
4D
100
AcDbEntity
  8
0
  6
ByLayer
 62
  256
370
   -1
100
AcDbLine
 10
221.5999301686135
 20
187.1999431358605
 11
221.5999301686131
 21
182.7999384641628
  0
LINE
  5
4E
100
AcDbEntity
  8
0
  6
ByLayer
 62
  256
370
   -1
100
AcDbLine
 10
10.6499965863004
 20
25.24999007225216
 11
5.549998821799988
 21
25.24999007225216
  0
LINE
  5
4F
100
AcDbEntity
  8
0
  6
ByLayer
 62
  256
370
   -1
100
AcDbLine
 10
207.2499337600131
 20
332.0672558477583
 11
212.5499325818129
 21
332.0672558477583
  0
LINE
  5
50
100
AcDbEntity
  8
0
  6
ByLayer
 62
  256
370
   -1
100
AcDbLine
 10
217.6499303463133
 20
180.9999402322621
 11
212.5499325818129
 21
180.9999402322621
  0
LINE
  5
51
100
AcDbEntity
  8
0
  6
ByLayer
 62
  256
370
   -1
100
AcDbLine
 10
217.849927328165
 20
349.5498871434226
 11
222.2499319998626
 21
349.5498871434227
  0
LINE
  5
52
100
AcDbEntity
  8
0
  6
ByLayer
 62
  256
370
   -1
100
AcDbLine
 10
217.849927328165
 20
363.899883552023
 11
217.849927328165
 21
358.599884730223
  0
LINE
  5
53
100
AcDbEntity
  8
0
  6
ByLayer
 62
  256
370
   -1
100
AcDbLine
 10
319.7498978457203
 20
33.24999120775146
 11
324.8498956102209
 21
33.24999120775146
  0
LINE
  5
54
100
AcDbEntity
  8
0
  6
ByLayer
 62
  256
370
   -1
100
AcDbLine
 10
324.8498956102209
 20
33.24999120775146
 11
324.8498956102209
 21
31.44999297585116
  0
LINE
  5
55
100
AcDbEntity
  8
0
  6
ByLayer
 62
  256
370
   -1
100
AcDbLine
 10
5.549998821799988
 20
27.04998830415235
 11
0.2500000000001137
 21
27.04998830415275
  0
LINE
  5
56
100
AcDbEntity
  8
0
  6
ByLayer
 62
  256
370
   -1
100
AcDbLine
 10
0.2500000000001137
 20
21.74999104925206
 11
0.2500000000001137
 21
27.04998830415275
  0
LINE
  5
57
100
AcDbEntity
  8
0
  6
ByLayer
 62
  256
370
   -1
100
AcDbLine
 10
14.59999640860019
 20
27.04998830415298
 11
10.64999658630063
 21
27.04998830415298
  0
LINE
  5
58
100
AcDbEntity
  8
0
  6
ByLayer
 62
  256
370
   -1
100
AcDbLine
 10
10.64999658630063
 20
27.04998830415298
 11
10.6499965863004
 21
25.24999007225216
  0
LINE
  5
59
100
AcDbEntity
  8
0
  6
ByLayer
 62
  256
370
   -1
100
AcDbLine
 10
221.5999301686135
 20
332.0672558477583
 11
221.5999301686131
 21
327.6672511760603
  0
LINE
  5
5A
100
AcDbEntity
  8
0
  6
ByLayer
 62
  256
370
   -1
100
AcDbLine
 10
212.5499325818129
 20
182.7999384641624
 11
207.2499337600132
 21
182.7999384641627
  0
LINE
  5
5B
100
AcDbEntity
  8
0
  6
ByLayer
 62
  256
370
   -1
100
AcDbLine
 10
207.2499337600132
 20
177.4999412092621
 11
202.9499342640125
 21
177.4999412092621
  0
LINE
  5
5C
100
AcDbEntity
  8
0
  6
ByLayer
 62
  256
370
   -1
100
AcDbLine
 10
319.7498978457207
 20
25.24999007225199
 11
319.7498978457207
 21
27.04998830415275
  0
LINE
  5
5D
100
AcDbEntity
  8
0
  6
ByLayer
 62
  256
370
   -1
100
AcDbLine
 10
319.7498978457207
 20
27.04998830415275
 11
315.7998980234206
 21
27.04998830415309
  0
LINE
  5
5E
100
AcDbEntity
  8
0
  6
ByLayer
 62
  256
370
   -1
100
AcDbLine
 10
224.0499302317634
 20
353.4998869657226
 11
224.0499302317634
 21
358.599884730223
  0
LINE
  5
5F
100
AcDbEntity
  8
0
  6
ByLayer
 62
  256
370
   -1
100
AcDbLine
 10
216.0499290962643
 20
358.599884730223
 11
216.049929096264
 21
353.4998869657226
  0
LINE
  5
60
100
AcDbEntity
  8
0
  6
ByLayer
 62
  256
370
   -1
100
AcDbLine
 10
222.2499319998626
 20
353.4998869657226
 11
224.0499302317634
 21
353.4998869657226
  0
LINE
  5
61
100
AcDbEntity
  8
0
  6
ByLayer
 62
  256
370
   -1
100
AcDbLine
 10
5.549998821800216
 20
33.24999120775107
 11
10.6499965863004
 21
33.24999120775146
  0
LINE
  5
62
100
AcDbEntity
  8
0
  6
ByLayer
 62
  256
370
   -1
100
AcDbLine
 10
10.6499965863004
 20
33.24999120775146
 11
10.6499965863004
 21
31.44999297585099
  0
LINE
  5
63
100
AcDbEntity
  8
0
  6
ByLayer
 62
  256
370
   -1
100
AcDbLine
 10
222.2499319998626
 20
363.899883552023
 11
232.7582247453546
 21
363.899883552023
  0
LINE
  5
64
100
AcDbEntity
  8
0
  6
ByLayer
 62
  256
370
   -1
100
AcDbLine
 10
330.149894432021
 20
12.95000033224926
 11
334.4998923232213
 21
12.95000033224926
  0
LINE
  5
65
100
AcDbEntity
  8
0
  6
ByLayer
 62
  256
370
   -1
100
AcDbLine
 10
217.6499303463133
 20
332.0672558477583
 11
221.5999301686135
 21
332.0672558477583
  0
LINE
  5
66
100
AcDbEntity
  8
0
  6
ByLayer
 62
  256
370
   -1
100
AcDbLine
 10
217.6499303463138
 20
182.7999384641628
 11
217.6499303463133
 21
180.9999402322621
  0
LINE
  5
67
100
AcDbEntity
  8
0
  6
ByLayer
 62
  256
370
   -1
100
AcDbLine
 10
0.25
 20
0
 11
0.25
 21
12.94999660705037
  0
LINE
  5
68
100
AcDbEntity
  8
0
  6
ByLayer
 62
  256
370
   -1
100
AcDbLine
 10
217.6499303463133
 20
333.8672540796592
 11
217.6499303463133
 21
332.0672558477583
  0
LINE
  5
69
100
AcDbEntity
  8
0
  6
ByLayer
 62
  256
370
   -1
100
AcDbLine
 10
207.2499337600132
 20
327.6672511760603
 11
207.2499337600132
 21
322.3672539211596
  0
LINE
  5
6A
100
AcDbEntity
  8
0
  6
ByLayer
 62
  256
370
   -1
100
AcDbLine
 10
212.5499325818132
 20
333.8672540796587
 11
217.6499303463133
 21
333.8672540796592
  0
LINE
  5
6B
100
AcDbEntity
  8
0
  6
ByLayer
 62
  256
370
   -1
100
AcDbLine
 10
222.2499319998626
 20
349.5498871434227
 11
222.2499319998626
 21
353.4998869657226
  0
LINE
  5
6C
100
AcDbEntity
  8
0
  6
ByLayer
 62
  256
370
   -1
100
AcDbLine
 10
315.7998980234206
 20
31.44999297585059
 11
319.7498978457203
 21
31.44999297585099
  0
LINE
  5
6D
100
AcDbEntity
  8
0
  6
ByLayer
 62
  256
370
   -1
100
AcDbLine
 10
319.7498978457203
 20
31.44999297585099
 11
319.7498978457203
 21
33.24999120775146
  0
LINE
  5
6E
100
AcDbEntity
  8
0
  6
ByLayer
 62
  256
370
   -1
100
AcDbLine
 10
207.2499337600131
 20
346.167243819662
 11
202.949934264013
 21
346.167243819662
  0
LINE
  5
6F
100
AcDbEntity
  8
0
  6
ByLayer
 62
  256
370
   -1
100
AcDbLine
 10
212.5499325818132
 20
188.9999413677611
 11
217.6499303463133
 21
188.9999413677614
  0
LINE
  5
70
100
AcDbEntity
  8
0
  6
ByLayer
 62
  256
370
   -1
100
AcDbLine
 10
330.149894432021
 20
27.04998830415298
 11
324.8498956102209
 21
27.04998830415298
  0
LINE
  5
71
100
AcDbEntity
  8
0
  6
ByLayer
 62
  256
370
   -1
100
AcDbLine
 10
221.5999301686131
 20
182.7999384641628
 11
217.6499303463138
 21
182.7999384641628
  0
LINE
  5
72
100
AcDbEntity
  8
0
  6
ByLayer
 62
  256
370
   -1
100
AcDbLine
 10
212.5499325818129
 20
332.0672558477583
 11
212.5499325818132
 21
333.8672540796587
  0
LINE
  5
73
100
AcDbEntity
  8
0
  6
ByLayer
 62
  256
370
   -1
100
AcDbLine
 10
0.25
 20
45.54998094775436
 11
0.25
 21
58.49998128000368
  0
LINE
  5
74
100
AcDbEntity
  8
0
  6
ByLayer
 62
  256
370
   -1
100
AcDbLine
 10
5.549998821799988
 20
25.24999007225216
 11
5.549998821799988
 21
27.04998830415235
  0
LINE
  5
75
100
AcDbEntity
  8
0
  6
ByLayer
 62
  256
370
   -1
100
AcDbLine
 10
212.5499325818129
 20
327.6672511760599
 11
207.2499337600132
 21
327.6672511760603
  0
LINE
  5
76
100
AcDbEntity
  8
0
  6
ByLayer
 62
  256
370
   -1
100
AcDbLine
 10
207.2499337600132
 20
322.3672539211596
 11
202.9499342640125
 21
322.3672539211596
  0
LINE
  5
77
100
AcDbEntity
  8
0
  6
ByLayer
 62
  256
370
   -1
100
AcDbLine
 10
330.149894432021
 20
21.74999629735026
 11
330.149894432021
 21
27.04998830415298
  0
LINE
  5
78
100
AcDbEntity
  8
0
  6
ByLayer
 62
  256
370
   -1
100
AcDbLine
 10
315.7998980234206
 20
27.04998830415309
 11
315.7998980234206
 21
31.44999297585059
  0
LINE
  5
79
100
AcDbEntity
  8
0
  6
ByLayer
 62
  256
370
   -1
100
AcDbLine
 10
207.2499337600131
 20
187.1999431358608
 11
212.5499325818129
 21
187.1999431358605
  0
LINE
  5
7A
100
AcDbEntity
  8
0
  6
ByLayer
 62
  256
370
   -1
100
AcDbLine
 10
207.2499337600131
 20
201.2999311077642
 11
202.949934264013
 21
201.2999311077642
  0
LINE
  5
7B
100
AcDbEntity
  8
0
  6
ByLayer
 62
  256
370
   -1
100
AcDbLine
 10
207.2499337600131
 20
363.899883552023
 11
217.849927328165
 21
363.899883552023
  0
LINE
  5
7C
100
AcDbEntity
  8
0
  6
ByLayer
 62
  256
370
   -1
100
AcDbLine
 10
224.0499302317634
 20
358.599884730223
 11
222.2499319998627
 21
358.5998847302233
  0
LINE
  5
7D
100
AcDbEntity
  8
0
  6
ByLayer
 62
  256
370
   -1
100
AcDbLine
 10
222.2499319998627
 20
358.5998847302233
 11
222.2499319998626
 21
363.899883552023
  0
LINE
  5
7E
100
AcDbEntity
  8
0
  6
ByLayer
 62
  256
370
   -1
100
AcDbLine
 10
212.5499325818129
 20
180.9999402322621
 11
212.5499325818129
 21
182.7999384641624
  0
LINE
  5
7F
100
AcDbEntity
  8
0
  6
ByLayer
 62
  256
370
   -1
100
AcDbLine
 10
217.6499303463133
 20
188.9999413677614
 11
217.6499303463133
 21
187.1999431358608
  0
LINE
  5
80
100
AcDbEntity
  8
0
  6
ByLayer
 62
  256
370
   -1
100
AcDbLine
 10
0.2500000000001137
 20
21.74999104925206
 11
-4.099997891200871
 21
21.74999104925206
  0
LINE
  5
81
100
AcDbEntity
  8
0
  6
ByLayer
 62
  256
370
   -1
100
AcDbLine
 10
14.5999964086003
 20
31.44999297585076
 11
14.59999640860019
 21
27.04998830415298
  0
LINE
  5
82
100
AcDbEntity
  8
0
  6
ByLayer
 62
  256
370
   -1
100
AcDbLine
 10
207.2499337600132
 20
182.7999384641627
 11
207.2499337600132
 21
177.4999412092621
  0
LINE
  5
83
100
AcDbEntity
  8
0
  6
ByLayer
 62
  256
370
   -1
100
AcDbLine
 10
221.5999301686131
 20
327.6672511760603
 11
217.6499303463138
 21
327.6672511760603
  0
LINE
  5
84
100
AcDbEntity
  8
0
  6
ByLayer
 62
  256
370
   -1
100
AcDbLine
 10
212.5499325818129
 20
325.8672529441595
 11
212.5499325818129
 21
327.6672511760599
  0
LINE
  5
85
100
AcDbEntity
  8
0
  6
ByLayer
 62
  256
370
   -1
100
AcDbLine
 10
0.25
 20
31.44999297585099
 11
0.25
 21
36.74998498265347
  0
LINE
  5
86
100
AcDbEntity
  8
0
  6
ByLayer
 62
  256
370
   -1
100
AcDbLine
 10
330.1498944320206
 20
31.44999297585099
 11
330.149894432021
 21
36.74999023075156
  0
LINE
  5
87
100
AcDbEntity
  8
0
  6
ByLayer
 62
  256
370
   -1
100
AcDbLine
 10
330.149894432021
 20
36.74999023075156
 11
334.4998923232214
 21
36.74999023075156
  0
LINE
  5
88
100
AcDbEntity
  8
0
  6
ByLayer
 62
  256
370
   -1
100
AcDbLine
 10
330.149894432021
 20
12.95000033224926
 11
330.149894432021
 21
0
  0
LINE
  5
89
100
AcDbEntity
  8
0
  6
ByLayer
 62
  256
370
   -1
100
AcDbLine
 10
324.8498956102209
 20
27.04998830415298
 11
324.8498956102209
 21
25.2499900722525
  0
LINE
  5
8A
100
AcDbEntity
  8
0
  6
ByLayer
 62
  256
370
   -1
100
AcDbLine
 10
324.8498956102209
 20
25.2499900722525
 11
319.7498978457207
 21
25.24999007225199
  0
LINE
  5
8B
100
AcDbEntity
  8
0
  6
ByLayer
 62
  256
370
   -1
100
AcDbLine
 10
330.149894432021
 20
45.54998467295326
 11
330.149894432021
 21
58.49998128000368
  0
LINE
  5
8C
100
AcDbEntity
  8
0
  6
ByLayer
 62
  256
370
   -1
100
AcDbLine
 10
207.2499337600131
 20
337.367247854561
 11
207.2499337600131
 21
332.0672558477583
  0
LINE
  5
8D
100
AcDbEntity
  8
0
  6
ByLayer
 62
  256
370
   -1
100
AcDbLine
 10
232.7582247453546
 20
363.899883552023
 11
330.149894432021
 21
58.49998128000368
  0
LINE
  5
8E
100
AcDbEntity
  8
0
  6
ByLayer
 62
  256
370
   -1
100
AcDbLine
 10
217.6499303463133
 20
187.1999431358608
 11
221.5999301686135
 21
187.1999431358605
  0
LINE
  5
8F
100
AcDbEntity
  8
0
  6
ByLayer
 62
  256
370
   -1
100
AcDbLine
 10
0.25
 20
31.44999297585099
 11
5.549998821799988
 21
31.44999297585059
  0
LINE
  5
90
100
AcDbEntity
  8
0
  6
ByLayer
 62
  256
370
   -1
100
AcDbLine
 10
217.8499273281645
 20
353.4998869657226
 11
217.849927328165
 21
349.5498871434226
  0
LINE
  5
91
100
AcDbEntity
  8
0
  6
ByLayer
 62
  256
370
   -1
100
AcDbLine
 10
207.2499337600131
 20
192.4999351426634
 11
207.2499337600131
 21
187.1999431358608
  0
LINE
  5
92
100
AcDbEntity
  8
0
  6
ByLayer
 62
  256
370
   -1
100
AcDbLine
 10
286.2408566488256
 20
72.81710850242479
 11
285.7749737433652
 21
72.87837531835459
  0
LINE
  5
93
100
AcDbEntity
  8
0
  6
ByLayer
 62
  256
370
   -1
100
AcDbLine
 10
213.9098396265252
 20
160.4512767952721
 11
213.6238395547909
 21
160.0784437719194
  0
LINE
  5
94
100
AcDbEntity
  8
0
  6
ByLayer
 62
  256
370
   -1
100
AcDbLine
 10
10.6499965863004
 20
31.44999297585099
 11
14.5999964086003
 21
31.44999297585076
  0
LINE
  5
95
100
AcDbEntity
  8
0
  6
ByLayer
 62
  256
370
   -1
100
AcDbLine
 10
284.0522267274416
 20
62.25069672609925
 11
284.4863265667241
 21
62.43057955982545
  0
LINE
  5
96
100
AcDbEntity
  8
0
  6
ByLayer
 62
  256
370
   -1
100
AcDbLine
 10
215.1590788668465
 20
61.4222037458851
 11
215.624944216053
 21
61.4836039148052
  0
LINE
  5
97
100
AcDbEntity
  8
0
  6
ByLayer
 62
  256
370
   -1
100
AcDbLine
 10
150.9596182984204
 20
5.833677184170995
 11
150.8982260004459
 21
6.299997984000356
  0
LINE
  5
98
100
AcDbEntity
  8
0
  6
ByLayer
 62
  256
370
   -1
100
AcDbLine
 10
154.2602910233272
 20
7.200860591782259
 11
154.4402841335991
 21
6.766318783829774
  0
LINE
  5
99
100
AcDbEntity
  8
0
  6
ByLayer
 62
  256
370
   -1
100
AcDbLine
 10
216.049929096264
 20
353.4998869657226
 11
217.8499273281645
 21
353.4998869657226
  0
LINE
  5
9A
100
AcDbEntity
  8
0
  6
ByLayer
 62
  256
370
   -1
100
AcDbLine
 10
217.849927328165
 20
358.599884730223
 11
216.0499290962643
 21
358.599884730223
  0
LINE
  5
9B
100
AcDbEntity
  8
0
  6
ByLayer
 62
  256
370
   -1
100
AcDbLine
 10
5.549998821799988
 20
31.44999297585059
 11
5.549998821800216
 21
33.24999120775107
  0
LINE
  5
9C
100
AcDbEntity
  8
0
  6
ByLayer
 62
  256
370
   -1
100
AcDbLine
 10
238.4447852470901
 20
153.8825405784916
 11
238.0106339354749
 21
154.0622991470133
  0
LINE
  5
9D
100
AcDbEntity
  8
0
  6
ByLayer
 62
  256
370
   -1
100
AcDbLine
 10
0.25
 20
45.54998094775436
 11
-4.099997891200587
 21
45.54998094775436
  0
LINE
  5
9E
100
AcDbEntity
  8
0
  6
ByLayer
 62
  256
370
   -1
100
AcDbLine
 10
212.5499325818129
 20
187.1999431358605
 11
212.5499325818132
 21
188.9999413677611
  0
LINE
  5
9F
100
AcDbEntity
  8
0
  6
ByLayer
 62
  256
370
   -1
100
AcDbLine
 10
324.8498956102209
 20
31.44999297585116
 11
330.1498944320206
 21
31.44999297585099
  0
LINE
  5
A0
100
AcDbEntity
  8
0
  6
ByLayer
 62
  256
370
   -1
100
AcDbLine
 10
152.2336304161802
 20
8.040330901589698
 11
152.6999512160099
 21
8.101723199564162
  0
LINE
  5
A1
100
AcDbEntity
  8
0
  6
ByLayer
 62
  256
370
   -1
100
AcDbLine
 10
217.6499303463138
 20
327.6672511760603
 11
217.6499303463133
 21
325.8672529441599
  0
LINE
  5
A2
100
AcDbEntity
  8
0
  6
ByLayer
 62
  256
370
   -1
100
AcDbLine
 10
217.6499303463133
 20
325.8672529441599
 11
212.5499325818129
 21
325.8672529441595
  0
LINE
  5
A3
100
AcDbEntity
  8
0
  6
ByLayer
 62
  256
370
   -1
100
AcDbLine
 10
284.4202172854862
 20
159.4726987599942
 11
283.9860659738707
 21
159.6524573285158
  0
LINE
  5
A4
100
AcDbEntity
  8
0
  6
ByLayer
 62
  256
370
   -1
100
AcDbLine
 10
281.7818414499601
 20
157.4476017714797
 11
281.9617242836863
 21
157.0135019321974
  0
LINE
  5
A5
100
AcDbEntity
  8
0
  6
ByLayer
 62
  256
370
   -1
100
AcDbLine
 10
173.3499402312127
 20
52.19998178400328
 11
173.3499402312127
 21
46.8999829622033
  0
LINE
  5
A6
100
AcDbEntity
  8
0
  6
ByLayer
 62
  256
370
   -1
100
AcDbLine
 10
177.7499449029106
 20
37.84998537540298
 11
177.7499449029109
 21
41.79998519770265
  0
LINE
  5
A7
100
AcDbEntity
  8
0
  6
ByLayer
 62
  256
370
   -1
100
AcDbLine
 10
177.749944902911
 20
46.89998296220296
 11
177.7499449029109
 21
52.19998178400306
  0
LINE
  5
A8
100
AcDbEntity
  8
0
  6
ByLayer
 62
  256
370
   -1
100
AcDbLine
 10
183.0499421578114
 20
52.1999817840038
 11
183.0499421578114
 21
56.5499796752041
  0
LINE
  5
A9
100
AcDbEntity
  8
0
  6
ByLayer
 62
  256
370
   -1
100
AcDbLine
 10
150.3066803990963
 20
58.49998128000379
 11
150.3066803990963
 21
52.1999817840038
  0
LINE
  5
AA
100
AcDbEntity
  8
0
  6
ByLayer
 62
  256
370
   -1
100
AcDbLine
 10
173.3499402312127
 20
37.84998537540298
 11
177.7499449029106
 21
37.84998537540298
  0
LINE
  5
AB
100
AcDbEntity
  8
0
  6
ByLayer
 62
  256
370
   -1
100
AcDbLine
 10
177.7499449029109
 20
41.79998519770265
 11
179.5499431348115
 21
41.79998519770277
  0
LINE
  5
AC
100
AcDbEntity
  8
0
  6
ByLayer
 62
  256
370
   -1
100
AcDbLine
 10
171.5499419993118
 20
41.79998519770299
 11
173.3499402312126
 21
41.79998519770288
  0
LINE
  5
AD
100
AcDbEntity
  8
0
  6
ByLayer
 62
  256
370
   -1
100
AcDbLine
 10
173.3499402312127
 20
46.8999829622033
 11
171.5499419993123
 21
46.89998296220335
  0
LINE
  5
AE
100
AcDbEntity
  8
0
  6
ByLayer
 62
  256
370
   -1
100
AcDbLine
 10
173.3499402312127
 20
52.19998178400328
 11
168.0499482244101
 21
52.19998178400328
  0
LINE
  5
AF
100
AcDbEntity
  8
0
  6
ByLayer
 62
  256
370
   -1
100
AcDbLine
 10
159.2499522593095
 20
52.1999817840038
 11
159.2499522593093
 21
56.54997967520359
  0
LINE
  5
B0
100
AcDbEntity
  8
0
  6
ByLayer
 62
  256
370
   -1
100
AcDbLine
 10
173.3499402312126
 20
41.79998519770288
 11
173.3499402312127
 21
37.84998537540298
  0
LINE
  5
B1
100
AcDbEntity
  8
0
  6
ByLayer
 62
  256
370
   -1
100
AcDbLine
 10
159.2499522593095
 20
52.1999817840038
 11
150.3066803990963
 21
52.1999817840038
  0
LINE
  5
B2
100
AcDbEntity
  8
0
  6
ByLayer
 62
  256
370
   -1
100
AcDbLine
 10
179.5499431348114
 20
46.89998296220296
 11
177.749944902911
 21
46.89998296220296
  0
LINE
  5
B3
100
AcDbEntity
  8
0
  6
ByLayer
 62
  256
370
   -1
100
AcDbLine
 10
183.0499421578114
 20
52.1999817840038
 11
177.7499449029109
 21
52.19998178400306
  0
LINE
  5
B4
100
AcDbEntity
  8
0
  6
ByLayer
 62
  256
370
   -1
100
AcDbLine
 10
171.5499419993123
 20
46.89998296220335
 11
171.5499419993118
 21
41.79998519770299
  0
LINE
  5
B5
100
AcDbEntity
  8
0
  6
ByLayer
 62
  256
370
   -1
100
AcDbLine
 10
179.5499431348115
 20
41.79998519770277
 11
179.5499431348114
 21
46.89998296220296
  0
LINE
  5
B6
100
AcDbEntity
  8
0
  6
ByLayer
 62
  256
370
   -1
100
AcDbLine
 10
150.3066803990963
 20
58.49998128000379
 11
140.3066811990964
 21
58.49998128000379
  0
LINE
  5
B7
100
AcDbEntity
  8
0
  6
ByLayer
 62
  256
370
   -1
100
AcDbLine
 10
202.9499342640125
 20
177.4999412092621
 11
202.4322961738077
 21
177.4317928618401
  0
LINE
  5
B8
100
AcDbEntity
  8
0
  6
ByLayer
 62
  256
370
   -1
100
AcDbLine
 10
202.4322961738077
 20
177.4317928618401
 11
201.9499342640128
 21
177.2319920168309
  0
LINE
  5
B9
100
AcDbEntity
  8
0
  6
ByLayer
 62
  256
370
   -1
100
AcDbLine
 10
201.9499342640128
 20
177.2319920168309
 11
201.5357207016397
 21
176.9141547716351
  0
LINE
  5
BA
100
AcDbEntity
  8
0
  6
ByLayer
 62
  256
370
   -1
100
AcDbLine
 10
201.5357207016397
 20
176.9141547716351
 11
201.2178834564438
 21
176.499941209262
  0
LINE
  5
BB
100
AcDbEntity
  8
0
  6
ByLayer
 62
  256
370
   -1
100
AcDbLine
 10
201.2178834564438
 20
176.499941209262
 11
201.0180826114346
 21
176.0175792994671
  0
LINE
  5
BC
100
AcDbEntity
  8
0
  6
ByLayer
 62
  256
370
   -1
100
AcDbLine
 10
200.9499342640127
 20
175.4999412092622
 11
200.9499342640123
 21
170.6999467670605
  0
LINE
  5
BD
100
AcDbEntity
  8
0
  6
ByLayer
 62
  256
370
   -1
100
AcDbLine
 10
201.0180826114346
 20
176.0175792994671
 11
200.9499342640127
 21
175.4999412092622
  0
LINE
  5
BE
100
AcDbEntity
  8
0
  6
ByLayer
 62
  256
370
   -1
100
AcDbLine
 10
202.9499342640124
 20
168.6999467670603
 11
207.2499337600131
 21
168.6999467670603
  0
LINE
  5
BF
100
AcDbEntity
  8
0
  6
ByLayer
 62
  256
370
   -1
100
AcDbLine
 10
202.9499342640124
 20
168.6999467670603
 11
202.4322961738075
 21
168.7680951144823
  0
LINE
  5
C0
100
AcDbEntity
  8
0
  6
ByLayer
 62
  256
370
   -1
100
AcDbLine
 10
202.4322961738075
 20
168.7680951144823
 11
201.9499342640124
 21
168.9678959594915
  0
LINE
  5
C1
100
AcDbEntity
  8
0
  6
ByLayer
 62
  256
370
   -1
100
AcDbLine
 10
10.24999919999999
 20
58.49998128000379
 11
0.25
 21
58.49998128000368
  0
LINE
  5
C2
100
AcDbEntity
  8
0
  6
ByLayer
 62
  256
370
   -1
100
AcDbLine
 10
10.24999919999999
 20
58.49998128000379
 11
20.24999840000009
 21
48.49998208000375
  0
LINE
  5
C3
100
AcDbEntity
  8
0
  6
ByLayer
 62
  256
370
   -1
100
AcDbLine
 10
20.24999840000009
 20
48.49998208000375
 11
130.3066819990962
 21
48.49998208000375
  0
LINE
  5
C4
100
AcDbEntity
  8
0
  6
ByLayer
 62
  256
370
   -1
100
AcDbLine
 10
130.3066819990962
 20
48.49998208000375
 11
140.3066811990964
 21
58.49998128000379
  0
LINE
  5
C5
100
AcDbEntity
  8
0
  6
ByLayer
 62
  256
370
   -1
100
AcDbLine
 10
239.6859895605771
 20
159.805942631097
 11
239.2201242113711
 21
159.744542462177
  0
LINE
  5
C6
100
AcDbEntity
  8
0
  6
ByLayer
 62
  256
370
   -1
100
AcDbLine
 10
240.9268229370783
 20
65.26226991212349
 11
240.5539899137253
 21
65.54826998385767
  0
LINE
  5
C7
100
AcDbEntity
  8
0
  6
ByLayer
 62
  256
370
   -1
100
AcDbLine
 10
237.8542139092791
 20
63.9890383445495
 11
237.9156140781994
 21
63.52317299534326
  0
LINE
  5
C8
100
AcDbEntity
  8
0
  6
ByLayer
 62
  256
370
   -1
100
AcDbLine
 10
236.6152551298393
 20
69.44790529962768
 11
237.0494064414552
 21
69.2681467311059
  0
LINE
  5
C9
100
AcDbEntity
  8
0
  6
ByLayer
 62
  256
370
   -1
100
AcDbLine
 10
237.0494064414552
 20
69.2681467311059
 11
237.5152893469152
 21
69.20687991517616
  0
LINE
  5
CA
100
AcDbEntity
  8
0
  6
ByLayer
 62
  256
370
   -1
100
AcDbLine
 10
216.4314308708858
 20
64.4951771008291
 11
216.058597847533
 21
64.78117717256339
  0
LINE
  5
CB
100
AcDbEntity
  8
0
  6
ByLayer
 62
  256
370
   -1
100
AcDbLine
 10
213.420222012007
 20
62.75608018404887
 11
213.6001048457332
 21
62.32198034476636
  0
LINE
  5
CC
100
AcDbEntity
  8
0
  6
ByLayer
 62
  256
370
   -1
100
AcDbLine
 10
215.6484388631699
 20
160.9173997626734
 11
215.1825559577097
 21
160.9786665786027
  0
LINE
  5
CD
100
AcDbEntity
  8
0
  6
ByLayer
 62
  256
370
   -1
100
AcDbLine
 10
311.424481046735
 20
64.53875189448746
 11
311.0516480233824
 21
64.82475196622175
  0
LINE
  5
CE
100
AcDbEntity
  8
0
  6
ByLayer
 62
  256
370
   -1
100
AcDbLine
 10
236.2420577793418
 20
72.27948894297515
 11
235.9560577076076
 21
71.90665591962238
  0
LINE
  5
CF
100
AcDbEntity
  8
0
  6
ByLayer
 62
  256
370
   -1
100
AcDbLine
 10
308.5931550215822
 20
62.36555513842495
 11
308.8792618022669
 21
61.99280399572956
  0
LINE
  5
D0
100
AcDbEntity
  8
0
  6
ByLayer
 62
  256
370
   -1
100
AcDbLine
 10
214.2585984419683
 20
64.78091955436867
 11
213.8858472992727
 21
64.49481277368415
  0
LINE
  5
D1
100
AcDbEntity
  8
0
  6
ByLayer
 62
  256
370
   -1
100
AcDbLine
 10
214.7166906085034
 20
160.9172664096828
 11
214.2825907692206
 21
160.7373835759568
  0
LINE
  5
D2
100
AcDbEntity
  8
0
  6
ByLayer
 62
  256
370
   -1
100
AcDbLine
 10
213.6238395547909
 20
160.0784437719194
 11
213.4440809862692
 21
159.6442924603038
  0
LINE
  5
D3
100
AcDbEntity
  8
0
  6
ByLayer
 62
  256
370
   -1
100
AcDbLine
 10
216.7175376515708
 20
64.12242595813325
 11
216.4314308708858
 21
64.4951771008291
  0
LINE
  5
D4
100
AcDbEntity
  8
0
  6
ByLayer
 62
  256
370
   -1
100
AcDbLine
 10
238.4132732293929
 20
159.2785528477665
 11
238.1272731576586
 21
158.9057198244136
  0
LINE
  5
D5
100
AcDbEntity
  8
0
  6
ByLayer
 62
  256
370
   -1
100
AcDbLine
 10
281.7204412810401
 20
157.9134671206861
 11
281.7818414499601
 21
157.4476017714797
  0
LINE
  5
D6
100
AcDbEntity
  8
0
  6
ByLayer
 62
  256
370
   -1
100
AcDbLine
 10
201.9499342640124
 20
168.9678959594915
 11
201.5357207016392
 21
169.2857332046872
  0
LINE
  5
D7
100
AcDbEntity
  8
0
  6
ByLayer
 62
  256
370
   -1
100
AcDbLine
 10
201.5357207016392
 20
169.2857332046872
 11
201.2178834564435
 21
169.6999467670602
  0
LINE
  5
D8
100
AcDbEntity
  8
0
  6
ByLayer
 62
  256
370
   -1
100
AcDbLine
 10
201.2178834564435
 20
169.6999467670602
 11
201.0180826114342
 21
170.1823086768554
  0
LINE
  5
D9
100
AcDbEntity
  8
0
  6
ByLayer
 62
  256
370
   -1
100
AcDbLine
 10
201.0180826114342
 20
170.1823086768554
 11
200.9499342640123
 21
170.6999467670605
  0
LINE
  5
DA
100
AcDbEntity
  8
0
  6
ByLayer
 62
  256
370
   -1
100
AcDbLine
 10
202.949934264013
 20
201.2999311077642
 11
202.4322961738078
 21
201.2317827603424
  0
LINE
  5
DB
100
AcDbEntity
  8
0
  6
ByLayer
 62
  256
370
   -1
100
AcDbLine
 10
202.4322961738078
 20
201.2317827603424
 11
201.9499342640129
 21
201.0319819153331
  0
LINE
  5
DC
100
AcDbEntity
  8
0
  6
ByLayer
 62
  256
370
   -1
100
AcDbLine
 10
201.9499342640129
 20
201.0319819153331
 11
201.5357207016398
 21
200.7141446701373
  0
LINE
  5
DD
100
AcDbEntity
  8
0
  6
ByLayer
 62
  256
370
   -1
100
AcDbLine
 10
201.5357207016398
 20
200.7141446701373
 11
201.2178834564442
 21
200.2999311077642
  0
LINE
  5
DE
100
AcDbEntity
  8
0
  6
ByLayer
 62
  256
370
   -1
100
AcDbLine
 10
201.2178834564442
 20
200.2999311077642
 11
201.0180826114348
 21
199.8175691979692
  0
LINE
  5
DF
100
AcDbEntity
  8
0
  6
ByLayer
 62
  256
370
   -1
100
AcDbLine
 10
200.949934264013
 20
199.2999311077643
 11
200.9499342640131
 21
194.4999351426631
  0
LINE
  5
E0
100
AcDbEntity
  8
0
  6
ByLayer
 62
  256
370
   -1
100
AcDbLine
 10
201.0180826114348
 20
199.8175691979692
 11
200.949934264013
 21
199.2999311077643
  0
LINE
  5
E1
100
AcDbEntity
  8
0
  6
ByLayer
 62
  256
370
   -1
100
AcDbLine
 10
202.9499342640125
 20
322.3672539211596
 11
202.4322961738077
 21
322.2991055737379
  0
LINE
  5
E2
100
AcDbEntity
  8
0
  6
ByLayer
 62
  256
370
   -1
100
AcDbLine
 10
202.4322961738077
 20
322.2991055737379
 11
201.9499342640128
 21
322.0993047287286
  0
LINE
  5
E3
100
AcDbEntity
  8
0
  6
ByLayer
 62
  256
370
   -1
100
AcDbLine
 10
201.9499342640128
 20
322.0993047287286
 11
201.5357207016397
 21
321.7814674835328
  0
LINE
  5
E4
100
AcDbEntity
  8
0
  6
ByLayer
 62
  256
370
   -1
100
AcDbLine
 10
201.5357207016397
 20
321.7814674835328
 11
201.2178834564438
 21
321.3672539211598
  0
LINE
  5
E5
100
AcDbEntity
  8
0
  6
ByLayer
 62
  256
370
   -1
100
AcDbLine
 10
201.2178834564438
 20
321.3672539211598
 11
201.0180826114346
 21
320.884892011365
  0
LINE
  5
E6
100
AcDbEntity
  8
0
  6
ByLayer
 62
  256
370
   -1
100
AcDbLine
 10
200.9499342640127
 20
320.3672539211597
 11
200.9499342640123
 21
315.567259478958
  0
LINE
  5
E7
100
AcDbEntity
  8
0
  6
ByLayer
 62
  256
370
   -1
100
AcDbLine
 10
201.0180826114346
 20
320.884892011365
 11
200.9499342640127
 21
320.3672539211597
  0
LINE
  5
E8
100
AcDbEntity
  8
0
  6
ByLayer
 62
  256
370
   -1
100
AcDbLine
 10
202.9499342640125
 20
313.5672594789576
 11
207.2499337600131
 21
313.567259478958
  0
LINE
  5
E9
100
AcDbEntity
  8
0
  6
ByLayer
 62
  256
370
   -1
100
AcDbLine
 10
202.9499342640125
 20
313.5672594789576
 11
202.4322961738075
 21
313.6354078263795
  0
LINE
  5
EA
100
AcDbEntity
  8
0
  6
ByLayer
 62
  256
370
   -1
100
AcDbLine
 10
202.4322961738075
 20
313.6354078263795
 11
201.9499342640124
 21
313.8352086713888
  0
LINE
  5
EB
100
AcDbEntity
  8
0
  6
ByLayer
 62
  256
370
   -1
100
AcDbLine
 10
201.9499342640124
 20
313.8352086713888
 11
201.5357207016392
 21
314.1530459165846
  0
LINE
  5
EC
100
AcDbEntity
  8
0
  6
ByLayer
 62
  256
370
   -1
100
AcDbLine
 10
201.5357207016392
 20
314.1530459165846
 11
201.2178834564435
 21
314.5672594789577
  0
LINE
  5
ED
100
AcDbEntity
  8
0
  6
ByLayer
 62
  256
370
   -1
100
AcDbLine
 10
201.2178834564435
 20
314.5672594789577
 11
201.0180826114342
 21
315.0496213887528
  0
LINE
  5
EE
100
AcDbEntity
  8
0
  6
ByLayer
 62
  256
370
   -1
100
AcDbLine
 10
201.0180826114342
 20
315.0496213887528
 11
200.9499342640123
 21
315.567259478958
  0
LINE
  5
EF
100
AcDbEntity
  8
0
  6
ByLayer
 62
  256
370
   -1
100
AcDbLine
 10
-6.099997891200587
 20
43.54998094775436
 11
-6.099997891200474
 21
38.74998498265336
  0
LINE
  5
F0
100
AcDbEntity
  8
0
  6
ByLayer
 62
  256
370
   -1
100
AcDbLine
 10
-6.099997891200587
 20
43.54998094775436
 11
-6.031849543778776
 21
44.06761903795939
  0
LINE
  5
F1
100
AcDbEntity
  8
0
  6
ByLayer
 62
  256
370
   -1
100
AcDbLine
 10
-6.031849543778776
 20
44.06761903795939
 11
-5.83204869876937
 21
44.54998094775436
  0
LINE
  5
F2
100
AcDbEntity
  8
0
  6
ByLayer
 62
  256
370
   -1
100
AcDbLine
 10
-5.83204869876937
 20
44.54998094775436
 11
-5.514211453573694
 21
44.96419451012736
  0
LINE
  5
F3
100
AcDbEntity
  8
0
  6
ByLayer
 62
  256
370
   -1
100
AcDbLine
 10
-5.514211453573694
 20
44.96419451012736
 11
-5.099997891200587
 21
45.28203175532326
  0
LINE
  5
F4
100
AcDbEntity
  8
0
  6
ByLayer
 62
  256
370
   -1
100
AcDbLine
 10
-5.099997891200587
 20
45.28203175532326
 11
-4.617635981405613
 21
45.4818326003325
  0
LINE
  5
F5
100
AcDbEntity
  8
0
  6
ByLayer
 62
  256
370
   -1
100
AcDbLine
 10
-4.617635981405613
 20
45.4818326003325
 11
-4.099997891200587
 21
45.54998094775436
  0
LINE
  5
F6
100
AcDbEntity
  8
0
  6
ByLayer
 62
  256
370
   -1
100
AcDbLine
 10
-4.099997891200871
 20
21.74999104925206
 11
-4.617635981406011
 21
21.68184270183025
  0
LINE
  5
F7
100
AcDbEntity
  8
0
  6
ByLayer
 62
  256
370
   -1
100
AcDbLine
 10
-4.617635981406011
 20
21.68184270183025
 11
-5.099997891200871
 21
21.48204185682096
  0
LINE
  5
F8
100
AcDbEntity
  8
0
  6
ByLayer
 62
  256
370
   -1
100
AcDbLine
 10
-5.099997891200871
 20
21.48204185682096
 11
-5.514211453573978
 21
21.16420461162517
  0
LINE
  5
F9
100
AcDbEntity
  8
0
  6
ByLayer
 62
  256
370
   -1
100
AcDbLine
 10
-5.514211453573978
 20
21.16420461162517
 11
-5.832048698769768
 21
20.74999104925217
  0
LINE
  5
FA
100
AcDbEntity
  8
0
  6
ByLayer
 62
  256
370
   -1
100
AcDbLine
 10
-5.832048698769768
 20
20.74999104925217
 11
-6.031849543779003
 21
20.2676291394572
  0
LINE
  5
FB
100
AcDbEntity
  8
0
  6
ByLayer
 62
  256
370
   -1
100
AcDbLine
 10
-6.099997891200871
 20
19.74999104925206
 11
-6.099997891200985
 21
14.94999660705037
  0
LINE
  5
FC
100
AcDbEntity
  8
0
  6
ByLayer
 62
  256
370
   -1
100
AcDbLine
 10
-6.031849543779003
 20
20.2676291394572
 11
-6.099997891200871
 21
19.74999104925206
  0
LINE
  5
FD
100
AcDbEntity
  8
0
  6
ByLayer
 62
  256
370
   -1
100
AcDbLine
 10
-4.099997891200985
 20
12.94999660705025
 11
0.25
 21
12.94999660705037
  0
LINE
  5
FE
100
AcDbEntity
  8
0
  6
ByLayer
 62
  256
370
   -1
100
AcDbLine
 10
-4.099997891200985
 20
12.94999660705025
 11
-4.617635981406011
 21
13.01814495447218
  0
LINE
  5
FF
100
AcDbEntity
  8
0
  6
ByLayer
 62
  256
370
   -1
100
AcDbLine
 10
-4.617635981406011
 20
13.01814495447218
 11
-5.099997891200985
 21
13.21794579948136
  0
LINE
  5
100
100
AcDbEntity
  8
0
  6
ByLayer
 62
  256
370
   -1
100
AcDbLine
 10
-5.099997891200985
 20
13.21794579948136
 11
-5.514211453574205
 21
13.53578304467715
  0
LINE
  5
101
100
AcDbEntity
  8
0
  6
ByLayer
 62
  256
370
   -1
100
AcDbLine
 10
-5.514211453574205
 20
13.53578304467715
 11
-5.832048698769995
 21
13.94999660705025
  0
LINE
  5
102
100
AcDbEntity
  8
0
  6
ByLayer
 62
  256
370
   -1
100
AcDbLine
 10
-5.832048698769995
 20
13.94999660705025
 11
-6.031849543779174
 21
14.43235851684528
  0
LINE
  5
103
100
AcDbEntity
  8
0
  6
ByLayer
 62
  256
370
   -1
100
AcDbLine
 10
-6.031849543779174
 20
14.43235851684528
 11
-6.099997891200985
 21
14.94999660705037
  0
LINE
  5
104
100
AcDbEntity
  8
0
  6
ByLayer
 62
  256
370
   -1
100
AcDbLine
 10
202.949934264013
 20
346.167243819662
 11
202.4322961738078
 21
346.09909547224
  0
LINE
  5
105
100
AcDbEntity
  8
0
  6
ByLayer
 62
  256
370
   -1
100
AcDbLine
 10
202.4322961738078
 20
346.09909547224
 11
201.9499342640129
 21
345.8992946272309
  0
LINE
  5
106
100
AcDbEntity
  8
0
  6
ByLayer
 62
  256
370
   -1
100
AcDbLine
 10
201.9499342640129
 20
345.8992946272309
 11
201.5357207016398
 21
345.5814573820351
  0
LINE
  5
107
100
AcDbEntity
  8
0
  6
ByLayer
 62
  256
370
   -1
100
AcDbLine
 10
201.5357207016398
 20
345.5814573820351
 11
201.2178834564442
 21
345.167243819662
  0
LINE
  5
108
100
AcDbEntity
  8
0
  6
ByLayer
 62
  256
370
   -1
100
AcDbLine
 10
201.2178834564442
 20
345.167243819662
 11
201.0180826114348
 21
344.684881909867
  0
LINE
  5
109
100
AcDbEntity
  8
0
  6
ByLayer
 62
  256
370
   -1
100
AcDbLine
 10
200.949934264013
 20
344.1672438196619
 11
200.9499342640131
 21
339.3672478545607
  0
LINE
  5
10A
100
AcDbEntity
  8
0
  6
ByLayer
 62
  256
370
   -1
100
AcDbLine
 10
201.0180826114348
 20
344.684881909867
 11
200.949934264013
 21
344.1672438196619
  0
LINE
  5
10B
100
AcDbEntity
  8
0
  6
ByLayer
 62
  256
370
   -1
100
AcDbLine
 10
202.9499342640131
 20
337.3672478545608
 11
207.2499337600131
 21
337.367247854561
  0
LINE
  5
10C
100
AcDbEntity
  8
0
  6
ByLayer
 62
  256
370
   -1
100
AcDbLine
 10
202.9499342640131
 20
337.3672478545608
 11
202.4322961738079
 21
337.4353962019829
  0
LINE
  5
10D
100
AcDbEntity
  8
0
  6
ByLayer
 62
  256
370
   -1
100
AcDbLine
 10
202.4322961738079
 20
337.4353962019829
 11
201.9499342640132
 21
337.6351970469921
  0
LINE
  5
10E
100
AcDbEntity
  8
0
  6
ByLayer
 62
  256
370
   -1
100
AcDbLine
 10
201.9499342640132
 20
337.6351970469921
 11
201.5357207016399
 21
337.9530342921877
  0
LINE
  5
10F
100
AcDbEntity
  8
0
  6
ByLayer
 62
  256
370
   -1
100
AcDbLine
 10
201.5357207016399
 20
337.9530342921877
 11
201.2178834564443
 21
338.3672478545607
  0
LINE
  5
110
100
AcDbEntity
  8
0
  6
ByLayer
 62
  256
370
   -1
100
AcDbLine
 10
201.2178834564443
 20
338.3672478545607
 11
201.0180826114349
 21
338.8496097643559
  0
LINE
  5
111
100
AcDbEntity
  8
0
  6
ByLayer
 62
  256
370
   -1
100
AcDbLine
 10
201.0180826114349
 20
338.8496097643559
 11
200.9499342640131
 21
339.3672478545607
  0
LINE
  5
112
100
AcDbEntity
  8
0
  6
ByLayer
 62
  256
370
   -1
100
AcDbLine
 10
202.9499342640131
 20
192.4999351426633
 11
207.2499337600131
 21
192.4999351426634
  0
LINE
  5
113
100
AcDbEntity
  8
0
  6
ByLayer
 62
  256
370
   -1
100
AcDbLine
 10
202.9499342640131
 20
192.4999351426633
 11
202.4322961738079
 21
192.5680834900851
  0
LINE
  5
114
100
AcDbEntity
  8
0
  6
ByLayer
 62
  256
370
   -1
100
AcDbLine
 10
202.4322961738079
 20
192.5680834900851
 11
201.9499342640132
 21
192.7678843350945
  0
LINE
  5
115
100
AcDbEntity
  8
0
  6
ByLayer
 62
  256
370
   -1
100
AcDbLine
 10
201.9499342640132
 20
192.7678843350945
 11
201.5357207016399
 21
193.0857215802901
  0
LINE
  5
116
100
AcDbEntity
  8
0
  6
ByLayer
 62
  256
370
   -1
100
AcDbLine
 10
201.5357207016399
 20
193.0857215802901
 11
201.2178834564443
 21
193.4999351426632
  0
LINE
  5
117
100
AcDbEntity
  8
0
  6
ByLayer
 62
  256
370
   -1
100
AcDbLine
 10
201.2178834564443
 20
193.4999351426632
 11
201.0180826114349
 21
193.9822970524583
  0
LINE
  5
118
100
AcDbEntity
  8
0
  6
ByLayer
 62
  256
370
   -1
100
AcDbLine
 10
201.0180826114349
 20
193.9822970524583
 11
200.9499342640131
 21
194.4999351426631
  0
LINE
  5
119
100
AcDbEntity
  8
0
  6
ByLayer
 62
  256
370
   -1
100
AcDbLine
 10
-4.099997891200474
 20
36.74998498265347
 11
0.25
 21
36.74998498265347
  0
LINE
  5
11A
100
AcDbEntity
  8
0
  6
ByLayer
 62
  256
370
   -1
100
AcDbLine
 10
-4.099997891200474
 20
36.74998498265347
 11
-4.617635981405385
 21
36.81813333007528
  0
LINE
  5
11B
100
AcDbEntity
  8
0
  6
ByLayer
 62
  256
370
   -1
100
AcDbLine
 10
-4.617635981405385
 20
36.81813333007528
 11
-5.099997891200417
 21
37.01793417508446
  0
LINE
  5
11C
100
AcDbEntity
  8
0
  6
ByLayer
 62
  256
370
   -1
100
AcDbLine
 10
-5.099997891200417
 20
37.01793417508446
 11
-5.51421145357358
 21
37.33577142028037
  0
LINE
  5
11D
100
AcDbEntity
  8
0
  6
ByLayer
 62
  256
370
   -1
100
AcDbLine
 10
-5.51421145357358
 20
37.33577142028037
 11
-5.832048698769313
 21
37.74998498265347
  0
LINE
  5
11E
100
AcDbEntity
  8
0
  6
ByLayer
 62
  256
370
   -1
100
AcDbLine
 10
-5.832048698769313
 20
37.74998498265347
 11
-6.031849543778719
 21
38.23234689244839
  0
LINE
  5
11F
100
AcDbEntity
  8
0
  6
ByLayer
 62
  256
370
   -1
100
AcDbLine
 10
-6.031849543778719
 20
38.23234689244839
 11
-6.099997891200474
 21
38.74998498265336
  0
LINE
  5
120
100
AcDbEntity
  8
0
  6
ByLayer
 62
  256
370
   -1
100
AcDbLine
 10
334.4998923232214
 20
36.74999023075156
 11
335.0175304134266
 21
36.81813857817338
  0
LINE
  5
121
100
AcDbEntity
  8
0
  6
ByLayer
 62
  256
370
   -1
100
AcDbLine
 10
335.0175304134266
 20
36.81813857817338
 11
335.4998923232215
 21
37.01793942318278
  0
LINE
  5
122
100
AcDbEntity
  8
0
  6
ByLayer
 62
  256
370
   -1
100
AcDbLine
 10
335.4998923232215
 20
37.01793942318278
 11
335.9141058855946
 21
37.33577666837846
  0
LINE
  5
123
100
AcDbEntity
  8
0
  6
ByLayer
 62
  256
370
   -1
100
AcDbLine
 10
335.9141058855946
 20
37.33577666837846
 11
336.2319431307905
 21
37.74999023075156
  0
LINE
  5
124
100
AcDbEntity
  8
0
  6
ByLayer
 62
  256
370
   -1
100
AcDbLine
 10
336.2319431307905
 20
37.74999023075156
 11
336.4317439757996
 21
38.23235214054648
  0
LINE
  5
125
100
AcDbEntity
  8
0
  6
ByLayer
 62
  256
370
   -1
100
AcDbLine
 10
336.4998923232216
 20
38.74999023075156
 11
336.4998923232216
 21
43.54998467295326
  0
LINE
  5
126
100
AcDbEntity
  8
0
  6
ByLayer
 62
  256
370
   -1
100
AcDbLine
 10
336.4317439757996
 20
38.23235214054648
 11
336.4998923232216
 21
38.74999023075156
  0
LINE
  5
127
100
AcDbEntity
  8
0
  6
ByLayer
 62
  256
370
   -1
100
AcDbLine
 10
334.4998923232217
 20
45.54998467295326
 11
330.149894432021
 21
45.54998467295326
  0
LINE
  5
128
100
AcDbEntity
  8
0
  6
ByLayer
 62
  256
370
   -1
100
AcDbLine
 10
334.4998923232217
 20
45.54998467295326
 11
335.0175304134267
 21
45.48183632553145
  0
LINE
  5
129
100
AcDbEntity
  8
0
  6
ByLayer
 62
  256
370
   -1
100
AcDbLine
 10
335.0175304134267
 20
45.48183632553145
 11
335.4998923232216
 21
45.28203548052215
  0
LINE
  5
12A
100
AcDbEntity
  8
0
  6
ByLayer
 62
  256
370
   -1
100
AcDbLine
 10
335.4998923232216
 20
45.28203548052215
 11
335.9141058855947
 21
44.96419823532636
  0
LINE
  5
12B
100
AcDbEntity
  8
0
  6
ByLayer
 62
  256
370
   -1
100
AcDbLine
 10
335.9141058855947
 20
44.96419823532636
 11
336.2319431307905
 21
44.5499846729532
  0
LINE
  5
12C
100
AcDbEntity
  8
0
  6
ByLayer
 62
  256
370
   -1
100
AcDbLine
 10
336.2319431307905
 20
44.5499846729532
 11
336.4317439757998
 21
44.06762276315828
  0
LINE
  5
12D
100
AcDbEntity
  8
0
  6
ByLayer
 62
  256
370
   -1
100
AcDbLine
 10
336.4317439757998
 20
44.06762276315828
 11
336.4998923232216
 21
43.54998467295326
  0
LINE
  5
12E
100
AcDbEntity
  8
0
  6
ByLayer
 62
  256
370
   -1
100
AcDbLine
 10
168.0499482244101
 20
56.54997967520359
 11
168.0499482244101
 21
52.19998178400328
  0
LINE
  5
12F
100
AcDbEntity
  8
0
  6
ByLayer
 62
  256
370
   -1
100
AcDbLine
 10
168.0499482244101
 20
56.54997967520359
 11
167.9817998769882
 21
57.06761776540856
  0
LINE
  5
130
100
AcDbEntity
  8
0
  6
ByLayer
 62
  256
370
   -1
100
AcDbLine
 10
167.9817998769882
 20
57.06761776540856
 11
167.7819990319789
 21
57.54997967520359
  0
LINE
  5
131
100
AcDbEntity
  8
0
  6
ByLayer
 62
  256
370
   -1
100
AcDbLine
 10
167.7819990319789
 20
57.54997967520359
 11
167.4641617867832
 21
57.96419323757669
  0
LINE
  5
132
100
AcDbEntity
  8
0
  6
ByLayer
 62
  256
370
   -1
100
AcDbLine
 10
167.4641617867832
 20
57.96419323757669
 11
167.0499482244102
 21
58.28203048277237
  0
LINE
  5
133
100
AcDbEntity
  8
0
  6
ByLayer
 62
  256
370
   -1
100
AcDbLine
 10
167.0499482244102
 20
58.28203048277237
 11
166.5675863146151
 21
58.48183132778166
  0
LINE
  5
134
100
AcDbEntity
  8
0
  6
ByLayer
 62
  256
370
   -1
100
AcDbLine
 10
166.5675863146151
 20
58.48183132778166
 11
166.0499482244102
 21
58.54997967520359
  0
LINE
  5
135
100
AcDbEntity
  8
0
  6
ByLayer
 62
  256
370
   -1
100
AcDbLine
 10
183.0499421578114
 20
56.5499796752041
 11
183.1180905052332
 21
57.06761776540907
  0
LINE
  5
136
100
AcDbEntity
  8
0
  6
ByLayer
 62
  256
370
   -1
100
AcDbLine
 10
183.1180905052332
 20
57.06761776540907
 11
183.3178913502426
 21
57.5499796752041
  0
LINE
  5
137
100
AcDbEntity
  8
0
  6
ByLayer
 62
  256
370
   -1
100
AcDbLine
 10
183.3178913502426
 20
57.5499796752041
 11
183.6357285954383
 21
57.96419323757709
  0
LINE
  5
138
100
AcDbEntity
  8
0
  6
ByLayer
 62
  256
370
   -1
100
AcDbLine
 10
183.6357285954383
 20
57.96419323757709
 11
184.0499421578114
 21
58.282030482773
  0
LINE
  5
139
100
AcDbEntity
  8
0
  6
ByLayer
 62
  256
370
   -1
100
AcDbLine
 10
184.0499421578114
 20
58.282030482773
 11
184.5323040676063
 21
58.48183132778217
  0
LINE
  5
13A
100
AcDbEntity
  8
0
  6
ByLayer
 62
  256
370
   -1
100
AcDbLine
 10
185.0499421578113
 20
58.5499796752041
 11
189.8499366000129
 21
58.54997967520416
  0
LINE
  5
13B
100
AcDbEntity
  8
0
  6
ByLayer
 62
  256
370
   -1
100
AcDbLine
 10
184.5323040676063
 20
58.48183132778217
 11
185.0499421578113
 21
58.5499796752041
  0
LINE
  5
13C
100
AcDbEntity
  8
0
  6
ByLayer
 62
  256
370
   -1
100
AcDbLine
 10
159.2499522593093
 20
56.54997967520359
 11
159.3181006067312
 21
57.06761776540856
  0
LINE
  5
13D
100
AcDbEntity
  8
0
  6
ByLayer
 62
  256
370
   -1
100
AcDbLine
 10
159.3181006067312
 20
57.06761776540856
 11
159.5179014517404
 21
57.54997967520359
  0
LINE
  5
13E
100
AcDbEntity
  8
0
  6
ByLayer
 62
  256
370
   -1
100
AcDbLine
 10
159.5179014517404
 20
57.54997967520359
 11
159.8357386969362
 21
57.96419323757675
  0
LINE
  5
13F
100
AcDbEntity
  8
0
  6
ByLayer
 62
  256
370
   -1
100
AcDbLine
 10
159.8357386969362
 20
57.96419323757675
 11
160.2499522593092
 21
58.28203048277248
  0
LINE
  5
140
100
AcDbEntity
  8
0
  6
ByLayer
 62
  256
370
   -1
100
AcDbLine
 10
160.2499522593092
 20
58.28203048277248
 11
160.7323141691043
 21
58.48183132778166
  0
LINE
  5
141
100
AcDbEntity
  8
0
  6
ByLayer
 62
  256
370
   -1
100
AcDbLine
 10
161.2499522593093
 20
58.54997967520359
 11
166.0499482244102
 21
58.54997967520359
  0
LINE
  5
142
100
AcDbEntity
  8
0
  6
ByLayer
 62
  256
370
   -1
100
AcDbLine
 10
160.7323141691043
 20
58.48183132778166
 11
161.2499522593093
 21
58.54997967520359
  0
LINE
  5
143
100
AcDbEntity
  8
0
  6
ByLayer
 62
  256
370
   -1
100
AcDbLine
 10
191.8499366000131
 20
56.54997967520416
 11
191.8499366000127
 21
52.1999817840038
  0
LINE
  5
144
100
AcDbEntity
  8
0
  6
ByLayer
 62
  256
370
   -1
100
AcDbLine
 10
191.8499366000131
 20
56.54997967520416
 11
191.7817882525911
 21
57.0676177654093
  0
LINE
  5
145
100
AcDbEntity
  8
0
  6
ByLayer
 62
  256
370
   -1
100
AcDbLine
 10
191.7817882525911
 20
57.0676177654093
 11
191.581987407582
 21
57.54997967520416
  0
LINE
  5
146
100
AcDbEntity
  8
0
  6
ByLayer
 62
  256
370
   -1
100
AcDbLine
 10
191.581987407582
 20
57.54997967520416
 11
191.2641501623862
 21
57.96419323757726
  0
LINE
  5
147
100
AcDbEntity
  8
0
  6
ByLayer
 62
  256
370
   -1
100
AcDbLine
 10
191.2641501623862
 20
57.96419323757726
 11
190.8499366000129
 21
58.28203048277317
  0
LINE
  5
148
100
AcDbEntity
  8
0
  6
ByLayer
 62
  256
370
   -1
100
AcDbLine
 10
190.8499366000129
 20
58.28203048277317
 11
190.367574690218
 21
58.48183132778234
  0
LINE
  5
149
100
AcDbEntity
  8
0
  6
ByLayer
 62
  256
370
   -1
100
AcDbLine
 10
190.367574690218
 20
58.48183132778234
 11
189.8499366000129
 21
58.54997967520416
  0
LINE
  5
14A
100
AcDbEntity
  8
0
  6
ByLayer
 62
  256
370
   -1
100
AcDbLine
 10
334.4998923232213
 20
12.95000033224926
 11
335.0175304134262
 21
13.01814867967119
  0
LINE
  5
14B
100
AcDbEntity
  8
0
  6
ByLayer
 62
  256
370
   -1
100
AcDbLine
 10
335.0175304134262
 20
13.01814867967119
 11
335.4998923232214
 21
13.21794952468036
  0
LINE
  5
14C
100
AcDbEntity
  8
0
  6
ByLayer
 62
  256
370
   -1
100
AcDbLine
 10
335.4998923232214
 20
13.21794952468036
 11
335.9141058855943
 21
13.53578676987615
  0
LINE
  5
14D
100
AcDbEntity
  8
0
  6
ByLayer
 62
  256
370
   -1
100
AcDbLine
 10
335.9141058855943
 20
13.53578676987615
 11
336.2319431307902
 21
13.95000033224926
  0
LINE
  5
14E
100
AcDbEntity
  8
0
  6
ByLayer
 62
  256
370
   -1
100
AcDbLine
 10
336.2319431307902
 20
13.95000033224926
 11
336.4317439757995
 21
14.43236224204429
  0
LINE
  5
14F
100
AcDbEntity
  8
0
  6
ByLayer
 62
  256
370
   -1
100
AcDbLine
 10
336.4998923232214
 20
14.95000033224926
 11
336.4998923232214
 21
19.74999629735026
  0
LINE
  5
150
100
AcDbEntity
  8
0
  6
ByLayer
 62
  256
370
   -1
100
AcDbLine
 10
336.4317439757995
 20
14.43236224204429
 11
336.4998923232214
 21
14.95000033224926
  0
LINE
  5
151
100
AcDbEntity
  8
0
  6
ByLayer
 62
  256
370
   -1
100
AcDbLine
 10
334.4998923232212
 20
21.74999629735026
 11
330.149894432021
 21
21.74999629735026
  0
LINE
  5
152
100
AcDbEntity
  8
0
  6
ByLayer
 62
  256
370
   -1
100
AcDbLine
 10
334.4998923232212
 20
21.74999629735026
 11
335.0175304134262
 21
21.68184794992845
  0
LINE
  5
153
100
AcDbEntity
  8
0
  6
ByLayer
 62
  256
370
   -1
100
AcDbLine
 10
335.0175304134262
 20
21.68184794992845
 11
335.4998923232213
 21
21.48204710491916
  0
LINE
  5
154
100
AcDbEntity
  8
0
  6
ByLayer
 62
  256
370
   -1
100
AcDbLine
 10
335.4998923232213
 20
21.48204710491916
 11
335.9141058855943
 21
21.16420985972337
  0
LINE
  5
155
100
AcDbEntity
  8
0
  6
ByLayer
 62
  256
370
   -1
100
AcDbLine
 10
335.9141058855943
 20
21.16420985972337
 11
336.2319431307902
 21
20.74999629735026
  0
LINE
  5
156
100
AcDbEntity
  8
0
  6
ByLayer
 62
  256
370
   -1
100
AcDbLine
 10
336.2319431307902
 20
20.74999629735026
 11
336.4317439757995
 21
20.26763438755535
  0
LINE
  5
157
100
AcDbEntity
  8
0
  6
ByLayer
 62
  256
370
   -1
100
AcDbLine
 10
336.4317439757995
 20
20.26763438755535
 11
336.4998923232214
 21
19.74999629735026
  0
LINE
  5
158
100
AcDbEntity
  8
0
  6
ByLayer
 62
  256
370
   -1
100
AcDbLine
 10
237.9806570159864
 20
72.74561191037628
 11
237.5147741105261
 21
72.80687872630585
  0
LINE
  5
159
100
AcDbEntity
  8
0
  6
ByLayer
 62
  256
370
   -1
100
AcDbLine
 10
236.2723990259751
 20
151.0505926079992
 11
236.6452320493278
 21
150.764592536265
  0
LINE
  5
15A
100
AcDbEntity
  8
0
  6
ByLayer
 62
  256
370
   -1
100
AcDbLine
 10
287.513830598205
 20
71.5444988801907
 11
287.3339477644786
 21
71.97859871947315
  0
LINE
  5
15B
100
AcDbEntity
  8
0
  6
ByLayer
 62
  256
370
   -1
100
AcDbLine
 10
287.5752307671248
 20
71.07863353098446
 11
287.513830598205
 21
71.5444988801907
  0
LINE
  5
15C
100
AcDbEntity
  8
0
  6
ByLayer
 62
  256
370
   -1
100
AcDbLine
 10
237.5447510300143
 20
154.123565962943
 11
237.0788856808082
 21
154.0621657940232
  0
LINE
  5
15D
100
AcDbEntity
  8
0
  6
ByLayer
 62
  256
370
   -1
100
AcDbLine
 10
216.982812981469
 20
159.1789247912329
 11
216.9214128125491
 21
159.6447901404387
  0
LINE
  5
15E
100
AcDbEntity
  8
0
  6
ByLayer
 62
  256
370
   -1
100
AcDbLine
 10
284.4863265667241
 20
62.43057955982545
 11
284.8590777094197
 21
62.71668634050997
  0
LINE
  5
15F
100
AcDbEntity
  8
0
  6
ByLayer
 62
  256
370
   -1
100
AcDbLine
 10
284.535204137531
 20
147.2955013181633
 11
284.2492040657967
 21
146.9226682948106
  0
LINE
  5
160
100
AcDbEntity
  8
0
  6
ByLayer
 62
  256
370
   -1
100
AcDbLine
 10
282.6206640877234
 20
156.3547507177674
 11
283.054815399339
 21
156.1749921492455
  0
LINE
  5
161
100
AcDbEntity
  8
0
  6
ByLayer
 62
  256
370
   -1
100
AcDbLine
 10
284.0695788502652
 20
145.5567687285281
 11
284.2494616839912
 21
145.1226688892454
  0
LINE
  5
162
100
AcDbEntity
  8
0
  6
ByLayer
 62
  256
370
   -1
100
AcDbLine
 10
283.9860659738707
 20
159.6524573285158
 11
283.5201830684101
 21
159.7137241444455
  0
LINE
  5
163
100
AcDbEntity
  8
0
  6
ByLayer
 62
  256
370
   -1
100
AcDbLine
 10
282.2478310643706
 20
156.6407507895016
 11
282.6206640877234
 21
156.3547507177674
  0
LINE
  5
164
100
AcDbEntity
  8
0
  6
ByLayer
 62
  256
370
   -1
100
AcDbLine
 10
284.2494616839912
 20
145.1226688892454
 11
284.5355684646757
 21
144.74991774655
  0
LINE
  5
165
100
AcDbEntity
  8
0
  6
ByLayer
 62
  256
370
   -1
100
AcDbLine
 10
287.5467773235549
 20
146.4890146633299
 11
287.3668944898287
 21
146.9231145026128
  0
LINE
  5
166
100
AcDbEntity
  8
0
  6
ByLayer
 62
  256
370
   -1
100
AcDbLine
 10
287.6081774924747
 20
146.0231493141237
 11
287.5467773235549
 21
146.4890146633299
  0
LINE
  5
167
100
AcDbEntity
  8
0
  6
ByLayer
 62
  256
370
   -1
100
AcDbLine
 10
238.7864705798909
 20
156.4469692044187
 11
239.220621891506
 21
156.2672106358971
  0
LINE
  5
168
100
AcDbEntity
  8
0
  6
ByLayer
 62
  256
370
   -1
100
AcDbLine
 10
216.0590440553351
 20
61.66348674853106
 11
216.431795198031
 21
61.94959352921558
  0
LINE
  5
169
100
AcDbEntity
  8
0
  6
ByLayer
 62
  256
370
   -1
100
AcDbLine
 10
285.3096060742943
 20
69.33964332315435
 11
285.7754889797545
 21
69.27837650722489
  0
LINE
  5
16A
100
AcDbEntity
  8
0
  6
ByLayer
 62
  256
370
   -1
100
AcDbLine
 10
285.7754889797545
 20
69.27837650722489
 11
286.2413543289612
 21
69.33977667614477
  0
LINE
  5
16B
100
AcDbEntity
  8
0
  6
ByLayer
 62
  256
370
   -1
100
AcDbLine
 10
236.4228048448294
 20
153.7379055228363
 11
236.2720346988298
 21
153.5961761796125
  0
LINE
  5
16C
100
AcDbEntity
  8
0
  6
ByLayer
 62
  256
370
   -1
100
AcDbLine
 10
285.8079204687152
 20
147.8228911014939
 11
285.3420551195089
 21
147.7614909325741
  0
LINE
  5
16D
100
AcDbEntity
  8
0
  6
ByLayer
 62
  256
370
   -1
100
AcDbLine
 10
284.7934146359843
 20
156.6411151166465
 11
285.0794147077183
 21
157.0139481399993
  0
LINE
  5
16E
100
AcDbEntity
  8
0
  6
ByLayer
 62
  256
370
   -1
100
AcDbLine
 10
282.2474667372259
 20
159.186334361115
 11
281.9614666654916
 21
158.8135013377623
  0
LINE
  5
16F
100
AcDbEntity
  8
0
  6
ByLayer
 62
  256
370
   -1
100
AcDbLine
 10
260.7102569593338
 20
5.399135376218283
 11
260.4239292697762
 21
5.025985866240148
  0
LINE
  5
170
100
AcDbEntity
  8
0
  6
ByLayer
 62
  256
370
   -1
100
AcDbLine
 10
260.8902500696057
 20
5.833677184170881
 11
260.7102569593338
 21
5.399135376218283
  0
LINE
  5
171
100
AcDbEntity
  8
0
  6
ByLayer
 62
  256
370
   -1
100
AcDbLine
 10
213.5998472275382
 20
64.12197975033115
 11
213.4200886590164
 21
63.68782843871577
  0
LINE
  5
172
100
AcDbEntity
  8
0
  6
ByLayer
 62
  256
370
   -1
100
AcDbLine
 10
237.8862477732072
 20
158.0056856073376
 11
237.9476479421274
 21
157.5398202581312
  0
LINE
  5
173
100
AcDbEntity
  8
0
  6
ByLayer
 62
  256
370
   -1
100
AcDbLine
 10
238.7860243720887
 20
159.5646596284511
 11
238.4132732293929
 21
159.2785528477665
  0
LINE
  5
174
100
AcDbEntity
  8
0
  6
ByLayer
 62
  256
370
   -1
100
AcDbLine
 10
236.4964374344478
 20
153.768417487312
 11
236.4228048448294
 21
153.7379055228363
  0
LINE
  5
175
100
AcDbEntity
  8
0
  6
ByLayer
 62
  256
370
   -1
100
AcDbLine
 10
285.3861031656053
 20
63.98955358093895
 11
285.3247029966855
 21
64.4554189301453
  0
LINE
  5
176
100
AcDbEntity
  8
0
  6
ByLayer
 62
  256
370
   -1
100
AcDbLine
 10
283.1204784727751
 20
62.25056337310906
 11
283.5863613782352
 21
62.18929655717949
  0
LINE
  5
177
100
AcDbEntity
  8
0
  6
ByLayer
 62
  256
370
   -1
100
AcDbLine
 10
285.1448201629594
 20
64.88951876942758
 11
284.8587133822746
 21
65.26226991212349
  0
LINE
  5
178
100
AcDbEntity
  8
0
  6
ByLayer
 62
  256
370
   -1
100
AcDbLine
 10
238.1275307758533
 20
157.1057204188489
 11
238.4136375565378
 21
156.7329692761533
  0
LINE
  5
179
100
AcDbEntity
  8
0
  6
ByLayer
 62
  256
370
   -1
100
AcDbLine
 10
238.1272731576586
 20
158.9057198244136
 11
237.9475145891369
 21
158.4715685127983
  0
LINE
  5
17A
100
AcDbEntity
  8
0
  6
ByLayer
 62
  256
370
   -1
100
AcDbLine
 10
235.7450092426446
 20
152.3233089391835
 11
235.8064094115642
 21
151.8574435899775
  0
LINE
  5
17B
100
AcDbEntity
  8
0
  6
ByLayer
 62
  256
370
   -1
100
AcDbLine
 10
216.7177952697652
 20
62.32242655256869
 11
216.8975538382869
 21
62.75657786418395
  0
LINE
  5
17C
100
AcDbEntity
  8
0
  6
ByLayer
 62
  256
370
   -1
100
AcDbLine
 10
235.9563153258019
 20
70.10665651405759
 11
236.2424221064867
 21
69.73390537136197
  0
LINE
  5
17D
100
AcDbEntity
  8
0
  6
ByLayer
 62
  256
370
   -1
100
AcDbLine
 10
214.2825907692206
 20
160.7373835759568
 11
213.9098396265252
 21
160.4512767952721
  0
LINE
  5
17E
100
AcDbEntity
  8
0
  6
ByLayer
 62
  256
370
   -1
100
AcDbLine
 10
216.0825901747857
 20
160.7376411941512
 11
215.6484388631699
 21
160.9173997626734
  0
LINE
  5
17F
100
AcDbEntity
  8
0
  6
ByLayer
 62
  256
370
   -1
100
AcDbLine
 10
224.0472108235414
 20
24.71999208960148
 11
238.322408695387
 21
24.71999208960148
  0
LINE
  5
180
100
AcDbEntity
  8
0
  6
ByLayer
 62
  256
370
   -1
100
AcDbLine
 10
240.7024086953871
 20
22.45999208960149
 11
238.322408695387
 21
24.71999208960148
  0
LINE
  5
181
100
AcDbEntity
  8
0
  6
ByLayer
 62
  256
370
   -1
100
AcDbLine
 10
224.0472108235414
 20
15.67999498240079
 11
238.322408695387
 21
15.67999498240079
  0
LINE
  5
182
100
AcDbEntity
  8
0
  6
ByLayer
 62
  256
370
   -1
100
AcDbLine
 10
238.322408695387
 20
15.67999498240079
 11
240.7024086953871
 21
17.93999498240078
  0
LINE
  5
183
100
AcDbEntity
  8
0
  6
ByLayer
 62
  256
370
   -1
100
AcDbLine
 10
221.6672108235414
 20
17.93999498240078
 11
224.0472108235414
 21
15.67999498240079
  0
LINE
  5
184
100
AcDbEntity
  8
0
  6
ByLayer
 62
  256
370
   -1
100
AcDbLine
 10
240.7024086953871
 20
22.45999208960149
 11
240.7024086953871
 21
17.93999498240078
  0
LINE
  5
185
100
AcDbEntity
  8
0
  6
ByLayer
 62
  256
370
   -1
100
AcDbLine
 10
224.0472108235414
 20
24.71999208960148
 11
221.6672108235414
 21
22.45999208960149
  0
LINE
  5
186
100
AcDbEntity
  8
0
  6
ByLayer
 62
  256
370
   -1
100
AcDbLine
 10
221.6672108235414
 20
17.93999498240078
 11
221.6672108235414
 21
22.45999208960149
  0
LINE
  5
187
100
AcDbEntity
  8
0
  6
ByLayer
 62
  256
370
   -1
100
AcDbLine
 10
213.3828141703397
 20
159.1784095548433
 11
213.444214339259
 21
158.7125442056369
  0
LINE
  5
188
100
AcDbEntity
  8
0
  6
ByLayer
 62
  256
370
   -1
100
AcDbLine
 10
216.4557875252832
 20
157.906057550804
 11
216.7417875970174
 21
158.2788905741567
  0
LINE
  5
189
100
AcDbEntity
  8
0
  6
ByLayer
 62
  256
370
   -1
100
AcDbLine
 10
215.648936543305
 20
157.4400679363932
 11
216.0830363825878
 21
157.6199507701194
  0
LINE
  5
18A
100
AcDbEntity
  8
0
  6
ByLayer
 62
  256
370
   -1
100
AcDbLine
 10
213.4440809862692
 20
159.6442924603038
 11
213.3828141703397
 21
159.1784095548433
  0
LINE
  5
18B
100
AcDbEntity
  8
0
  6
ByLayer
 62
  256
370
   -1
100
AcDbLine
 10
285.3091083941594
 20
72.8169751494346
 11
284.8750085548767
 21
72.63709231570817
  0
LINE
  5
18C
100
AcDbEntity
  8
0
  6
ByLayer
 62
  256
370
   -1
100
AcDbLine
 10
287.0811520362889
 20
144.7502820736949
 11
287.3671521080236
 21
145.1231150970477
  0
LINE
  5
18D
100
AcDbEntity
  8
0
  6
ByLayer
 62
  256
370
   -1
100
AcDbLine
 10
287.0478409837943
 20
72.35134986216866
 11
286.6750079604416
 21
72.63734993390295
  0
LINE
  5
18E
100
AcDbEntity
  8
0
  6
ByLayer
 62
  256
370
   -1
100
AcDbLine
 10
240.9271872642232
 20
62.71668634050997
 11
241.2131873359576
 21
63.08951936386296
  0
LINE
  5
18F
100
AcDbEntity
  8
0
  6
ByLayer
 62
  256
370
   -1
100
AcDbLine
 10
237.9811546961216
 20
69.26828008409609
 11
238.1608782824397
 21
69.35831330109409
  0
LINE
  5
190
100
AcDbEntity
  8
0
  6
ByLayer
 62
  256
370
   -1
100
AcDbLine
 10
311.8904706611456
 20
63.73190091250956
 11
311.7105878274198
 21
64.16600075179218
  0
LINE
  5
191
100
AcDbEntity
  8
0
  6
ByLayer
 62
  256
370
   -1
100
AcDbLine
 10
285.7749737433652
 20
72.87837531835459
 11
285.3091083941594
 21
72.8169751494346
  0
LINE
  5
192
100
AcDbEntity
  8
0
  6
ByLayer
 62
  256
370
   -1
100
AcDbLine
 10
238.3816036926102
 20
62.71632201336496
 11
238.7544367159629
 21
62.43032194163089
  0
LINE
  5
193
100
AcDbEntity
  8
0
  6
ByLayer
 62
  256
370
   -1
100
AcDbLine
 10
311.7108454456143
 20
62.36600134622699
 11
311.8906040141361
 21
62.80015265784277
  0
LINE
  5
194
100
AcDbEntity
  8
0
  6
ByLayer
 62
  256
370
   -1
100
AcDbLine
 10
145.3999530841086
 20
2.999997986200583
 11
136.1999572470085
 21
2.999997986200469
  0
LINE
  5
195
100
AcDbEntity
  8
0
  6
ByLayer
 62
  256
370
   -1
100
AcDbLine
 10
275.6499107812177
 20
9.599999903499793
 11
275.6499107812177
 21
2.999997986200469
  0
LINE
  5
196
100
AcDbEntity
  8
0
  6
ByLayer
 62
  256
370
   -1
100
AcDbLine
 10
257.5895773446989
 20
7.200860591782089
 11
257.8759050342562
 21
7.57401010176045
  0
LINE
  5
197
100
AcDbEntity
  8
0
  6
ByLayer
 62
  256
370
   -1
100
AcDbLine
 10
240.5864699854553
 20
156.4472268226136
 11
240.9592211281512
 21
156.7333336032981
  0
LINE
  5
198
100
AcDbEntity
  8
0
  6
ByLayer
 62
  256
370
   -1
100
AcDbLine
 10
282.0271297389276
 20
64.88907256162548
 11
281.8473711704056
 21
64.45492125001016
  0
LINE
  5
199
100
AcDbEntity
  8
0
  6
ByLayer
 62
  256
370
   -1
100
AcDbLine
 10
214.6931959613859
 20
61.48347056181478
 11
215.1590788668465
 21
61.4222037458851
  0
LINE
  5
19A
100
AcDbEntity
  8
0
  6
ByLayer
 62
  256
370
   -1
100
AcDbLine
 10
251.8499190201152
 20
9.599999903499793
 11
251.849919020115
 21
2.999997986200583
  0
LINE
  5
19B
100
AcDbEntity
  8
0
  6
ByLayer
 62
  256
370
   -1
100
AcDbLine
 10
257.4095842344266
 20
6.766318783829888
 11
257.5895773446989
 21
7.200860591782089
  0
LINE
  5
19C
100
AcDbEntity
  8
0
  6
ByLayer
 62
  256
370
   -1
100
AcDbLine
 10
239.3150311342858
 20
71.00713693893579
 11
239.2536309653659
 21
71.47300228814197
  0
LINE
  5
19D
100
AcDbEntity
  8
0
  6
ByLayer
 62
  256
370
   -1
100
AcDbLine
 10
287.5469106765454
 20
145.5572664086633
 11
287.6081774924747
 21
146.0231493141237
  0
LINE
  5
19E
100
AcDbEntity
  8
0
  6
ByLayer
 62
  256
370
   -1
100
AcDbLine
 10
283.0543177192041
 20
159.6523239755256
 11
282.6202178799216
 21
159.4724411417993
  0
LINE
  5
19F
100
AcDbEntity
  8
0
  6
ByLayer
 62
  256
370
   -1
100
AcDbLine
 10
284.0694454972746
 20
146.4885169831948
 11
284.0081786813453
 21
146.0226340777344
  0
LINE
  5
1A0
100
AcDbEntity
  8
0
  6
ByLayer
 62
  256
370
   -1
100
AcDbLine
 10
284.6931282014109
 20
147.4167166286852
 11
284.6451896151997
 21
147.396851777441
  0
LINE
  5
1A1
100
AcDbEntity
  8
0
  6
ByLayer
 62
  256
370
   -1
100
AcDbLine
 10
285.3425527996441
 20
144.2841591062939
 11
285.8084357051047
 21
144.2228922903642
  0
LINE
  5
1A2
100
AcDbEntity
  8
0
  6
ByLayer
 62
  256
370
   -1
100
AcDbLine
 10
284.2492040657967
 20
146.9226682948106
 11
284.0694454972746
 21
146.4885169831948
  0
LINE
  5
1A3
100
AcDbEntity
  8
0
  6
ByLayer
 62
  256
370
   -1
100
AcDbLine
 10
151.1396114086925
 20
5.399135376218283
 11
150.9596182984204
 21
5.833677184170995
  0
LINE
  5
1A4
100
AcDbEntity
  8
0
  6
ByLayer
 62
  256
370
   -1
100
AcDbLine
 10
213.4200886590164
 20
63.68782843871577
 11
213.3588218430871
 21
63.22194553325517
  0
LINE
  5
1A5
100
AcDbEntity
  8
0
  6
ByLayer
 62
  256
370
   -1
100
AcDbLine
 10
238.8176182704431
 20
153.5965405067574
 11
238.4447852470901
 21
153.8825405784916
  0
LINE
  5
1A6
100
AcDbEntity
  8
0
  6
ByLayer
 62
  256
370
   -1
100
AcDbLine
 10
266.4499130815183
 20
2.999997986200583
 11
266.4499130815183
 21
9.599999903499793
  0
LINE
  5
1A7
100
AcDbEntity
  8
0
  6
ByLayer
 62
  256
370
   -1
100
AcDbLine
 10
251.849919020115
 20
2.999997986200583
 11
242.6499231830147
 21
2.999997986200469
  0
LINE
  5
1A8
100
AcDbEntity
  8
0
  6
ByLayer
 62
  256
370
   -1
100
AcDbLine
 10
47.15084788778478
 20
4.739658176682951
 11
46.71630607983218
 21
4.559665066411071
  0
LINE
  5
1A9
100
AcDbEntity
  8
0
  6
ByLayer
 62
  256
370
   -1
100
AcDbLine
 10
46.71630607983218
 20
4.559665066411071
 11
46.24998528000282
 21
4.49827276843655
  0
LINE
  5
1AA
100
AcDbEntity
  8
0
  6
ByLayer
 62
  256
370
   -1
100
AcDbLine
 10
309.6862461372351
 20
61.52704535547326
 11
310.1521290426957
 21
61.46577853954375
  0
LINE
  5
1AB
100
AcDbEntity
  8
0
  6
ByLayer
 62
  256
370
   -1
100
AcDbLine
 10
214.692698281251
 20
64.96080238809469
 11
214.2585984419683
 21
64.78091955436867
  0
LINE
  5
1AC
100
AcDbEntity
  8
0
  6
ByLayer
 62
  256
370
   -1
100
AcDbLine
 10
235.776432492076
 20
70.5407563533401
 11
235.9563153258019
 21
70.10665651405759
  0
LINE
  5
1AD
100
AcDbEntity
  8
0
  6
ByLayer
 62
  256
370
   -1
100
AcDbLine
 10
238.7539905081608
 20
65.548012365663
 11
238.3812393654649
 21
65.26190558497859
  0
LINE
  5
1AE
100
AcDbEntity
  8
0
  6
ByLayer
 62
  256
370
   -1
100
AcDbLine
 10
311.7105878274198
 20
64.16600075179218
 11
311.424481046735
 21
64.53875189448746
  0
LINE
  5
1AF
100
AcDbEntity
  8
0
  6
ByLayer
 62
  256
370
   -1
100
AcDbLine
 10
241.4542127204087
 20
63.98955358093895
 11
241.3928125514886
 21
64.4554189301453
  0
LINE
  5
1B0
100
AcDbEntity
  8
0
  6
ByLayer
 62
  256
370
   -1
100
AcDbLine
 10
308.4132721878565
 20
62.79965497770769
 11
308.5931550215822
 21
62.36555513842495
  0
LINE
  5
1B1
100
AcDbEntity
  8
0
  6
ByLayer
 62
  256
370
   -1
100
AcDbLine
 10
286.6754541682437
 20
69.51965950987119
 11
286.8633493463122
 21
69.69023024284115
  0
LINE
  5
1B2
100
AcDbEntity
  8
0
  6
ByLayer
 62
  256
370
   -1
100
AcDbLine
 10
216.7415299788227
 20
160.0788899797214
 11
216.4554231981383
 21
160.4516411224171
  0
LINE
  5
1B3
100
AcDbEntity
  8
0
  6
ByLayer
 62
  256
370
   -1
100
AcDbLine
 10
213.3588218430871
 20
63.22194553325517
 11
213.420222012007
 21
62.75608018404887
  0
LINE
  5
1B4
100
AcDbEntity
  8
0
  6
ByLayer
 62
  256
370
   -1
100
AcDbLine
 10
236.6447858415257
 20
153.8822829602969
 11
236.4964374344478
 21
153.768417487312
  0
LINE
  5
1B5
100
AcDbEntity
  8
0
  6
ByLayer
 62
  256
370
   -1
100
AcDbLine
 10
235.9860346270958
 20
153.2233431562597
 11
235.8062760585739
 21
152.7891918446442
  0
LINE
  5
1B6
100
AcDbEntity
  8
0
  6
ByLayer
 62
  256
370
   -1
100
AcDbLine
 10
216.7417875970174
 20
158.2788905741567
 11
216.921546165539
 21
158.7130418857722
  0
LINE
  5
1B7
100
AcDbEntity
  8
0
  6
ByLayer
 62
  256
370
   -1
100
AcDbLine
 10
153.9739633337698
 20
7.57401010176045
 11
154.2602910233272
 21
7.200860591782259
  0
LINE
  5
1B8
100
AcDbEntity
  8
0
  6
ByLayer
 62
  256
370
   -1
100
AcDbLine
 10
153.6008138237917
 20
7.860337791317647
 11
153.9739633337698
 21
7.57401010176045
  0
LINE
  5
1B9
100
AcDbEntity
  8
0
  6
ByLayer
 62
  256
370
   -1
100
AcDbLine
 10
48.05171049556691
 20
6.299997984000356
 11
47.99031819759239
 21
5.833677184170881
  0
LINE
  5
1BA
100
AcDbEntity
  8
0
  6
ByLayer
 62
  256
370
   -1
100
AcDbLine
 10
286.8633493463122
 20
69.69023024284115
 11
287.0482053109391
 21
69.80576629055548
  0
LINE
  5
1BB
100
AcDbEntity
  8
0
  6
ByLayer
 62
  256
370
   -1
100
AcDbLine
 10
238.5960016008918
 20
150.9065794976834
 11
238.8179825975882
 21
151.0509569351443
  0
LINE
  5
1BC
100
AcDbEntity
  8
0
  6
ByLayer
 62
  256
370
   -1
100
AcDbLine
 10
260.4239292697762
 20
5.025985866240148
 11
260.0507797597983
 21
4.739658176682951
  0
LINE
  5
1BD
100
AcDbEntity
  8
0
  6
ByLayer
 62
  256
370
   -1
100
AcDbLine
 10
260.0507797597983
 20
4.739658176682951
 11
259.6162379518456
 21
4.559665066411071
  0
LINE
  5
1BE
100
AcDbEntity
  8
0
  6
ByLayer
 62
  256
370
   -1
100
AcDbLine
 10
281.8475045233956
 20
63.52317299534326
 11
282.0273873571222
 21
63.08907315606086
  0
LINE
  5
1BF
100
AcDbEntity
  8
0
  6
ByLayer
 62
  256
370
   -1
100
AcDbLine
 10
239.2536309653659
 20
71.47300228814197
 11
239.0737481316393
 21
71.90710212742437
  0
LINE
  5
1C0
100
AcDbEntity
  8
0
  6
ByLayer
 62
  256
370
   -1
100
AcDbLine
 10
284.5026217393261
 20
69.80540196341065
 11
284.8754547626787
 21
69.51940189167635
  0
LINE
  5
1C1
100
AcDbEntity
  8
0
  6
ByLayer
 62
  256
370
   -1
100
AcDbLine
 10
311.8906040141361
 20
62.80015265784277
 11
311.9518708300656
 21
63.26603556330326
  0
LINE
  5
1C2
100
AcDbEntity
  8
0
  6
ByLayer
 62
  256
370
   -1
100
AcDbLine
 10
311.0516480233824
 20
64.82475196622175
 11
310.6174967117669
 21
65.00451053474376
  0
LINE
  5
1C3
100
AcDbEntity
  8
0
  6
ByLayer
 62
  256
370
   -1
100
AcDbLine
 10
239.1039826693224
 20
151.4237899584969
 11
239.2837412378444
 21
151.8579412701123
  0
LINE
  5
1C4
100
AcDbEntity
  8
0
  6
ByLayer
 62
  256
370
   -1
100
AcDbLine
 10
240.9588568010062
 20
159.2789171749113
 11
240.5860237776532
 21
159.5649172466457
  0
LINE
  5
1C5
100
AcDbEntity
  8
0
  6
ByLayer
 62
  256
370
   -1
100
AcDbLine
 10
284.8587133822746
 20
65.26226991212349
 11
284.4858803589219
 21
65.54826998385767
  0
LINE
  5
1C6
100
AcDbEntity
  8
0
  6
ByLayer
 62
  256
370
   -1
100
AcDbLine
 10
287.5139639511953
 20
70.61275062552397
 11
287.5752307671248
 21
71.07863353098446
  0
LINE
  5
1C7
100
AcDbEntity
  8
0
  6
ByLayer
 62
  256
370
   -1
100
AcDbLine
 10
284.2162573404468
 20
71.97815251167106
 11
284.036498771925
 21
71.54400120005539
  0
LINE
  5
1C8
100
AcDbEntity
  8
0
  6
ByLayer
 62
  256
370
   -1
100
AcDbLine
 10
284.2165149586416
 20
70.17815310610609
 11
284.5026217393261
 21
69.80540196341065
  0
LINE
  5
1C9
100
AcDbEntity
  8
0
  6
ByLayer
 62
  256
370
   -1
100
AcDbLine
 10
240.1523701461728
 20
156.2673439888874
 11
240.5864699854553
 21
156.4472268226136
  0
LINE
  5
1CA
100
AcDbEntity
  8
0
  6
ByLayer
 62
  256
370
   -1
100
AcDbLine
 10
214.7171882886385
 20
157.4399345834029
 11
215.1830711940987
 21
157.3786677674732
  0
LINE
  5
1CB
100
AcDbEntity
  8
0
  6
ByLayer
 62
  256
370
   -1
100
AcDbLine
 10
287.3342053826734
 20
70.17859931390825
 11
287.5139639511953
 21
70.61275062552397
  0
LINE
  5
1CC
100
AcDbEntity
  8
0
  6
ByLayer
 62
  256
370
   -1
100
AcDbLine
 10
236.6452320493278
 20
150.764592536265
 11
237.0793833609432
 21
150.5848339677429
  0
LINE
  5
1CD
100
AcDbEntity
  8
0
  6
ByLayer
 62
  256
370
   -1
100
AcDbLine
 10
308.8788974751218
 20
64.5383875673428
 11
308.5928974033873
 21
64.16555454398997
  0
LINE
  5
1CE
100
AcDbEntity
  8
0
  6
ByLayer
 62
  256
370
   -1
100
AcDbLine
 10
216.431795198031
 20
61.94959352921558
 11
216.7177952697652
 21
62.32242655256869
  0
LINE
  5
1CF
100
AcDbEntity
  8
0
  6
ByLayer
 62
  256
370
   -1
100
AcDbLine
 10
239.2837412378444
 20
151.8579412701123
 11
239.3450080537739
 21
152.323824175573
  0
LINE
  5
1D0
100
AcDbEntity
  8
0
  6
ByLayer
 62
  256
370
   -1
100
AcDbLine
 10
285.2590399232498
 20
158.3798477062817
 11
285.0791570895237
 21
158.8139475455643
  0
LINE
  5
1D1
100
AcDbEntity
  8
0
  6
ByLayer
 62
  256
370
   -1
100
AcDbLine
 10
282.6202178799216
 20
159.4724411417993
 11
282.2474667372259
 21
159.186334361115
  0
LINE
  5
1D2
100
AcDbEntity
  8
0
  6
ByLayer
 62
  256
370
   -1
100
AcDbLine
 10
284.908401488029
 20
144.4639176748157
 11
285.3425527996441
 21
144.2841591062939
  0
LINE
  5
1D3
100
AcDbEntity
  8
0
  6
ByLayer
 62
  256
370
   -1
100
AcDbLine
 10
286.7084008935934
 20
144.4641752930103
 11
286.8183863712619
 21
144.5655257522882
  0
LINE
  5
1D4
100
AcDbEntity
  8
0
  6
ByLayer
 62
  256
370
   -1
100
AcDbLine
 10
44.97597316224289
 20
5.025985866240376
 11
44.68964547268558
 21
5.399135376218283
  0
LINE
  5
1D5
100
AcDbEntity
  8
0
  6
ByLayer
 62
  256
370
   -1
100
AcDbLine
 10
44.68964547268558
 20
5.399135376218283
 11
44.50965236241342
 21
5.833677184170995
  0
LINE
  5
1D6
100
AcDbEntity
  8
0
  6
ByLayer
 62
  256
370
   -1
100
AcDbLine
 10
47.99031819759239
 20
6.766318783829774
 11
48.05171049556691
 21
6.299997984000356
  0
LINE
  5
1D7
100
AcDbEntity
  8
0
  6
ByLayer
 62
  256
370
   -1
100
AcDbLine
 10
46.24998528000299
 20
8.101723199564162
 11
46.71630607983218
 21
8.040330901589698
  0
LINE
  5
1D8
100
AcDbEntity
  8
0
  6
ByLayer
 62
  256
370
   -1
100
AcDbLine
 10
45.78366448017363
 20
4.559665066411071
 11
45.34912267222109
 21
4.739658176682951
  0
LINE
  5
1D9
100
AcDbEntity
  8
0
  6
ByLayer
 62
  256
370
   -1
100
AcDbLine
 10
238.7876413509551
 20
72.2798532701201
 11
238.4148083276024
 21
72.56585334185456
  0
LINE
  5
1DA
100
AcDbEntity
  8
0
  6
ByLayer
 62
  256
370
   -1
100
AcDbLine
 10
308.4131388348657
 20
63.73140323237425
 11
308.3518720189361
 21
63.26552032691376
  0
LINE
  5
1DB
100
AcDbEntity
  8
0
  6
ByLayer
 62
  256
370
   -1
100
AcDbLine
 10
213.8862116264179
 20
61.94922920207068
 11
214.2590446497708
 21
61.66322913033645
  0
LINE
  5
1DC
100
AcDbEntity
  8
0
  6
ByLayer
 62
  256
370
   -1
100
AcDbLine
 10
240.151872466038
 20
159.7446758151676
 11
239.6859895605771
 21
159.805942631097
  0
LINE
  5
1DD
100
AcDbEntity
  8
0
  6
ByLayer
 62
  256
370
   -1
100
AcDbLine
 10
238.7880056780998
 20
69.73426969850686
 11
239.0740057498343
 21
70.10710272185986
  0
LINE
  5
1DE
100
AcDbEntity
  8
0
  6
ByLayer
 62
  256
370
   -1
100
AcDbLine
 10
238.4136375565378
 20
156.7329692761533
 11
238.7864705798909
 21
156.4469692044187
  0
LINE
  5
1DF
100
AcDbEntity
  8
0
  6
ByLayer
 62
  256
370
   -1
100
AcDbLine
 10
240.11983860211
 20
65.7280285523795
 11
239.6539556966495
 21
65.78929536830896
  0
LINE
  5
1E0
100
AcDbEntity
  8
0
  6
ByLayer
 62
  256
370
   -1
100
AcDbLine
 10
45.34912267222091
 20
7.860337791317647
 11
45.78366448017363
 21
8.040330901589698
  0
LINE
  5
1E1
100
AcDbEntity
  8
0
  6
ByLayer
 62
  256
370
   -1
100
AcDbLine
 10
310.1521290426957
 20
61.46577853954375
 11
310.617994391902
 21
61.52717870846357
  0
LINE
  5
1E2
100
AcDbEntity
  8
0
  6
ByLayer
 62
  256
370
   -1
100
AcDbLine
 10
309.2516486178175
 20
64.8244943480272
 11
308.8788974751218
 21
64.5383875673428
  0
LINE
  5
1E3
100
AcDbEntity
  8
0
  6
ByLayer
 62
  256
370
   -1
100
AcDbLine
 10
238.0954969119252
 20
63.08907315606086
 11
238.3816036926102
 21
62.71632201336496
  0
LINE
  5
1E4
100
AcDbEntity
  8
0
  6
ByLayer
 62
  256
370
   -1
100
AcDbLine
 10
242.6499231830147
 20
2.999997986200469
 11
242.6499231830147
 21
9.599999903499793
  0
LINE
  5
1E5
100
AcDbEntity
  8
0
  6
ByLayer
 62
  256
370
   -1
100
AcDbLine
 10
266.4499130815183
 20
9.599999903499793
 11
275.6499107812177
 21
9.599999903499793
  0
LINE
  5
1E6
100
AcDbEntity
  8
0
  6
ByLayer
 62
  256
370
   -1
100
AcDbLine
 10
239.1037250511278
 20
153.2237893640617
 11
238.8176182704431
 21
153.5965405067574
  0
LINE
  5
1E7
100
AcDbEntity
  8
0
  6
ByLayer
 62
  256
370
   -1
100
AcDbLine
 10
285.1450777811543
 20
63.08951936386296
 11
285.3248363496758
 21
63.5236706754784
  0
LINE
  5
1E8
100
AcDbEntity
  8
0
  6
ByLayer
 62
  256
370
   -1
100
AcDbLine
 10
236.2720346988298
 20
153.5961761796125
 11
235.9860346270958
 21
153.2233431562597
  0
LINE
  5
1E9
100
AcDbEntity
  8
0
  6
ByLayer
 62
  256
370
   -1
100
AcDbLine
 10
238.3812393654649
 20
65.26190558497859
 11
238.0952392937306
 21
64.88907256162548
  0
LINE
  5
1EA
100
AcDbEntity
  8
0
  6
ByLayer
 62
  256
370
   -1
100
AcDbLine
 10
239.2537643183559
 20
70.54125403347507
 11
239.3150311342858
 21
71.00713693893579
  0
LINE
  5
1EB
100
AcDbEntity
  8
0
  6
ByLayer
 62
  256
370
   -1
100
AcDbLine
 10
238.4148083276024
 20
72.56585334185456
 11
237.9806570159864
 21
72.74561191037628
  0
LINE
  5
1EC
100
AcDbEntity
  8
0
  6
ByLayer
 62
  256
370
   -1
100
AcDbLine
 10
311.9518708300656
 20
63.26603556330326
 11
311.8904706611456
 21
63.73190091250956
  0
LINE
  5
1ED
100
AcDbEntity
  8
0
  6
ByLayer
 62
  256
370
   -1
100
AcDbLine
 10
238.0106339354749
 20
154.0622991470133
 11
237.5447510300143
 21
154.123565962943
  0
LINE
  5
1EE
100
AcDbEntity
  8
0
  6
ByLayer
 62
  256
370
   -1
100
AcDbLine
 10
311.4248453738802
 20
61.9931683228744
 11
311.7108454456143
 21
62.36600134622699
  0
LINE
  5
1EF
100
AcDbEntity
  8
0
  6
ByLayer
 62
  256
370
   -1
100
AcDbLine
 10
284.793050308839
 20
159.1866986882596
 11
284.4202172854862
 21
159.4726987599942
  0
LINE
  5
1F0
100
AcDbEntity
  8
0
  6
ByLayer
 62
  256
370
   -1
100
AcDbLine
 10
284.6451896151997
 20
147.396851777441
 11
284.535204137531
 21
147.2955013181633
  0
LINE
  5
1F1
100
AcDbEntity
  8
0
  6
ByLayer
 62
  256
370
   -1
100
AcDbLine
 10
286.2738033741761
 20
147.761624285564
 11
285.8079204687152
 21
147.8228911014939
  0
LINE
  5
1F2
100
AcDbEntity
  8
0
  6
ByLayer
 62
  256
370
   -1
100
AcDbLine
 10
239.188588027578
 20
62.25056337310906
 11
239.6544709330387
 21
62.18929655717949
  0
LINE
  5
1F3
100
AcDbEntity
  8
0
  6
ByLayer
 62
  256
370
   -1
100
AcDbLine
 10
241.2129297177629
 20
64.88951876942758
 11
240.9268229370783
 21
65.26226991212349
  0
LINE
  5
1F4
100
AcDbEntity
  8
0
  6
ByLayer
 62
  256
370
   -1
100
AcDbLine
 10
237.9476479421274
 20
157.5398202581312
 11
238.1275307758533
 21
157.1057204188489
  0
LINE
  5
1F5
100
AcDbEntity
  8
0
  6
ByLayer
 62
  256
370
   -1
100
AcDbLine
 10
284.8750085548767
 20
72.63709231570817
 11
284.7647646085941
 21
72.5524740893689
  0
LINE
  5
1F6
100
AcDbEntity
  8
0
  6
ByLayer
 62
  256
370
   -1
100
AcDbLine
 10
287.0482053109391
 20
69.80576629055548
 11
287.3342053826734
 21
70.17859931390825
  0
LINE
  5
1F7
100
AcDbEntity
  8
0
  6
ByLayer
 62
  256
370
   -1
100
AcDbLine
 10
283.5858461418461
 20
65.78929536830896
 11
283.1199807926399
 21
65.72789519938897
  0
LINE
  5
1F8
100
AcDbEntity
  8
0
  6
ByLayer
 62
  256
370
   -1
100
AcDbLine
 10
136.1999572470085
 20
9.599999903499793
 11
145.399953084109
 21
9.599999903499793
  0
LINE
  5
1F9
100
AcDbEntity
  8
0
  6
ByLayer
 62
  256
370
   -1
100
AcDbLine
 10
154.2602910233272
 20
5.399135376218283
 11
153.9739633337698
 21
5.025985866240148
  0
LINE
  5
1FA
100
AcDbEntity
  8
0
  6
ByLayer
 62
  256
370
   -1
100
AcDbLine
 10
152.6999512160097
 20
4.49827276843655
 11
152.2336304161802
 21
4.559665066411071
  0
LINE
  5
1FB
100
AcDbEntity
  8
0
  6
ByLayer
 62
  256
370
   -1
100
AcDbLine
 10
235.8062760585739
 20
152.7891918446442
 11
235.7450092426446
 21
152.3233089391835
  0
LINE
  5
1FC
100
AcDbEntity
  8
0
  6
ByLayer
 62
  256
370
   -1
100
AcDbLine
 10
284.0517290473064
 20
65.7280285523795
 11
283.5858461418461
 21
65.78929536830896
  0
LINE
  5
1FD
100
AcDbEntity
  8
0
  6
ByLayer
 62
  256
370
   -1
100
AcDbLine
 10
238.8179825975882
 20
151.0509569351443
 11
239.1039826693224
 21
151.4237899584969
  0
LINE
  5
1FE
100
AcDbEntity
  8
0
  6
ByLayer
 62
  256
370
   -1
100
AcDbLine
 10
44.44826006443901
 20
6.299997984000356
 11
44.50965236241342
 21
6.766318783829888
  0
LINE
  5
1FF
100
AcDbEntity
  8
0
  6
ByLayer
 62
  256
370
   -1
100
AcDbLine
 10
47.52399739776303
 20
7.57401010176045
 11
47.81032508732022
 21
7.200860591782259
  0
LINE
  5
200
100
AcDbEntity
  8
0
  6
ByLayer
 62
  256
370
   -1
100
AcDbLine
 10
239.1880903474428
 20
65.72789519938897
 11
238.7539905081608
 21
65.548012365663
  0
LINE
  5
201
100
AcDbEntity
  8
0
  6
ByLayer
 62
  256
370
   -1
100
AcDbLine
 10
153.1662720158391
 20
8.040330901589698
 11
153.6008138237917
 21
7.860337791317647
  0
LINE
  5
202
100
AcDbEntity
  8
0
  6
ByLayer
 62
  256
370
   -1
100
AcDbLine
 10
237.5452662664039
 20
150.5235671518138
 11
238.0111316156101
 21
150.5849673207336
  0
LINE
  5
203
100
AcDbEntity
  8
0
  6
ByLayer
 62
  256
370
   -1
100
AcDbLine
 10
241.2131873359576
 20
63.08951936386296
 11
241.3929459044792
 21
63.5236706754784
  0
LINE
  5
204
100
AcDbEntity
  8
0
  6
ByLayer
 62
  256
370
   -1
100
AcDbLine
 10
282.3134941378065
 20
62.71632201336496
 11
282.6863271611593
 21
62.43032194163089
  0
LINE
  5
205
100
AcDbEntity
  8
0
  6
ByLayer
 62
  256
370
   -1
100
AcDbLine
 10
216.9214128125491
 20
159.6447901404387
 11
216.7415299788227
 21
160.0788899797214
  0
LINE
  5
206
100
AcDbEntity
  8
0
  6
ByLayer
 62
  256
370
   -1
100
AcDbLine
 10
240.9592211281512
 20
156.7333336032981
 11
241.2452211998855
 21
157.106166626651
  0
LINE
  5
207
100
AcDbEntity
  8
0
  6
ByLayer
 62
  256
370
   -1
100
AcDbLine
 10
284.8754547626787
 20
69.51940189167635
 11
285.3096060742943
 21
69.33964332315435
  0
LINE
  5
208
100
AcDbEntity
  8
0
  6
ByLayer
 62
  256
370
   -1
100
AcDbLine
 10
235.9862922452904
 20
151.4233437506948
 11
236.2723990259751
 21
151.0505926079992
  0
LINE
  5
209
100
AcDbEntity
  8
0
  6
ByLayer
 62
  256
370
   -1
100
AcDbLine
 10
237.0793833609432
 20
150.5848339677429
 11
237.5452662664039
 21
150.5235671518138
  0
LINE
  5
20A
100
AcDbEntity
  8
0
  6
ByLayer
 62
  256
370
   -1
100
AcDbLine
 10
239.2836078848538
 20
152.7896895247795
 11
239.1037250511278
 21
153.2237893640617
  0
LINE
  5
20B
100
AcDbEntity
  8
0
  6
ByLayer
 62
  256
370
   -1
100
AcDbLine
 10
239.3450080537739
 20
152.323824175573
 11
239.2836078848538
 21
152.7896895247795
  0
LINE
  5
20C
100
AcDbEntity
  8
0
  6
ByLayer
 62
  256
370
   -1
100
AcDbLine
 10
260.9516423675801
 20
6.299997984000356
 11
260.8902500696057
 21
5.833677184170881
  0
LINE
  5
20D
100
AcDbEntity
  8
0
  6
ByLayer
 62
  256
370
   -1
100
AcDbLine
 10
275.6499107812177
 20
2.999997986200469
 11
266.4499130815183
 21
2.999997986200583
  0
LINE
  5
20E
100
AcDbEntity
  8
0
  6
ByLayer
 62
  256
370
   -1
100
AcDbLine
 10
284.4858803589219
 20
65.54826998385767
 11
284.0517290473064
 21
65.7280285523795
  0
LINE
  5
20F
100
AcDbEntity
  8
0
  6
ByLayer
 62
  256
370
   -1
100
AcDbLine
 10
282.6863271611593
 20
62.43032194163089
 11
283.1204784727751
 21
62.25056337310906
  0
LINE
  5
210
100
AcDbEntity
  8
0
  6
ByLayer
 62
  256
370
   -1
100
AcDbLine
 10
260.8902500696059
 20
6.766318783829774
 11
260.9516423675801
 21
6.299997984000356
  0
LINE
  5
211
100
AcDbEntity
  8
0
  6
ByLayer
 62
  256
370
   -1
100
AcDbLine
 10
238.7544367159629
 20
62.43032194163089
 11
239.188588027578
 21
62.25056337310906
  0
LINE
  5
212
100
AcDbEntity
  8
0
  6
ByLayer
 62
  256
370
   -1
100
AcDbLine
 10
236.2424221064867
 20
69.73390537136197
 11
236.6152551298393
 21
69.44790529962768
  0
LINE
  5
213
100
AcDbEntity
  8
0
  6
ByLayer
 62
  256
370
   -1
100
AcDbLine
 10
238.4452314548922
 20
150.7648501544596
 11
238.5960016008918
 21
150.9065794976834
  0
LINE
  5
214
100
AcDbEntity
  8
0
  6
ByLayer
 62
  256
370
   -1
100
AcDbLine
 10
214.283036977023
 20
157.6196931519247
 11
214.7171882886385
 21
157.4399345834029
  0
LINE
  5
215
100
AcDbEntity
  8
0
  6
ByLayer
 62
  256
370
   -1
100
AcDbLine
 10
236.7945325083551
 20
72.65562894065749
 11
236.6148089220374
 21
72.56559572365978
  0
LINE
  5
216
100
AcDbEntity
  8
0
  6
ByLayer
 62
  256
370
   -1
100
AcDbLine
 10
257.5895773446989
 20
5.399135376218283
 11
257.4095842344268
 21
5.833677184170995
  0
LINE
  5
217
100
AcDbEntity
  8
0
  6
ByLayer
 62
  256
370
   -1
100
AcDbLine
 10
257.8759050342562
 20
5.025985866240376
 11
257.5895773446989
 21
5.399135376218283
  0
LINE
  5
218
100
AcDbEntity
  8
0
  6
ByLayer
 62
  256
370
   -1
100
AcDbLine
 10
238.4152545354044
 20
69.44816291782229
 11
238.7880056780998
 21
69.73426969850686
  0
LINE
  5
219
100
AcDbEntity
  8
0
  6
ByLayer
 62
  256
370
   -1
100
AcDbLine
 10
213.444214339259
 20
158.7125442056369
 11
213.6240971729857
 21
158.2784443663544
  0
LINE
  5
21A
100
AcDbEntity
  8
0
  6
ByLayer
 62
  256
370
   -1
100
AcDbLine
 10
237.5147741105261
 20
72.80687872630585
 11
237.0489087613199
 21
72.74547855738575
  0
LINE
  5
21B
100
AcDbEntity
  8
0
  6
ByLayer
 62
  256
370
   -1
100
AcDbLine
 10
237.0489087613199
 20
72.74547855738575
 11
236.8495928788346
 21
72.66288579299476
  0
LINE
  5
21C
100
AcDbEntity
  8
0
  6
ByLayer
 62
  256
370
   -1
100
AcDbLine
 10
236.6148089220374
 20
72.56559572365978
 11
236.2420577793418
 21
72.27948894297515
  0
LINE
  5
21D
100
AcDbEntity
  8
0
  6
ByLayer
 62
  256
370
   -1
100
AcDbLine
 10
284.0366321249152
 20
70.61225294538866
 11
284.2165149586416
 21
70.17815310610609
  0
LINE
  5
21E
100
AcDbEntity
  8
0
  6
ByLayer
 62
  256
370
   -1
100
AcDbLine
 10
258.683596352187
 20
8.040330901589698
 11
259.1499171520162
 21
8.101723199564162
  0
LINE
  5
21F
100
AcDbEntity
  8
0
  6
ByLayer
 62
  256
370
   -1
100
AcDbLine
 10
242.6499231830147
 20
9.599999903499793
 11
251.8499190201152
 21
9.599999903499793
  0
LINE
  5
220
100
AcDbEntity
  8
0
  6
ByLayer
 62
  256
370
   -1
100
AcDbLine
 10
45.78366448017363
 20
8.040330901589698
 11
46.24998528000299
 21
8.101723199564162
  0
LINE
  5
221
100
AcDbEntity
  8
0
  6
ByLayer
 62
  256
370
   -1
100
AcDbLine
 10
62.7499789092044
 20
9.599999903499793
 11
62.7499789092044
 21
2.999997986200469
  0
LINE
  5
222
100
AcDbEntity
  8
0
  6
ByLayer
 62
  256
370
   -1
100
AcDbLine
 10
47.52399739776303
 20
5.025985866240148
 11
47.15084788778478
 21
4.739658176682951
  0
LINE
  5
223
100
AcDbEntity
  8
0
  6
ByLayer
 62
  256
370
   -1
100
AcDbLine
 10
29.74999131100151
 20
9.599999903499793
 11
38.94998714810208
 21
9.599999903499793
  0
LINE
  5
224
100
AcDbEntity
  8
0
  6
ByLayer
 62
  256
370
   -1
100
AcDbLine
 10
38.94998714810208
 20
9.599999903499793
 11
38.94998714810163
 21
2.999997986200583
  0
LINE
  5
225
100
AcDbEntity
  8
0
  6
ByLayer
 62
  256
370
   -1
100
AcDbLine
 10
45.34912267222109
 20
4.739658176682951
 11
44.97597316224289
 21
5.025985866240376
  0
LINE
  5
226
100
AcDbEntity
  8
0
  6
ByLayer
 62
  256
370
   -1
100
AcDbLine
 10
213.6001048457332
 20
62.32198034476636
 11
213.8862116264179
 21
61.94922920207068
  0
LINE
  5
227
100
AcDbEntity
  8
0
  6
ByLayer
 62
  256
370
   -1
100
AcDbLine
 10
285.3247029966855
 20
64.4554189301453
 11
285.1448201629594
 21
64.88951876942758
  0
LINE
  5
228
100
AcDbEntity
  8
0
  6
ByLayer
 62
  256
370
   -1
100
AcDbLine
 10
241.2452211998855
 20
157.106166626651
 11
241.4249797684073
 21
157.5403179382664
  0
LINE
  5
229
100
AcDbEntity
  8
0
  6
ByLayer
 62
  256
370
   -1
100
AcDbLine
 10
53.54998120950478
 20
2.999997986200583
 11
53.54998120950449
 21
9.599999903499793
  0
LINE
  5
22A
100
AcDbEntity
  8
0
  6
ByLayer
 62
  256
370
   -1
100
AcDbLine
 10
62.7499789092044
 20
2.999997986200469
 11
53.54998120950478
 21
2.999997986200583
  0
LINE
  5
22B
100
AcDbEntity
  8
0
  6
ByLayer
 62
  256
370
   -1
100
AcDbLine
 10
257.4095842344268
 20
5.833677184170995
 11
257.3481919364522
 21
6.299997984000356
  0
LINE
  5
22C
100
AcDbEntity
  8
0
  6
ByLayer
 62
  256
370
   -1
100
AcDbLine
 10
259.1499171520162
 20
4.49827276843655
 11
258.6835963521868
 21
4.559665066411071
  0
LINE
  5
22D
100
AcDbEntity
  8
0
  6
ByLayer
 62
  256
370
   -1
100
AcDbLine
 10
241.4862465843365
 20
158.0062008437271
 11
241.4248464154167
 21
158.4720661929333
  0
LINE
  5
22E
100
AcDbEntity
  8
0
  6
ByLayer
 62
  256
370
   -1
100
AcDbLine
 10
282.3131298106616
 20
65.26190558497859
 11
282.0271297389276
 21
64.88907256162548
  0
LINE
  5
22F
100
AcDbEntity
  8
0
  6
ByLayer
 62
  256
370
   -1
100
AcDbLine
 10
38.94998714810163
 20
2.999997986200583
 11
29.74999131100151
 21
2.999997986200469
  0
LINE
  5
230
100
AcDbEntity
  8
0
  6
ByLayer
 62
  256
370
   -1
100
AcDbLine
 10
258.2490545442344
 20
4.739658176682951
 11
257.8759050342562
 21
5.025985866240376
  0
LINE
  5
231
100
AcDbEntity
  8
0
  6
ByLayer
 62
  256
370
   -1
100
AcDbLine
 10
258.6835963521868
 20
4.559665066411071
 11
258.2490545442344
 21
4.739658176682951
  0
LINE
  5
232
100
AcDbEntity
  8
0
  6
ByLayer
 62
  256
370
   -1
100
AcDbLine
 10
239.2201242113711
 20
159.744542462177
 11
238.7860243720887
 21
159.5646596284511
  0
LINE
  5
233
100
AcDbEntity
  8
0
  6
ByLayer
 62
  256
370
   -1
100
AcDbLine
 10
216.9588206542168
 20
63.22246076964456
 11
216.8974204852966
 21
63.6883261188508
  0
LINE
  5
234
100
AcDbEntity
  8
0
  6
ByLayer
 62
  256
370
   -1
100
AcDbLine
 10
215.624944216053
 20
61.4836039148052
 11
216.0590440553351
 21
61.66348674853106
  0
LINE
  5
235
100
AcDbEntity
  8
0
  6
ByLayer
 62
  256
370
   -1
100
AcDbLine
 10
159.9999471455117
 20
9.599999903499793
 11
169.1999448452113
 21
9.599999903499793
  0
LINE
  5
236
100
AcDbEntity
  8
0
  6
ByLayer
 62
  256
370
   -1
100
AcDbLine
 10
169.1999448452115
 20
2.999997986200469
 11
159.9999471455117
 21
2.999997986200583
  0
LINE
  5
237
100
AcDbEntity
  8
0
  6
ByLayer
 62
  256
370
   -1
100
AcDbLine
 10
145.399953084109
 20
9.599999903499793
 11
145.3999530841086
 21
2.999997986200583
  0
LINE
  5
238
100
AcDbEntity
  8
0
  6
ByLayer
 62
  256
370
   -1
100
AcDbLine
 10
44.97597316224272
 20
7.57401010176045
 11
45.34912267222091
 21
7.860337791317647
  0
LINE
  5
239
100
AcDbEntity
  8
0
  6
ByLayer
 62
  256
370
   -1
100
AcDbLine
 10
213.9102039536698
 20
157.9056932236589
 11
214.283036977023
 21
157.6196931519247
  0
LINE
  5
23A
100
AcDbEntity
  8
0
  6
ByLayer
 62
  256
370
   -1
100
AcDbLine
 10
213.6240971729857
 20
158.2784443663544
 11
213.9102039536698
 21
157.9056932236589
  0
LINE
  5
23B
100
AcDbEntity
  8
0
  6
ByLayer
 62
  256
370
   -1
100
AcDbLine
 10
282.0273873571222
 20
63.08907315606086
 11
282.3134941378065
 21
62.71632201336496
  0
LINE
  5
23C
100
AcDbEntity
  8
0
  6
ByLayer
 62
  256
370
   -1
100
AcDbLine
 10
284.8590777094197
 20
62.71668634050997
 11
285.1450777811543
 21
63.08951936386296
  0
LINE
  5
23D
100
AcDbEntity
  8
0
  6
ByLayer
 62
  256
370
   -1
100
AcDbLine
 10
216.8974204852966
 20
63.6883261188508
 11
216.7175376515708
 21
64.12242595813325
  0
LINE
  5
23E
100
AcDbEntity
  8
0
  6
ByLayer
 62
  256
370
   -1
100
AcDbLine
 10
309.6857484570999
 20
65.0043771817534
 11
309.2516486178175
 21
64.8244943480272
  0
LINE
  5
23F
100
AcDbEntity
  8
0
  6
ByLayer
 62
  256
370
   -1
100
AcDbLine
 10
310.1516138063063
 20
65.06577735067339
 11
309.6857484570999
 21
65.0043771817534
  0
LINE
  5
240
100
AcDbEntity
  8
0
  6
ByLayer
 62
  256
370
   -1
100
AcDbLine
 10
215.1585636304573
 20
65.02220255701468
 11
214.692698281251
 21
64.96080238809469
  0
LINE
  5
241
100
AcDbEntity
  8
0
  6
ByLayer
 62
  256
370
   -1
100
AcDbLine
 10
151.7990886082276
 20
7.860337791317647
 11
152.2336304161802
 21
8.040330901589698
  0
LINE
  5
242
100
AcDbEntity
  8
0
  6
ByLayer
 62
  256
370
   -1
100
AcDbLine
 10
241.2449635816907
 20
158.9061660322156
 11
240.9588568010062
 21
159.2789171749113
  0
LINE
  5
243
100
AcDbEntity
  8
0
  6
ByLayer
 62
  256
370
   -1
100
AcDbLine
 10
216.0830363825878
 20
157.6199507701194
 11
216.4557875252832
 21
157.906057550804
  0
LINE
  5
244
100
AcDbEntity
  8
0
  6
ByLayer
 62
  256
370
   -1
100
AcDbLine
 10
283.1199807926399
 20
65.72789519938897
 11
282.685880953357
 21
65.548012365663
  0
LINE
  5
245
100
AcDbEntity
  8
0
  6
ByLayer
 62
  256
370
   -1
100
AcDbLine
 10
239.0737481316393
 20
71.90710212742437
 11
238.7876413509551
 21
72.2798532701201
  0
LINE
  5
246
100
AcDbEntity
  8
0
  6
ByLayer
 62
  256
370
   -1
100
AcDbLine
 10
237.0788856808082
 20
154.0621657940232
 11
236.6447858415257
 21
153.8822829602969
  0
LINE
  5
247
100
AcDbEntity
  8
0
  6
ByLayer
 62
  256
370
   -1
100
AcDbLine
 10
240.1203362822449
 20
62.25069672609925
 11
240.5544361215276
 21
62.43057955982545
  0
LINE
  5
248
100
AcDbEntity
  8
0
  6
ByLayer
 62
  256
370
   -1
100
AcDbLine
 10
240.5860237776532
 20
159.5649172466457
 11
240.151872466038
 21
159.7446758151676
  0
LINE
  5
249
100
AcDbEntity
  8
0
  6
ByLayer
 62
  256
370
   -1
100
AcDbLine
 10
286.6750079604416
 20
72.63734993390295
 11
286.2408566488256
 21
72.81710850242479
  0
LINE
  5
24A
100
AcDbEntity
  8
0
  6
ByLayer
 62
  256
370
   -1
100
AcDbLine
 10
283.054815399339
 20
156.1749921492455
 11
283.5206983047996
 21
156.113725333316
  0
LINE
  5
24B
100
AcDbEntity
  8
0
  6
ByLayer
 62
  256
370
   -1
100
AcDbLine
 10
281.9617242836863
 20
157.0135019321974
 11
282.2478310643706
 21
156.6407507895016
  0
LINE
  5
24C
100
AcDbEntity
  8
0
  6
ByLayer
 62
  256
370
   -1
100
AcDbLine
 10
46.24998528000282
 20
4.49827276843655
 11
45.78366448017363
 21
4.559665066411071
  0
LINE
  5
24D
100
AcDbEntity
  8
0
  6
ByLayer
 62
  256
370
   -1
100
AcDbLine
 10
46.71630607983218
 20
8.040330901589698
 11
47.15084788778472
 21
7.860337791317647
  0
LINE
  5
24E
100
AcDbEntity
  8
0
  6
ByLayer
 62
  256
370
   -1
100
AcDbLine
 10
47.81032508732022
 20
7.200860591782259
 11
47.99031819759239
 21
6.766318783829774
  0
LINE
  5
24F
100
AcDbEntity
  8
0
  6
ByLayer
 62
  256
370
   -1
100
AcDbLine
 10
44.50965236241342
 20
5.833677184170995
 11
44.44826006443901
 21
6.299997984000356
  0
LINE
  5
250
100
AcDbEntity
  8
0
  6
ByLayer
 62
  256
370
   -1
100
AcDbLine
 10
257.3481919364522
 20
6.299997984000356
 11
257.4095842344266
 21
6.766318783829888
  0
LINE
  5
251
100
AcDbEntity
  8
0
  6
ByLayer
 62
  256
370
   -1
100
AcDbLine
 10
285.3204400921699
 20
157.9139823570753
 11
285.2590399232498
 21
158.3798477062817
  0
LINE
  5
252
100
AcDbEntity
  8
0
  6
ByLayer
 62
  256
370
   -1
100
AcDbLine
 10
287.3671521080236
 20
145.1231150970477
 11
287.5469106765454
 21
145.5572664086633
  0
LINE
  5
253
100
AcDbEntity
  8
0
  6
ByLayer
 62
  256
370
   -1
100
AcDbLine
 10
283.5201830684101
 20
159.7137241444455
 11
283.0543177192041
 21
159.6523239755256
  0
LINE
  5
254
100
AcDbEntity
  8
0
  6
ByLayer
 62
  256
370
   -1
100
AcDbLine
 10
285.0791570895237
 20
158.8139475455643
 11
284.793050308839
 21
159.1866986882596
  0
LINE
  5
255
100
AcDbEntity
  8
0
  6
ByLayer
 62
  256
370
   -1
100
AcDbLine
 10
287.3668944898287
 20
146.9231145026128
 11
287.080787709144
 21
147.2958656453081
  0
LINE
  5
256
100
AcDbEntity
  8
0
  6
ByLayer
 62
  256
370
   -1
100
AcDbLine
 10
284.4206634932883
 20
156.3550083359623
 11
284.7934146359843
 21
156.6411151166465
  0
LINE
  5
257
100
AcDbEntity
  8
0
  6
ByLayer
 62
  256
370
   -1
100
AcDbLine
 10
285.8084357051047
 20
144.2228922903642
 11
286.2743010543106
 21
144.2842924592844
  0
LINE
  5
258
100
AcDbEntity
  8
0
  6
ByLayer
 62
  256
370
   -1
100
AcDbLine
 10
285.2591732762401
 20
157.448099451615
 11
285.3204400921699
 21
157.9139823570753
  0
LINE
  5
259
100
AcDbEntity
  8
0
  6
ByLayer
 62
  256
370
   -1
100
AcDbLine
 10
286.8183863712619
 20
144.5655257522882
 11
287.0811520362889
 21
144.7502820736949
  0
LINE
  5
25A
100
AcDbEntity
  8
0
  6
ByLayer
 62
  256
370
   -1
100
AcDbLine
 10
283.9865636540059
 20
156.1751255022357
 11
284.4206634932883
 21
156.3550083359623
  0
LINE
  5
25B
100
AcDbEntity
  8
0
  6
ByLayer
 62
  256
370
   -1
100
AcDbLine
 10
285.0794147077183
 20
157.0139481399993
 11
285.2591732762401
 21
157.448099451615
  0
LINE
  5
25C
100
AcDbEntity
  8
0
  6
ByLayer
 62
  256
370
   -1
100
AcDbLine
 10
287.080787709144
 20
147.2958656453081
 11
286.7079546857912
 21
147.5818657170424
  0
LINE
  5
25D
100
AcDbEntity
  8
0
  6
ByLayer
 62
  256
370
   -1
100
AcDbLine
 10
286.7079546857912
 20
147.5818657170424
 11
286.2738033741761
 21
147.761624285564
  0
LINE
  5
25E
100
AcDbEntity
  8
0
  6
ByLayer
 62
  256
370
   -1
100
AcDbLine
 10
284.0081786813453
 20
146.0226340777344
 11
284.0695788502652
 21
145.5567687285281
  0
LINE
  5
25F
100
AcDbEntity
  8
0
  6
ByLayer
 62
  256
370
   -1
100
AcDbLine
 10
284.5355684646757
 20
144.74991774655
 11
284.908401488029
 21
144.4639176748157
  0
LINE
  5
260
100
AcDbEntity
  8
0
  6
ByLayer
 62
  256
370
   -1
100
AcDbLine
 10
281.9614666654916
 20
158.8135013377623
 11
281.7817080969699
 21
158.3793500261465
  0
LINE
  5
261
100
AcDbEntity
  8
0
  6
ByLayer
 62
  256
370
   -1
100
AcDbLine
 10
285.3420551195089
 20
147.7614909325741
 11
284.9079552802267
 21
147.5816080988478
  0
LINE
  5
262
100
AcDbEntity
  8
0
  6
ByLayer
 62
  256
370
   -1
100
AcDbLine
 10
284.9079552802267
 20
147.5816080988478
 11
284.6931282014109
 21
147.4167166286852
  0
LINE
  5
263
100
AcDbEntity
  8
0
  6
ByLayer
 62
  256
370
   -1
100
AcDbLine
 10
260.7102569593338
 20
7.200860591782259
 11
260.8902500696059
 21
6.766318783829774
  0
LINE
  5
264
100
AcDbEntity
  8
0
  6
ByLayer
 62
  256
370
   -1
100
AcDbLine
 10
260.4239292697765
 20
7.57401010176045
 11
260.7102569593338
 21
7.200860591782259
  0
LINE
  5
265
100
AcDbEntity
  8
0
  6
ByLayer
 62
  256
370
   -1
100
AcDbLine
 10
260.0507797597978
 20
7.860337791317647
 11
260.4239292697765
 21
7.57401010176045
  0
LINE
  5
266
100
AcDbEntity
  8
0
  6
ByLayer
 62
  256
370
   -1
100
AcDbLine
 10
284.69015259025
 20
72.52155626799419
 11
284.5022574121814
 21
72.35098553502388
  0
LINE
  5
267
100
AcDbEntity
  8
0
  6
ByLayer
 62
  256
370
   -1
100
AcDbLine
 10
239.0740057498343
 20
70.10710272185986
 11
239.2537643183559
 21
70.54125403347507
  0
LINE
  5
268
100
AcDbEntity
  8
0
  6
ByLayer
 62
  256
370
   -1
100
AcDbLine
 10
235.9560577076076
 20
71.90665591962238
 11
235.7762991390857
 21
71.47250460800689
  0
LINE
  5
269
100
AcDbEntity
  8
0
  6
ByLayer
 62
  256
370
   -1
100
AcDbLine
 10
235.7762991390857
 20
71.47250460800689
 11
235.7150323231558
 21
71.0066217025464
  0
LINE
  5
26A
100
AcDbEntity
  8
0
  6
ByLayer
 62
  256
370
   -1
100
AcDbLine
 10
235.7150323231558
 20
71.0066217025464
 11
235.776432492076
 21
70.5407563533401
  0
LINE
  5
26B
100
AcDbEntity
  8
0
  6
ByLayer
 62
  256
370
   -1
100
AcDbLine
 10
151.1396114086925
 20
7.200860591782089
 11
151.4259390982495
 21
7.57401010176045
  0
LINE
  5
26C
100
AcDbEntity
  8
0
  6
ByLayer
 62
  256
370
   -1
100
AcDbLine
 10
237.9156140781994
 20
63.52317299534326
 11
238.0954969119252
 21
63.08907315606086
  0
LINE
  5
26D
100
AcDbEntity
  8
0
  6
ByLayer
 62
  256
370
   -1
100
AcDbLine
 10
47.81032508732028
 20
5.399135376218283
 11
47.52399739776303
 21
5.025985866240148
  0
LINE
  5
26E
100
AcDbEntity
  8
0
  6
ByLayer
 62
  256
370
   -1
100
AcDbLine
 10
259.1499171520162
 20
8.101723199564162
 11
259.6162379518456
 21
8.040330901589698
  0
LINE
  5
26F
100
AcDbEntity
  8
0
  6
ByLayer
 62
  256
370
   -1
100
AcDbLine
 10
308.5928974033873
 20
64.16555454398997
 11
308.4131388348657
 21
63.73140323237425
  0
LINE
  5
270
100
AcDbEntity
  8
0
  6
ByLayer
 62
  256
370
   -1
100
AcDbLine
 10
310.617994391902
 20
61.52717870846357
 11
311.0520942311845
 21
61.70706154218999
  0
LINE
  5
271
100
AcDbEntity
  8
0
  6
ByLayer
 62
  256
370
   -1
100
AcDbLine
 10
235.8064094115642
 20
151.8574435899775
 11
235.9862922452904
 21
151.4233437506948
  0
LINE
  5
272
100
AcDbEntity
  8
0
  6
ByLayer
 62
  256
370
   -1
100
AcDbLine
 10
214.2590446497708
 20
61.66322913033645
 11
214.6931959613859
 21
61.48347056181478
  0
LINE
  5
273
100
AcDbEntity
  8
0
  6
ByLayer
 62
  256
370
   -1
100
AcDbLine
 10
215.1825559577097
 20
160.9786665786027
 11
214.7166906085034
 21
160.9172664096828
  0
LINE
  5
274
100
AcDbEntity
  8
0
  6
ByLayer
 62
  256
370
   -1
100
AcDbLine
 10
216.921546165539
 20
158.7130418857722
 11
216.982812981469
 21
159.1789247912329
  0
LINE
  5
275
100
AcDbEntity
  8
0
  6
ByLayer
 62
  256
370
   -1
100
AcDbLine
 10
216.4554231981383
 20
160.4516411224171
 11
216.0825901747857
 21
160.7376411941512
  0
LINE
  5
276
100
AcDbEntity
  8
0
  6
ByLayer
 62
  256
370
   -1
100
AcDbLine
 10
287.3339477644786
 20
71.97859871947315
 11
287.0478409837943
 21
72.35134986216866
  0
LINE
  5
277
100
AcDbEntity
  8
0
  6
ByLayer
 62
  256
370
   -1
100
AcDbLine
 10
283.9752319559951
 20
71.0781182945949
 11
284.0366321249152
 21
70.61225294538866
  0
LINE
  5
278
100
AcDbEntity
  8
0
  6
ByLayer
 62
  256
370
   -1
100
AcDbLine
 10
284.036498771925
 20
71.54400120005539
 11
283.9752319559951
 21
71.0781182945949
  0
LINE
  5
279
100
AcDbEntity
  8
0
  6
ByLayer
 62
  256
370
   -1
100
AcDbLine
 10
284.5022574121814
 20
72.35098553502388
 11
284.2162573404468
 21
71.97815251167106
  0
LINE
  5
27A
100
AcDbEntity
  8
0
  6
ByLayer
 62
  256
370
   -1
100
AcDbLine
 10
284.7647646085941
 20
72.5524740893689
 11
284.69015259025
 21
72.52155626799419
  0
LINE
  5
27B
100
AcDbEntity
  8
0
  6
ByLayer
 62
  256
370
   -1
100
AcDbLine
 10
282.685880953357
 20
65.548012365663
 11
282.3131298106616
 21
65.26190558497859
  0
LINE
  5
27C
100
AcDbEntity
  8
0
  6
ByLayer
 62
  256
370
   -1
100
AcDbLine
 10
285.3248363496758
 20
63.5236706754784
 11
285.3861031656053
 21
63.98955358093895
  0
LINE
  5
27D
100
AcDbEntity
  8
0
  6
ByLayer
 62
  256
370
   -1
100
AcDbLine
 10
213.8858472992727
 20
64.49481277368415
 11
213.5998472275382
 21
64.12197975033115
  0
LINE
  5
27E
100
AcDbEntity
  8
0
  6
ByLayer
 62
  256
370
   -1
100
AcDbLine
 10
216.058597847533
 20
64.78117717256339
 11
215.6244465359176
 21
64.96093574108505
  0
LINE
  5
27F
100
AcDbEntity
  8
0
  6
ByLayer
 62
  256
370
   -1
100
AcDbLine
 10
150.8982260004459
 20
6.299997984000356
 11
150.9596182984202
 21
6.766318783829888
  0
LINE
  5
280
100
AcDbEntity
  8
0
  6
ByLayer
 62
  256
370
   -1
100
AcDbLine
 10
150.9596182984202
 20
6.766318783829888
 11
151.1396114086925
 21
7.200860591782089
  0
LINE
  5
281
100
AcDbEntity
  8
0
  6
ByLayer
 62
  256
370
   -1
100
AcDbLine
 10
151.4259390982495
 20
7.57401010176045
 11
151.7990886082276
 21
7.860337791317647
  0
LINE
  5
282
100
AcDbEntity
  8
0
  6
ByLayer
 62
  256
370
   -1
100
AcDbLine
 10
152.6999512160099
 20
8.101723199564162
 11
153.1662720158391
 21
8.040330901589698
  0
LINE
  5
283
100
AcDbEntity
  8
0
  6
ByLayer
 62
  256
370
   -1
100
AcDbLine
 10
154.4402841335991
 20
6.766318783829774
 11
154.5016764315736
 21
6.299997984000356
  0
LINE
  5
284
100
AcDbEntity
  8
0
  6
ByLayer
 62
  256
370
   -1
100
AcDbLine
 10
154.5016764315736
 20
6.299997984000356
 11
154.4402841335991
 21
5.833677184170881
  0
LINE
  5
285
100
AcDbEntity
  8
0
  6
ByLayer
 62
  256
370
   -1
100
AcDbLine
 10
154.4402841335991
 20
5.833677184170881
 11
154.2602910233272
 21
5.399135376218283
  0
LINE
  5
286
100
AcDbEntity
  8
0
  6
ByLayer
 62
  256
370
   -1
100
AcDbLine
 10
153.9739633337698
 20
5.025985866240148
 11
153.6008138237918
 21
4.739658176682951
  0
LINE
  5
287
100
AcDbEntity
  8
0
  6
ByLayer
 62
  256
370
   -1
100
AcDbLine
 10
153.6008138237918
 20
4.739658176682951
 11
153.1662720158391
 21
4.559665066411071
  0
LINE
  5
288
100
AcDbEntity
  8
0
  6
ByLayer
 62
  256
370
   -1
100
AcDbLine
 10
153.1662720158391
 20
4.559665066411071
 11
152.6999512160097
 21
4.49827276843655
  0
LINE
  5
289
100
AcDbEntity
  8
0
  6
ByLayer
 62
  256
370
   -1
100
AcDbLine
 10
152.2336304161802
 20
4.559665066411071
 11
151.799088608228
 21
4.739658176682951
  0
LINE
  5
28A
100
AcDbEntity
  8
0
  6
ByLayer
 62
  256
370
   -1
100
AcDbLine
 10
151.799088608228
 20
4.739658176682951
 11
151.4259390982496
 21
5.025985866240376
  0
LINE
  5
28B
100
AcDbEntity
  8
0
  6
ByLayer
 62
  256
370
   -1
100
AcDbLine
 10
151.4259390982496
 20
5.025985866240376
 11
151.1396114086925
 21
5.399135376218283
  0
LINE
  5
28C
100
AcDbEntity
  8
0
  6
ByLayer
 62
  256
370
   -1
100
AcDbLine
 10
241.4248464154167
 20
158.4720661929333
 11
241.2449635816907
 21
158.9061660322156
  0
LINE
  5
28D
100
AcDbEntity
  8
0
  6
ByLayer
 62
  256
370
   -1
100
AcDbLine
 10
241.3928125514886
 20
64.4554189301453
 11
241.2129297177629
 21
64.88951876942758
  0
LINE
  5
28E
100
AcDbEntity
  8
0
  6
ByLayer
 62
  256
370
   -1
100
AcDbLine
 10
240.5544361215276
 20
62.43057955982545
 11
240.9271872642232
 21
62.71668634050997
  0
LINE
  5
28F
100
AcDbEntity
  8
0
  6
ByLayer
 62
  256
370
   -1
100
AcDbLine
 10
238.0952392937306
 20
64.88907256162548
 11
237.915480725209
 21
64.45492125001016
  0
LINE
  5
290
100
AcDbEntity
  8
0
  6
ByLayer
 62
  256
370
   -1
100
AcDbLine
 10
240.5539899137253
 20
65.54826998385767
 11
240.11983860211
 21
65.7280285523795
  0
LINE
  5
291
100
AcDbEntity
  8
0
  6
ByLayer
 62
  256
370
   -1
100
AcDbLine
 10
236.8495928788346
 20
72.66288579299476
 11
236.7945325083551
 21
72.65562894065749
  0
LINE
  5
292
100
AcDbEntity
  8
0
  6
ByLayer
 62
  256
370
   -1
100
AcDbLine
 10
238.1608782824397
 20
69.35831330109409
 11
238.4152545354044
 21
69.44816291782229
  0
LINE
  5
293
100
AcDbEntity
  8
0
  6
ByLayer
 62
  256
370
   -1
100
AcDbLine
 10
311.0520942311845
 20
61.70706154218999
 11
311.4248453738802
 21
61.9931683228744
  0
LINE
  5
294
100
AcDbEntity
  8
0
  6
ByLayer
 62
  256
370
   -1
100
AcDbLine
 10
309.2520948256195
 20
61.70680392399527
 11
309.6862461372351
 21
61.52704535547326
  0
LINE
  5
295
100
AcDbEntity
  8
0
  6
ByLayer
 62
  256
370
   -1
100
AcDbLine
 10
308.8792618022669
 20
61.99280399572956
 11
309.2520948256195
 21
61.70680392399527
  0
LINE
  5
296
100
AcDbEntity
  8
0
  6
ByLayer
 62
  256
370
   -1
100
AcDbLine
 10
259.6162379518456
 20
4.559665066411071
 11
259.1499171520162
 21
4.49827276843655
  0
LINE
  5
297
100
AcDbEntity
  8
0
  6
ByLayer
 62
  256
370
   -1
100
AcDbLine
 10
257.8759050342562
 20
7.57401010176045
 11
258.2490545442344
 21
7.860337791317647
  0
LINE
  5
298
100
AcDbEntity
  8
0
  6
ByLayer
 62
  256
370
   -1
100
AcDbLine
 10
258.2490545442344
 20
7.860337791317647
 11
258.683596352187
 21
8.040330901589698
  0
LINE
  5
299
100
AcDbEntity
  8
0
  6
ByLayer
 62
  256
370
   -1
100
AcDbLine
 10
259.6162379518456
 20
8.040330901589698
 11
260.0507797597978
 21
7.860337791317647
  0
LINE
  5
29A
100
AcDbEntity
  8
0
  6
ByLayer
 62
  256
370
   -1
100
AcDbLine
 10
136.1999572470085
 20
2.999997986200469
 11
136.1999572470085
 21
9.599999903499793
  0
LINE
  5
29B
100
AcDbEntity
  8
0
  6
ByLayer
 62
  256
370
   -1
100
AcDbLine
 10
44.50965236241342
 20
6.766318783829888
 11
44.68964547268558
 21
7.200860591782089
  0
LINE
  5
29C
100
AcDbEntity
  8
0
  6
ByLayer
 62
  256
370
   -1
100
AcDbLine
 10
44.68964547268558
 20
7.200860591782089
 11
44.97597316224272
 21
7.57401010176045
  0
LINE
  5
29D
100
AcDbEntity
  8
0
  6
ByLayer
 62
  256
370
   -1
100
AcDbLine
 10
47.15084788778472
 20
7.860337791317647
 11
47.52399739776303
 21
7.57401010176045
  0
LINE
  5
29E
100
AcDbEntity
  8
0
  6
ByLayer
 62
  256
370
   -1
100
AcDbLine
 10
47.99031819759239
 20
5.833677184170881
 11
47.81032508732028
 21
5.399135376218283
  0
LINE
  5
29F
100
AcDbEntity
  8
0
  6
ByLayer
 62
  256
370
   -1
100
AcDbLine
 10
53.54998120950449
 20
9.599999903499793
 11
62.7499789092044
 21
9.599999903499793
  0
LINE
  5
2A0
100
AcDbEntity
  8
0
  6
ByLayer
 62
  256
370
   -1
100
AcDbLine
 10
29.74999131100151
 20
2.999997986200469
 11
29.74999131100151
 21
9.599999903499793
  0
LINE
  5
2A1
100
AcDbEntity
  8
0
  6
ByLayer
 62
  256
370
   -1
100
AcDbLine
 10
169.1999448452113
 20
9.599999903499793
 11
169.1999448452115
 21
2.999997986200469
  0
LINE
  5
2A2
100
AcDbEntity
  8
0
  6
ByLayer
 62
  256
370
   -1
100
AcDbLine
 10
159.9999471455117
 20
2.999997986200583
 11
159.9999471455117
 21
9.599999903499793
  0
LINE
  5
2A3
100
AcDbEntity
  8
0
  6
ByLayer
 62
  256
370
   -1
100
AcDbLine
 10
207.2499337600131
 20
346.167243819662
 11
207.2499337600131
 21
363.899883552023
  0
LINE
  5
2A4
100
AcDbEntity
  8
0
  6
ByLayer
 62
  256
370
   -1
100
AcDbLine
 10
207.2499337600131
 20
52.1999817840038
 11
207.2499337600131
 21
168.6999467670603
  0
LINE
  5
2A5
100
AcDbEntity
  8
0
  6
ByLayer
 62
  256
370
   -1
100
AcDbLine
 10
0.25
 20
0
 11
330.149894432021
 21
0
  0
LINE
  5
2A6
100
AcDbEntity
  8
0
  6
ByLayer
 62
  256
370
   -1
100
AcDbLine
 10
207.2499337600131
 20
313.567259478958
 11
207.2499337600131
 21
201.2999311077642
  0
LINE
  5
2A7
100
AcDbEntity
  8
0
  6
ByLayer
 62
  256
370
   -1
100
AcDbLine
 10
191.8499366000127
 20
52.1999817840038
 11
207.2499337600131
 21
52.1999817840038
  0
LINE
  5
2A8
100
AcDbEntity
  8
0
  6
ByLayer
 62
  256
370
   -1
100
AcDbLine
 10
239.6539556966495
 20
65.78929536830896
 11
239.1880903474428
 21
65.72789519938897
  0
LINE
  5
2A9
100
AcDbEntity
  8
0
  6
ByLayer
 62
  256
370
   -1
100
AcDbLine
 10
286.2743010543106
 20
144.2842924592844
 11
286.7084008935934
 21
144.4641752930103
  0
LINE
  5
2AA
100
AcDbEntity
  8
0
  6
ByLayer
 62
  256
370
   -1
100
AcDbLine
 10
237.8542139092791
 20
63.9890383445495
 11
237.915480725209
 21
64.45492125001016
  0
LINE
  5
2AB
100
AcDbEntity
  8
0
  6
ByLayer
 62
  256
370
   -1
100
AcDbLine
 10
238.4452314548922
 20
150.7648501544596
 11
238.0111316156101
 21
150.5849673207336
  0
LINE
  5
2AC
100
AcDbEntity
  8
0
  6
ByLayer
 62
  256
370
   -1
100
AcDbLine
 10
281.7817080969699
 20
158.3793500261465
 11
281.7204412810401
 21
157.9134671206861
  0
LINE
  5
2AD
100
AcDbEntity
  8
0
  6
ByLayer
 62
  256
370
   -1
100
AcDbLine
 10
239.6865047969668
 20
156.2059438199676
 11
239.220621891506
 21
156.2672106358971
  0
LINE
  5
2AE
100
AcDbEntity
  8
0
  6
ByLayer
 62
  256
370
   -1
100
AcDbLine
 10
239.6544709330387
 20
62.18929655717949
 11
240.1203362822449
 21
62.25069672609925
  0
LINE
  5
2AF
100
AcDbEntity
  8
0
  6
ByLayer
 62
  256
370
   -1
100
AcDbLine
 10
215.1830711940987
 20
157.3786677674732
 11
215.648936543305
 21
157.4400679363932
  0
LINE
  5
2B0
100
AcDbEntity
  8
0
  6
ByLayer
 62
  256
370
   -1
100
AcDbLine
 10
240.1523701461728
 20
156.2673439888874
 11
239.6865047969668
 21
156.2059438199676
  0
LINE
  5
2B1
100
AcDbEntity
  8
0
  6
ByLayer
 62
  256
370
   -1
100
AcDbLine
 10
281.7861043544759
 20
63.9890383445495
 11
281.8475045233956
 21
63.52317299534326
  0
LINE
  5
2B2
100
AcDbEntity
  8
0
  6
ByLayer
 62
  256
370
   -1
100
AcDbLine
 10
241.4249797684073
 20
157.5403179382664
 11
241.4862465843365
 21
158.0062008437271
  0
LINE
  5
2B3
100
AcDbEntity
  8
0
  6
ByLayer
 62
  256
370
   -1
100
AcDbLine
 10
283.5863613782352
 20
62.18929655717949
 11
284.0522267274416
 21
62.25069672609925
  0
LINE
  5
2B4
100
AcDbEntity
  8
0
  6
ByLayer
 62
  256
370
   -1
100
AcDbLine
 10
308.3518720189361
 20
63.26552032691376
 11
308.4132721878565
 21
62.79965497770769
  0
LINE
  5
2B5
100
AcDbEntity
  8
0
  6
ByLayer
 62
  256
370
   -1
100
AcDbLine
 10
286.2413543289612
 20
69.33977667614477
 11
286.6754541682437
 21
69.51965950987119
  0
LINE
  5
2B6
100
AcDbEntity
  8
0
  6
ByLayer
 62
  256
370
   -1
100
AcDbLine
 10
281.7861043544759
 20
63.9890383445495
 11
281.8473711704056
 21
64.45492125001016
  0
LINE
  5
2B7
100
AcDbEntity
  8
0
  6
ByLayer
 62
  256
370
   -1
100
AcDbLine
 10
237.9811546961216
 20
69.26828008409609
 11
237.5152893469152
 21
69.20687991517616
  0
LINE
  5
2B8
100
AcDbEntity
  8
0
  6
ByLayer
 62
  256
370
   -1
100
AcDbLine
 10
237.9475145891369
 20
158.4715685127983
 11
237.8862477732072
 21
158.0056856073376
  0
LINE
  5
2B9
100
AcDbEntity
  8
0
  6
ByLayer
 62
  256
370
   -1
100
AcDbLine
 10
241.4542127204087
 20
63.98955358093895
 11
241.3929459044792
 21
63.5236706754784
  0
LINE
  5
2BA
100
AcDbEntity
  8
0
  6
ByLayer
 62
  256
370
   -1
100
AcDbLine
 10
215.1585636304573
 20
65.02220255701468
 11
215.6244465359176
 21
64.96093574108505
  0
LINE
  5
2BB
100
AcDbEntity
  8
0
  6
ByLayer
 62
  256
370
   -1
100
AcDbLine
 10
216.8975538382869
 20
62.75657786418395
 11
216.9588206542168
 21
63.22246076964456
  0
LINE
  5
2BC
100
AcDbEntity
  8
0
  6
ByLayer
 62
  256
370
   -1
100
AcDbLine
 10
283.9865636540059
 20
156.1751255022357
 11
283.5206983047996
 21
156.113725333316
  0
LINE
  5
2BD
100
AcDbEntity
  8
0
  6
ByLayer
 62
  256
370
   -1
100
AcDbLine
 10
310.6174967117669
 20
65.00451053474376
 11
310.1516138063063
 21
65.06577735067339
  0
LINE
  5
2BE
100
AcDbEntity
  8
0
  6
ByLayer
 62
  256
370
   -1
100
AcDbLine
 10
281.9852795443957
 20
74.96896755981919
 11
282.3057356733574
 21
74.96896755981919
  0
LINE
  5
2BF
100
AcDbEntity
  8
0
  6
ByLayer
 62
  256
370
   -1
100
AcDbLine
 10
280.1803231691874
 20
70.23024439444225
 11
280.1803231691874
 21
69.13024474644209
  0
LINE
  5
2C0
100
AcDbEntity
  8
0
  6
ByLayer
 62
  256
370
   -1
100
AcDbLine
 10
280.1803231691874
 20
69.13024474644209
 11
280.1803231691874
 21
68.03024509844209
  0
LINE
  5
2C1
100
AcDbEntity
  8
0
  6
ByLayer
 62
  256
370
   -1
100
AcDbLine
 10
240.9189377299498
 20
146.8359514956875
 11
241.2393938589115
 21
146.8359514956875
  0
LINE
  5
2C2
100
AcDbEntity
  8
0
  6
ByLayer
 62
  256
370
   -1
100
AcDbLine
 10
240.9189377299498
 20
149.0359507916875
 11
240.6189378259498
 21
148.726687501763
  0
LINE
  5
2C3
100
AcDbEntity
  8
0
  6
ByLayer
 62
  256
370
   -1
100
AcDbLine
 10
240.9189377299498
 20
149.0359507916875
 11
240.9189377299498
 21
146.8359514956875
  0
LINE
  5
2C4
100
AcDbEntity
  8
0
  6
ByLayer
 62
  256
370
   -1
100
AcDbLine
 10
281.9220667920209
 20
154.6426734941476
 11
281.9220667920209
 21
153.5426738461475
  0
LINE
  5
2C5
100
AcDbEntity
  8
0
  6
ByLayer
 62
  256
370
   -1
100
AcDbLine
 10
280.7720671600206
 20
153.5426738461475
 11
281.9220667920209
 21
153.5426738461475
  0
LINE
  5
2C6
100
AcDbEntity
  8
0
  6
ByLayer
 62
  256
370
   -1
100
AcDbLine
 10
281.9220667920209
 20
153.5426738461475
 11
281.9220667920209
 21
152.4426741981476
  0
LINE
  5
2C7
100
AcDbEntity
  8
0
  6
ByLayer
 62
  256
370
   -1
100
AcDbLine
 10
280.7720671600206
 20
152.4426741981476
 11
281.9220667920209
 21
152.4426741981476
  0
LINE
  5
2C8
100
AcDbEntity
  8
0
  6
ByLayer
 62
  256
370
   -1
100
AcDbLine
 10
281.9220667920209
 20
154.6426734941476
 11
280.7720671600206
 21
154.6426734941476
  0
LINE
  5
2C9
100
AcDbEntity
  8
0
  6
ByLayer
 62
  256
370
   -1
100
AcDbLine
 10
283.1113149712399
 20
142.8275228163685
 11
283.1113149712399
 21
140.6275235203684
  0
LINE
  5
2CA
100
AcDbEntity
  8
0
  6
ByLayer
 62
  256
370
   -1
100
AcDbLine
 10
283.1113149712399
 20
140.6275235203684
 11
283.4317711002021
 21
140.6275235203684
  0
LINE
  5
2CB
100
AcDbEntity
  8
0
  6
ByLayer
 62
  256
370
   -1
100
AcDbLine
 10
283.1113149712399
 20
140.6275235203684
 11
282.8113150672399
 21
140.6275235203684
  0
LINE
  5
2CC
100
AcDbEntity
  8
0
  6
ByLayer
 62
  256
370
   -1
100
AcDbLine
 10
283.1113149712399
 20
142.8275228163685
 11
282.8113150672399
 21
142.5182595264442
  0
LINE
  5
2CD
100
AcDbEntity
  8
0
  6
ByLayer
 62
  256
370
   -1
100
AcDbLine
 10
219.2148105031741
 20
68.66253480252578
 11
219.2148105031741
 21
69.76253445052578
  0
LINE
  5
2CE
100
AcDbEntity
  8
0
  6
ByLayer
 62
  256
370
   -1
100
AcDbLine
 10
218.0648108711738
 20
68.66253480252578
 11
219.2148105031741
 21
68.66253480252578
  0
LINE
  5
2CF
100
AcDbEntity
  8
0
  6
ByLayer
 62
  256
370
   -1
100
AcDbLine
 10
218.0648108711738
 20
67.56253515452579
 11
218.0648108711738
 21
68.66253480252578
  0
LINE
  5
2D0
100
AcDbEntity
  8
0
  6
ByLayer
 62
  256
370
   -1
100
AcDbLine
 10
218.0648108711738
 20
67.56253515452579
 11
219.2148105031741
 21
67.56253515452579
  0
LINE
  5
2D1
100
AcDbEntity
  8
0
  6
ByLayer
 62
  256
370
   -1
100
AcDbLine
 10
219.2148105031741
 20
69.76253445052578
 11
218.0648108711738
 21
69.76253445052578
  0
LINE
  5
2D2
100
AcDbEntity
  8
0
  6
ByLayer
 62
  256
370
   -1
100
AcDbLine
 10
243.1009072225648
 20
67.6664424391542
 11
244.250906854565
 21
67.6664424391542
  0
LINE
  5
2D3
100
AcDbEntity
  8
0
  6
ByLayer
 62
  256
370
   -1
100
AcDbLine
 10
244.250906854565
 20
69.86644173515418
 11
244.250906854565
 21
68.76644208715419
  0
LINE
  5
2D4
100
AcDbEntity
  8
0
  6
ByLayer
 62
  256
370
   -1
100
AcDbLine
 10
244.250906854565
 20
68.76644208715419
 11
244.250906854565
 21
67.6664424391542
  0
LINE
  5
2D5
100
AcDbEntity
  8
0
  6
ByLayer
 62
  256
370
   -1
100
AcDbLine
 10
243.1009072225648
 20
68.76644208715419
 11
244.250906854565
 21
68.76644208715419
  0
LINE
  5
2D6
100
AcDbEntity
  8
0
  6
ByLayer
 62
  256
370
   -1
100
AcDbLine
 10
244.250906854565
 20
69.86644173515418
 11
243.1009072225648
 21
69.86644173515418
  0
LINE
  5
2D7
100
AcDbEntity
  8
0
  6
ByLayer
 62
  256
370
   -1
100
AcDbLine
 10
241.0593787262613
 20
76.90835299741786
 11
240.7593788222611
 21
76.59908970749348
  0
LINE
  5
2D8
100
AcDbEntity
  8
0
  6
ByLayer
 62
  256
370
   -1
100
AcDbLine
 10
241.0593787262613
 20
76.90835299741786
 11
241.0593787262613
 21
74.70835370141765
  0
LINE
  5
2D9
100
AcDbEntity
  8
0
  6
ByLayer
 62
  256
370
   -1
100
AcDbLine
 10
241.0593787262613
 20
74.70835370141765
 11
240.7593788222611
 21
74.70835370141765
  0
LINE
  5
2DA
100
AcDbEntity
  8
0
  6
ByLayer
 62
  256
370
   -1
100
AcDbLine
 10
241.0593787262613
 20
74.70835370141765
 11
241.3798348552231
 21
74.70835370141765
  0
LINE
  5
2DB
100
AcDbEntity
  8
0
  6
ByLayer
 62
  256
370
   -1
100
AcDbLine
 10
281.9852795443957
 20
77.16896685581906
 11
281.9852795443957
 21
74.96896755981919
  0
LINE
  5
2DC
100
AcDbEntity
  8
0
  6
ByLayer
 62
  256
370
   -1
100
AcDbLine
 10
281.9852795443957
 20
74.96896755981919
 11
281.6852796403958
 21
74.96896755981919
  0
LINE
  5
2DD
100
AcDbEntity
  8
0
  6
ByLayer
 62
  256
370
   -1
100
AcDbLine
 10
281.9852795443957
 20
77.16896685581906
 11
281.6852796403958
 21
76.85970356589479
  0
LINE
  5
2DE
100
AcDbEntity
  8
0
  6
ByLayer
 62
  256
370
   -1
100
AcDbLine
 10
218.1835102226449
 20
152.934504399495
 11
218.1835102226449
 21
154.034504047495
  0
LINE
  5
2DF
100
AcDbEntity
  8
0
  6
ByLayer
 62
  256
370
   -1
100
AcDbLine
 10
218.1835102226449
 20
152.934504399495
 11
219.3335098546451
 21
152.934504399495
  0
LINE
  5
2E0
100
AcDbEntity
  8
0
  6
ByLayer
 62
  256
370
   -1
100
AcDbLine
 10
218.1835102226449
 20
154.034504047495
 11
219.3335098546451
 21
154.034504047495
  0
LINE
  5
2E1
100
AcDbEntity
  8
0
  6
ByLayer
 62
  256
370
   -1
100
AcDbLine
 10
219.3335098546451
 20
155.1345036954951
 11
218.1835102226449
 21
155.1345036954951
  0
LINE
  5
2E2
100
AcDbEntity
  8
0
  6
ByLayer
 62
  256
370
   -1
100
AcDbLine
 10
219.3335098546451
 20
154.034504047495
 11
219.3335098546451
 21
155.1345036954951
  0
LINE
  5
2E3
100
AcDbEntity
  8
0
  6
ByLayer
 62
  256
370
   -1
100
AcDbLine
 10
243.4104654231954
 20
154.193304715899
 11
242.2604657911946
 21
154.193304715899
  0
LINE
  5
2E4
100
AcDbEntity
  8
0
  6
ByLayer
 62
  256
370
   -1
100
AcDbLine
 10
242.2604657911946
 20
153.0933050678989
 11
243.4104654231954
 21
153.0933050678989
  0
LINE
  5
2E5
100
AcDbEntity
  8
0
  6
ByLayer
 62
  256
370
   -1
100
AcDbLine
 10
243.4104654231954
 20
153.0933050678989
 11
243.4104654231954
 21
151.9933054198989
  0
LINE
  5
2E6
100
AcDbEntity
  8
0
  6
ByLayer
 62
  256
370
   -1
100
AcDbLine
 10
243.4104654231954
 20
154.193304715899
 11
243.4104654231954
 21
153.0933050678989
  0
LINE
  5
2E7
100
AcDbEntity
  8
0
  6
ByLayer
 62
  256
370
   -1
100
AcDbLine
 10
242.2604657911946
 20
151.9933054198989
 11
243.4104654231954
 21
151.9933054198989
  0
LINE
  5
2E8
100
AcDbEntity
  8
0
  6
ByLayer
 62
  256
370
   -1
100
AcDbLine
 10
240.9189377299498
 20
146.8359514956875
 11
240.6189378259498
 21
146.8359514956875
  0
LINE
  5
2E9
100
AcDbEntity
  8
0
  6
ByLayer
 62
  256
370
   -1
100
AcDbLine
 10
279.0303235371874
 20
68.03024509844209
 11
280.1803231691874
 21
68.03024509844209
  0
LINE
  5
2EA
100
AcDbEntity
  8
0
  6
ByLayer
 62
  256
370
   -1
100
AcDbLine
 10
280.1803231691874
 20
70.23024439444225
 11
279.0303235371874
 21
70.23024439444225
  0
LINE
  5
2EB
100
AcDbEntity
  8
0
  6
ByLayer
 62
  256
370
   -1
100
AcDbLine
 10
279.0303235371874
 20
69.13024474644209
 11
280.1803231691874
 21
69.13024474644209
  0
LINE
  5
2EC
100
AcDbEntity
  8
0
  6
ByLayer
 62
  256
370
   -1
100
AcDbLine
 10
305.3870752177414
 20
67.38817613965227
 11
305.3870752177414
 21
68.48817578765238
  0
LINE
  5
2ED
100
AcDbEntity
  8
0
  6
ByLayer
 62
  256
370
   -1
100
AcDbLine
 10
306.5370748497414
 20
68.48817578765238
 11
306.5370748497414
 21
69.58817543565226
  0
LINE
  5
2EE
100
AcDbEntity
  8
0
  6
ByLayer
 62
  256
370
   -1
100
AcDbLine
 10
305.3870752177414
 20
68.48817578765238
 11
306.5370748497414
 21
68.48817578765238
  0
LINE
  5
2EF
100
AcDbEntity
  8
0
  6
ByLayer
 62
  256
370
   -1
100
AcDbLine
 10
305.3870752177414
 20
67.38817613965227
 11
306.5370748497414
 21
67.38817613965227
  0
LINE
  5
2F0
100
AcDbEntity
  8
0
  6
ByLayer
 62
  256
370
   -1
100
AcDbLine
 10
306.5370748497414
 20
69.58817543565226
 11
305.3870752177414
 21
69.58817543565226
  0
LINE
  5
2F1
100
AcDbEntity
  8
0
  6
ByLayer
 62
  256
370
   -1
100
AcDbLine
 10
321.6742674863407
 20
6.531897076022858
 11
321.6742674863407
 21
6.225971008949784
  0
LINE
  5
2F2
100
AcDbEntity
  8
0
  6
ByLayer
 62
  256
370
   -1
100
AcDbLine
 10
321.6742674863407
 20
6.225971008949784
 11
321.6539740412188
 21
6.129586076594592
  0
LINE
  5
2F3
100
AcDbEntity
  8
0
  6
ByLayer
 62
  256
370
   -1
100
AcDbLine
 10
321.6539740412188
 20
6.129586076594592
 11
321.5930937058528
 21
6.040221675870498
  0
LINE
  5
2F4
100
AcDbEntity
  8
0
  6
ByLayer
 62
  256
370
   -1
100
AcDbLine
 10
321.5930937058528
 20
6.040221675870498
 11
321.3495723643895
 21
5.882554469315551
  0
LINE
  5
2F5
100
AcDbEntity
  8
0
  6
ByLayer
 62
  256
370
   -1
100
AcDbLine
 10
321.3495723643895
 20
5.882554469315551
 11
320.9936867889322
 21
5.779550944163191
  0
LINE
  5
2F6
100
AcDbEntity
  8
0
  6
ByLayer
 62
  256
370
   -1
100
AcDbLine
 10
320.9936867889322
 20
5.779550944163191
 11
320.5503631418285
 21
5.745216435778957
  0
LINE
  5
2F7
100
AcDbEntity
  8
0
  6
ByLayer
 62
  256
370
   -1
100
AcDbLine
 10
320.5503631418285
 20
5.745216435778957
 11
320.1054793765845
 21
5.779550944163191
  0
LINE
  5
2F8
100
AcDbEntity
  8
0
  6
ByLayer
 62
  256
370
   -1
100
AcDbLine
 10
320.1054793765845
 20
5.779550944163191
 11
319.7449134467064
 21
5.882554469315551
  0
LINE
  5
2F9
100
AcDbEntity
  8
0
  6
ByLayer
 62
  256
370
   -1
100
AcDbLine
 10
319.7449134467064
 20
5.882554469315551
 11
319.5060724596639
 21
6.037101439589946
  0
LINE
  5
2FA
100
AcDbEntity
  8
0
  6
ByLayer
 62
  256
370
   -1
100
AcDbLine
 10
319.5060724596639
 20
6.037101439589946
 11
319.4463622129033
 21
6.12724589938415
  0
LINE
  5
2FB
100
AcDbEntity
  8
0
  6
ByLayer
 62
  256
370
   -1
100
AcDbLine
 10
319.4463622129033
 20
6.12724589938415
 11
319.4264587973162
 21
6.225971008949784
  0
LINE
  5
2FC
100
AcDbEntity
  8
0
  6
ByLayer
 62
  256
370
   -1
100
AcDbLine
 10
319.4264587973162
 20
6.225971008949784
 11
319.4264587973162
 21
9.572388691876597
  0
LINE
  5
2FD
100
AcDbEntity
  8
0
  6
ByLayer
 62
  256
370
   -1
100
AcDbLine
 10
319.4264587973162
 20
9.572388691876597
 11
319.4463622129033
 21
9.66838359469665
  0
LINE
  5
2FE
100
AcDbEntity
  8
0
  6
ByLayer
 62
  256
370
   -1
100
AcDbLine
 10
319.4463622129033
 20
9.66838359469665
 11
319.5060724596639
 21
9.756577906815551
  0
LINE
  5
2FF
100
AcDbEntity
  8
0
  6
ByLayer
 62
  256
370
   -1
100
AcDbLine
 10
319.5060724596639
 20
9.756577906815551
 11
319.7449134467064
 21
9.909564758949784
  0
LINE
  5
300
100
AcDbEntity
  8
0
  6
ByLayer
 62
  256
370
   -1
100
AcDbLine
 10
319.7449134467064
 20
9.909564758949784
 11
320.1117198491455
 21
10.01724863852286
  0
LINE
  5
301
100
AcDbEntity
  8
0
  6
ByLayer
 62
  256
370
   -1
100
AcDbLine
 10
320.1117198491455
 20
10.01724863852286
 11
320.5503631418285
 21
10.05314326504725
  0
LINE
  5
302
100
AcDbEntity
  8
0
  6
ByLayer
 62
  256
370
   -1
100
AcDbLine
 10
320.5503631418285
 20
10.05314326504725
 11
320.9843022614931
 21
10.01724863852286
  0
LINE
  5
303
100
AcDbEntity
  8
0
  6
ByLayer
 62
  256
370
   -1
100
AcDbLine
 10
320.9843022614931
 20
10.01724863852286
 11
321.3495723643895
 21
9.909564758949784
  0
LINE
  5
304
100
AcDbEntity
  8
0
  6
ByLayer
 62
  256
370
   -1
100
AcDbLine
 10
321.3495723643895
 20
9.909564758949784
 11
321.5930937058528
 21
9.753457670535056
  0
LINE
  5
305
100
AcDbEntity
  8
0
  6
ByLayer
 62
  256
370
   -1
100
AcDbLine
 10
321.5930937058528
 20
9.753457670535056
 11
321.6539740412188
 21
9.666043417486264
  0
LINE
  5
306
100
AcDbEntity
  8
0
  6
ByLayer
 62
  256
370
   -1
100
AcDbLine
 10
321.6539740412188
 20
9.666043417486264
 11
321.6742674863407
 21
9.572388691876597
  0
LINE
  5
307
100
AcDbEntity
  8
0
  6
ByLayer
 62
  256
370
   -1
100
AcDbLine
 10
321.6742674863407
 20
9.572388691876597
 11
321.6742674863407
 21
9.266462624803353
  0
LINE
  5
308
100
AcDbEntity
  8
0
  6
ByLayer
 62
  256
370
   -1
100
AcDbLine
 10
321.6742674863407
 20
9.266462624803353
 11
321.6742674863407
 21
9.572388691876597
  0
LINE
  5
309
100
AcDbEntity
  8
0
  6
ByLayer
 62
  256
370
   -1
100
AcDbLine
 10
321.6742674863407
 20
9.572388691876597
 11
321.6539740412188
 21
9.666043417486264
  0
LINE
  5
30A
100
AcDbEntity
  8
0
  6
ByLayer
 62
  256
370
   -1
100
AcDbLine
 10
321.6539740412188
 20
9.666043417486264
 11
321.5930937058528
 21
9.753457670535056
  0
LINE
  5
30B
100
AcDbEntity
  8
0
  6
ByLayer
 62
  256
370
   -1
100
AcDbLine
 10
321.5930937058528
 20
9.753457670535056
 11
321.3495723643895
 21
9.909564758949784
  0
LINE
  5
30C
100
AcDbEntity
  8
0
  6
ByLayer
 62
  256
370
   -1
100
AcDbLine
 10
321.3495723643895
 20
9.909564758949784
 11
320.9843022614931
 21
10.01724863852286
  0
LINE
  5
30D
100
AcDbEntity
  8
0
  6
ByLayer
 62
  256
370
   -1
100
AcDbLine
 10
320.9843022614931
 20
10.01724863852286
 11
320.5503631418285
 21
10.05314326504725
  0
LINE
  5
30E
100
AcDbEntity
  8
0
  6
ByLayer
 62
  256
370
   -1
100
AcDbLine
 10
320.5503631418285
 20
10.05314326504725
 11
320.1117198491455
 21
10.01724863852286
  0
LINE
  5
30F
100
AcDbEntity
  8
0
  6
ByLayer
 62
  256
370
   -1
100
AcDbLine
 10
320.1117198491455
 20
10.01724863852286
 11
319.7449134467064
 21
9.909564758949784
  0
LINE
  5
310
100
AcDbEntity
  8
0
  6
ByLayer
 62
  256
370
   -1
100
AcDbLine
 10
319.7449134467064
 20
9.909564758949784
 11
319.5060724596639
 21
9.756577906815551
  0
LINE
  5
311
100
AcDbEntity
  8
0
  6
ByLayer
 62
  256
370
   -1
100
AcDbLine
 10
319.5060724596639
 20
9.756577906815551
 11
319.4463622129033
 21
9.66838359469665
  0
LINE
  5
312
100
AcDbEntity
  8
0
  6
ByLayer
 62
  256
370
   -1
100
AcDbLine
 10
319.4463622129033
 20
9.66838359469665
 11
319.4264587973162
 21
9.572388691876597
  0
LINE
  5
313
100
AcDbEntity
  8
0
  6
ByLayer
 62
  256
370
   -1
100
AcDbLine
 10
319.4264587973162
 20
9.572388691876597
 11
319.4264587973162
 21
6.225971008949784
  0
LINE
  5
314
100
AcDbEntity
  8
0
  6
ByLayer
 62
  256
370
   -1
100
AcDbLine
 10
319.4264587973162
 20
6.225971008949784
 11
319.4463622129033
 21
6.12724589938415
  0
LINE
  5
315
100
AcDbEntity
  8
0
  6
ByLayer
 62
  256
370
   -1
100
AcDbLine
 10
319.4463622129033
 20
6.12724589938415
 11
319.5060724596639
 21
6.037101439589946
  0
LINE
  5
316
100
AcDbEntity
  8
0
  6
ByLayer
 62
  256
370
   -1
100
AcDbLine
 10
319.5060724596639
 20
6.037101439589946
 11
319.7449134467064
 21
5.882554469315551
  0
LINE
  5
317
100
AcDbEntity
  8
0
  6
ByLayer
 62
  256
370
   -1
100
AcDbLine
 10
319.7449134467064
 20
5.882554469315551
 11
320.1054793765845
 21
5.779550944163191
  0
LINE
  5
318
100
AcDbEntity
  8
0
  6
ByLayer
 62
  256
370
   -1
100
AcDbLine
 10
320.1054793765845
 20
5.779550944163191
 11
320.5503631418285
 21
5.745216435778957
  0
LINE
  5
319
100
AcDbEntity
  8
0
  6
ByLayer
 62
  256
370
   -1
100
AcDbLine
 10
320.5503631418285
 20
5.745216435778957
 11
320.9936867889322
 21
5.779550944163191
  0
LINE
  5
31A
100
AcDbEntity
  8
0
  6
ByLayer
 62
  256
370
   -1
100
AcDbLine
 10
320.9936867889322
 20
5.779550944163191
 11
321.3495723643895
 21
5.882554469315551
  0
LINE
  5
31B
100
AcDbEntity
  8
0
  6
ByLayer
 62
  256
370
   -1
100
AcDbLine
 10
321.3495723643895
 20
5.882554469315551
 11
321.5930937058528
 21
6.040221675870498
  0
LINE
  5
31C
100
AcDbEntity
  8
0
  6
ByLayer
 62
  256
370
   -1
100
AcDbLine
 10
321.5930937058528
 20
6.040221675870498
 11
321.6539740412188
 21
6.129586076594592
  0
LINE
  5
31D
100
AcDbEntity
  8
0
  6
ByLayer
 62
  256
370
   -1
100
AcDbLine
 10
321.6539740412188
 20
6.129586076594592
 11
321.6742674863407
 21
6.225971008949784
  0
LINE
  5
31E
100
AcDbEntity
  8
0
  6
ByLayer
 62
  256
370
   -1
100
AcDbLine
 10
321.6742674863407
 20
6.225971008949784
 11
321.6742674863407
 21
6.531897076022858
  0
LINE
  5
31F
100
AcDbEntity
  8
0
  6
ByLayer
 62
  256
370
   -1
100
AcDbLine
 10
38.94998714810163
 20
2.999997986200583
 11
38.94998714810162
 21
2.999997986200583
  0
LINE
  5
320
100
AcDbEntity
  8
0
  6
ByLayer
 62
  256
370
   -1
100
AcDbLine
 10
38.94998714810162
 20
2.999997986200583
 11
38.94998714810162
 21
2.999997986200583
  0
LINE
  5
321
100
AcDbEntity
  8
0
  6
ByLayer
 62
  256
370
   -1
100
AcDbLine
 10
38.94998714810162
 20
2.999997986200583
 11
38.94998714810163
 21
2.999997986200583
  0
LINE
  5
322
100
AcDbEntity
  8
0
  6
ByLayer
 62
  256
370
   -1
100
AcDbLine
 10
38.94998714810163
 20
2.999997986200583
 11
38.94998714810163
 21
2.999997986200583
  0
LINE
  5
323
100
AcDbEntity
  8
0
  6
ByLayer
 62
  256
370
   -1
100
AcDbLine
 10
62.7499789092044
 20
2.999997986200469
 11
62.7499789092044
 21
2.999997986200469
  0
LINE
  5
324
100
AcDbEntity
  8
0
  6
ByLayer
 62
  256
370
   -1
100
AcDbLine
 10
62.7499789092044
 20
2.999997986200469
 11
62.7499789092044
 21
2.999997986200469
  0
LINE
  5
325
100
AcDbEntity
  8
0
  6
ByLayer
 62
  256
370
   -1
100
AcDbLine
 10
62.7499789092044
 20
2.999997986200469
 11
62.7499789092044
 21
2.999997986200469
  0
LINE
  5
326
100
AcDbEntity
  8
0
  6
ByLayer
 62
  256
370
   -1
100
AcDbLine
 10
62.7499789092044
 20
2.999997986200469
 11
62.7499789092044
 21
2.999997986200469
  0
LINE
  5
327
100
AcDbEntity
  8
0
  6
ByLayer
 62
  256
370
   -1
100
AcDbLine
 10
136.1999572470085
 20
9.599999903499793
 11
145.3999530841085
 21
9.599999903499793
  0
LINE
  5
328
100
AcDbEntity
  8
0
  6
ByLayer
 62
  256
370
   -1
100
AcDbLine
 10
145.3999530841085
 20
9.599999903499793
 11
145.3999530841085
 21
2.999997986200583
  0
LINE
  5
329
100
AcDbEntity
  8
0
  6
ByLayer
 62
  256
370
   -1
100
AcDbLine
 10
145.3999530841085
 20
2.999997986200583
 11
136.1999572470085
 21
2.999997986200583
  0
LINE
  5
32A
100
AcDbEntity
  8
0
  6
ByLayer
 62
  256
370
   -1
100
AcDbLine
 10
136.1999572470085
 20
2.999997986200583
 11
136.1999572470085
 21
9.599999903499793
  0
LINE
  5
32B
100
AcDbEntity
  8
0
  6
ByLayer
 62
  256
370
   -1
100
AcDbLine
 10
159.9999471455117
 20
9.599999903499793
 11
169.1999448452115
 21
9.599999903499793
  0
LINE
  5
32C
100
AcDbEntity
  8
0
  6
ByLayer
 62
  256
370
   -1
100
AcDbLine
 10
169.1999448452115
 20
9.599999903499793
 11
169.1999448452115
 21
2.999997986200469
  0
LINE
  5
32D
100
AcDbEntity
  8
0
  6
ByLayer
 62
  256
370
   -1
100
AcDbLine
 10
169.1999448452115
 20
2.999997986200469
 11
159.9999471455117
 21
2.999997986200469
  0
LINE
  5
32E
100
AcDbEntity
  8
0
  6
ByLayer
 62
  256
370
   -1
100
AcDbLine
 10
159.9999471455117
 20
2.999997986200469
 11
159.9999471455117
 21
9.599999903499793
  0
LINE
  5
32F
100
AcDbEntity
  8
0
  6
ByLayer
 62
  256
370
   -1
100
AcDbLine
 10
242.6499231830147
 20
9.599999903499793
 11
251.849919020115
 21
9.599999903499793
  0
LINE
  5
330
100
AcDbEntity
  8
0
  6
ByLayer
 62
  256
370
   -1
100
AcDbLine
 10
251.849919020115
 20
9.599999903499793
 11
251.849919020115
 21
2.999997986200583
  0
LINE
  5
331
100
AcDbEntity
  8
0
  6
ByLayer
 62
  256
370
   -1
100
AcDbLine
 10
251.849919020115
 20
2.999997986200583
 11
242.6499231830147
 21
2.999997986200583
  0
LINE
  5
332
100
AcDbEntity
  8
0
  6
ByLayer
 62
  256
370
   -1
100
AcDbLine
 10
242.6499231830147
 20
2.999997986200583
 11
242.6499231830147
 21
9.599999903499793
  0
LINE
  5
333
100
AcDbEntity
  8
0
  6
ByLayer
 62
  256
370
   -1
100
AcDbLine
 10
266.4499130815183
 20
9.599999903499793
 11
275.6499107812177
 21
9.599999903499793
  0
LINE
  5
334
100
AcDbEntity
  8
0
  6
ByLayer
 62
  256
370
   -1
100
AcDbLine
 10
275.6499107812177
 20
9.599999903499793
 11
275.6499107812177
 21
2.999997986200469
  0
LINE
  5
335
100
AcDbEntity
  8
0
  6
ByLayer
 62
  256
370
   -1
100
AcDbLine
 10
275.6499107812177
 20
2.999997986200469
 11
266.4499130815183
 21
2.999997986200469
  0
LINE
  5
336
100
AcDbEntity
  8
0
  6
ByLayer
 62
  256
370
   -1
100
AcDbLine
 10
266.4499130815183
 20
2.999997986200469
 11
266.4499130815183
 21
9.599999903499793
  0
CIRCLE
  5
337
100
AcDbEntity
  8
0
  6
ByLayer
 62
  256
370
   -1
100
AcDbCircle
 10
46.24998528000293
 20
6.299997984000237
 40
1.801725215563917
  0
CIRCLE
  5
338
100
AcDbEntity
  8
0
  6
ByLayer
 62
  256
370
   -1
100
AcDbCircle
 10
152.6999512160099
 20
6.299997984000226
 40
1.801725215563897
  0
CIRCLE
  5
339
100
AcDbEntity
  8
0
  6
ByLayer
 62
  256
370
   -1
100
AcDbCircle
 10
259.1499171520163
 20
6.299997984000378
 40
1.801725215563972
  0
CIRCLE
  5
33A
100
AcDbEntity
  8
0
  6
ByLayer
 62
  256
370
   -1
100
AcDbCircle
 10
215.1588212486518
 20
63.22220315144989
 40
1.799999424000116
  0
CIRCLE
  5
33B
100
AcDbEntity
  8
0
  6
ByLayer
 62
  256
370
   -1
100
AcDbCircle
 10
237.5150317287207
 20
71.00687932074121
 40
1.799999424000285
  0
CIRCLE
  5
33C
100
AcDbEntity
  8
0
  6
ByLayer
 62
  256
370
   -1
100
AcDbCircle
 10
239.6542133148442
 20
63.98929596274427
 40
1.799999424000226
  0
CIRCLE
  5
33D
100
AcDbEntity
  8
0
  6
ByLayer
 62
  256
370
   -1
100
AcDbCircle
 10
283.5861037600409
 20
63.98929596274422
 40
1.799999424000134
  0
CIRCLE
  5
33E
100
AcDbEntity
  8
0
  6
ByLayer
 62
  256
370
   -1
100
AcDbCircle
 10
285.77523136156
 20
71.07837591278954
 40
1.799999424000124
  0
CIRCLE
  5
33F
100
AcDbEntity
  8
0
  6
ByLayer
 62
  256
370
   -1
100
AcDbCircle
 10
310.1518714245012
 20
63.26577794510849
 40
1.799999423999983
  0
CIRCLE
  5
340
100
AcDbEntity
  8
0
  6
ByLayer
 62
  256
370
   -1
100
AcDbCircle
 10
285.8081780869102
 20
146.0228916959288
 40
1.79999942400012
  0
CIRCLE
  5
341
100
AcDbEntity
  8
0
  6
ByLayer
 62
  256
370
   -1
100
AcDbCircle
 10
283.520440686605
 20
157.9137247388807
 40
1.799999424000125
  0
CIRCLE
  5
342
100
AcDbEntity
  8
0
  6
ByLayer
 62
  256
370
   -1
100
AcDbCircle
 10
237.5450086482091
 20
152.3235665573782
 40
1.799999424000085
  0
CIRCLE
  5
343
100
AcDbEntity
  8
0
  6
ByLayer
 62
  256
370
   -1
100
AcDbCircle
 10
239.6862471787719
 20
158.0059432255323
 40
1.799999424000076
  0
CIRCLE
  5
344
100
AcDbEntity
  8
0
  6
ByLayer
 62
  256
370
   -1
100
AcDbCircle
 10
215.1828135759042
 20
159.178667173038
 40
1.799999424000022
  0
ENDSEC
  0
SECTION
  2
OBJECTS
  0
DICTIONARY
  5
C
330
0
100
AcDbDictionary
281
    1
  3
ACAD_GROUP
350
D
  0
DICTIONARY
  5
D
330
C
100
AcDbDictionary
281
    1
  0
ENDSEC
  0
EOF
