999
dxfrw 0.6.1
  0
SECTION
  2
HEADER
  9
$ACADVER
  1
AC1021
  9
$DWGCODEPAGE
  3
ANSI_1252
  9
$INSBASE
 10
0
 20
0
 30
0
  9
$EXTMIN
 10
-4.99999840000018
 20
-0.25
 30
0
  9
$EXTMAX
 10
397.949873898628
 20
369.7498816000236
 30
0
  9
$LIMMIN
 10
0
 20
0
  9
$LIMMAX
 10
420
 20
297
  9
$ORTHOMODE
 70
    0
  9
$REGENMODE
 70
    1
  9
$FILLMODE
 70
    1
  9
$QTEXTMODE
 70
    0
  9
$MIRRTEXT
 70
    0
  9
$LTSCALE
 40
1
  9
$ATTMODE
 70
    0
  9
$TEXTSIZE
 40
2.5
  9
$TRACEWID
 40
15.68
  9
$TEXTSTYLE
  7
STANDARD
  9
$CLAYER
  8
0
  9
$CELTYPE
  6
BYLAYER
  9
$CECOLOR
 62
  256
  9
$CELTSCALE
 40
1
  9
$DISPSILH
 70
    0
  9
$DIMSCALE
 40
2.5
  9
$DIMASZ
 40
2.5
  9
$DIMEXO
 40
0.625
  9
$DIMDLI
 40
3.75
  9
$DIMRND
 40
0
  9
$DIMDLE
 40
0
  9
$DIMEXE
 40
1.25
  9
$DIMTP
 40
0
  9
$DIMTM
 40
0
  9
$DIMTXT
 40
2.5
  9
$DIMCEN
 40
2.5
  9
$DIMTSZ
 40
0
  9
$DIMTOL
 70
    0
  9
$DIMLIM
 70
    0
  9
$DIMTIH
 70
    0
  9
$DIMTOH
 70
    0
  9
$DIMSE1
 70
    0
  9
$DIMSE2
 70
    0
  9
$DIMTAD
 70
    1
  9
$DIMZIN
 70
    8
  9
$DIMBLK
  1

  9
$DIMASO
 70
    1
  9
$DIMSHO
 70
    1
  9
$DIMPOST
  1

  9
$DIMAPOST
  1

  9
$DIMALT
 70
    0
  9
$DIMALTD
 70
    3
  9
$DIMALTF
 40
0.03937
  9
$DIMLFAC
 40
1
  9
$DIMTOFL
 70
    1
  9
$DIMTVP
 40
0
  9
$DIMTIX
 70
    0
  9
$DIMSOXD
 70
    0
  9
$DIMSAH
 70
    0
  9
$DIMBLK1
  1

  9
$DIMBLK2
  1

  9
$DIMSTYLE
  2
STANDARD
  9
$DIMCLRD
 70
    0
  9
$DIMCLRE
 70
    0
  9
$DIMCLRT
 70
    0
  9
$DIMTFAC
 40
1
  9
$DIMGAP
 40
0.625
  9
$DIMJUST
 70
    0
  9
$DIMSD1
 70
    0
  9
$DIMSD2
 70
    0
  9
$DIMTOLJ
 70
    0
  9
$DIMTZIN
 70
    8
  9
$DIMALTZ
 70
    0
  9
$DIMALTTZ
 70
    0
  9
$DIMUPT
 70
    0
  9
$DIMDEC
 70
    2
  9
$DIMTDEC
 70
    2
  9
$DIMALTU
 70
    2
  9
$DIMALTTD
 70
    3
  9
$DIMTXSTY
  7
STANDARD
  9
$DIMAUNIT
 70
    0
  9
$DIMADEC
 70
    0
  9
$DIMALTRND
 40
0
  9
$DIMAZIN
 70
    0
  9
$DIMDSEP
 70
   44
  9
$DIMATFIT
 70
    3
  9
$DIMFRAC
 70
    0
  9
$DIMLDRBLK
  1
STANDARD
  9
$DIMLUNIT
 70
    2
  9
$DIMLWD
 70
   -2
  9
$DIMLWE
 70
   -2
  9
$DIMTMOVE
 70
    0
  9
$DIMFXL
 40
1
  9
$DIMFXLON
 70
    0
  9
$DIMJOGANG
 40
0.7854
  9
$DIMTFILL
 70
    0
  9
$DIMTFILLCLR
 70
    0
  9
$DIMARCSYM
 70
    0
  9
$DIMLTYPE
  6

  9
$DIMLTEX1
  6

  9
$DIMLTEX2
  6

  9
$LUNITS
 70
    2
  9
$LUPREC
 70
    4
  9
$SKETCHINC
 40
1
  9
$FILLETRAD
 40
0
  9
$AUNITS
 70
    0
  9
$AUPREC
 70
    2
  9
$MENU
  1
.
  9
$ELEVATION
 40
0
  9
$PELEVATION
 40
0
  9
$THICKNESS
 40
0
  9
$LIMCHECK
 70
    0
  9
$CHAMFERA
 40
0
  9
$CHAMFERB
 40
0
  9
$CHAMFERC
 40
0
  9
$CHAMFERD
 40
0
  9
$SKPOLY
 70
    0
  9
$USRTIMER
 70
    1
  9
$ANGBASE
 50
0
  9
$ANGDIR
 70
    0
  9
$PDMODE
 70
   34
  9
$PDSIZE
 40
0
  9
$PLINEWID
 40
0
  9
$SPLFRAME
 70
    0
  9
$SPLINETYPE
 70
    2
  9
$SPLINESEGS
 70
    8
  9
$HANDSEED
  5
20000
  9
$SURFTAB1
 70
    6
  9
$SURFTAB2
 70
    6
  9
$SURFTYPE
 70
    6
  9
$SURFU
 70
    6
  9
$SURFV
 70
    6
  9
$UCSBASE
  2

  9
$UCSNAME
  2

  9
$UCSORG
 10
0
 20
0
 30
0
  9
$UCSXDIR
 10
1
 20
0
 30
0
  9
$UCSYDIR
 10
0
 20
1
 30
0
  9
$UCSORTHOREF
  2

  9
$UCSORTHOVIEW
 70
    0
  9
$UCSORGTOP
 10
0
 20
0
 30
0
  9
$UCSORGBOTTOM
 10
0
 20
0
 30
0
  9
$UCSORGLEFT
 10
0
 20
0
 30
0
  9
$UCSORGRIGHT
 10
0
 20
0
 30
0
  9
$UCSORGFRONT
 10
0
 20
0
 30
0
  9
$UCSORGBACK
 10
0
 20
0
 30
0
  9
$PUCSBASE
  2

  9
$PUCSNAME
  2

  9
$PUCSORG
 10
0
 20
0
 30
0
  9
$PUCSXDIR
 10
1
 20
0
 30
0
  9
$PUCSYDIR
 10
0
 20
1
 30
0
  9
$PUCSORTHOREF
  2

  9
$PUCSORTHOVIEW
 70
    0
  9
$PUCSORGTOP
 10
0
 20
0
 30
0
  9
$PUCSORGBOTTOM
 10
0
 20
0
 30
0
  9
$PUCSORGLEFT
 10
0
 20
0
 30
0
  9
$PUCSORGRIGHT
 10
0
 20
0
 30
0
  9
$PUCSORGFRONT
 10
0
 20
0
 30
0
  9
$PUCSORGBACK
 10
0
 20
0
 30
0
  9
$USERI1
 70
    0
  9
$USERI2
 70
    0
  9
$USERI3
 70
    0
  9
$USERI4
 70
    0
  9
$USERI5
 70
    0
  9
$USERR1
 40
0
  9
$USERR2
 40
0
  9
$USERR3
 40
0
  9
$USERR4
 40
0
  9
$USERR5
 40
0
  9
$WORLDVIEW
 70
    1
  9
$SHADEDGE
 70
    3
  9
$SHADEDIF
 70
   70
  9
$TILEMODE
 70
    1
  9
$MAXACTVP
 70
   64
  9
$PINSBASE
 10
0
 20
0
 30
0
  9
$PLIMCHECK
 70
    0
  9
$PEXTMIN
 10
0
 20
0
 30
0
  9
$PEXTMAX
 10
0
 20
0
 30
0
  9
$GRIDMODE
 70
    1
  9
$SNAPSTYLE
 70
    0
  9
$PLIMMIN
 10
0
 20
0
  9
$PLIMMAX
 10
0.00073228
 20
0.00054921
  9
$UNITMODE
 70
    0
  9
$VISRETAIN
 70
    1
  9
$PLINEGEN
 70
    0
  9
$PSLTSCALE
 70
    1
  9
$TREEDEPTH
 70
 3020
  9
$CMLSTYLE
  2
Standard
  9
$CMLJUST
 70
    0
  9
$CMLSCALE
 40
20
  9
$PROXYGRAPHICS
 70
    1
  9
$MEASUREMENT
 70
    1
  9
$CELWEIGHT
370
   -1
  9
$ENDCAPS
280
    0
  9
$JOINSTYLE
280
    0
  9
$LWDISPLAY
290
    0
  9
$INSUNITS
 70
    0
  9
$HYPERLINKBASE
  1

  9
$STYLESHEET
  1

  9
$XEDIT
290
    1
  9
$CEPSNTYPE
380
    0
  9
$PSTYLEMODE
290
    1
  9
$EXTNAMES
290
    1
  9
$PSVPSCALE
 40
1
  9
$OLESTARTUP
290
    0
  9
$SORTENTS
280
  127
  9
$INDEXCTL
280
    0
  9
$HIDETEXT
280
    1
  9
$XCLIPFRAME
290
    0
  9
$HALOGAP
280
    0
  9
$OBSCOLOR
 70
  257
  9
$OBSLTYPE
280
    0
  9
$INTERSECTIONDISPLAY
280
    0
  9
$INTERSECTIONCOLOR
 70
  257
  9
$DIMASSOC
280
    0
  9
$PROJECTNAME
  1

  9
$CAMERADISPLAY
290
    0
  9
$LENSLENGTH
 40
50
  9
$CAMERAHEIGHT
 40
0
  9
$STEPSPERSEC
 40
2
  9
$STEPSIZE
 40
50
  9
$3DDWFPREC
 40
2
  9
$PSOLWIDTH
 40
5
  9
$PSOLHEIGHT
 40
80
  9
$LOFTANG1
 40
1.570796326794897
  9
$LOFTANG2
 40
1.570796326794897
  9
$LOFTMAG1
 40
0
  9
$LOFTMAG2
 40
0
  9
$LOFTPARAM
 70
    7
  9
$LOFTNORMALS
280
    1
  9
$LATITUDE
 40
1
  9
$LONGITUDE
 40
1
  9
$NORTHDIRECTION
 40
0
  9
$TIMEZONE
 70
-8000
  9
$LIGHTGLYPHDISPLAY
280
    1
  9
$TILEMODELIGHTSYNCH
280
    1
  9
$SOLIDHIST
280
    1
  9
$SHOWHIST
280
    1
  9
$DWFFRAME
280
    2
  9
$DGNFRAME
280
    0
  9
$REALWORLDSCALE
290
    1
  9
$INTERFERECOLOR
 62
    1
  9
$CSHADOW
280
    0
  9
$SHADOWPLANELOCATION
 40
0
  0
ENDSEC
  0
SECTION
  2
CLASSES
  0
ENDSEC
  0
SECTION
  2
TABLES
  0
TABLE
  2
VPORT
  5
8
330
0
100
AcDbSymbolTable
 70
    1
  0
VPORT
  5
31
330
2
100
AcDbSymbolTableRecord
100
AcDbViewportTableRecord
  2
*ACTIVE
 70
    0
 10
0
 20
0
 11
1
 21
1
 12
255.875
 22
99.375
 13
0
 23
0
 14
10
 24
10
 15
10
 25
10
 16
0
 26
0
 36
1
 17
0
 27
0
 37
0
 40
256.25
 41
2.045853658536585
 42
50
 43
0
 44
0
 50
0
 51
0
 71
    0
 72
  100
 73
    1
 74
    3
 75
    0
 76
    1
 77
    0
 78
    0
281
    0
 65
    1
110
0
120
0
130
0
111
1
121
0
131
0
112
0
122
1
132
0
 79
    0
146
0
348
10020
 60
    7
 61
    5
292
1
282
    1
141
0
142
0
 63
  250
421
3358443
  0
ENDTAB
  0
TABLE
  2
LTYPE
  5
5
330
0
100
AcDbSymbolTable
 70
    4
  0
LTYPE
  5
14
330
5
100
AcDbSymbolTableRecord
100
AcDbLinetypeTableRecord
  2
ByBlock
 70
    0
  3

 72
   65
 73
    0
 40
0
  0
LTYPE
  5
15
330
5
100
AcDbSymbolTableRecord
100
AcDbLinetypeTableRecord
  2
ByLayer
 70
    0
  3

 72
   65
 73
    0
 40
0
  0
LTYPE
  5
16
330
5
100
AcDbSymbolTableRecord
100
AcDbLinetypeTableRecord
  2
Continuous
 70
    0
  3
Solid line
 72
   65
 73
    0
 40
0
  0
LTYPE
  5
32
330
5
100
AcDbSymbolTableRecord
100
AcDbLinetypeTableRecord
  2
DOT
 70
    0
  3
Dot . . . . . . . . . . . . . . . . . . . . . .
 72
   65
 73
    2
 40
6.35
 49
0
 74
    0
 49
-6.35
 74
    0
  0
LTYPE
  5
33
330
5
100
AcDbSymbolTableRecord
100
AcDbLinetypeTableRecord
  2
DOTTINY
 70
    0
  3
Dot (.15x) .....................................
 72
   65
 73
    2
 40
0.9525
 49
0
 74
    0
 49
-0.9525
 74
    0
  0
LTYPE
  5
34
330
5
100
AcDbSymbolTableRecord
100
AcDbLinetypeTableRecord
  2
DOT2
 70
    0
  3
Dot (.5x) .....................................
 72
   65
 73
    2
 40
3.175
 49
0
 74
    0
 49
-3.175
 74
    0
  0
LTYPE
  5
35
330
5
100
AcDbSymbolTableRecord
100
AcDbLinetypeTableRecord
  2
DOTX2
 70
    0
  3
Dot (2x) .  .  .  .  .  .  .  .  .  .  .  .  .
 72
   65
 73
    2
 40
12.7
 49
0
 74
    0
 49
-12.7
 74
    0
  0
LTYPE
  5
36
330
5
100
AcDbSymbolTableRecord
100
AcDbLinetypeTableRecord
  2
DASHED
 70
    0
  3
Dashed _ _ _ _ _ _ _ _ _ _ _ _ _ _ _ _ _
 72
   65
 73
    2
 40
19.05
 49
12.7
 74
    0
 49
-6.35
 74
    0
  0
LTYPE
  5
37
330
5
100
AcDbSymbolTableRecord
100
AcDbLinetypeTableRecord
  2
DASHEDTINY
 70
    0
  3
Dashed (.15x) _ _ _ _ _ _ _ _ _ _ _ _ _ _ _ _ _
 72
   65
 73
    2
 40
2.8575
 49
1.905
 74
    0
 49
-0.9525
 74
    0
  0
LTYPE
  5
38
330
5
100
AcDbSymbolTableRecord
100
AcDbLinetypeTableRecord
  2
DASHED2
 70
    0
  3
Dashed (.5x) _ _ _ _ _ _ _ _ _ _ _ _ _ _ _ _ _
 72
   65
 73
    2
 40
9.524999999999999
 49
6.35
 74
    0
 49
-3.175
 74
    0
  0
LTYPE
  5
39
330
5
100
AcDbSymbolTableRecord
100
AcDbLinetypeTableRecord
  2
DASHEDX2
 70
    0
  3
Dashed (2x) ____  ____  ____  ____  ____  ___
 72
   65
 73
    2
 40
38.09999999999999
 49
25.4
 74
    0
 49
-12.7
 74
    0
  0
LTYPE
  5
3A
330
5
100
AcDbSymbolTableRecord
100
AcDbLinetypeTableRecord
  2
DASHDOT
 70
    0
  3
Dash dot __ . __ . __ . __ . __ . __ . __ . __
 72
   65
 73
    4
 40
25.4
 49
12.7
 74
    0
 49
-6.35
 74
    0
 49
0
 74
    0
 49
-6.35
 74
    0
  0
LTYPE
  5
3B
330
5
100
AcDbSymbolTableRecord
100
AcDbLinetypeTableRecord
  2
DASHDOTTINY
 70
    0
  3
Dash dot (.15x) _._._._._._._._._._._._._._._.
 72
   65
 73
    4
 40
3.81
 49
1.905
 74
    0
 49
-0.9525
 74
    0
 49
0
 74
    0
 49
-0.9525
 74
    0
  0
LTYPE
  5
3C
330
5
100
AcDbSymbolTableRecord
100
AcDbLinetypeTableRecord
  2
DASHDOT2
 70
    0
  3
Dash dot (.5x) _._._._._._._._._._._._._._._.
 72
   65
 73
    4
 40
12.7
 49
6.35
 74
    0
 49
-3.175
 74
    0
 49
0
 74
    0
 49
-3.175
 74
    0
  0
LTYPE
  5
3D
330
5
100
AcDbSymbolTableRecord
100
AcDbLinetypeTableRecord
  2
DASHDOTX2
 70
    0
  3
Dash dot (2x) ____  .  ____  .  ____  .  ___
 72
   65
 73
    4
 40
50.8
 49
25.4
 74
    0
 49
-12.7
 74
    0
 49
0
 74
    0
 49
-12.7
 74
    0
  0
LTYPE
  5
3E
330
5
100
AcDbSymbolTableRecord
100
AcDbLinetypeTableRecord
  2
DIVIDE
 70
    0
  3
Divide ____ . . ____ . . ____ . . ____ . . ____
 72
   65
 73
    6
 40
31.75
 49
12.7
 74
    0
 49
-6.35
 74
    0
 49
0
 74
    0
 49
-6.35
 74
    0
 49
0
 74
    0
 49
-6.35
 74
    0
  0
LTYPE
  5
3F
330
5
100
AcDbSymbolTableRecord
100
AcDbLinetypeTableRecord
  2
DIVIDETINY
 70
    0
  3
Divide (.15x) __..__..__..__..__..__..__..__.._
 72
   65
 73
    6
 40
4.7625
 49
1.905
 74
    0
 49
-0.9525
 74
    0
 49
0
 74
    0
 49
-0.9525
 74
    0
 49
0
 74
    0
 49
-0.9525
 74
    0
  0
LTYPE
  5
40
330
5
100
AcDbSymbolTableRecord
100
AcDbLinetypeTableRecord
  2
DIVIDE2
 70
    0
  3
Divide (.5x) __..__..__..__..__..__..__..__.._
 72
   65
 73
    6
 40
15.875
 49
6.35
 74
    0
 49
-3.175
 74
    0
 49
0
 74
    0
 49
-3.175
 74
    0
 49
0
 74
    0
 49
-3.175
 74
    0
  0
LTYPE
  5
41
330
5
100
AcDbSymbolTableRecord
100
AcDbLinetypeTableRecord
  2
DIVIDEX2
 70
    0
  3
Divide (2x) ________  .  .  ________  .  .  _
 72
   65
 73
    6
 40
63.5
 49
25.4
 74
    0
 49
-12.7
 74
    0
 49
0
 74
    0
 49
-12.7
 74
    0
 49
0
 74
    0
 49
-12.7
 74
    0
  0
LTYPE
  5
42
330
5
100
AcDbSymbolTableRecord
100
AcDbLinetypeTableRecord
  2
BORDER
 70
    0
  3
Border __ __ . __ __ . __ __ . __ __ . __ __ .
 72
   65
 73
    6
 40
44.45
 49
12.7
 74
    0
 49
-6.35
 74
    0
 49
12.7
 74
    0
 49
-6.35
 74
    0
 49
0
 74
    0
 49
-6.35
 74
    0
  0
LTYPE
  5
43
330
5
100
AcDbSymbolTableRecord
100
AcDbLinetypeTableRecord
  2
BORDERTINY
 70
    0
  3
Border (.15x) __.__.__.__.__.__.__.__.__.__.__.
 72
   65
 73
    6
 40
6.6675
 49
1.905
 74
    0
 49
-0.9525
 74
    0
 49
1.905
 74
    0
 49
-0.9525
 74
    0
 49
0
 74
    0
 49
-0.9525
 74
    0
  0
LTYPE
  5
44
330
5
100
AcDbSymbolTableRecord
100
AcDbLinetypeTableRecord
  2
BORDER2
 70
    0
  3
Border (.5x) __.__.__.__.__.__.__.__.__.__.__.
 72
   65
 73
    6
 40
22.225
 49
6.35
 74
    0
 49
-3.175
 74
    0
 49
6.35
 74
    0
 49
-3.175
 74
    0
 49
0
 74
    0
 49
-3.175
 74
    0
  0
LTYPE
  5
45
330
5
100
AcDbSymbolTableRecord
100
AcDbLinetypeTableRecord
  2
BORDERX2
 70
    0
  3
Border (2x) ____  ____  .  ____  ____  .  ___
 72
   65
 73
    6
 40
88.89999999999999
 49
25.4
 74
    0
 49
-12.7
 74
    0
 49
25.4
 74
    0
 49
-12.7
 74
    0
 49
0
 74
    0
 49
-12.7
 74
    0
  0
LTYPE
  5
46
330
5
100
AcDbSymbolTableRecord
100
AcDbLinetypeTableRecord
  2
CENTER
 70
    0
  3
Center ____ _ ____ _ ____ _ ____ _ ____ _ ____
 72
   65
 73
    4
 40
50.8
 49
31.75
 74
    0
 49
-6.35
 74
    0
 49
6.35
 74
    0
 49
-6.35
 74
    0
  0
LTYPE
  5
47
330
5
100
AcDbSymbolTableRecord
100
AcDbLinetypeTableRecord
  2
CENTERTINY
 70
    0
  3
Center (.15x) ___ _ ___ _ ___ _ ___ _ ___ _ ___
 72
   65
 73
    4
 40
7.619999999999999
 49
4.7625
 74
    0
 49
-0.9525
 74
    0
 49
0.9525
 74
    0
 49
-0.9525
 74
    0
  0
LTYPE
  5
48
330
5
100
AcDbSymbolTableRecord
100
AcDbLinetypeTableRecord
  2
CENTER2
 70
    0
  3
Center (.5x) ___ _ ___ _ ___ _ ___ _ ___ _ ___
 72
   65
 73
    4
 40
28.575
 49
19.05
 74
    0
 49
-3.175
 74
    0
 49
3.175
 74
    0
 49
-3.175
 74
    0
  0
LTYPE
  5
49
330
5
100
AcDbSymbolTableRecord
100
AcDbLinetypeTableRecord
  2
CENTERX2
 70
    0
  3
Center (2x) ________  __  ________  __  _____
 72
   65
 73
    4
 40
101.6
 49
63.5
 74
    0
 49
-12.7
 74
    0
 49
12.7
 74
    0
 49
-12.7
 74
    0
  0
ENDTAB
  0
TABLE
  2
LAYER
  5
2
330
0
100
AcDbSymbolTable
 70
    1
  0
LAYER
  5
10
330
2
100
AcDbSymbolTableRecord
100
AcDbLayerTableRecord
  2
0
 70
    0
 62
    7
  6
CONTINUOUS
370
    0
390
F
  0
ENDTAB
  0
TABLE
  2
STYLE
  5
3
330
0
100
AcDbSymbolTable
 70
    3
  0
STYLE
  5
4A
330
2
100
AcDbSymbolTableRecord
100
AcDbTextStyleTableRecord
  2
Standard
 70
    0
 40
0
 41
1
 50
0
 71
    0
 42
1
  3
txt
  4

  0
ENDTAB
  0
TABLE
  2
VIEW
  5
6
330
0
100
AcDbSymbolTable
 70
    0
  0
ENDTAB
  0
TABLE
  2
UCS
  5
7
330
0
100
AcDbSymbolTable
 70
    0
  0
ENDTAB
  0
TABLE
  2
APPID
  5
9
330
0
100
AcDbSymbolTable
 70
    1
  0
APPID
  5
12
330
9
100
AcDbSymbolTableRecord
100
AcDbRegAppTableRecord
  2
ACAD
 70
    0
  0
APPID
  5
4B
330
9
100
AcDbSymbolTableRecord
100
AcDbRegAppTableRecord
  2
LibreCad
 70
    0
  0
ENDTAB
  0
TABLE
  2
DIMSTYLE
  5
A
330
0
100
AcDbSymbolTable
 70
    1
100
AcDbDimStyleTable
 71
    1
  0
DIMSTYLE
105
4C
330
A
100
AcDbSymbolTableRecord
100
AcDbDimStyleTableRecord
  2
Standard
 70
    0
 40
1
 41
2.5
 42
0.625
 43
0.38
 44
1.25
 45
0
 46
0
 47
0
 48
0
140
2.5
141
0.09
142
0
143
25.4
144
1
145
0
146
1
147
0.625
148
0
 71
    0
 72
    0
 73
    0
 74
    1
 75
    0
 76
    0
 77
    0
 78
    0
 79
    0
170
    0
171
    2
172
    0
173
    0
174
    0
175
    0
176
    0
177
    0
178
    0
179
    0
271
    4
272
    4
273
    2
274
    2
275
    0
276
    0
277
    2
278
   46
279
    0
280
    0
281
    0
282
    0
283
    1
284
    0
285
    0
286
    0
288
    0
289
    3
340
Standard
341

371
   -2
372
   -2
  0
ENDTAB
  0
TABLE
  2
BLOCK_RECORD
  5
1
330
0
100
AcDbSymbolTable
 70
    2
  0
BLOCK_RECORD
  5
1F
330
1
100
AcDbSymbolTableRecord
100
AcDbBlockTableRecord
  2
*Model_Space
 70
    0
280
    1
281
    0
  0
BLOCK_RECORD
  5
1E
330
1
100
AcDbSymbolTableRecord
100
AcDbBlockTableRecord
  2
*Paper_Space
 70
    0
280
    1
281
    0
  0
ENDTAB
  0
ENDSEC
  0
SECTION
  2
BLOCKS
  0
BLOCK
  5
20
330
1F
100
AcDbEntity
  8
0
100
AcDbBlockBegin
  2
*Model_Space
 70
    0
 10
0
 20
0
 30
0
  3
*Model_Space
  1

  0
ENDBLK
  5
21
330
1F
100
AcDbEntity
  8
0
100
AcDbBlockEnd
  0
BLOCK
  5
1C
330
1B
100
AcDbEntity
  8
0
100
AcDbBlockBegin
  2
*Paper_Space
 70
    0
 10
0
 20
0
 30
0
  3
*Paper_Space
  1

  0
ENDBLK
  5
1D
330
1F
100
AcDbEntity
  8
0
100
AcDbBlockEnd
  0
ENDSEC
  0
SECTION
  2
ENTITIES
  0
LINE
  5
4D
100
AcDbEntity
  8
0
  6
ByLayer
 62
  256
370
   -1
100
AcDbLine
 10
335.0998974186231
 20
48.25922668008991
 11
326.4499001866227
 21
48.25922668008991
  0
LINE
  5
4E
100
AcDbEntity
  8
0
  6
ByLayer
 62
  256
370
   -1
100
AcDbLine
 10
341.8498952586234
 20
-0.2407577999130694
 11
342.2498917226241
 21
-0.25
  0
LINE
  5
4F
100
AcDbEntity
  8
0
  6
ByLayer
 62
  256
370
   -1
100
AcDbLine
 10
51.09998829860513
 20
-0.2407577999130694
 11
51.09998829860513
 21
51.94999582400033
  0
LINE
  5
50
100
AcDbEntity
  8
0
  6
ByLayer
 62
  256
370
   -1
100
AcDbLine
 10
51.09998829860513
 20
51.94999582400033
 11
57.79998615460562
 21
51.94999582400033
  0
LINE
  5
51
100
AcDbEntity
  8
0
  6
ByLayer
 62
  256
370
   -1
100
AcDbLine
 10
0
 20
-0.25
 11
-4.99999840000018
 21
4.558250046542241
  0
LINE
  5
52
100
AcDbEntity
  8
0
  6
ByLayer
 62
  256
370
   -1
100
AcDbLine
 10
397.949873898628
 20
4.74999840000055
 11
392.9498754986275
 21
-0.25
  0
LINE
  5
53
100
AcDbEntity
  8
0
  6
ByLayer
 62
  256
370
   -1
100
AcDbLine
 10
66.44998338660594
 20
324.7498960000212
 11
71.44998178660609
 21
329.7498944000213
  0
LINE
  5
54
100
AcDbEntity
  8
0
  6
ByLayer
 62
  256
370
   -1
100
AcDbLine
 10
71.44998178660609
 20
329.7498944000213
 11
321.4499017866225
 21
329.7498944000213
  0
LINE
  5
55
100
AcDbEntity
  8
0
  6
ByLayer
 62
  256
370
   -1
100
AcDbLine
 10
321.4499017866225
 20
329.7498944000213
 11
326.4499001866227
 21
324.7498960000212
  0
LINE
  5
56
100
AcDbEntity
  8
0
  6
ByLayer
 62
  256
370
   -1
100
AcDbLine
 10
326.4499001866227
 20
324.7498960000212
 11
326.4499001866227
 21
48.25922668008991
  0
LINE
  5
57
100
AcDbEntity
  8
0
  6
ByLayer
 62
  256
370
   -1
100
AcDbLine
 10
366.8498949304731
 20
363.6498835520231
 11
385.9498772586272
 21
363.6498835520231
  0
LINE
  5
58
100
AcDbEntity
  8
0
  6
ByLayer
 62
  256
370
   -1
100
AcDbLine
 10
385.9498772586272
 20
363.6498835520231
 11
385.9498772586272
 21
369.7498816000236
  0
LINE
  5
59
100
AcDbEntity
  8
0
  6
ByLayer
 62
  256
370
   -1
100
AcDbLine
 10
24.2999823362544
 20
358.3498847302228
 11
24.299982336254
 21
353.2498869657231
  0
LINE
  5
5A
100
AcDbEntity
  8
0
  6
ByLayer
 62
  256
370
   -1
100
AcDbLine
 10
30.49998523985312
 20
363.6498835520231
 11
49.59998120000392
 21
363.6498835520231
  0
LINE
  5
5B
100
AcDbEntity
  8
0
  6
ByLayer
 62
  256
370
   -1
100
AcDbLine
 10
362.4498902587749
 20
358.3498847302232
 11
360.6498920268746
 21
358.3498847302228
  0
LINE
  5
5C
100
AcDbEntity
  8
0
  6
ByLayer
 62
  256
370
   -1
100
AcDbLine
 10
368.6498931623737
 20
358.3498847302228
 11
366.8498949304731
 21
358.3498847302232
  0
LINE
  5
5D
100
AcDbEntity
  8
0
  6
ByLayer
 62
  256
370
   -1
100
AcDbLine
 10
385.9498772586272
 20
369.7498816000236
 11
397.949873898628
 21
369.7498816000236
  0
LINE
  5
5E
100
AcDbEntity
  8
0
  6
ByLayer
 62
  256
370
   -1
100
AcDbLine
 10
49.59998120000392
 20
363.6498835520231
 11
49.59998120000392
 21
369.7498816000236
  0
LINE
  5
5F
100
AcDbEntity
  8
0
  6
ByLayer
 62
  256
370
   -1
100
AcDbLine
 10
362.4498902587749
 20
353.2498869657231
 11
362.4498902587749
 21
349.2998871434227
  0
LINE
  5
60
100
AcDbEntity
  8
0
  6
ByLayer
 62
  256
370
   -1
100
AcDbLine
 10
366.8498949304727
 20
349.2998871434229
 11
366.8498949304731
 21
353.2498869657227
  0
LINE
  5
61
100
AcDbEntity
  8
0
  6
ByLayer
 62
  256
370
   -1
100
AcDbLine
 10
360.6498920268746
 20
358.3498847302228
 11
360.6498920268741
 21
353.2498869657227
  0
LINE
  5
62
100
AcDbEntity
  8
0
  6
ByLayer
 62
  256
370
   -1
100
AcDbLine
 10
343.3498942986238
 20
369.7498816000236
 11
343.3498942986238
 21
363.6498835520231
  0
LINE
  5
63
100
AcDbEntity
  8
0
  6
ByLayer
 62
  256
370
   -1
100
AcDbLine
 10
343.3498942986238
 20
363.6498835520231
 11
362.4498902587749
 21
363.6498835520231
  0
LINE
  5
64
100
AcDbEntity
  8
0
  6
ByLayer
 62
  256
370
   -1
100
AcDbLine
 10
360.6498920268741
 20
353.2498869657227
 11
362.4498902587749
 21
353.2498869657231
  0
LINE
  5
65
100
AcDbEntity
  8
0
  6
ByLayer
 62
  256
370
   -1
100
AcDbLine
 10
362.4498902587749
 20
349.2998871434227
 11
366.8498949304727
 21
349.2998871434229
  0
LINE
  5
66
100
AcDbEntity
  8
0
  6
ByLayer
 62
  256
370
   -1
100
AcDbLine
 10
366.8498949304731
 20
353.2498869657227
 11
368.6498931623737
 21
353.2498869657227
  0
LINE
  5
67
100
AcDbEntity
  8
0
  6
ByLayer
 62
  256
370
   -1
100
AcDbLine
 10
362.4498902587749
 20
363.6498835520231
 11
362.4498902587749
 21
358.3498847302232
  0
LINE
  5
68
100
AcDbEntity
  8
0
  6
ByLayer
 62
  256
370
   -1
100
AcDbLine
 10
366.8498949304731
 20
358.3498847302232
 11
366.8498949304731
 21
363.6498835520231
  0
LINE
  5
69
100
AcDbEntity
  8
0
  6
ByLayer
 62
  256
370
   -1
100
AcDbLine
 10
368.6498931623737
 20
353.2498869657227
 11
368.6498931623737
 21
358.3498847302228
  0
LINE
  5
6A
100
AcDbEntity
  8
0
  6
ByLayer
 62
  256
370
   -1
100
AcDbLine
 10
397.949873898628
 20
369.7498816000236
 11
397.949873898628
 21
352.7498829600236
  0
LINE
  5
6B
100
AcDbEntity
  8
0
  6
ByLayer
 62
  256
370
   -1
100
AcDbLine
 10
392.9498754986275
 20
-0.25
 11
342.2498917226241
 21
-0.25
  0
LINE
  5
6C
100
AcDbEntity
  8
0
  6
ByLayer
 62
  256
370
   -1
100
AcDbLine
 10
32.29998347175359
 20
358.3498847302228
 11
30.49998523985312
 21
358.3498847302232
  0
LINE
  5
6D
100
AcDbEntity
  8
0
  6
ByLayer
 62
  256
370
   -1
100
AcDbLine
 10
26.09998056815482
 20
363.6498835520231
 11
26.09998056815482
 21
358.3498847302232
  0
LINE
  5
6E
100
AcDbEntity
  8
0
  6
ByLayer
 62
  256
370
   -1
100
AcDbLine
 10
30.499985239853
 20
353.2498869657227
 11
32.29998347175331
 21
353.2498869657227
  0
LINE
  5
6F
100
AcDbEntity
  8
0
  6
ByLayer
 62
  256
370
   -1
100
AcDbLine
 10
30.49998523985312
 20
358.3498847302232
 11
30.49998523985312
 21
363.6498835520231
  0
LINE
  5
70
100
AcDbEntity
  8
0
  6
ByLayer
 62
  256
370
   -1
100
AcDbLine
 10
26.09998056815482
 20
349.2998871434227
 11
30.49998523985272
 21
349.2998871434229
  0
LINE
  5
71
100
AcDbEntity
  8
0
  6
ByLayer
 62
  256
370
   -1
100
AcDbLine
 10
32.29998347175331
 20
353.2498869657227
 11
32.29998347175359
 21
358.3498847302228
  0
LINE
  5
72
100
AcDbEntity
  8
0
  6
ByLayer
 62
  256
370
   -1
100
AcDbLine
 10
26.09998056815482
 20
353.2498869657231
 11
26.09998056815482
 21
349.2998871434227
  0
LINE
  5
73
100
AcDbEntity
  8
0
  6
ByLayer
 62
  256
370
   -1
100
AcDbLine
 10
30.49998523985272
 20
349.2998871434229
 11
30.499985239853
 21
353.2498869657227
  0
LINE
  5
74
100
AcDbEntity
  8
0
  6
ByLayer
 62
  256
370
   -1
100
AcDbLine
 10
26.09998056815482
 20
358.3498847302232
 11
24.2999823362544
 21
358.3498847302228
  0
LINE
  5
75
100
AcDbEntity
  8
0
  6
ByLayer
 62
  256
370
   -1
100
AcDbLine
 10
24.299982336254
 20
353.2498869657231
 11
26.09998056815482
 21
353.2498869657231
  0
LINE
  5
76
100
AcDbEntity
  8
0
  6
ByLayer
 62
  256
370
   -1
100
AcDbLine
 10
-4.99999840000018
 20
4.558250046542241
 11
-4.99999840000018
 21
58.24999532000038
  0
LINE
  5
77
100
AcDbEntity
  8
0
  6
ByLayer
 62
  256
370
   -1
100
AcDbLine
 10
-4.99999840000018
 20
369.7498816000236
 11
6.999998240000309
 21
369.7498816000236
  0
LINE
  5
78
100
AcDbEntity
  8
0
  6
ByLayer
 62
  256
370
   -1
100
AcDbLine
 10
6.999998240000309
 20
363.6498835520231
 11
26.09998056815482
 21
363.6498835520231
  0
LINE
  5
79
100
AcDbEntity
  8
0
  6
ByLayer
 62
  256
370
   -1
100
AcDbLine
 10
6.999998240000309
 20
369.7498816000236
 11
6.999998240000309
 21
363.6498835520231
  0
LINE
  5
7A
100
AcDbEntity
  8
0
  6
ByLayer
 62
  256
370
   -1
100
AcDbLine
 10
49.59998120000392
 20
369.7498816000236
 11
343.3498942986238
 21
369.7498816000236
  0
LINE
  5
7B
100
AcDbEntity
  8
0
  6
ByLayer
 62
  256
370
   -1
100
AcDbLine
 10
57.79998615460562
 20
51.94999582400033
 11
57.79998615460562
 21
48.25922668008991
  0
LINE
  5
7C
100
AcDbEntity
  8
0
  6
ByLayer
 62
  256
370
   -1
100
AcDbLine
 10
66.44998338660594
 20
48.25922668008991
 11
66.44998338660594
 21
324.7498960000212
  0
LINE
  5
7D
100
AcDbEntity
  8
0
  6
ByLayer
 62
  256
370
   -1
100
AcDbLine
 10
57.79998615460562
 20
48.25922668008991
 11
66.44998338660594
 21
48.25922668008991
  0
LINE
  5
7E
100
AcDbEntity
  8
0
  6
ByLayer
 62
  256
370
   -1
100
AcDbLine
 10
341.8498952586234
 20
-0.2407577999130694
 11
341.8498952586234
 21
51.94999582400033
  0
LINE
  5
7F
100
AcDbEntity
  8
0
  6
ByLayer
 62
  256
370
   -1
100
AcDbLine
 10
341.8498952586234
 20
51.94999582400033
 11
335.0998974186231
 21
51.94999582400033
  0
LINE
  5
80
100
AcDbEntity
  8
0
  6
ByLayer
 62
  256
370
   -1
100
AcDbLine
 10
335.0998974186231
 20
51.94999582400033
 11
335.0998974186231
 21
48.25922668008991
  0
LINE
  5
81
100
AcDbEntity
  8
0
  6
ByLayer
 62
  256
370
   -1
100
AcDbLine
 10
50.64999185060412
 20
-0.25
 11
0
 21
-0.25
  0
LINE
  5
82
100
AcDbEntity
  8
0
  6
ByLayer
 62
  256
370
   -1
100
AcDbLine
 10
51.09998829860513
 20
-0.2407577999130694
 11
50.64999185060412
 21
-0.25
  0
LINE
  5
83
100
AcDbEntity
  8
0
  6
ByLayer
 62
  256
370
   -1
100
AcDbLine
 10
-4.99999840000018
 20
58.24999532000038
 11
5.000000799999697
 21
68.24999452000054
  0
LINE
  5
84
100
AcDbEntity
  8
0
  6
ByLayer
 62
  256
370
   -1
100
AcDbLine
 10
-4.99999840000018
 20
352.7498829600236
 11
-4.99999840000018
 21
369.7498816000236
  0
LINE
  5
85
100
AcDbEntity
  8
0
  6
ByLayer
 62
  256
370
   -1
100
AcDbLine
 10
-4.99999840000018
 20
352.7498829600236
 11
5.000000799999697
 21
342.7498837600236
  0
LINE
  5
86
100
AcDbEntity
  8
0
  6
ByLayer
 62
  256
370
   -1
100
AcDbLine
 10
5.000000799999697
 20
342.7498837600236
 11
5.000000799999697
 21
68.24999452000054
  0
LINE
  5
87
100
AcDbEntity
  8
0
  6
ByLayer
 62
  256
370
   -1
100
AcDbLine
 10
397.949873898628
 20
58.24999532000038
 11
397.949873898628
 21
4.74999840000055
  0
LINE
  5
88
100
AcDbEntity
  8
0
  6
ByLayer
 62
  256
370
   -1
100
AcDbLine
 10
397.949873898628
 20
58.24999532000038
 11
387.9498746986279
 21
68.24999452000054
  0
LINE
  5
89
100
AcDbEntity
  8
0
  6
ByLayer
 62
  256
370
   -1
100
AcDbLine
 10
387.9498746986279
 20
68.24999452000054
 11
387.9498746986279
 21
342.7498837600232
  0
LINE
  5
8A
100
AcDbEntity
  8
0
  6
ByLayer
 62
  256
370
   -1
100
AcDbLine
 10
387.9498746986279
 20
342.7498837600232
 11
397.949873898628
 21
352.7498829600236
  0
LINE
  5
8B
100
AcDbEntity
  8
0
  6
ByLayer
 62
  256
370
   -1
100
AcDbLine
 10
55.7239993443651
 20
331.1181182929922
 11
55.35084983438742
 21
331.4044459825491
  0
LINE
  5
8C
100
AcDbEntity
  8
0
  6
ByLayer
 62
  256
370
   -1
100
AcDbLine
 10
56.01032703392269
 20
330.744968783014
 11
55.7239993443651
 21
331.1181182929922
  0
LINE
  5
8D
100
AcDbEntity
  8
0
  6
ByLayer
 62
  256
370
   -1
100
AcDbLine
 10
56.19032014419469
 20
330.3104269750613
 11
56.01032703392269
 21
330.744968783014
  0
LINE
  5
8E
100
AcDbEntity
  8
0
  6
ByLayer
 62
  256
370
   -1
100
AcDbLine
 10
56.19032014419469
 20
329.3777853754027
 11
56.25171244216943
 21
329.8441061752318
  0
LINE
  5
8F
100
AcDbEntity
  8
0
  6
ByLayer
 62
  256
370
   -1
100
AcDbLine
 10
56.01032703392269
 20
328.9432435674498
 11
56.19032014419469
 21
329.3777853754027
  0
LINE
  5
90
100
AcDbEntity
  8
0
  6
ByLayer
 62
  256
370
   -1
100
AcDbLine
 10
55.7239993443655
 20
328.5700940574718
 11
56.01032703392269
 21
328.9432435674498
  0
LINE
  5
91
100
AcDbEntity
  8
0
  6
ByLayer
 62
  256
370
   -1
100
AcDbLine
 10
55.35084983438742
 20
328.2837663679145
 11
55.7239993443655
 21
328.5700940574718
  0
LINE
  5
92
100
AcDbEntity
  8
0
  6
ByLayer
 62
  256
370
   -1
100
AcDbLine
 10
54.91630802643482
 20
328.1037732576423
 11
55.35084983438742
 21
328.2837663679145
  0
LINE
  5
93
100
AcDbEntity
  8
0
  6
ByLayer
 62
  256
370
   -1
100
AcDbLine
 10
54.4499872266054
 20
328.042380959668
 11
54.91630802643482
 21
328.1037732576423
  0
LINE
  5
94
100
AcDbEntity
  8
0
  6
ByLayer
 62
  256
370
   -1
100
AcDbLine
 10
52.6482620110416
 20
184.7591830000986
 11
52.70965430901583
 21
184.2928622002694
  0
LINE
  5
95
100
AcDbEntity
  8
0
  6
ByLayer
 62
  256
370
   -1
100
AcDbLine
 10
53.9836664267757
 20
183.0188500825092
 11
54.4499872266054
 21
182.9574577845347
  0
LINE
  5
96
100
AcDbEntity
  8
0
  6
ByLayer
 62
  256
370
   -1
100
AcDbLine
 10
53.54912461882338
 20
183.1988431927813
 11
53.9836664267757
 21
183.0188500825092
  0
LINE
  5
97
100
AcDbEntity
  8
0
  6
ByLayer
 62
  256
370
   -1
100
AcDbLine
 10
340.190229264213
 20
329.3777853754027
 11
340.2516215621877
 21
329.8441061752318
  0
LINE
  5
98
100
AcDbEntity
  8
0
  6
ByLayer
 62
  256
370
   -1
100
AcDbLine
 10
340.010236153941
 20
328.9432435674498
 11
340.190229264213
 21
329.3777853754027
  0
LINE
  5
99
100
AcDbEntity
  8
0
  6
ByLayer
 62
  256
370
   -1
100
AcDbLine
 10
339.7239084643838
 20
328.5700940574718
 11
340.010236153941
 21
328.9432435674498
  0
LINE
  5
9A
100
AcDbEntity
  8
0
  6
ByLayer
 62
  256
370
   -1
100
AcDbLine
 10
339.3507589544059
 20
328.2837663679145
 11
339.7239084643838
 21
328.5700940574718
  0
LINE
  5
9B
100
AcDbEntity
  8
0
  6
ByLayer
 62
  256
370
   -1
100
AcDbLine
 10
338.9162171464529
 20
328.1037732576423
 11
339.3507589544059
 21
328.2837663679145
  0
LINE
  5
9C
100
AcDbEntity
  8
0
  6
ByLayer
 62
  256
370
   -1
100
AcDbLine
 10
338.4498963466236
 20
328.042380959668
 11
338.9162171464529
 21
328.1037732576423
  0
LINE
  5
9D
100
AcDbEntity
  8
0
  6
ByLayer
 62
  256
370
   -1
100
AcDbLine
 10
52.70965430901612
 20
330.3104269750613
 11
52.6482620110416
 21
329.8441061752318
  0
LINE
  5
9E
100
AcDbEntity
  8
0
  6
ByLayer
 62
  256
370
   -1
100
AcDbLine
 10
52.889647419288
 20
330.744968783014
 11
52.70965430901612
 21
330.3104269750613
  0
LINE
  5
9F
100
AcDbEntity
  8
0
  6
ByLayer
 62
  256
370
   -1
100
AcDbLine
 10
20.3999997158009
 20
51.99992506471756
 11
20.39999971580082
 21
58.5999120808217
  0
LINE
  5
A0
100
AcDbEntity
  8
0
  6
ByLayer
 62
  256
370
   -1
100
AcDbLine
 10
34.99999377720593
 20
58.59991208082147
 11
34.99999377720593
 21
51.99992506471767
  0
LINE
  5
A1
100
AcDbEntity
  8
0
  6
ByLayer
 62
  256
370
   -1
100
AcDbLine
 10
34.99999377720593
 20
51.99992506471767
 11
44.1999896143048
 21
51.99992506471756
  0
LINE
  5
A2
100
AcDbEntity
  8
0
  6
ByLayer
 62
  256
370
   -1
100
AcDbLine
 10
394.9998829012254
 20
10.49994018651415
 11
394.9998829012254
 21
19.699937886214
  0
LINE
  5
A3
100
AcDbEntity
  8
0
  6
ByLayer
 62
  256
370
   -1
100
AcDbLine
 10
51.14998530710602
 20
322.5441102457301
 11
51.14998530710602
 21
313.3441125460299
  0
LINE
  5
A4
100
AcDbEntity
  8
0
  6
ByLayer
 62
  256
370
   -1
100
AcDbLine
 10
57.749987224405
 20
337.1441043071329
 11
57.74998722440529
 21
346.3441001442329
  0
LINE
  5
A5
100
AcDbEntity
  8
0
  6
ByLayer
 62
  256
370
   -1
100
AcDbLine
 10
392.1662037032547
 20
28.74026673330525
 11
391.6998829034256
 21
28.80165903127966
  0
LINE
  5
A6
100
AcDbEntity
  8
0
  6
ByLayer
 62
  256
370
   -1
100
AcDbLine
 10
390.7990202956433
 20
25.43959400839844
 11
391.233562103596
 21
25.25960089812622
  0
LINE
  5
A7
100
AcDbEntity
  8
0
  6
ByLayer
 62
  256
370
   -1
100
AcDbLine
 10
2.940335509091909
 20
26.53361301588643
 11
3.001727807066601
 21
26.99993381571585
  0
LINE
  5
A8
100
AcDbEntity
  8
0
  6
ByLayer
 62
  256
370
   -1
100
AcDbLine
 10
-0.3603372158146954
 20
27.9007964234977
 11
-0.540330326086405
 21
27.46625461554515
  0
LINE
  5
A9
100
AcDbEntity
  8
0
  6
ByLayer
 62
  256
370
   -1
100
AcDbLine
 10
1.200002591502709
 20
28.80165903127966
 11
0.733681791673007
 21
28.74026673330548
  0
LINE
  5
AA
100
AcDbEntity
  8
0
  6
ByLayer
 62
  256
370
   -1
100
AcDbLine
 10
2.474014709262519
 20
28.27394593347594
 11
2.100865199284812
 21
28.56027362303314
  0
LINE
  5
AB
100
AcDbEntity
  8
0
  6
ByLayer
 62
  256
370
   -1
100
AcDbLine
 10
25.9596627277146
 20
54.83359965168961
 11
26.13965583798702
 21
54.3990578437373
  0
LINE
  5
AC
100
AcDbEntity
  8
0
  6
ByLayer
 62
  256
370
   -1
100
AcDbLine
 10
28.60085825308622
 20
56.86026025883632
 11
28.1663164451339
 21
57.04025336910843
  0
LINE
  5
AD
100
AcDbEntity
  8
0
  6
ByLayer
 62
  256
370
   -1
100
AcDbLine
 10
393.5016081189895
 20
26.99993381571585
 11
393.4402158210149
 21
27.46625461554515
  0
LINE
  5
AE
100
AcDbEntity
  8
0
  6
ByLayer
 62
  256
370
   -1
100
AcDbLine
 10
3.001727807066601
 20
26.99993381571585
 11
2.940335509092222
 21
27.46625461554527
  0
LINE
  5
AF
100
AcDbEntity
  8
0
  6
ByLayer
 62
  256
370
   -1
100
AcDbLine
 10
-0.540330326086405
 20
27.46625461554515
 11
-0.6017226240610967
 21
26.99993381571585
  0
LINE
  5
B0
100
AcDbEntity
  8
0
  6
ByLayer
 62
  256
370
   -1
100
AcDbLine
 10
391.6998829034256
 20
28.80165903127966
 11
391.233562103596
 21
28.74026673330525
  0
LINE
  5
B1
100
AcDbEntity
  8
0
  6
ByLayer
 62
  256
370
   -1
100
AcDbLine
 10
2.100865199284812
 20
28.56027362303314
 11
1.6663233913319
 21
28.74026673330525
  0
LINE
  5
B2
100
AcDbEntity
  8
0
  6
ByLayer
 62
  256
370
   -1
100
AcDbLine
 10
-0.07400952625738455
 20
25.72592169795576
 11
0.2991399837207211
 21
25.43959400839844
  0
LINE
  5
B3
100
AcDbEntity
  8
0
  6
ByLayer
 62
  256
370
   -1
100
AcDbLine
 10
391.6998829034256
 20
25.1982086001517
 11
392.166203703255
 21
25.25960089812622
  0
LINE
  5
B4
100
AcDbEntity
  8
0
  6
ByLayer
 62
  256
370
   -1
100
AcDbLine
 10
0.733681791673007
 20
25.25960089812634
 11
1.200002591502397
 21
25.19820860015182
  0
LINE
  5
B5
100
AcDbEntity
  8
0
  6
ByLayer
 62
  256
370
   -1
100
AcDbLine
 10
391.233562103596
 20
28.74026673330525
 11
390.7990202956438
 21
28.56027362303291
  0
LINE
  5
B6
100
AcDbEntity
  8
0
  6
ByLayer
 62
  256
370
   -1
100
AcDbLine
 10
392.6007455112077
 20
28.56027362303291
 11
392.1662037032547
 21
28.74026673330525
  0
LINE
  5
B7
100
AcDbEntity
  8
0
  6
ByLayer
 62
  256
370
   -1
100
AcDbLine
 10
2.760342398820001
 20
27.9007964234977
 11
2.474014709262519
 21
28.27394593347594
  0
LINE
  5
B8
100
AcDbEntity
  8
0
  6
ByLayer
 62
  256
370
   -1
100
AcDbLine
 10
393.4402158210149
 20
26.53361301588643
 11
393.5016081189895
 21
26.99993381571585
  0
LINE
  5
B9
100
AcDbEntity
  8
0
  6
ByLayer
 62
  256
370
   -1
100
AcDbLine
 10
104.5988767467669
 20
353.9014673234291
 11
104.5175554858682
 21
352.8430333864738
  0
LINE
  5
BA
100
AcDbEntity
  8
0
  6
ByLayer
 62
  256
370
   -1
100
AcDbLine
 10
104.5175554858682
 20
352.8430333864738
 11
104.2735917031721
 21
351.8810112536771
  0
LINE
  5
BB
100
AcDbEntity
  8
0
  6
ByLayer
 62
  256
370
   -1
100
AcDbLine
 10
104.2735917031721
 20
351.8810112536771
 11
103.8669853986784
 21
351.0154009250384
  0
LINE
  5
BC
100
AcDbEntity
  8
0
  6
ByLayer
 62
  256
370
   -1
100
AcDbLine
 10
103.8669853986784
 20
351.0154009250384
 11
103.2977365723873
 21
350.2462024005583
  0
LINE
  5
BD
100
AcDbEntity
  8
0
  6
ByLayer
 62
  256
370
   -1
100
AcDbLine
 10
57.74998722440529
 20
346.3441001442329
 11
51.14998530710602
 21
346.3441001442334
  0
LINE
  5
BE
100
AcDbEntity
  8
0
  6
ByLayer
 62
  256
370
   -1
100
AcDbLine
 10
51.14998530710602
 20
346.3441001442334
 11
51.14998530710602
 21
337.1441043071329
  0
LINE
  5
BF
100
AcDbEntity
  8
0
  6
ByLayer
 62
  256
370
   -1
100
AcDbLine
 10
51.14998530710602
 20
337.1441043071329
 11
57.749987224405
 21
337.1441043071329
  0
LINE
  5
C0
100
AcDbEntity
  8
0
  6
ByLayer
 62
  256
370
   -1
100
AcDbLine
 10
51.14998530710602
 20
313.3441125460299
 11
57.74998722440529
 21
313.3441125460299
  0
LINE
  5
C1
100
AcDbEntity
  8
0
  6
ByLayer
 62
  256
370
   -1
100
AcDbLine
 10
57.74998722440529
 20
313.3441125460299
 11
57.74998722440529
 21
322.5441102457301
  0
LINE
  5
C2
100
AcDbEntity
  8
0
  6
ByLayer
 62
  256
370
   -1
100
AcDbLine
 10
57.74998722440529
 20
322.5441102457301
 11
51.14998530710602
 21
322.5441102457301
  0
LINE
  5
C3
100
AcDbEntity
  8
0
  6
ByLayer
 62
  256
370
   -1
100
AcDbLine
 10
57.74998722440529
 20
201.2591769690997
 11
51.14998530710602
 21
201.2591769691002
  0
LINE
  5
C4
100
AcDbEntity
  8
0
  6
ByLayer
 62
  256
370
   -1
100
AcDbLine
 10
51.14998530710602
 20
201.2591769691002
 11
51.14998530710602
 21
192.0591811319996
  0
LINE
  5
C5
100
AcDbEntity
  8
0
  6
ByLayer
 62
  256
370
   -1
100
AcDbLine
 10
51.14998530710602
 20
192.0591811319996
 11
57.74998722440523
 21
192.0591811319999
  0
LINE
  5
C6
100
AcDbEntity
  8
0
  6
ByLayer
 62
  256
370
   -1
100
AcDbLine
 10
51.14998530710602
 20
168.259189370897
 11
57.74998722440529
 21
168.259189370897
  0
LINE
  5
C7
100
AcDbEntity
  8
0
  6
ByLayer
 62
  256
370
   -1
100
AcDbLine
 10
57.74998722440529
 20
168.259189370897
 11
57.74998722440523
 21
177.459187070597
  0
LINE
  5
C8
100
AcDbEntity
  8
0
  6
ByLayer
 62
  256
370
   -1
100
AcDbLine
 10
57.74998722440523
 20
177.459187070597
 11
51.14998530710602
 21
177.459187070597
  0
LINE
  5
C9
100
AcDbEntity
  8
0
  6
ByLayer
 62
  256
370
   -1
100
AcDbLine
 10
51.14998530710602
 20
177.459187070597
 11
51.14998530710602
 21
168.259189370897
  0
LINE
  5
CA
100
AcDbEntity
  8
0
  6
ByLayer
 62
  256
370
   -1
100
AcDbLine
 10
366.5238933433869
 20
56.57393256927912
 11
366.1507438334088
 21
56.86026025883632
  0
LINE
  5
CB
100
AcDbEntity
  8
0
  6
ByLayer
 62
  256
370
   -1
100
AcDbLine
 10
390.4258707856652
 20
28.27394593347583
 11
390.1395430961082
 21
27.9007964234977
  0
LINE
  5
CC
100
AcDbEntity
  8
0
  6
ByLayer
 62
  256
370
   -1
100
AcDbLine
 10
29.4403285628934
 20
55.76624125134833
 11
29.26033545262169
 21
56.20078305930099
  0
LINE
  5
CD
100
AcDbEntity
  8
0
  6
ByLayer
 62
  256
370
   -1
100
AcDbLine
 10
27.6999956453042
 20
53.49819523595488
 11
28.16631644513342
 21
53.55958753392952
  0
LINE
  5
CE
100
AcDbEntity
  8
0
  6
ByLayer
 62
  256
370
   -1
100
AcDbLine
 10
26.42598352754422
 20
54.02590833375893
 11
26.79913303752221
 21
53.73958064420174
  0
LINE
  5
CF
100
AcDbEntity
  8
0
  6
ByLayer
 62
  256
370
   -1
100
AcDbLine
 10
365.2498812256266
 20
57.10164566708283
 11
364.7835604257972
 21
57.04025336910843
  0
LINE
  5
D0
100
AcDbEntity
  8
0
  6
ByLayer
 62
  256
370
   -1
100
AcDbLine
 10
363.9758691078665
 20
56.57393256927901
 11
363.689541418309
 21
56.20078305930099
  0
LINE
  5
D1
100
AcDbEntity
  8
0
  6
ByLayer
 62
  256
370
   -1
100
AcDbLine
 10
364.7835604257972
 20
57.04025336910843
 11
364.349018617845
 21
56.86026025883632
  0
LINE
  5
D2
100
AcDbEntity
  8
0
  6
ByLayer
 62
  256
370
   -1
100
AcDbLine
 10
390.4258707856652
 20
25.72592169795564
 11
390.7990202956433
 21
25.43959400839844
  0
LINE
  5
D3
100
AcDbEntity
  8
0
  6
ByLayer
 62
  256
370
   -1
100
AcDbLine
 10
392.6007455112077
 20
25.43959400839844
 11
392.9738950211856
 21
25.72592169795576
  0
LINE
  5
D4
100
AcDbEntity
  8
0
  6
ByLayer
 62
  256
370
   -1
100
AcDbLine
 10
393.4402158210149
 20
27.46625461554515
 11
393.2602227107428
 21
27.9007964234977
  0
LINE
  5
D5
100
AcDbEntity
  8
0
  6
ByLayer
 62
  256
370
   -1
100
AcDbLine
 10
-2.099999327996699
 20
10.49994018651444
 11
4.500002589302397
 21
10.49994018651444
  0
LINE
  5
D6
100
AcDbEntity
  8
0
  6
ByLayer
 62
  256
370
   -1
100
AcDbLine
 10
4.500002589302397
 20
34.2999319476171
 11
4.500002589302397
 21
43.4999277847171
  0
LINE
  5
D7
100
AcDbEntity
  8
0
  6
ByLayer
 62
  256
370
   -1
100
AcDbLine
 10
4.500002589302397
 20
43.4999277847171
 11
-2.099999327996699
 21
43.4999277847171
  0
LINE
  5
D8
100
AcDbEntity
  8
0
  6
ByLayer
 62
  256
370
   -1
100
AcDbLine
 10
-2.099999327996699
 20
43.4999277847171
 11
-2.099999327996699
 21
34.29993194761676
  0
LINE
  5
D9
100
AcDbEntity
  8
0
  6
ByLayer
 62
  256
370
   -1
100
AcDbLine
 10
-2.099999327996699
 20
34.29993194761676
 11
4.500002589302397
 21
34.2999319476171
  0
LINE
  5
DA
100
AcDbEntity
  8
0
  6
ByLayer
 62
  256
370
   -1
100
AcDbLine
 10
20.39999971580082
 20
58.5999120808217
 11
11.2000020161029
 21
58.59991208082113
  0
LINE
  5
DB
100
AcDbEntity
  8
0
  6
ByLayer
 62
  256
370
   -1
100
AcDbLine
 10
11.2000020161029
 20
58.59991208082113
 11
11.2000020161031
 21
51.99992506471767
  0
LINE
  5
DC
100
AcDbEntity
  8
0
  6
ByLayer
 62
  256
370
   -1
100
AcDbLine
 10
11.2000020161031
 20
51.99992506471767
 11
20.3999997158009
 21
51.99992506471756
  0
LINE
  5
DD
100
AcDbEntity
  8
0
  6
ByLayer
 62
  256
370
   -1
100
AcDbLine
 10
53.5491246188235
 20
331.4044459825491
 11
53.17597510884542
 21
331.1181182929922
  0
LINE
  5
DE
100
AcDbEntity
  8
0
  6
ByLayer
 62
  256
370
   -1
100
AcDbLine
 10
53.9836664267757
 20
331.5844390928216
 11
53.5491246188235
 21
331.4044459825491
  0
LINE
  5
DF
100
AcDbEntity
  8
0
  6
ByLayer
 62
  256
370
   -1
100
AcDbLine
 10
54.4499872266054
 20
331.6458313907959
 11
53.9836664267757
 21
331.5844390928216
  0
LINE
  5
E0
100
AcDbEntity
  8
0
  6
ByLayer
 62
  256
370
   -1
100
AcDbLine
 10
52.6482620110416
 20
329.8441061752318
 11
52.70965430901583
 21
329.3777853754027
  0
LINE
  5
E1
100
AcDbEntity
  8
0
  6
ByLayer
 62
  256
370
   -1
100
AcDbLine
 10
53.9836664267757
 20
328.1037732576424
 11
54.4499872266054
 21
328.042380959668
  0
LINE
  5
E2
100
AcDbEntity
  8
0
  6
ByLayer
 62
  256
370
   -1
100
AcDbLine
 10
53.54912461882338
 20
328.2837663679145
 11
53.9836664267757
 21
328.1037732576424
  0
LINE
  5
E3
100
AcDbEntity
  8
0
  6
ByLayer
 62
  256
370
   -1
100
AcDbLine
 10
53.17597510884542
 20
328.5700940574718
 11
53.54912461882338
 21
328.2837663679145
  0
LINE
  5
E4
100
AcDbEntity
  8
0
  6
ByLayer
 62
  256
370
   -1
100
AcDbLine
 10
52.889647419288
 20
328.9432435674501
 11
53.17597510884542
 21
328.5700940574718
  0
LINE
  5
E5
100
AcDbEntity
  8
0
  6
ByLayer
 62
  256
370
   -1
100
AcDbLine
 10
52.70965430901583
 20
329.3777853754027
 11
52.889647419288
 21
328.9432435674501
  0
LINE
  5
E6
100
AcDbEntity
  8
0
  6
ByLayer
 62
  256
370
   -1
100
AcDbLine
 10
56.25171244216943
 20
329.8441061752318
 11
56.19032014419469
 21
330.3104269750613
  0
LINE
  5
E7
100
AcDbEntity
  8
0
  6
ByLayer
 62
  256
370
   -1
100
AcDbLine
 10
54.91630802643454
 20
331.5844390928214
 11
54.4499872266054
 21
331.6458313907959
  0
LINE
  5
E8
100
AcDbEntity
  8
0
  6
ByLayer
 62
  256
370
   -1
100
AcDbLine
 10
55.35084983438742
 20
331.4044459825491
 11
54.91630802643454
 21
331.5844390928214
  0
LINE
  5
E9
100
AcDbEntity
  8
0
  6
ByLayer
 62
  256
370
   -1
100
AcDbLine
 10
53.17597510884542
 20
183.4851708823387
 11
53.54912461882338
 21
183.1988431927813
  0
LINE
  5
EA
100
AcDbEntity
  8
0
  6
ByLayer
 62
  256
370
   -1
100
AcDbLine
 10
52.889647419288
 20
183.858320392317
 11
53.17597510884542
 21
183.4851708823387
  0
LINE
  5
EB
100
AcDbEntity
  8
0
  6
ByLayer
 62
  256
370
   -1
100
AcDbLine
 10
52.70965430901583
 20
184.2928622002694
 11
52.889647419288
 21
183.858320392317
  0
LINE
  5
EC
100
AcDbEntity
  8
0
  6
ByLayer
 62
  256
370
   -1
100
AcDbLine
 10
56.25171244216943
 20
184.7591830000986
 11
56.19032014419469
 21
185.2255037999283
  0
LINE
  5
ED
100
AcDbEntity
  8
0
  6
ByLayer
 62
  256
370
   -1
100
AcDbLine
 10
54.91630802643454
 20
186.4995159176881
 11
54.4499872266054
 21
186.5609082156625
  0
LINE
  5
EE
100
AcDbEntity
  8
0
  6
ByLayer
 62
  256
370
   -1
100
AcDbLine
 10
55.35084983438742
 20
186.319522807416
 11
54.91630802643454
 21
186.4995159176881
  0
LINE
  5
EF
100
AcDbEntity
  8
0
  6
ByLayer
 62
  256
370
   -1
100
AcDbLine
 10
55.7239993443651
 20
186.0331951178588
 11
55.35084983438742
 21
186.319522807416
  0
LINE
  5
F0
100
AcDbEntity
  8
0
  6
ByLayer
 62
  256
370
   -1
100
AcDbLine
 10
56.01032703392269
 20
185.6600456078805
 11
55.7239993443651
 21
186.0331951178588
  0
LINE
  5
F1
100
AcDbEntity
  8
0
  6
ByLayer
 62
  256
370
   -1
100
AcDbLine
 10
56.19032014419469
 20
185.2255037999283
 11
56.01032703392269
 21
185.6600456078805
  0
LINE
  5
F2
100
AcDbEntity
  8
0
  6
ByLayer
 62
  256
370
   -1
100
AcDbLine
 10
52.70965430901612
 20
185.2255037999283
 11
52.6482620110416
 21
184.7591830000986
  0
LINE
  5
F3
100
AcDbEntity
  8
0
  6
ByLayer
 62
  256
370
   -1
100
AcDbLine
 10
52.889647419288
 20
185.6600456078806
 11
52.70965430901612
 21
185.2255037999283
  0
LINE
  5
F4
100
AcDbEntity
  8
0
  6
ByLayer
 62
  256
370
   -1
100
AcDbLine
 10
53.17597510884542
 20
186.0331951178588
 11
52.889647419288
 21
185.6600456078806
  0
LINE
  5
F5
100
AcDbEntity
  8
0
  6
ByLayer
 62
  256
370
   -1
100
AcDbLine
 10
53.5491246188235
 20
186.319522807416
 11
53.17597510884542
 21
186.0331951178588
  0
LINE
  5
F6
100
AcDbEntity
  8
0
  6
ByLayer
 62
  256
370
   -1
100
AcDbLine
 10
53.9836664267757
 20
186.4995159176882
 11
53.5491246188235
 21
186.319522807416
  0
LINE
  5
F7
100
AcDbEntity
  8
0
  6
ByLayer
 62
  256
370
   -1
100
AcDbLine
 10
54.4499872266054
 20
186.5609082156625
 11
53.9836664267757
 21
186.4995159176882
  0
LINE
  5
F8
100
AcDbEntity
  8
0
  6
ByLayer
 62
  256
370
   -1
100
AcDbLine
 10
56.19032014419469
 20
184.2928622002692
 11
56.25171244216943
 21
184.7591830000986
  0
LINE
  5
F9
100
AcDbEntity
  8
0
  6
ByLayer
 62
  256
370
   -1
100
AcDbLine
 10
56.01032703392269
 20
183.8583203923167
 11
56.19032014419469
 21
184.2928622002692
  0
LINE
  5
FA
100
AcDbEntity
  8
0
  6
ByLayer
 62
  256
370
   -1
100
AcDbLine
 10
348.7498875964258
 20
58.59991208082113
 11
348.7498875964258
 21
51.99992506471756
  0
LINE
  5
FB
100
AcDbEntity
  8
0
  6
ByLayer
 62
  256
370
   -1
100
AcDbLine
 10
348.7498875964258
 20
51.99992506471756
 11
357.9498852961234
 21
51.99992506471722
  0
LINE
  5
FC
100
AcDbEntity
  8
0
  6
ByLayer
 62
  256
370
   -1
100
AcDbLine
 10
357.9498852961234
 20
51.99992506471722
 11
357.9498852961234
 21
58.5999120808217
  0
LINE
  5
FD
100
AcDbEntity
  8
0
  6
ByLayer
 62
  256
370
   -1
100
AcDbLine
 10
357.9498852961234
 20
58.5999120808217
 11
348.7498875964258
 21
58.59991208082113
  0
LINE
  5
FE
100
AcDbEntity
  8
0
  6
ByLayer
 62
  256
370
   -1
100
AcDbLine
 10
372.5498793575288
 20
51.99992506471767
 11
381.7498751946277
 21
51.99992506471756
  0
LINE
  5
FF
100
AcDbEntity
  8
0
  6
ByLayer
 62
  256
370
   -1
100
AcDbLine
 10
-0.07400952625738455
 20
28.27394593347594
 11
-0.3603372158146954
 21
27.9007964234977
  0
LINE
  5
100
100
AcDbEntity
  8
0
  6
ByLayer
 62
  256
370
   -1
100
AcDbLine
 10
-0.6017226240610967
 20
26.99993381571585
 11
-0.5403303260868029
 21
26.53361301588654
  0
LINE
  5
101
100
AcDbEntity
  8
0
  6
ByLayer
 62
  256
370
   -1
100
AcDbLine
 10
1.200002591502397
 20
25.19820860015182
 11
1.6663233913319
 21
25.25960089812634
  0
LINE
  5
102
100
AcDbEntity
  8
0
  6
ByLayer
 62
  256
370
   -1
100
AcDbLine
 10
1.6663233913319
 20
28.74026673330525
 11
1.200002591502709
 21
28.80165903127966
  0
LINE
  5
103
100
AcDbEntity
  8
0
  6
ByLayer
 62
  256
370
   -1
100
AcDbLine
 10
0.733681791673007
 20
28.74026673330548
 11
0.2991399837207211
 21
28.56027362303314
  0
LINE
  5
104
100
AcDbEntity
  8
0
  6
ByLayer
 62
  256
370
   -1
100
AcDbLine
 10
28.97400776306432
 20
54.02590833375893
 11
29.26033545262123
 21
54.39905784373718
  0
LINE
  5
105
100
AcDbEntity
  8
0
  6
ByLayer
 62
  256
370
   -1
100
AcDbLine
 10
26.79913303752221
 20
56.86026025883632
 11
26.42598352754422
 21
56.57393256927912
  0
LINE
  5
106
100
AcDbEntity
  8
0
  6
ByLayer
 62
  256
370
   -1
100
AcDbLine
 10
44.1999896143048
 20
51.99992506471756
 11
44.1999896143048
 21
58.59991208082147
  0
LINE
  5
107
100
AcDbEntity
  8
0
  6
ByLayer
 62
  256
370
   -1
100
AcDbLine
 10
381.7498751946277
 20
51.99992506471756
 11
381.7498751946277
 21
58.59991208082147
  0
LINE
  5
108
100
AcDbEntity
  8
0
  6
ByLayer
 62
  256
370
   -1
100
AcDbLine
 10
381.7498751946277
 20
58.59991208082147
 11
372.5498793575288
 21
58.59991208082147
  0
LINE
  5
109
100
AcDbEntity
  8
0
  6
ByLayer
 62
  256
370
   -1
100
AcDbLine
 10
372.5498793575288
 20
58.59991208082147
 11
372.5498793575288
 21
51.99992506471767
  0
LINE
  5
10A
100
AcDbEntity
  8
0
  6
ByLayer
 62
  256
370
   -1
100
AcDbLine
 10
394.9998829012254
 20
43.49992778471699
 11
388.3998809839261
 21
43.4999277847171
  0
LINE
  5
10B
100
AcDbEntity
  8
0
  6
ByLayer
 62
  256
370
   -1
100
AcDbLine
 10
4.500002589302397
 20
19.699937886214
 11
-2.099999327996699
 21
19.699937886214
  0
LINE
  5
10C
100
AcDbEntity
  8
0
  6
ByLayer
 62
  256
370
   -1
100
AcDbLine
 10
-2.099999327996699
 20
19.699937886214
 11
-2.099999327996699
 21
10.49994018651444
  0
LINE
  5
10D
100
AcDbEntity
  8
0
  6
ByLayer
 62
  256
370
   -1
100
AcDbLine
 10
390.7990202956438
 20
28.56027362303291
 11
390.4258707856652
 21
28.27394593347583
  0
LINE
  5
10E
100
AcDbEntity
  8
0
  6
ByLayer
 62
  256
370
   -1
100
AcDbLine
 10
2.100865199284812
 20
25.43959400839844
 11
2.474014709262605
 21
25.72592169795576
  0
LINE
  5
10F
100
AcDbEntity
  8
0
  6
ByLayer
 62
  256
370
   -1
100
AcDbLine
 10
389.8981576878615
 20
26.99993381571562
 11
389.9595499858362
 21
26.53361301588643
  0
LINE
  5
110
100
AcDbEntity
  8
0
  6
ByLayer
 62
  256
370
   -1
100
AcDbLine
 10
392.9738950211856
 20
25.72592169795576
 11
393.2602227107428
 21
26.09907120793366
  0
LINE
  5
111
100
AcDbEntity
  8
0
  6
ByLayer
 62
  256
370
   -1
100
AcDbLine
 10
390.1395430961082
 20
27.9007964234977
 11
389.9595499858362
 21
27.46625461554504
  0
LINE
  5
112
100
AcDbEntity
  8
0
  6
ByLayer
 62
  256
370
   -1
100
AcDbLine
 10
392.9738950211852
 20
28.27394593347583
 11
392.6007455112077
 21
28.56027362303291
  0
LINE
  5
113
100
AcDbEntity
  8
0
  6
ByLayer
 62
  256
370
   -1
100
AcDbLine
 10
391.233562103596
 20
25.25960089812622
 11
391.6998829034256
 21
25.1982086001517
  0
LINE
  5
114
100
AcDbEntity
  8
0
  6
ByLayer
 62
  256
370
   -1
100
AcDbLine
 10
340.190229264213
 20
185.2255037999283
 11
340.010236153941
 21
185.6600456078805
  0
LINE
  5
115
100
AcDbEntity
  8
0
  6
ByLayer
 62
  256
370
   -1
100
AcDbLine
 10
336.7095634290341
 20
185.2255037999283
 11
336.6481711310599
 21
184.7591830000986
  0
LINE
  5
116
100
AcDbEntity
  8
0
  6
ByLayer
 62
  256
370
   -1
100
AcDbLine
 10
338.4498963466234
 20
186.5609082156625
 11
337.9835755467941
 21
186.4995159176882
  0
LINE
  5
117
100
AcDbEntity
  8
0
  6
ByLayer
 62
  256
370
   -1
100
AcDbLine
 10
340.190229264213
 20
330.3104269750613
 11
340.010236153941
 21
330.744968783014
  0
LINE
  5
118
100
AcDbEntity
  8
0
  6
ByLayer
 62
  256
370
   -1
100
AcDbLine
 10
340.2516215621877
 20
329.8441061752318
 11
340.190229264213
 21
330.3104269750613
  0
LINE
  5
119
100
AcDbEntity
  8
0
  6
ByLayer
 62
  256
370
   -1
100
AcDbLine
 10
338.9162171464529
 20
331.5844390928214
 11
338.4498963466236
 21
331.6458313907959
  0
LINE
  5
11A
100
AcDbEntity
  8
0
  6
ByLayer
 62
  256
370
   -1
100
AcDbLine
 10
339.3507589544059
 20
331.4044459825491
 11
338.9162171464529
 21
331.5844390928214
  0
LINE
  5
11B
100
AcDbEntity
  8
0
  6
ByLayer
 62
  256
370
   -1
100
AcDbLine
 10
339.7239084643834
 20
331.1181182929922
 11
339.3507589544059
 21
331.4044459825491
  0
LINE
  5
11C
100
AcDbEntity
  8
0
  6
ByLayer
 62
  256
370
   -1
100
AcDbLine
 10
340.010236153941
 20
330.744968783014
 11
339.7239084643834
 21
331.1181182929922
  0
LINE
  5
11D
100
AcDbEntity
  8
0
  6
ByLayer
 62
  256
370
   -1
100
AcDbLine
 10
336.8895565393062
 20
328.9432435674501
 11
337.1758842288637
 21
328.5700940574718
  0
LINE
  5
11E
100
AcDbEntity
  8
0
  6
ByLayer
 62
  256
370
   -1
100
AcDbLine
 10
336.6481711310599
 20
329.8441061752318
 11
336.7095634290341
 21
329.3777853754027
  0
LINE
  5
11F
100
AcDbEntity
  8
0
  6
ByLayer
 62
  256
370
   -1
100
AcDbLine
 10
338.4498963466236
 20
331.6458313907959
 11
337.9835755467941
 21
331.5844390928216
  0
LINE
  5
120
100
AcDbEntity
  8
0
  6
ByLayer
 62
  256
370
   -1
100
AcDbLine
 10
336.8895565393062
 20
330.744968783014
 11
336.7095634290345
 21
330.3104269750613
  0
LINE
  5
121
100
AcDbEntity
  8
0
  6
ByLayer
 62
  256
370
   -1
100
AcDbLine
 10
336.7095634290345
 20
330.3104269750613
 11
336.6481711310599
 21
329.8441061752318
  0
LINE
  5
122
100
AcDbEntity
  8
0
  6
ByLayer
 62
  256
370
   -1
100
AcDbLine
 10
337.9835755467941
 20
331.5844390928216
 11
337.5490337388416
 21
331.4044459825491
  0
LINE
  5
123
100
AcDbEntity
  8
0
  6
ByLayer
 62
  256
370
   -1
100
AcDbLine
 10
337.1758842288637
 20
331.1181182929922
 11
336.8895565393062
 21
330.744968783014
  0
LINE
  5
124
100
AcDbEntity
  8
0
  6
ByLayer
 62
  256
370
   -1
100
AcDbLine
 10
337.5490337388416
 20
331.4044459825491
 11
337.1758842288637
 21
331.1181182929922
  0
LINE
  5
125
100
AcDbEntity
  8
0
  6
ByLayer
 62
  256
370
   -1
100
AcDbLine
 10
337.9835755467941
 20
328.1037732576424
 11
338.4498963466236
 21
328.042380959668
  0
LINE
  5
126
100
AcDbEntity
  8
0
  6
ByLayer
 62
  256
370
   -1
100
AcDbLine
 10
337.1758842288637
 20
328.5700940574718
 11
337.5490337388416
 21
328.2837663679145
  0
LINE
  5
127
100
AcDbEntity
  8
0
  6
ByLayer
 62
  256
370
   -1
100
AcDbLine
 10
336.7095634290341
 20
329.3777853754027
 11
336.8895565393062
 21
328.9432435674501
  0
LINE
  5
128
100
AcDbEntity
  8
0
  6
ByLayer
 62
  256
370
   -1
100
AcDbLine
 10
337.5490337388416
 20
328.2837663679145
 11
337.9835755467941
 21
328.1037732576424
  0
LINE
  5
129
100
AcDbEntity
  8
0
  6
ByLayer
 62
  256
370
   -1
100
AcDbLine
 10
57.74998722440523
 20
192.0591811319999
 11
57.74998722440529
 21
201.2591769690997
  0
LINE
  5
12A
100
AcDbEntity
  8
0
  6
ByLayer
 62
  256
370
   -1
100
AcDbLine
 10
335.1498944271243
 20
177.459187070597
 11
335.1498944271243
 21
168.259189370897
  0
LINE
  5
12B
100
AcDbEntity
  8
0
  6
ByLayer
 62
  256
370
   -1
100
AcDbLine
 10
341.7498963444234
 20
201.2591769690997
 11
335.1498944271243
 21
201.2591769691002
  0
LINE
  5
12C
100
AcDbEntity
  8
0
  6
ByLayer
 62
  256
370
   -1
100
AcDbLine
 10
335.1498944271243
 20
346.3441001442334
 11
335.1498944271243
 21
337.1441043071329
  0
LINE
  5
12D
100
AcDbEntity
  8
0
  6
ByLayer
 62
  256
370
   -1
100
AcDbLine
 10
335.1498944271243
 20
337.1441043071329
 11
341.7498963444234
 21
337.1441043071329
  0
LINE
  5
12E
100
AcDbEntity
  8
0
  6
ByLayer
 62
  256
370
   -1
100
AcDbLine
 10
341.7498963444236
 20
346.3441001442329
 11
335.1498944271243
 21
346.3441001442334
  0
LINE
  5
12F
100
AcDbEntity
  8
0
  6
ByLayer
 62
  256
370
   -1
100
AcDbLine
 10
341.7498963444234
 20
192.0591811319999
 11
341.7498963444234
 21
201.2591769690997
  0
LINE
  5
130
100
AcDbEntity
  8
0
  6
ByLayer
 62
  256
370
   -1
100
AcDbLine
 10
341.7498963444234
 20
177.459187070597
 11
335.1498944271243
 21
177.459187070597
  0
LINE
  5
131
100
AcDbEntity
  8
0
  6
ByLayer
 62
  256
370
   -1
100
AcDbLine
 10
335.1498944271243
 20
192.0591811319996
 11
341.7498963444234
 21
192.0591811319999
  0
LINE
  5
132
100
AcDbEntity
  8
0
  6
ByLayer
 62
  256
370
   -1
100
AcDbLine
 10
335.1498944271243
 20
168.259189370897
 11
341.7498963444234
 21
168.259189370897
  0
LINE
  5
133
100
AcDbEntity
  8
0
  6
ByLayer
 62
  256
370
   -1
100
AcDbLine
 10
335.1498944271243
 20
201.2591769691002
 11
335.1498944271243
 21
192.0591811319996
  0
LINE
  5
134
100
AcDbEntity
  8
0
  6
ByLayer
 62
  256
370
   -1
100
AcDbLine
 10
341.7498963444234
 20
168.259189370897
 11
341.7498963444234
 21
177.459187070597
  0
LINE
  5
135
100
AcDbEntity
  8
0
  6
ByLayer
 62
  256
370
   -1
100
AcDbLine
 10
28.16631644513342
 20
53.55958753392952
 11
28.60085825308622
 21
53.73958064420162
  0
LINE
  5
136
100
AcDbEntity
  8
0
  6
ByLayer
 62
  256
370
   -1
100
AcDbLine
 10
28.60085825308622
 20
53.73958064420162
 11
28.97400776306432
 21
54.02590833375893
  0
LINE
  5
137
100
AcDbEntity
  8
0
  6
ByLayer
 62
  256
370
   -1
100
AcDbLine
 10
363.689541418309
 20
56.20078305930099
 11
363.509548308037
 21
55.76624125134811
  0
LINE
  5
138
100
AcDbEntity
  8
0
  6
ByLayer
 62
  256
370
   -1
100
AcDbLine
 10
389.9595499858362
 20
27.46625461554504
 11
389.8981576878615
 21
26.99993381571562
  0
LINE
  5
139
100
AcDbEntity
  8
0
  6
ByLayer
 62
  256
370
   -1
100
AcDbLine
 10
4.500002589302397
 20
10.49994018651444
 11
4.500002589302397
 21
19.699937886214
  0
LINE
  5
13A
100
AcDbEntity
  8
0
  6
ByLayer
 62
  256
370
   -1
100
AcDbLine
 10
44.1999896143048
 20
58.59991208082147
 11
34.99999377720593
 21
58.59991208082147
  0
LINE
  5
13B
100
AcDbEntity
  8
0
  6
ByLayer
 62
  256
370
   -1
100
AcDbLine
 10
69.3238935140372
 20
357.2180333864738
 11
70.34082845702852
 21
358.0639421725234
  0
LINE
  5
13C
100
AcDbEntity
  8
0
  6
ByLayer
 62
  256
370
   -1
100
AcDbLine
 10
70.34082845702852
 20
358.0639421725234
 11
71.50699210558639
 21
358.7706826151793
  0
LINE
  5
13D
100
AcDbEntity
  8
0
  6
ByLayer
 62
  256
370
   -1
100
AcDbLine
 10
71.50699210558639
 20
358.7706826151793
 11
72.51051323234702
 21
359.1990863710479
  0
LINE
  5
13E
100
AcDbEntity
  8
0
  6
ByLayer
 62
  256
370
   -1
100
AcDbLine
 10
72.51051323234702
 20
359.1990863710479
 11
73.62972852409752
 21
359.5050890538112
  0
LINE
  5
13F
100
AcDbEntity
  8
0
  6
ByLayer
 62
  256
370
   -1
100
AcDbLine
 10
73.62972852409752
 20
359.5050890538112
 11
76.21524160256831
 21
359.7498912000219
  0
LINE
  5
140
100
AcDbEntity
  8
0
  6
ByLayer
 62
  256
370
   -1
100
AcDbLine
 10
76.21524160256831
 20
359.7498912000219
 11
77.94604307808822
 21
359.6538985776207
  0
LINE
  5
141
100
AcDbEntity
  8
0
  6
ByLayer
 62
  256
370
   -1
100
AcDbLine
 10
77.94604307808822
 20
359.6538985776207
 11
79.47647567366153
 21
359.3659207104175
  0
LINE
  5
142
100
AcDbEntity
  8
0
  6
ByLayer
 62
  256
370
   -1
100
AcDbLine
 10
79.47647567366153
 20
359.3659207104175
 11
80.80653938928873
 21
358.8859575984122
  0
LINE
  5
143
100
AcDbEntity
  8
0
  6
ByLayer
 62
  256
370
   -1
100
AcDbLine
 10
80.80653938928873
 20
358.8859575984122
 11
81.93623422496933
 21
358.2140092416046
  0
LINE
  5
144
100
AcDbEntity
  8
0
  6
ByLayer
 62
  256
370
   -1
100
AcDbLine
 10
81.93623422496933
 20
358.2140092416046
 11
82.87394381584812
 21
357.3727114548843
  0
LINE
  5
145
100
AcDbEntity
  8
0
  6
ByLayer
 62
  256
370
   -1
100
AcDbLine
 10
82.87394381584812
 20
357.3727114548843
 11
83.62805179706874
 21
356.3847000531405
  0
LINE
  5
146
100
AcDbEntity
  8
0
  6
ByLayer
 62
  256
370
   -1
100
AcDbLine
 10
83.62805179706874
 20
356.3847000531405
 11
84.19855816863139
 21
355.2499750363734
  0
LINE
  5
147
100
AcDbEntity
  8
0
  6
ByLayer
 62
  256
370
   -1
100
AcDbLine
 10
84.19855816863139
 20
355.2499750363734
 11
84.58546293053621
 21
353.9685364045826
  0
LINE
  5
148
100
AcDbEntity
  8
0
  6
ByLayer
 62
  256
370
   -1
100
AcDbLine
 10
84.58546293053621
 20
353.9685364045826
 11
80.64180095870523
 21
353.2307765118928
  0
LINE
  5
149
100
AcDbEntity
  8
0
  6
ByLayer
 62
  256
370
   -1
100
AcDbLine
 10
80.64180095870523
 20
353.2307765118928
 11
80.04320940940943
 21
354.526886505186
  0
LINE
  5
14A
100
AcDbEntity
  8
0
  6
ByLayer
 62
  256
370
   -1
100
AcDbLine
 10
80.04320940940943
 20
354.526886505186
 11
79.07909136782649
 21
355.5178321792303
  0
LINE
  5
14B
100
AcDbEntity
  8
0
  6
ByLayer
 62
  256
370
   -1
100
AcDbLine
 10
79.07909136782649
 20
355.5178321792303
 11
77.7896882826488
 21
356.1466048150453
  0
LINE
  5
14C
100
AcDbEntity
  8
0
  6
ByLayer
 62
  256
370
   -1
100
AcDbLine
 10
77.7896882826488
 20
356.1466048150453
 11
76.21524160256831
 21
356.3561956936504
  0
LINE
  5
14D
100
AcDbEntity
  8
0
  6
ByLayer
 62
  256
370
   -1
100
AcDbLine
 10
76.21524160256831
 20
356.3561956936504
 11
74.9807513275851
 21
356.2530769813764
  0
LINE
  5
14E
100
AcDbEntity
  8
0
  6
ByLayer
 62
  256
370
   -1
100
AcDbLine
 10
74.9807513275851
 20
356.2530769813764
 11
73.87956085139473
 21
355.9437208445555
  0
LINE
  5
14F
100
AcDbEntity
  8
0
  6
ByLayer
 62
  256
370
   -1
100
AcDbLine
 10
73.87956085139473
 20
355.9437208445555
 11
72.91167017399692
 21
355.4281272831875
  0
LINE
  5
150
100
AcDbEntity
  8
0
  6
ByLayer
 62
  256
370
   -1
100
AcDbLine
 10
72.91167017399692
 20
355.4281272831875
 11
72.07707929539202
 21
354.7062962972719
  0
LINE
  5
151
100
AcDbEntity
  8
0
  6
ByLayer
 62
  256
370
   -1
100
AcDbLine
 10
72.07707929539202
 20
354.7062962972719
 11
71.40513093858442
 21
353.781581340867
  0
LINE
  5
152
100
AcDbEntity
  8
0
  6
ByLayer
 62
  256
370
   -1
100
AcDbLine
 10
71.40513093858442
 20
353.781581340867
 11
70.92516782657901
 21
352.65733586803
  0
LINE
  5
153
100
AcDbEntity
  8
0
  6
ByLayer
 62
  256
370
   -1
100
AcDbLine
 10
70.92516782657901
 20
352.65733586803
 11
70.63718995937569
 21
351.3335598787608
  0
LINE
  5
154
100
AcDbEntity
  8
0
  6
ByLayer
 62
  256
370
   -1
100
AcDbLine
 10
70.63718995937569
 20
351.3335598787608
 11
70.54119733697473
 21
349.8102533730598
  0
LINE
  5
155
100
AcDbEntity
  8
0
  6
ByLayer
 62
  256
370
   -1
100
AcDbLine
 10
70.54119733697473
 20
349.8102533730598
 11
70.6384475046475
 21
348.1691567935832
  0
LINE
  5
156
100
AcDbEntity
  8
0
  6
ByLayer
 62
  256
370
   -1
100
AcDbLine
 10
70.6384475046475
 20
348.1691567935832
 11
70.93019800766569
 21
346.7468730913699
  0
LINE
  5
157
100
AcDbEntity
  8
0
  6
ByLayer
 62
  256
370
   -1
100
AcDbLine
 10
70.93019800766569
 20
346.7468730913699
 11
71.41644884602908
 21
345.5434022664202
  0
LINE
  5
158
100
AcDbEntity
  8
0
  6
ByLayer
 62
  256
370
   -1
100
AcDbLine
 10
71.41644884602908
 20
345.5434022664202
 11
72.09720001973801
 21
344.5587443187341
  0
LINE
  5
159
100
AcDbEntity
  8
0
  6
ByLayer
 62
  256
370
   -1
100
AcDbLine
 10
72.09720001973801
 20
344.5587443187341
 11
72.93556353415784
 21
343.7928992483115
  0
LINE
  5
15A
100
AcDbEntity
  8
0
  6
ByLayer
 62
  256
370
   -1
100
AcDbLine
 10
72.93556353415784
 20
343.7928992483115
 11
73.89465139465432
 21
343.2458670551525
  0
LINE
  5
15B
100
AcDbEntity
  8
0
  6
ByLayer
 62
  256
370
   -1
100
AcDbLine
 10
73.89465139465432
 20
343.2458670551525
 11
74.97446360122689
 21
342.9176477392572
  0
LINE
  5
15C
100
AcDbEntity
  8
0
  6
ByLayer
 62
  256
370
   -1
100
AcDbLine
 10
74.97446360122689
 20
342.9176477392572
 11
76.17500015387611
 21
342.8082413006254
  0
LINE
  5
15D
100
AcDbEntity
  8
0
  6
ByLayer
 62
  256
370
   -1
100
AcDbLine
 10
76.17500015387611
 20
342.8082413006254
 11
77.42416179036172
 21
342.9306423737307
  0
LINE
  5
15E
100
AcDbEntity
  8
0
  6
ByLayer
 62
  256
370
   -1
100
AcDbLine
 10
77.42416179036172
 20
342.9306423737307
 11
78.67667688090501
 21
343.2978455930466
  0
LINE
  5
15F
100
AcDbEntity
  8
0
  6
ByLayer
 62
  256
370
   -1
100
AcDbLine
 10
78.67667688090501
 20
343.2978455930466
 11
79.84200216594849
 21
343.8394284233618
  0
LINE
  5
160
100
AcDbEntity
  8
0
  6
ByLayer
 62
  256
370
   -1
100
AcDbLine
 10
79.84200216594849
 20
343.8394284233618
 11
80.82959438593508
 21
344.4849683294651
  0
LINE
  5
161
100
AcDbEntity
  8
0
  6
ByLayer
 62
  256
370
   -1
100
AcDbLine
 10
80.82959438593508
 20
344.4849683294651
 11
80.82959438593508
 21
346.9799381483787
  0
LINE
  5
162
100
AcDbEntity
  8
0
  6
ByLayer
 62
  256
370
   -1
100
AcDbLine
 10
80.82959438593508
 20
346.9799381483787
 11
76.2823106837219
 21
346.9799381483787
  0
LINE
  5
163
100
AcDbEntity
  8
0
  6
ByLayer
 62
  256
370
   -1
100
AcDbLine
 10
76.2823106837219
 20
346.9799381483787
 11
76.2823106837219
 21
350.2931507573658
  0
LINE
  5
164
100
AcDbEntity
  8
0
  6
ByLayer
 62
  256
370
   -1
100
AcDbLine
 10
76.2823106837219
 20
350.2931507573658
 11
84.84032543891982
 21
350.2931507573658
  0
LINE
  5
165
100
AcDbEntity
  8
0
  6
ByLayer
 62
  256
370
   -1
100
AcDbLine
 10
84.84032543891982
 20
350.2931507573658
 11
84.84032543891982
 21
342.4594820786267
  0
LINE
  5
166
100
AcDbEntity
  8
0
  6
ByLayer
 62
  256
370
   -1
100
AcDbLine
 10
84.84032543891982
 20
342.4594820786267
 11
83.31282711564688
 21
341.3243378801021
  0
LINE
  5
167
100
AcDbEntity
  8
0
  6
ByLayer
 62
  256
370
   -1
100
AcDbLine
 10
83.31282711564688
 20
341.3243378801021
 11
81.22530196474139
 21
340.3333922060579
  0
LINE
  5
168
100
AcDbEntity
  8
0
  6
ByLayer
 62
  256
370
   -1
100
AcDbLine
 10
81.22530196474139
 20
340.3333922060579
 11
78.84267285676009
 21
339.6442573972049
  0
LINE
  5
169
100
AcDbEntity
  8
0
  6
ByLayer
 62
  256
370
   -1
100
AcDbLine
 10
78.84267285676009
 20
339.6442573972049
 11
76.42986266225984
 21
339.4145457942539
  0
LINE
  5
16A
100
AcDbEntity
  8
0
  6
ByLayer
 62
  256
370
   -1
100
AcDbLine
 10
76.42986266225984
 20
339.4145457942539
 11
74.93673724307803
 21
339.4954478733953
  0
LINE
  5
16B
100
AcDbEntity
  8
0
  6
ByLayer
 62
  256
370
   -1
100
AcDbLine
 10
74.93673724307803
 20
339.4954478733953
 11
73.54253871859783
 21
339.7381541108198
  0
LINE
  5
16C
100
AcDbEntity
  8
0
  6
ByLayer
 62
  256
370
   -1
100
AcDbLine
 10
73.54253871859783
 20
339.7381541108198
 11
72.24726708881923
 21
340.1426645065275
  0
LINE
  5
16D
100
AcDbEntity
  8
0
  6
ByLayer
 62
  256
370
   -1
100
AcDbLine
 10
72.24726708881923
 20
340.1426645065275
 11
71.05092235374212
 21
340.7089790605182
  0
LINE
  5
16E
100
AcDbEntity
  8
0
  6
ByLayer
 62
  256
370
   -1
100
AcDbLine
 10
71.05092235374212
 20
340.7089790605182
 11
69.97530196474139
 21
341.4257798653471
  0
LINE
  5
16F
100
AcDbEntity
  8
0
  6
ByLayer
 62
  256
370
   -1
100
AcDbLine
 10
69.97530196474139
 20
341.4257798653471
 11
69.04220337319208
 21
342.2817490135699
  0
LINE
  5
170
100
AcDbEntity
  8
0
  6
ByLayer
 62
  256
370
   -1
100
AcDbLine
 10
69.04220337319208
 20
342.2817490135699
 11
68.25162657909414
 21
343.276886505186
  0
LINE
  5
171
100
AcDbEntity
  8
0
  6
ByLayer
 62
  256
370
   -1
100
AcDbLine
 10
68.25162657909414
 20
343.276886505186
 11
67.6035715824475
 21
344.4111923401962
  0
LINE
  5
172
100
AcDbEntity
  8
0
  6
ByLayer
 62
  256
370
   -1
100
AcDbLine
 10
67.6035715824475
 20
344.4111923401962
 11
67.0988767467669
 21
345.6414907976073
  0
LINE
  5
173
100
AcDbEntity
  8
0
  6
ByLayer
 62
  256
370
   -1
100
AcDbLine
 10
67.0988767467669
 20
345.6414907976073
 11
66.73838043556628
 21
346.9246061564268
  0
LINE
  5
174
100
AcDbEntity
  8
0
  6
ByLayer
 62
  256
370
   -1
100
AcDbLine
 10
66.73838043556628
 20
346.9246061564268
 11
66.44998338660594
 21
349.6492875782915
  0
LINE
  5
175
100
AcDbEntity
  8
0
  6
ByLayer
 62
  256
370
   -1
100
AcDbLine
 10
66.44998338660594
 20
349.6492875782915
 11
66.53046628399022
 21
351.1424129974731
  0
LINE
  5
176
100
AcDbEntity
  8
0
  6
ByLayer
 62
  256
370
   -1
100
AcDbLine
 10
66.53046628399022
 20
351.1424129974731
 11
66.77191497614314
 21
352.550025338184
  0
LINE
  5
177
100
AcDbEntity
  8
0
  6
ByLayer
 62
  256
370
   -1
100
AcDbLine
 10
66.77191497614314
 20
352.550025338184
 11
67.17432946306462
 21
353.8721246004243
  0
LINE
  5
178
100
AcDbEntity
  8
0
  6
ByLayer
 62
  256
370
   -1
100
AcDbLine
 10
67.17432946306462
 20
353.8721246004243
 11
67.73770974475468
 21
355.1087107841935
  0
LINE
  5
179
100
AcDbEntity
  8
0
  6
ByLayer
 62
  256
370
   -1
100
AcDbLine
 10
67.73770974475468
 20
355.1087107841935
 11
68.45618727661258
 21
356.2329562570304
  0
LINE
  5
17A
100
AcDbEntity
  8
0
  6
ByLayer
 62
  256
370
   -1
100
AcDbLine
 10
68.45618727661258
 20
356.2329562570304
 11
69.3238935140372
 21
357.2180333864738
  0
LINE
  5
17B
100
AcDbEntity
  8
0
  6
ByLayer
 62
  256
370
   -1
100
AcDbLine
 10
53.17597510884542
 20
331.1181182929922
 11
52.889647419288
 21
330.744968783014
  0
LINE
  5
17C
100
AcDbEntity
  8
0
  6
ByLayer
 62
  256
370
   -1
100
AcDbLine
 10
55.7239993443655
 20
183.4851708823387
 11
56.01032703392269
 21
183.8583203923167
  0
LINE
  5
17D
100
AcDbEntity
  8
0
  6
ByLayer
 62
  256
370
   -1
100
AcDbLine
 10
55.35084983438742
 20
183.1988431927812
 11
55.7239993443655
 21
183.4851708823387
  0
LINE
  5
17E
100
AcDbEntity
  8
0
  6
ByLayer
 62
  256
370
   -1
100
AcDbLine
 10
54.91630802643482
 20
183.0188500825092
 11
55.35084983438742
 21
183.1988431927812
  0
LINE
  5
17F
100
AcDbEntity
  8
0
  6
ByLayer
 62
  256
370
   -1
100
AcDbLine
 10
54.4499872266054
 20
182.9574577845347
 11
54.91630802643482
 21
183.0188500825092
  0
LINE
  5
180
100
AcDbEntity
  8
0
  6
ByLayer
 62
  256
370
   -1
100
AcDbLine
 10
139.6760061900935
 20
339.8840293623289
 11
134.9642691008915
 21
339.7520479312589
  0
LINE
  5
181
100
AcDbEntity
  8
0
  6
ByLayer
 62
  256
370
   -1
100
AcDbLine
 10
134.9642691008915
 20
343.063103809009
 11
134.9642691008915
 21
339.7520479312589
  0
LINE
  5
182
100
AcDbEntity
  8
0
  6
ByLayer
 62
  256
370
   -1
100
AcDbLine
 10
134.9642691008915
 20
343.063103809009
 11
135.8396547481083
 21
343.063103809009
  0
LINE
  5
183
100
AcDbEntity
  8
0
  6
ByLayer
 62
  256
370
   -1
100
AcDbLine
 10
135.8396547481083
 20
343.063103809009
 11
138.5626594429439
 21
343.1838281550855
  0
LINE
  5
184
100
AcDbEntity
  8
0
  6
ByLayer
 62
  256
370
   -1
100
AcDbLine
 10
138.5626594429439
 20
343.1838281550855
 11
139.3658116897581
 21
343.4604881148439
  0
LINE
  5
185
100
AcDbEntity
  8
0
  6
ByLayer
 62
  256
370
   -1
100
AcDbLine
 10
139.3658116897581
 20
343.4604881148439
 11
140.004644687746
 21
343.9685364045824
  0
LINE
  5
186
100
AcDbEntity
  8
0
  6
ByLayer
 62
  256
370
   -1
100
AcDbLine
 10
140.004644687746
 20
343.9685364045824
 11
140.4221497179271
 21
344.6979126621277
  0
LINE
  5
187
100
AcDbEntity
  8
0
  6
ByLayer
 62
  256
370
   -1
100
AcDbLine
 10
140.4221497179271
 20
344.6979126621277
 11
140.5613180613209
 21
345.6385565253069
  0
LINE
  5
188
100
AcDbEntity
  8
0
  6
ByLayer
 62
  256
370
   -1
100
AcDbLine
 10
140.5613180613209
 20
345.6385565253069
 11
140.4540075314751
 21
346.4567993153806
  0
LINE
  5
189
100
AcDbEntity
  8
0
  6
ByLayer
 62
  256
370
   -1
100
AcDbLine
 10
140.4540075314751
 20
346.4567993153806
 11
140.1320759419379
 21
347.1409039431471
  0
LINE
  5
18A
100
AcDbEntity
  8
0
  6
ByLayer
 62
  256
370
   -1
100
AcDbLine
 10
140.1320759419379
 20
347.1409039431471
 11
139.6072603819111
 21
347.6741031383181
  0
LINE
  5
18B
100
AcDbEntity
  8
0
  6
ByLayer
 62
  256
370
   -1
100
AcDbLine
 10
139.6072603819111
 20
347.6741031383181
 11
138.8912979405965
 21
348.0396296306053
  0
LINE
  5
18C
100
AcDbEntity
  8
0
  6
ByLayer
 62
  256
370
   -1
100
AcDbLine
 10
138.8912979405965
 20
348.0396296306053
 11
137.6052483094764
 21
348.250897236239
  0
LINE
  5
18D
100
AcDbEntity
  8
0
  6
ByLayer
 62
  256
370
   -1
100
AcDbLine
 10
137.6052483094764
 20
348.250897236239
 11
135.3701711800332
 21
348.3213197714505
  0
LINE
  5
18E
100
AcDbEntity
  8
0
  6
ByLayer
 62
  256
370
   -1
100
AcDbLine
 10
135.3701711800332
 20
348.3213197714505
 11
134.9642691008915
 21
348.3213197714505
  0
LINE
  5
18F
100
AcDbEntity
  8
0
  6
ByLayer
 62
  256
370
   -1
100
AcDbLine
 10
134.9642691008915
 20
348.3213197714505
 11
134.9642691008915
 21
351.5988890631696
  0
LINE
  5
190
100
AcDbEntity
  8
0
  6
ByLayer
 62
  256
370
   -1
100
AcDbLine
 10
134.9642691008915
 20
351.5988890631696
 11
137.6505199392552
 21
351.6613600128991
  0
LINE
  5
191
100
AcDbEntity
  8
0
  6
ByLayer
 62
  256
370
   -1
100
AcDbLine
 10
137.6505199392552
 20
351.6613600128991
 11
138.5609827159152
 21
351.8977785239654
  0
LINE
  5
192
100
AcDbEntity
  8
0
  6
ByLayer
 62
  256
370
   -1
100
AcDbLine
 10
138.5609827159152
 20
351.8977785239654
 11
139.2534709788259
 21
352.3655853650117
  0
LINE
  5
193
100
AcDbEntity
  8
0
  6
ByLayer
 62
  256
370
   -1
100
AcDbLine
 10
139.2534709788259
 20
352.3655853650117
 11
139.6910967333531
 21
353.0413063576341
  0
LINE
  5
194
100
AcDbEntity
  8
0
  6
ByLayer
 62
  256
370
   -1
100
AcDbLine
 10
139.6910967333531
 20
353.0413063576341
 11
139.8369719848621
 21
353.9014673234291
  0
LINE
  5
195
100
AcDbEntity
  8
0
  6
ByLayer
 62
  256
370
   -1
100
AcDbLine
 10
139.8369719848621
 20
353.9014673234291
 11
139.7112174576991
 21
354.7280937486468
  0
LINE
  5
196
100
AcDbEntity
  8
0
  6
ByLayer
 62
  256
370
   -1
100
AcDbLine
 10
139.7112174576991
 20
354.7280937486468
 11
139.3339538762102
 21
355.3836940169232
  0
LINE
  5
197
100
AcDbEntity
  8
0
  6
ByLayer
 62
  256
370
   -1
100
AcDbLine
 10
139.3339538762102
 20
355.3836940169232
 11
138.708534694453
 21
355.8414404957966
  0
LINE
  5
198
100
AcDbEntity
  8
0
  6
ByLayer
 62
  256
370
   -1
100
AcDbLine
 10
138.708534694453
 20
355.8414404957966
 11
137.8383133664852
 21
356.074505552805
  0
LINE
  5
199
100
AcDbEntity
  8
0
  6
ByLayer
 62
  256
370
   -1
100
AcDbLine
 10
137.8383133664852
 20
356.074505552805
 11
134.4446178601137
 21
356.1415746339587
  0
LINE
  5
19A
100
AcDbEntity
  8
0
  6
ByLayer
 62
  256
370
   -1
100
AcDbLine
 10
134.4446178601137
 20
356.1415746339587
 11
132.1642691008916
 21
356.1415746339587
  0
LINE
  5
19B
100
AcDbEntity
  8
0
  6
ByLayer
 62
  256
370
   -1
100
AcDbLine
 10
132.1642691008916
 20
356.1415746339587
 11
132.1642691008916
 21
339.7498912000219
  0
LINE
  5
19C
100
AcDbEntity
  8
0
  6
ByLayer
 62
  256
370
   -1
100
AcDbLine
 10
132.1642691008916
 20
339.7498912000219
 11
128.1937794965992
 21
339.7498912000219
  0
LINE
  5
19D
100
AcDbEntity
  8
0
  6
ByLayer
 62
  256
370
   -1
100
AcDbLine
 10
128.1937794965992
 20
339.7498912000219
 11
128.1937794965992
 21
359.4145457942539
  0
LINE
  5
19E
100
AcDbEntity
  8
0
  6
ByLayer
 62
  256
370
   -1
100
AcDbLine
 10
128.1937794965992
 20
359.4145457942539
 11
136.0542758077997
 21
359.4145457942539
  0
LINE
  5
19F
100
AcDbEntity
  8
0
  6
ByLayer
 62
  256
370
   -1
100
AcDbLine
 10
136.0542758077997
 20
359.4145457942539
 11
139.5351611196709
 21
359.2200454589083
  0
LINE
  5
1A0
100
AcDbEntity
  8
0
  6
ByLayer
 62
  256
370
   -1
100
AcDbLine
 10
139.5351611196709
 20
359.2200454589083
 11
140.6216802343591
 21
358.9199113207462
  0
LINE
  5
1A1
100
AcDbEntity
  8
0
  6
ByLayer
 62
  256
370
   -1
100
AcDbLine
 10
140.6216802343591
 20
358.9199113207462
 11
141.5874750029708
 21
358.4085095769501
  0
LINE
  5
1A2
100
AcDbEntity
  8
0
  6
ByLayer
 62
  256
370
   -1
100
AcDbLine
 10
141.5874750029708
 20
358.4085095769501
 11
142.4174548822464
 21
357.6891936815779
  0
LINE
  5
1A3
100
AcDbEntity
  8
0
  6
ByLayer
 62
  256
370
   -1
100
AcDbLine
 10
142.4174548822464
 20
357.6891936815779
 11
143.0965293289265
 21
356.765317088687
  0
LINE
  5
1A4
100
AcDbEntity
  8
0
  6
ByLayer
 62
  256
370
   -1
100
AcDbLine
 10
143.0965293289265
 20
356.765317088687
 11
143.5492456267133
 21
355.67712124697
  0
LINE
  5
1A5
100
AcDbEntity
  8
0
  6
ByLayer
 62
  256
370
   -1
100
AcDbLine
 10
143.5492456267133
 20
355.67712124697
 11
143.7001510593088
 21
354.4648476051191
  0
LINE
  5
1A6
100
AcDbEntity
  8
0
  6
ByLayer
 62
  256
370
   -1
100
AcDbLine
 10
143.7001510593088
 20
354.4648476051191
 11
143.5140343591075
 21
353.1402332523355
  0
LINE
  5
1A7
100
AcDbEntity
  8
0
  6
ByLayer
 62
  256
370
   -1
100
AcDbLine
 10
143.5140343591075
 20
353.1402332523355
 11
142.9556842585039
 21
351.9296363375134
  0
LINE
  5
1A8
100
AcDbEntity
  8
0
  6
ByLayer
 62
  256
370
   -1
100
AcDbLine
 10
142.9556842585039
 20
351.9296363375134
 11
142.0787560224207
 21
350.920246666152
  0
LINE
  5
1A9
100
AcDbEntity
  8
0
  6
ByLayer
 62
  256
370
   -1
100
AcDbLine
 10
142.0787560224207
 20
350.920246666152
 11
140.9369049157809
 21
350.1992540437508
  0
LINE
  5
1AA
100
AcDbEntity
  8
0
  6
ByLayer
 62
  256
370
   -1
100
AcDbLine
 10
140.9369049157809
 20
350.1992540437508
 11
142.5264421391211
 21
349.4916752375806
  0
LINE
  5
1AB
100
AcDbEntity
  8
0
  6
ByLayer
 62
  256
370
   -1
100
AcDbLine
 10
142.5264421391211
 20
349.4916752375806
 11
143.7001510593088
 21
348.4152164850652
  0
LINE
  5
1AC
100
AcDbEntity
  8
0
  6
ByLayer
 62
  256
370
   -1
100
AcDbLine
 10
143.7001510593088
 20
348.4152164850652
 11
144.4244971357675
 21
347.0436537754745
  0
LINE
  5
1AD
100
AcDbEntity
  8
0
  6
ByLayer
 62
  256
370
   -1
100
AcDbLine
 10
144.4244971357675
 20
347.0436537754745
 11
144.6659458279205
 21
345.4507630980768
  0
LINE
  5
1AE
100
AcDbEntity
  8
0
  6
ByLayer
 62
  256
370
   -1
100
AcDbLine
 10
144.6659458279205
 20
345.4507630980768
 11
144.5100102142384
 21
344.1278254723222
  0
LINE
  5
1AF
100
AcDbEntity
  8
0
  6
ByLayer
 62
  256
370
   -1
100
AcDbLine
 10
144.5100102142384
 20
344.1278254723222
 11
144.0422033731921
 21
342.8417758412024
  0
LINE
  5
1B0
100
AcDbEntity
  8
0
  6
ByLayer
 62
  256
370
   -1
100
AcDbLine
 10
144.0422033731921
 20
342.8417758412024
 11
143.3044434805026
 21
341.7016014615913
  0
LINE
  5
1B1
100
AcDbEntity
  8
0
  6
ByLayer
 62
  256
370
   -1
100
AcDbLine
 10
143.3044434805026
 20
341.7016014615913
 11
142.338648711891
 21
340.8162895903638
  0
LINE
  5
1B2
100
AcDbEntity
  8
0
  6
ByLayer
 62
  256
370
   -1
100
AcDbLine
 10
142.338648711891
 20
340.8162895903638
 11
141.1330819781552
 21
340.2042842248375
  0
LINE
  5
1B3
100
AcDbEntity
  8
0
  6
ByLayer
 62
  256
370
   -1
100
AcDbLine
 10
141.1330819781552
 20
340.2042842248375
 11
139.6760061900935
 21
339.8840293623289
  0
LINE
  5
1B4
100
AcDbEntity
  8
0
  6
ByLayer
 62
  256
370
   -1
100
AcDbLine
 10
173.7437459620586
 20
347.4225940839922
 11
173.1300638695033
 21
347.7378187654142
  0
LINE
  5
1B5
100
AcDbEntity
  8
0
  6
ByLayer
 62
  256
370
   -1
100
AcDbLine
 10
173.1265762772833
 20
351.0979797312089
 11
173.1300638695033
 21
347.7378187654142
  0
LINE
  5
1B6
100
AcDbEntity
  8
0
  6
ByLayer
 62
  256
370
   -1
100
AcDbLine
 10
173.1265762772833
 20
351.0979797312089
 11
173.2642020318104
 21
351.0979797312089
  0
LINE
  5
1B7
100
AcDbEntity
  8
0
  6
ByLayer
 62
  256
370
   -1
100
AcDbLine
 10
173.2642020318104
 20
351.0979797312089
 11
175.5847922397246
 21
351.1583419042472
  0
LINE
  5
1B8
100
AcDbEntity
  8
0
  6
ByLayer
 62
  256
370
   -1
100
AcDbLine
 10
175.5847922397246
 20
351.1583419042472
 11
176.8322771491814
 21
351.3394284233618
  0
LINE
  5
1B9
100
AcDbEntity
  8
0
  6
ByLayer
 62
  256
370
   -1
100
AcDbLine
 10
176.8322771491814
 20
351.3394284233618
 11
177.4660799660828
 21
351.6680669210144
  0
LINE
  5
1BA
100
AcDbEntity
  8
0
  6
ByLayer
 62
  256
370
   -1
100
AcDbLine
 10
177.4660799660828
 20
351.6680669210144
 11
177.9456238963308
 21
352.1710850296665
  0
LINE
  5
1BB
100
AcDbEntity
  8
0
  6
ByLayer
 62
  256
370
   -1
100
AcDbLine
 10
177.9456238963308
 20
352.1710850296665
 11
178.2474347615221
 21
352.8350689330869
  0
LINE
  5
1BC
100
AcDbEntity
  8
0
  6
ByLayer
 62
  256
370
   -1
100
AcDbLine
 10
178.2474347615221
 20
352.8350689330869
 11
178.3480383832525
 21
353.6466048150453
  0
LINE
  5
1BD
100
AcDbEntity
  8
0
  6
ByLayer
 62
  256
370
   -1
100
AcDbLine
 10
178.3480383832525
 20
353.6466048150453
 11
178.2155769479741
 21
354.5436537754745
  0
LINE
  5
1BE
100
AcDbEntity
  8
0
  6
ByLayer
 62
  256
370
   -1
100
AcDbLine
 10
178.2155769479741
 20
354.5436537754745
 11
177.8181926421391
 21
355.2495558546161
  0
LINE
  5
1BF
100
AcDbEntity
  8
0
  6
ByLayer
 62
  256
370
   -1
100
AcDbLine
 10
177.8181926421391
 20
355.2495558546161
 11
177.1793596441512
 21
355.7475437821814
  0
LINE
  5
1C0
100
AcDbEntity
  8
0
  6
ByLayer
 62
  256
370
   -1
100
AcDbLine
 10
177.1793596441512
 20
355.7475437821814
 11
176.3225521324142
 21
356.0208502878822
  0
LINE
  5
1C1
100
AcDbEntity
  8
0
  6
ByLayer
 62
  256
370
   -1
100
AcDbLine
 10
176.3225521324142
 20
356.0208502878822
 11
173.4251678265791
 21
356.0879193690358
  0
LINE
  5
1C2
100
AcDbEntity
  8
0
  6
ByLayer
 62
  256
370
   -1
100
AcDbLine
 10
173.4251678265791
 20
356.0879193690358
 11
170.3265762772834
 21
356.0879193690358
  0
LINE
  5
1C3
100
AcDbEntity
  8
0
  6
ByLayer
 62
  256
370
   -1
100
AcDbLine
 10
170.3265762772834
 20
356.0879193690358
 11
170.3265762772834
 21
339.7498912000219
  0
LINE
  5
1C4
100
AcDbEntity
  8
0
  6
ByLayer
 62
  256
370
   -1
100
AcDbLine
 10
170.3265762772834
 20
339.7498912000219
 11
166.3560866729909
 21
339.7498912000219
  0
LINE
  5
1C5
100
AcDbEntity
  8
0
  6
ByLayer
 62
  256
370
   -1
100
AcDbLine
 10
166.3560866729909
 20
339.7498912000219
 11
166.3560866729909
 21
359.4145457942539
  0
LINE
  5
1C6
100
AcDbEntity
  8
0
  6
ByLayer
 62
  256
370
   -1
100
AcDbLine
 10
166.3560866729909
 20
359.4145457942539
 11
174.7128941847279
 21
359.4145457942539
  0
LINE
  5
1C7
100
AcDbEntity
  8
0
  6
ByLayer
 62
  256
370
   -1
100
AcDbLine
 10
174.7128941847279
 20
359.4145457942539
 11
177.4342221525348
 21
359.2820843589757
  0
LINE
  5
1C8
100
AcDbEntity
  8
0
  6
ByLayer
 62
  256
370
   -1
100
AcDbLine
 10
177.4342221525348
 20
359.2820843589757
 11
179.2937124275181
 21
358.8847000531405
  0
LINE
  5
1C9
100
AcDbEntity
  8
0
  6
ByLayer
 62
  256
370
   -1
100
AcDbLine
 10
179.2937124275181
 20
358.8847000531405
 11
180.579762058638
 21
358.1486168874799
  0
LINE
  5
1CA
100
AcDbEntity
  8
0
  6
ByLayer
 62
  256
370
   -1
100
AcDbLine
 10
180.579762058638
 20
358.1486168874799
 11
181.5807680948553
 21
357.0000588727248
  0
LINE
  5
1CB
100
AcDbEntity
  8
0
  6
ByLayer
 62
  256
370
   -1
100
AcDbLine
 10
181.5807680948553
 20
357.0000588727248
 11
182.2246312739298
 21
355.5480132657494
  0
LINE
  5
1CC
100
AcDbEntity
  8
0
  6
ByLayer
 62
  256
370
   -1
100
AcDbLine
 10
182.2246312739298
 20
355.5480132657494
 11
182.4392523336213
 21
353.9014673234291
  0
LINE
  5
1CD
100
AcDbEntity
  8
0
  6
ByLayer
 62
  256
370
   -1
100
AcDbLine
 10
182.4392523336213
 20
353.9014673234291
 11
182.3579310727226
 21
352.8430333864738
  0
LINE
  5
1CE
100
AcDbEntity
  8
0
  6
ByLayer
 62
  256
370
   -1
100
AcDbLine
 10
182.3579310727226
 20
352.8430333864738
 11
182.1139672900265
 21
351.8810112536771
  0
LINE
  5
1CF
100
AcDbEntity
  8
0
  6
ByLayer
 62
  256
370
   -1
100
AcDbLine
 10
182.1139672900265
 20
351.8810112536771
 11
181.7073609855328
 21
351.0154009250384
  0
LINE
  5
1D0
100
AcDbEntity
  8
0
  6
ByLayer
 62
  256
370
   -1
100
AcDbLine
 10
181.7073609855328
 20
351.0154009250384
 11
181.1381121592417
 21
350.2462024005583
  0
LINE
  5
1D1
100
AcDbEntity
  8
0
  6
ByLayer
 62
  256
370
   -1
100
AcDbLine
 10
181.1381121592417
 20
350.2462024005583
 11
180.4070591746677
 21
349.5918596775539
  0
LINE
  5
1D2
100
AcDbEntity
  8
0
  6
ByLayer
 62
  256
370
   -1
100
AcDbLine
 10
180.4070591746677
 20
349.5918596775539
 11
179.5150403953249
 21
349.0708167533418
  0
LINE
  5
1D3
100
AcDbEntity
  8
0
  6
ByLayer
 62
  256
370
   -1
100
AcDbLine
 10
179.5150403953249
 20
349.0708167533418
 11
178.4620558212135
 21
348.6830736279225
  0
LINE
  5
1D4
100
AcDbEntity
  8
0
  6
ByLayer
 62
  256
370
   -1
100
AcDbLine
 10
178.4620558212135
 20
348.6830736279225
 11
177.2481054523336
 21
348.428630301296
  0
LINE
  5
1D5
100
AcDbEntity
  8
0
  6
ByLayer
 62
  256
370
   -1
100
AcDbLine
 10
177.2481054523336
 20
348.428630301296
 11
178.4234910995503
 21
347.6405685977413
  0
LINE
  5
1D6
100
AcDbEntity
  8
0
  6
ByLayer
 62
  256
370
   -1
100
AcDbLine
 10
178.4234910995503
 20
347.6405685977413
 11
179.3741953249023
 21
346.7787309049178
  0
LINE
  5
1D7
100
AcDbEntity
  8
0
  6
ByLayer
 62
  256
370
   -1
100
AcDbLine
 10
179.3741953249023
 20
346.7787309049178
 11
180.3584340908312
 21
345.5312459954612
  0
LINE
  5
1D8
100
AcDbEntity
  8
0
  6
ByLayer
 62
  256
370
   -1
100
AcDbLine
 10
180.3584340908312
 20
345.5312459954612
 11
181.6344233597783
 21
343.5862426420072
  0
LINE
  5
1D9
100
AcDbEntity
  8
0
  6
ByLayer
 62
  256
370
   -1
100
AcDbLine
 10
181.6344233597783
 20
343.5862426420072
 11
184.0354964650768
 21
339.7498912000219
  0
LINE
  5
1DA
100
AcDbEntity
  8
0
  6
ByLayer
 62
  256
370
   -1
100
AcDbLine
 10
184.0354964650768
 20
339.7498912000219
 11
179.2870055194027
 21
339.7498912000219
  0
LINE
  5
1DB
100
AcDbEntity
  8
0
  6
ByLayer
 62
  256
370
   -1
100
AcDbLine
 10
179.2870055194027
 20
339.7498912000219
 11
176.4164488460291
 21
344.0288985776207
  0
LINE
  5
1DC
100
AcDbEntity
  8
0
  6
ByLayer
 62
  256
370
   -1
100
AcDbLine
 10
176.4164488460291
 20
344.0288985776207
 11
174.3238935140372
 21
346.9195759753404
  0
LINE
  5
1DD
100
AcDbEntity
  8
0
  6
ByLayer
 62
  256
370
   -1
100
AcDbLine
 10
174.3238935140372
 20
346.9195759753404
 11
173.7437459620586
 21
347.4225940839922
  0
LINE
  5
1DE
100
AcDbEntity
  8
0
  6
ByLayer
 62
  256
370
   -1
100
AcDbLine
 10
114.9762452906473
 20
344.216692004851
 11
116.1969025676427
 21
347.529904613838
  0
LINE
  5
1DF
100
AcDbEntity
  8
0
  6
ByLayer
 62
  256
370
   -1
100
AcDbLine
 10
116.1969025676427
 20
347.529904613838
 11
118.7638666864047
 21
347.529904613838
  0
LINE
  5
1E0
100
AcDbEntity
  8
0
  6
ByLayer
 62
  256
370
   -1
100
AcDbLine
 10
118.7638666864047
 20
347.529904613838
 11
116.0542758077997
 21
354.8270206433485
  0
LINE
  5
1E1
100
AcDbEntity
  8
0
  6
ByLayer
 62
  256
370
   -1
100
AcDbLine
 10
116.0542758077997
 20
354.8270206433485
 11
110.5546111532055
 21
339.7498912000219
  0
LINE
  5
1E2
100
AcDbEntity
  8
0
  6
ByLayer
 62
  256
370
   -1
100
AcDbLine
 10
110.5546111532055
 20
339.7498912000219
 11
106.3426728567601
 21
339.7498912000219
  0
LINE
  5
1E3
100
AcDbEntity
  8
0
  6
ByLayer
 62
  256
370
   -1
100
AcDbLine
 10
106.3426728567601
 20
339.7498912000219
 11
114.0019619244999
 21
359.4145457942539
  0
LINE
  5
1E4
100
AcDbEntity
  8
0
  6
ByLayer
 62
  256
370
   -1
100
AcDbLine
 10
114.0019619244999
 20
359.4145457942539
 11
118.2004864047145
 21
359.4145457942539
  0
LINE
  5
1E5
100
AcDbEntity
  8
0
  6
ByLayer
 62
  256
370
   -1
100
AcDbLine
 10
118.2004864047145
 20
359.4145457942539
 11
126.0743965321458
 21
339.7498912000219
  0
LINE
  5
1E6
100
AcDbEntity
  8
0
  6
ByLayer
 62
  256
370
   -1
100
AcDbLine
 10
126.0743965321458
 20
339.7498912000219
 11
121.7551477058547
 21
339.7498912000219
  0
LINE
  5
1E7
100
AcDbEntity
  8
0
  6
ByLayer
 62
  256
370
   -1
100
AcDbLine
 10
121.7551477058547
 20
339.7498912000219
 11
120.0381792283229
 21
344.216692004851
  0
LINE
  5
1E8
100
AcDbEntity
  8
0
  6
ByLayer
 62
  256
370
   -1
100
AcDbLine
 10
120.0381792283229
 20
344.216692004851
 11
114.9762452906473
 21
344.216692004851
  0
LINE
  5
1E9
100
AcDbEntity
  8
0
  6
ByLayer
 62
  256
370
   -1
100
AcDbLine
 10
388.3998809839261
 20
10.49994018651421
 11
394.9998829012254
 21
10.49994018651415
  0
LINE
  5
1EA
100
AcDbEntity
  8
0
  6
ByLayer
 62
  256
370
   -1
100
AcDbLine
 10
388.3998809839261
 20
19.699937886214
 11
388.3998809839261
 21
10.49994018651421
  0
LINE
  5
1EB
100
AcDbEntity
  8
0
  6
ByLayer
 62
  256
370
   -1
100
AcDbLine
 10
394.9998829012254
 20
19.699937886214
 11
388.3998809839261
 21
19.699937886214
  0
LINE
  5
1EC
100
AcDbEntity
  8
0
  6
ByLayer
 62
  256
370
   -1
100
AcDbLine
 10
393.2602227107428
 20
27.9007964234977
 11
392.9738950211852
 21
28.27394593347583
  0
LINE
  5
1ED
100
AcDbEntity
  8
0
  6
ByLayer
 62
  256
370
   -1
100
AcDbLine
 10
393.2602227107428
 20
26.09907120793366
 11
393.4402158210149
 21
26.53361301588643
  0
LINE
  5
1EE
100
AcDbEntity
  8
0
  6
ByLayer
 62
  256
370
   -1
100
AcDbLine
 10
392.166203703255
 20
25.25960089812622
 11
392.6007455112077
 21
25.43959400839844
  0
LINE
  5
1EF
100
AcDbEntity
  8
0
  6
ByLayer
 62
  256
370
   -1
100
AcDbLine
 10
390.1395430961082
 20
26.099071207934
 11
390.4258707856652
 21
25.72592169795564
  0
LINE
  5
1F0
100
AcDbEntity
  8
0
  6
ByLayer
 62
  256
370
   -1
100
AcDbLine
 10
389.9595499858362
 20
26.53361301588643
 11
390.1395430961082
 21
26.099071207934
  0
LINE
  5
1F1
100
AcDbEntity
  8
0
  6
ByLayer
 62
  256
370
   -1
100
AcDbLine
 10
2.760342398820001
 20
26.09907120793389
 11
2.940335509091909
 21
26.53361301588643
  0
LINE
  5
1F2
100
AcDbEntity
  8
0
  6
ByLayer
 62
  256
370
   -1
100
AcDbLine
 10
2.474014709262605
 20
25.72592169795576
 11
2.760342398820001
 21
26.09907120793389
  0
LINE
  5
1F3
100
AcDbEntity
  8
0
  6
ByLayer
 62
  256
370
   -1
100
AcDbLine
 10
1.6663233913319
 20
25.25960089812634
 11
2.100865199284812
 21
25.43959400839844
  0
LINE
  5
1F4
100
AcDbEntity
  8
0
  6
ByLayer
 62
  256
370
   -1
100
AcDbLine
 10
0.2991399837207211
 20
25.43959400839844
 11
0.733681791673007
 21
25.25960089812634
  0
LINE
  5
1F5
100
AcDbEntity
  8
0
  6
ByLayer
 62
  256
370
   -1
100
AcDbLine
 10
-0.3603372158147806
 20
26.09907120793412
 11
-0.07400952625738455
 21
25.72592169795576
  0
LINE
  5
1F6
100
AcDbEntity
  8
0
  6
ByLayer
 62
  256
370
   -1
100
AcDbLine
 10
-0.5403303260868029
 20
26.53361301588654
 11
-0.3603372158147806
 21
26.09907120793412
  0
LINE
  5
1F7
100
AcDbEntity
  8
0
  6
ByLayer
 62
  256
370
   -1
100
AcDbLine
 10
0.2991399837207211
 20
28.56027362303314
 11
-0.07400952625738455
 21
28.27394593347594
  0
LINE
  5
1F8
100
AcDbEntity
  8
0
  6
ByLayer
 62
  256
370
   -1
100
AcDbLine
 10
2.940335509092222
 20
27.46625461554527
 11
2.760342398820001
 21
27.9007964234977
  0
LINE
  5
1F9
100
AcDbEntity
  8
0
  6
ByLayer
 62
  256
370
   -1
100
AcDbLine
 10
25.89827042973999
 20
55.29992045151914
 11
25.9596627277146
 21
54.83359965168961
  0
LINE
  5
1FA
100
AcDbEntity
  8
0
  6
ByLayer
 62
  256
370
   -1
100
AcDbLine
 10
25.9596627277146
 20
55.76624125134833
 11
25.89827042973999
 21
55.29992045151914
  0
LINE
  5
1FB
100
AcDbEntity
  8
0
  6
ByLayer
 62
  256
370
   -1
100
AcDbLine
 10
26.13965583798671
 20
56.2007830593011
 11
25.9596627277146
 21
55.76624125134833
  0
LINE
  5
1FC
100
AcDbEntity
  8
0
  6
ByLayer
 62
  256
370
   -1
100
AcDbLine
 10
26.42598352754422
 20
56.57393256927912
 11
26.13965583798671
 21
56.2007830593011
  0
LINE
  5
1FD
100
AcDbEntity
  8
0
  6
ByLayer
 62
  256
370
   -1
100
AcDbLine
 10
27.2336748454747
 20
57.04025336910843
 11
26.79913303752221
 21
56.86026025883632
  0
LINE
  5
1FE
100
AcDbEntity
  8
0
  6
ByLayer
 62
  256
370
   -1
100
AcDbLine
 10
27.6999956453042
 20
57.10164566708295
 11
27.2336748454747
 21
57.04025336910843
  0
LINE
  5
1FF
100
AcDbEntity
  8
0
  6
ByLayer
 62
  256
370
   -1
100
AcDbLine
 10
28.1663164451339
 20
57.04025336910843
 11
27.6999956453042
 21
57.10164566708295
  0
LINE
  5
200
100
AcDbEntity
  8
0
  6
ByLayer
 62
  256
370
   -1
100
AcDbLine
 10
28.97400776306432
 20
56.57393256927924
 11
28.60085825308622
 21
56.86026025883632
  0
LINE
  5
201
100
AcDbEntity
  8
0
  6
ByLayer
 62
  256
370
   -1
100
AcDbLine
 10
29.26033545262169
 20
56.20078305930099
 11
28.97400776306432
 21
56.57393256927924
  0
LINE
  5
202
100
AcDbEntity
  8
0
  6
ByLayer
 62
  256
370
   -1
100
AcDbLine
 10
29.5017208608682
 20
55.29992045151914
 11
29.4403285628934
 21
55.76624125134833
  0
LINE
  5
203
100
AcDbEntity
  8
0
  6
ByLayer
 62
  256
370
   -1
100
AcDbLine
 10
29.4403285628934
 20
54.83359965168961
 11
29.5017208608682
 21
55.29992045151914
  0
LINE
  5
204
100
AcDbEntity
  8
0
  6
ByLayer
 62
  256
370
   -1
100
AcDbLine
 10
29.26033545262123
 20
54.39905784373718
 11
29.4403285628934
 21
54.83359965168961
  0
LINE
  5
205
100
AcDbEntity
  8
0
  6
ByLayer
 62
  256
370
   -1
100
AcDbLine
 10
27.23367484547441
 20
53.55958753392929
 11
27.6999956453042
 21
53.49819523595488
  0
LINE
  5
206
100
AcDbEntity
  8
0
  6
ByLayer
 62
  256
370
   -1
100
AcDbLine
 10
26.79913303752221
 20
53.73958064420174
 11
27.23367484547441
 21
53.55958753392929
  0
LINE
  5
207
100
AcDbEntity
  8
0
  6
ByLayer
 62
  256
370
   -1
100
AcDbLine
 10
26.13965583798702
 20
54.3990578437373
 11
26.42598352754422
 21
54.02590833375893
  0
LINE
  5
208
100
AcDbEntity
  8
0
  6
ByLayer
 62
  256
370
   -1
100
AcDbLine
 10
162.97580498285
 20
339.7498912000219
 11
148.0193998855998
 21
339.7498912000219
  0
LINE
  5
209
100
AcDbEntity
  8
0
  6
ByLayer
 62
  256
370
   -1
100
AcDbLine
 10
148.0193998855998
 20
339.7498912000219
 11
148.0193998855998
 21
359.4145457942539
  0
LINE
  5
20A
100
AcDbEntity
  8
0
  6
ByLayer
 62
  256
370
   -1
100
AcDbLine
 10
148.0193998855998
 20
359.4145457942539
 11
162.60021812839
 21
359.4145457942539
  0
LINE
  5
20B
100
AcDbEntity
  8
0
  6
ByLayer
 62
  256
370
   -1
100
AcDbLine
 10
162.60021812839
 20
359.4145457942539
 11
162.60021812839
 21
356.0879193690358
  0
LINE
  5
20C
100
AcDbEntity
  8
0
  6
ByLayer
 62
  256
370
   -1
100
AcDbLine
 10
162.60021812839
 20
356.0879193690358
 11
151.9898894898923
 21
356.0879193690358
  0
LINE
  5
20D
100
AcDbEntity
  8
0
  6
ByLayer
 62
  256
370
   -1
100
AcDbLine
 10
151.9898894898923
 20
356.0879193690358
 11
151.9898894898923
 21
351.7284290940526
  0
LINE
  5
20E
100
AcDbEntity
  8
0
  6
ByLayer
 62
  256
370
   -1
100
AcDbLine
 10
151.9898894898923
 20
351.7284290940526
 11
161.8624582357005
 21
351.7284290940526
  0
LINE
  5
20F
100
AcDbEntity
  8
0
  6
ByLayer
 62
  256
370
   -1
100
AcDbLine
 10
161.8624582357005
 20
351.7284290940526
 11
161.8624582357005
 21
348.4152164850652
  0
LINE
  5
210
100
AcDbEntity
  8
0
  6
ByLayer
 62
  256
370
   -1
100
AcDbLine
 10
161.8624582357005
 20
348.4152164850652
 11
151.9898894898923
 21
348.4152164850652
  0
LINE
  5
211
100
AcDbEntity
  8
0
  6
ByLayer
 62
  256
370
   -1
100
AcDbLine
 10
151.9898894898923
 20
348.4152164850652
 11
151.9898894898923
 21
343.063103809009
  0
LINE
  5
212
100
AcDbEntity
  8
0
  6
ByLayer
 62
  256
370
   -1
100
AcDbLine
 10
151.9898894898923
 20
343.063103809009
 11
162.97580498285
 21
343.063103809009
  0
LINE
  5
213
100
AcDbEntity
  8
0
  6
ByLayer
 62
  256
370
   -1
100
AcDbLine
 10
162.97580498285
 20
343.063103809009
 11
162.97580498285
 21
339.7498912000219
  0
LINE
  5
214
100
AcDbEntity
  8
0
  6
ByLayer
 62
  256
370
   -1
100
AcDbLine
 10
366.8102210329444
 20
56.20078305930087
 11
366.5238933433869
 21
56.57393256927912
  0
LINE
  5
215
100
AcDbEntity
  8
0
  6
ByLayer
 62
  256
370
   -1
100
AcDbLine
 10
366.9902141432165
 20
55.76624125134833
 11
366.8102210329444
 21
56.20078305930087
  0
LINE
  5
216
100
AcDbEntity
  8
0
  6
ByLayer
 62
  256
370
   -1
100
AcDbLine
 10
367.051606441191
 20
55.29992045151903
 11
366.9902141432165
 21
55.76624125134833
  0
LINE
  5
217
100
AcDbEntity
  8
0
  6
ByLayer
 62
  256
370
   -1
100
AcDbLine
 10
366.9902141432165
 20
54.83359965168961
 11
367.051606441191
 21
55.29992045151903
  0
LINE
  5
218
100
AcDbEntity
  8
0
  6
ByLayer
 62
  256
370
   -1
100
AcDbLine
 10
366.810221032944
 20
54.39905784373707
 11
366.9902141432165
 21
54.83359965168961
  0
LINE
  5
219
100
AcDbEntity
  8
0
  6
ByLayer
 62
  256
370
   -1
100
AcDbLine
 10
366.5238933433869
 20
54.02590833375893
 11
366.810221032944
 21
54.39905784373707
  0
LINE
  5
21A
100
AcDbEntity
  8
0
  6
ByLayer
 62
  256
370
   -1
100
AcDbLine
 10
366.1507438334088
 20
53.73958064420162
 11
366.5238933433869
 21
54.02590833375893
  0
LINE
  5
21B
100
AcDbEntity
  8
0
  6
ByLayer
 62
  256
370
   -1
100
AcDbLine
 10
365.7162020254558
 20
53.55958753392952
 11
366.1507438334088
 21
53.73958064420162
  0
LINE
  5
21C
100
AcDbEntity
  8
0
  6
ByLayer
 62
  256
370
   -1
100
AcDbLine
 10
365.2498812256266
 20
53.49819523595488
 11
365.7162020254558
 21
53.55958753392952
  0
LINE
  5
21D
100
AcDbEntity
  8
0
  6
ByLayer
 62
  256
370
   -1
100
AcDbLine
 10
364.7835604257972
 20
53.55958753392929
 11
365.2498812256266
 21
53.49819523595488
  0
LINE
  5
21E
100
AcDbEntity
  8
0
  6
ByLayer
 62
  256
370
   -1
100
AcDbLine
 10
364.349018617845
 20
53.73958064420162
 11
364.7835604257972
 21
53.55958753392929
  0
LINE
  5
21F
100
AcDbEntity
  8
0
  6
ByLayer
 62
  256
370
   -1
100
AcDbLine
 10
363.9758691078665
 20
54.02590833375893
 11
364.349018617845
 21
53.73958064420162
  0
LINE
  5
220
100
AcDbEntity
  8
0
  6
ByLayer
 62
  256
370
   -1
100
AcDbLine
 10
363.6895414183094
 20
54.39905784373718
 11
363.9758691078665
 21
54.02590833375893
  0
LINE
  5
221
100
AcDbEntity
  8
0
  6
ByLayer
 62
  256
370
   -1
100
AcDbLine
 10
363.5095483080374
 20
54.83359965168961
 11
363.6895414183094
 21
54.39905784373718
  0
LINE
  5
222
100
AcDbEntity
  8
0
  6
ByLayer
 62
  256
370
   -1
100
AcDbLine
 10
363.4481560100625
 20
55.29992045151903
 11
363.5095483080374
 21
54.83359965168961
  0
LINE
  5
223
100
AcDbEntity
  8
0
  6
ByLayer
 62
  256
370
   -1
100
AcDbLine
 10
363.509548308037
 20
55.76624125134811
 11
363.4481560100625
 21
55.29992045151903
  0
LINE
  5
224
100
AcDbEntity
  8
0
  6
ByLayer
 62
  256
370
   -1
100
AcDbLine
 10
364.349018617845
 20
56.86026025883632
 11
363.9758691078665
 21
56.57393256927901
  0
LINE
  5
225
100
AcDbEntity
  8
0
  6
ByLayer
 62
  256
370
   -1
100
AcDbLine
 10
365.7162020254566
 20
57.04025336910843
 11
365.2498812256266
 21
57.10164566708283
  0
LINE
  5
226
100
AcDbEntity
  8
0
  6
ByLayer
 62
  256
370
   -1
100
AcDbLine
 10
366.1507438334088
 20
56.86026025883632
 11
365.7162020254566
 21
57.04025336910843
  0
LINE
  5
227
100
AcDbEntity
  8
0
  6
ByLayer
 62
  256
370
   -1
100
AcDbLine
 10
394.9998829012251
 20
34.29993194761698
 11
394.9998829012254
 21
43.49992778471699
  0
LINE
  5
228
100
AcDbEntity
  8
0
  6
ByLayer
 62
  256
370
   -1
100
AcDbLine
 10
388.3998809839261
 20
34.29993194761676
 11
394.9998829012251
 21
34.29993194761698
  0
LINE
  5
229
100
AcDbEntity
  8
0
  6
ByLayer
 62
  256
370
   -1
100
AcDbLine
 10
388.3998809839261
 20
43.4999277847171
 11
388.3998809839261
 21
34.29993194761676
  0
LINE
  5
22A
100
AcDbEntity
  8
0
  6
ByLayer
 62
  256
370
   -1
100
AcDbLine
 10
340.2516215621872
 20
184.7591830000986
 11
340.190229264213
 21
185.2255037999283
  0
LINE
  5
22B
100
AcDbEntity
  8
0
  6
ByLayer
 62
  256
370
   -1
100
AcDbLine
 10
340.1902292642126
 20
184.2928622002692
 11
340.2516215621872
 21
184.7591830000986
  0
LINE
  5
22C
100
AcDbEntity
  8
0
  6
ByLayer
 62
  256
370
   -1
100
AcDbLine
 10
340.0102361539407
 20
183.8583203923167
 11
340.1902292642126
 21
184.2928622002692
  0
LINE
  5
22D
100
AcDbEntity
  8
0
  6
ByLayer
 62
  256
370
   -1
100
AcDbLine
 10
339.7239084643834
 20
183.4851708823387
 11
340.0102361539407
 21
183.8583203923167
  0
LINE
  5
22E
100
AcDbEntity
  8
0
  6
ByLayer
 62
  256
370
   -1
100
AcDbLine
 10
339.3507589544055
 20
183.1988431927812
 11
339.7239084643834
 21
183.4851708823387
  0
LINE
  5
22F
100
AcDbEntity
  8
0
  6
ByLayer
 62
  256
370
   -1
100
AcDbLine
 10
338.9162171464529
 20
183.0188500825092
 11
339.3507589544055
 21
183.1988431927812
  0
LINE
  5
230
100
AcDbEntity
  8
0
  6
ByLayer
 62
  256
370
   -1
100
AcDbLine
 10
338.4498963466234
 20
182.9574577845347
 11
338.9162171464529
 21
183.0188500825092
  0
LINE
  5
231
100
AcDbEntity
  8
0
  6
ByLayer
 62
  256
370
   -1
100
AcDbLine
 10
337.9835755467941
 20
183.0188500825092
 11
338.4498963466234
 21
182.9574577845347
  0
LINE
  5
232
100
AcDbEntity
  8
0
  6
ByLayer
 62
  256
370
   -1
100
AcDbLine
 10
337.5490337388416
 20
183.1988431927813
 11
337.9835755467941
 21
183.0188500825092
  0
LINE
  5
233
100
AcDbEntity
  8
0
  6
ByLayer
 62
  256
370
   -1
100
AcDbLine
 10
337.1758842288637
 20
183.4851708823387
 11
337.5490337388416
 21
183.1988431927813
  0
LINE
  5
234
100
AcDbEntity
  8
0
  6
ByLayer
 62
  256
370
   -1
100
AcDbLine
 10
336.8895565393059
 20
183.858320392317
 11
337.1758842288637
 21
183.4851708823387
  0
LINE
  5
235
100
AcDbEntity
  8
0
  6
ByLayer
 62
  256
370
   -1
100
AcDbLine
 10
336.7095634290341
 20
184.2928622002694
 11
336.8895565393059
 21
183.858320392317
  0
LINE
  5
236
100
AcDbEntity
  8
0
  6
ByLayer
 62
  256
370
   -1
100
AcDbLine
 10
336.6481711310599
 20
184.7591830000986
 11
336.7095634290341
 21
184.2928622002694
  0
LINE
  5
237
100
AcDbEntity
  8
0
  6
ByLayer
 62
  256
370
   -1
100
AcDbLine
 10
336.8895565393062
 20
185.6600456078806
 11
336.7095634290341
 21
185.2255037999283
  0
LINE
  5
238
100
AcDbEntity
  8
0
  6
ByLayer
 62
  256
370
   -1
100
AcDbLine
 10
337.1758842288632
 20
186.0331951178588
 11
336.8895565393062
 21
185.6600456078806
  0
LINE
  5
239
100
AcDbEntity
  8
0
  6
ByLayer
 62
  256
370
   -1
100
AcDbLine
 10
337.5490337388416
 20
186.319522807416
 11
337.1758842288632
 21
186.0331951178588
  0
LINE
  5
23A
100
AcDbEntity
  8
0
  6
ByLayer
 62
  256
370
   -1
100
AcDbLine
 10
337.9835755467941
 20
186.4995159176882
 11
337.5490337388416
 21
186.319522807416
  0
LINE
  5
23B
100
AcDbEntity
  8
0
  6
ByLayer
 62
  256
370
   -1
100
AcDbLine
 10
338.9162171464529
 20
186.4995159176881
 11
338.4498963466234
 21
186.5609082156625
  0
LINE
  5
23C
100
AcDbEntity
  8
0
  6
ByLayer
 62
  256
370
   -1
100
AcDbLine
 10
339.3507589544055
 20
186.319522807416
 11
338.9162171464529
 21
186.4995159176881
  0
LINE
  5
23D
100
AcDbEntity
  8
0
  6
ByLayer
 62
  256
370
   -1
100
AcDbLine
 10
339.7239084643834
 20
186.0331951178588
 11
339.3507589544055
 21
186.319522807416
  0
LINE
  5
23E
100
AcDbEntity
  8
0
  6
ByLayer
 62
  256
370
   -1
100
AcDbLine
 10
340.010236153941
 20
185.6600456078805
 11
339.7239084643834
 21
186.0331951178588
  0
LINE
  5
23F
100
AcDbEntity
  8
0
  6
ByLayer
 62
  256
370
   -1
100
AcDbLine
 10
341.7498963444234
 20
337.1441043071329
 11
341.7498963444236
 21
346.3441001442329
  0
LINE
  5
240
100
AcDbEntity
  8
0
  6
ByLayer
 62
  256
370
   -1
100
AcDbLine
 10
341.7498963444234
 20
322.5441102457301
 11
335.1498944271243
 21
322.5441102457301
  0
LINE
  5
241
100
AcDbEntity
  8
0
  6
ByLayer
 62
  256
370
   -1
100
AcDbLine
 10
341.7498963444236
 20
313.3441125460299
 11
341.7498963444234
 21
322.5441102457301
  0
LINE
  5
242
100
AcDbEntity
  8
0
  6
ByLayer
 62
  256
370
   -1
100
AcDbLine
 10
335.1498944271243
 20
313.3441125460299
 11
341.7498963444236
 21
313.3441125460299
  0
LINE
  5
243
100
AcDbEntity
  8
0
  6
ByLayer
 62
  256
370
   -1
100
AcDbLine
 10
335.1498944271243
 20
322.5441102457301
 11
335.1498944271243
 21
313.3441125460299
  0
LINE
  5
244
100
AcDbEntity
  8
0
  6
ByLayer
 62
  256
370
   -1
100
AcDbLine
 10
21.70201334620862
 20
11.78681652567974
 11
33.6979779443983
 21
11.78681652567974
  0
LINE
  5
245
100
AcDbEntity
  8
0
  6
ByLayer
 62
  256
370
   -1
100
AcDbLine
 10
35.69797794439819
 20
9.78681652567974
 11
33.6979779443983
 21
11.78681652567974
  0
LINE
  5
246
100
AcDbEntity
  8
0
  6
ByLayer
 62
  256
370
   -1
100
AcDbLine
 10
35.69797794439819
 20
5.786819085679213
 11
35.69797794439819
 21
9.78681652567974
  0
LINE
  5
247
100
AcDbEntity
  8
0
  6
ByLayer
 62
  256
370
   -1
100
AcDbLine
 10
33.6979779443983
 20
3.786819085679213
 11
35.69797794439819
 21
5.786819085679213
  0
LINE
  5
248
100
AcDbEntity
  8
0
  6
ByLayer
 62
  256
370
   -1
100
AcDbLine
 10
21.70201334620862
 20
3.786819085679213
 11
33.6979779443983
 21
3.786819085679213
  0
LINE
  5
249
100
AcDbEntity
  8
0
  6
ByLayer
 62
  256
370
   -1
100
AcDbLine
 10
19.7020133462087
 20
5.786819085679213
 11
21.70201334620862
 21
3.786819085679213
  0
LINE
  5
24A
100
AcDbEntity
  8
0
  6
ByLayer
 62
  256
370
   -1
100
AcDbLine
 10
19.7020133462087
 20
9.78681652567974
 11
19.7020133462087
 21
5.786819085679213
  0
LINE
  5
24B
100
AcDbEntity
  8
0
  6
ByLayer
 62
  256
370
   -1
100
AcDbLine
 10
19.7020133462087
 20
9.78681652567974
 11
21.70201334620862
 21
11.78681652567974
  0
LINE
  5
24C
100
AcDbEntity
  8
0
  6
ByLayer
 62
  256
370
   -1
100
AcDbLine
 10
375.197870067019
 20
9.786816525679626
 11
375.197870067019
 21
5.786819085679042
  0
LINE
  5
24D
100
AcDbEntity
  8
0
  6
ByLayer
 62
  256
370
   -1
100
AcDbLine
 10
373.1978700670189
 20
3.786819085679042
 11
375.197870067019
 21
5.786819085679042
  0
LINE
  5
24E
100
AcDbEntity
  8
0
  6
ByLayer
 62
  256
370
   -1
100
AcDbLine
 10
361.2019054688294
 20
3.786819085679042
 11
373.1978700670189
 21
3.786819085679042
  0
LINE
  5
24F
100
AcDbEntity
  8
0
  6
ByLayer
 62
  256
370
   -1
100
AcDbLine
 10
359.2019054688295
 20
5.786819085679042
 11
361.2019054688294
 21
3.786819085679042
  0
LINE
  5
250
100
AcDbEntity
  8
0
  6
ByLayer
 62
  256
370
   -1
100
AcDbLine
 10
359.2019054688295
 20
5.786819085679042
 11
359.2019054688295
 21
9.786816525679626
  0
LINE
  5
251
100
AcDbEntity
  8
0
  6
ByLayer
 62
  256
370
   -1
100
AcDbLine
 10
361.2019054688294
 20
11.78681652567963
 11
359.2019054688295
 21
9.786816525679626
  0
LINE
  5
252
100
AcDbEntity
  8
0
  6
ByLayer
 62
  256
370
   -1
100
AcDbLine
 10
361.2019054688294
 20
11.78681652567963
 11
373.1978700670189
 21
11.78681652567963
  0
LINE
  5
253
100
AcDbEntity
  8
0
  6
ByLayer
 62
  256
370
   -1
100
AcDbLine
 10
375.197870067019
 20
9.786816525679626
 11
373.1978700670189
 21
11.78681652567963
  0
LINE
  5
254
100
AcDbEntity
  8
0
  6
ByLayer
 62
  256
370
   -1
100
AcDbLine
 10
95.90337037520413
 20
347.4225940839922
 11
95.2896882826488
 21
347.7378187654142
  0
LINE
  5
255
100
AcDbEntity
  8
0
  6
ByLayer
 62
  256
370
   -1
100
AcDbLine
 10
95.2896882826488
 20
347.7378187654142
 11
95.2896882826488
 21
351.0979797312089
  0
LINE
  5
256
100
AcDbEntity
  8
0
  6
ByLayer
 62
  256
370
   -1
100
AcDbLine
 10
95.2896882826488
 20
351.0979797312089
 11
95.42382644495603
 21
351.0979797312089
  0
LINE
  5
257
100
AcDbEntity
  8
0
  6
ByLayer
 62
  256
370
   -1
100
AcDbLine
 10
95.42382644495603
 20
351.0979797312089
 11
97.7444166528702
 21
351.1583419042472
  0
LINE
  5
258
100
AcDbEntity
  8
0
  6
ByLayer
 62
  256
370
   -1
100
AcDbLine
 10
97.7444166528702
 20
351.1583419042472
 11
98.99190156232703
 21
351.3394284233618
  0
LINE
  5
259
100
AcDbEntity
  8
0
  6
ByLayer
 62
  256
370
   -1
100
AcDbLine
 10
98.99190156232703
 20
351.3394284233618
 11
99.62570437922841
 21
351.6680669210144
  0
LINE
  5
25A
100
AcDbEntity
  8
0
  6
ByLayer
 62
  256
370
   -1
100
AcDbLine
 10
99.62570437922841
 20
351.6680669210144
 11
100.1052483094764
 21
352.1710850296665
  0
LINE
  5
25B
100
AcDbEntity
  8
0
  6
ByLayer
 62
  256
370
   -1
100
AcDbLine
 10
100.1052483094764
 20
352.1710850296665
 11
100.4070591746677
 21
352.8350689330869
  0
LINE
  5
25C
100
AcDbEntity
  8
0
  6
ByLayer
 62
  256
370
   -1
100
AcDbLine
 10
100.4070591746677
 20
352.8350689330869
 11
100.5076627963981
 21
353.6466048150453
  0
LINE
  5
25D
100
AcDbEntity
  8
0
  6
ByLayer
 62
  256
370
   -1
100
AcDbLine
 10
100.5076627963981
 20
353.6466048150453
 11
100.3752013611197
 21
354.5436537754745
  0
LINE
  5
25E
100
AcDbEntity
  8
0
  6
ByLayer
 62
  256
370
   -1
100
AcDbLine
 10
100.3752013611197
 20
354.5436537754745
 11
99.97781705528473
 21
355.2495558546161
  0
LINE
  5
25F
100
AcDbEntity
  8
0
  6
ByLayer
 62
  256
370
   -1
100
AcDbLine
 10
99.97781705528473
 20
355.2495558546161
 11
99.33898405729678
 21
355.7475437821814
  0
LINE
  5
260
100
AcDbEntity
  8
0
  6
ByLayer
 62
  256
370
   -1
100
AcDbLine
 10
99.33898405729678
 20
355.7475437821814
 11
98.4821765455597
 21
356.0208502878822
  0
LINE
  5
261
100
AcDbEntity
  8
0
  6
ByLayer
 62
  256
370
   -1
100
AcDbLine
 10
98.4821765455597
 20
356.0208502878822
 11
95.58479223972461
 21
356.0879193690358
  0
LINE
  5
262
100
AcDbEntity
  8
0
  6
ByLayer
 62
  256
370
   -1
100
AcDbLine
 10
95.58479223972461
 20
356.0879193690358
 11
92.48620069042903
 21
356.0879193690358
  0
LINE
  5
263
100
AcDbEntity
  8
0
  6
ByLayer
 62
  256
370
   -1
100
AcDbLine
 10
92.48620069042903
 20
356.0879193690358
 11
92.48620069042903
 21
339.7498912000219
  0
LINE
  5
264
100
AcDbEntity
  8
0
  6
ByLayer
 62
  256
370
   -1
100
AcDbLine
 10
92.48620069042903
 20
339.7498912000219
 11
88.51571108613643
 21
339.7498912000219
  0
LINE
  5
265
100
AcDbEntity
  8
0
  6
ByLayer
 62
  256
370
   -1
100
AcDbLine
 10
88.51571108613643
 20
339.7498912000219
 11
88.51571108613643
 21
359.4145457942539
  0
LINE
  5
266
100
AcDbEntity
  8
0
  6
ByLayer
 62
  256
370
   -1
100
AcDbLine
 10
88.51571108613643
 20
359.4145457942539
 11
96.87251859787352
 21
359.4145457942539
  0
LINE
  5
267
100
AcDbEntity
  8
0
  6
ByLayer
 62
  256
370
   -1
100
AcDbLine
 10
96.87251859787352
 20
359.4145457942539
 11
99.59384656568039
 21
359.2820843589757
  0
LINE
  5
268
100
AcDbEntity
  8
0
  6
ByLayer
 62
  256
370
   -1
100
AcDbLine
 10
99.59384656568039
 20
359.2820843589757
 11
101.4533368406637
 21
358.8847000531405
  0
LINE
  5
269
100
AcDbEntity
  8
0
  6
ByLayer
 62
  256
370
   -1
100
AcDbLine
 10
101.4533368406637
 20
358.8847000531405
 11
102.7393864717836
 21
358.1486168874799
  0
LINE
  5
26A
100
AcDbEntity
  8
0
  6
ByLayer
 62
  256
370
   -1
100
AcDbLine
 10
102.7393864717836
 20
358.1486168874799
 11
103.7403925080009
 21
357.0000588727248
  0
LINE
  5
26B
100
AcDbEntity
  8
0
  6
ByLayer
 62
  256
370
   -1
100
AcDbLine
 10
103.7403925080009
 20
357.0000588727248
 11
104.3842556870754
 21
355.5480132657494
  0
LINE
  5
26C
100
AcDbEntity
  8
0
  6
ByLayer
 62
  256
370
   -1
100
AcDbLine
 10
104.3842556870754
 20
355.5480132657494
 11
104.5988767467669
 21
353.9014673234291
  0
LINE
  5
26D
100
AcDbEntity
  8
0
  6
ByLayer
 62
  256
370
   -1
100
AcDbLine
 10
103.2977365723873
 20
350.2462024005583
 11
102.5666835878133
 21
349.5918596775539
  0
LINE
  5
26E
100
AcDbEntity
  8
0
  6
ByLayer
 62
  256
370
   -1
100
AcDbLine
 10
102.5666835878133
 20
349.5918596775539
 11
101.6746648084705
 21
349.0708167533418
  0
LINE
  5
26F
100
AcDbEntity
  8
0
  6
ByLayer
 62
  256
370
   -1
100
AcDbLine
 10
101.6746648084705
 20
349.0708167533418
 11
100.6216802343591
 21
348.6830736279225
  0
LINE
  5
270
100
AcDbEntity
  8
0
  6
ByLayer
 62
  256
370
   -1
100
AcDbLine
 10
100.6216802343591
 20
348.6830736279225
 11
99.4077298654791
 21
348.428630301296
  0
LINE
  5
271
100
AcDbEntity
  8
0
  6
ByLayer
 62
  256
370
   -1
100
AcDbLine
 10
99.4077298654791
 20
348.428630301296
 11
100.5831155126958
 21
347.6405685977413
  0
LINE
  5
272
100
AcDbEntity
  8
0
  6
ByLayer
 62
  256
370
   -1
100
AcDbLine
 10
100.5831155126958
 20
347.6405685977413
 11
101.5338197380479
 21
346.7787309049178
  0
LINE
  5
273
100
AcDbEntity
  8
0
  6
ByLayer
 62
  256
370
   -1
100
AcDbLine
 10
101.5338197380479
 20
346.7787309049178
 11
102.5180585039768
 21
345.5312459954612
  0
LINE
  5
274
100
AcDbEntity
  8
0
  6
ByLayer
 62
  256
370
   -1
100
AcDbLine
 10
102.5180585039768
 20
345.5312459954612
 11
103.7940477729239
 21
343.5862426420072
  0
LINE
  5
275
100
AcDbEntity
  8
0
  6
ByLayer
 62
  256
370
   -1
100
AcDbLine
 10
103.7940477729239
 20
343.5862426420072
 11
106.1951208782224
 21
339.7498912000219
  0
LINE
  5
276
100
AcDbEntity
  8
0
  6
ByLayer
 62
  256
370
   -1
100
AcDbLine
 10
106.1951208782224
 20
339.7498912000219
 11
101.4466299325483
 21
339.7498912000219
  0
LINE
  5
277
100
AcDbEntity
  8
0
  6
ByLayer
 62
  256
370
   -1
100
AcDbLine
 10
101.4466299325483
 20
339.7498912000219
 11
98.57607325917473
 21
344.0288985776207
  0
LINE
  5
278
100
AcDbEntity
  8
0
  6
ByLayer
 62
  256
370
   -1
100
AcDbLine
 10
98.57607325917473
 20
344.0288985776207
 11
96.48351792718279
 21
346.9195759753404
  0
LINE
  5
279
100
AcDbEntity
  8
0
  6
ByLayer
 62
  256
370
   -1
100
AcDbLine
 10
96.48351792718279
 20
346.9195759753404
 11
95.90337037520413
 21
347.4225940839922
  0
LINE
  5
27A
100
AcDbEntity
  8
0
  6
ByLayer
 62
  256
370
   -1
100
AcDbLine
 10
197.4063314234468
 20
352.0391632306731
 11
193.8622701207647
 21
352.0391632306731
  0
LINE
  5
27B
100
AcDbEntity
  8
0
  6
ByLayer
 62
  256
370
   -1
100
AcDbLine
 10
193.8622701207647
 20
352.0391632306731
 11
193.8622701207647
 21
354.6541057594088
  0
LINE
  5
27C
100
AcDbEntity
  8
0
  6
ByLayer
 62
  256
370
   -1
100
AcDbLine
 10
193.8622701207647
 20
354.6541057594088
 11
197.4063314234468
 21
354.6541057594088
  0
LINE
  5
27D
100
AcDbEntity
  8
0
  6
ByLayer
 62
  256
370
   -1
100
AcDbLine
 10
197.4063314234468
 20
354.6541057594088
 11
197.4063314234468
 21
352.0391632306731
  0
LINE
  5
27E
100
AcDbEntity
  8
0
  6
ByLayer
 62
  256
370
   -1
100
AcDbLine
 10
193.9580555613778
 20
339.7498912000219
 11
193.9580555613778
 21
350.5065961808647
  0
LINE
  5
27F
100
AcDbEntity
  8
0
  6
ByLayer
 62
  256
370
   -1
100
AcDbLine
 10
193.9580555613778
 20
350.5065961808647
 11
197.3105459828338
 21
350.5065961808647
  0
LINE
  5
280
100
AcDbEntity
  8
0
  6
ByLayer
 62
  256
370
   -1
100
AcDbLine
 10
197.3105459828338
 20
350.5065961808647
 11
197.3105459828338
 21
339.7498912000219
  0
LINE
  5
281
100
AcDbEntity
  8
0
  6
ByLayer
 62
  256
370
   -1
100
AcDbLine
 10
197.3105459828338
 20
339.7498912000219
 11
193.9580555613778
 21
339.7498912000219
  0
LINE
  5
282
100
AcDbEntity
  8
0
  6
ByLayer
 62
  256
370
   -1
100
AcDbLine
 10
204.532768205056
 20
354.3092781732018
 11
205.7217049866651
 21
354.2542015448495
  0
LINE
  5
283
100
AcDbEntity
  8
0
  6
ByLayer
 62
  256
370
   -1
100
AcDbLine
 10
205.7217049866651
 20
354.2542015448495
 11
206.7406226111863
 21
354.0889716597919
  0
LINE
  5
284
100
AcDbEntity
  8
0
  6
ByLayer
 62
  256
370
   -1
100
AcDbLine
 10
206.7406226111863
 20
354.0889716597919
 11
207.6062835307265
 21
353.8183777900601
  0
LINE
  5
285
100
AcDbEntity
  8
0
  6
ByLayer
 62
  256
370
   -1
100
AcDbLine
 10
207.6062835307265
 20
353.8183777900601
 11
208.3354501973931
 21
353.4472092076846
  0
LINE
  5
286
100
AcDbEntity
  8
0
  6
ByLayer
 62
  256
370
   -1
100
AcDbLine
 10
208.3354501973931
 20
353.4472092076846
 11
208.9724233774698
 21
352.9359544184127
  0
LINE
  5
287
100
AcDbEntity
  8
0
  6
ByLayer
 62
  256
370
   -1
100
AcDbLine
 10
208.9724233774698
 20
352.9359544184127
 11
209.4274042203816
 21
352.302573192359
  0
LINE
  5
288
100
AcDbEntity
  8
0
  6
ByLayer
 62
  256
370
   -1
100
AcDbLine
 10
209.4274042203816
 20
352.302573192359
 11
209.7003927261288
 21
351.5638279816309
  0
LINE
  5
289
100
AcDbEntity
  8
0
  6
ByLayer
 62
  256
370
   -1
100
AcDbLine
 10
209.7003927261288
 20
351.5638279816309
 11
209.7913888947111
 21
350.736481238336
  0
LINE
  5
28A
100
AcDbEntity
  8
0
  6
ByLayer
 62
  256
370
   -1
100
AcDbLine
 10
209.7913888947111
 20
350.736481238336
 11
209.6153831475847
 21
349.5954371770333
  0
LINE
  5
28B
100
AcDbEntity
  8
0
  6
ByLayer
 62
  256
370
   -1
100
AcDbLine
 10
209.6153831475847
 20
349.5954371770333
 11
209.0873659062055
 21
348.605255184696
  0
LINE
  5
28C
100
AcDbEntity
  8
0
  6
ByLayer
 62
  256
370
   -1
100
AcDbLine
 10
209.0873659062055
 20
348.605255184696
 11
208.271992342987
 21
347.8521421578762
  0
LINE
  5
28D
100
AcDbEntity
  8
0
  6
ByLayer
 62
  256
370
   -1
100
AcDbLine
 10
208.271992342987
 20
347.8521421578762
 11
207.2339176303434
 21
347.4223049931252
  0
LINE
  5
28E
100
AcDbEntity
  8
0
  6
ByLayer
 62
  256
370
   -1
100
AcDbLine
 10
207.2339176303434
 20
347.4223049931252
 11
207.2339176303434
 21
347.2882053762671
  0
LINE
  5
28F
100
AcDbEntity
  8
0
  6
ByLayer
 62
  256
370
   -1
100
AcDbLine
 10
207.2339176303434
 20
347.2882053762671
 11
208.2252969406882
 21
347.0295846866119
  0
LINE
  5
290
100
AcDbEntity
  8
0
  6
ByLayer
 62
  256
370
   -1
100
AcDbLine
 10
208.2252969406882
 20
347.0295846866119
 11
209.1687835307265
 21
346.4357149548109
  0
LINE
  5
291
100
AcDbEntity
  8
0
  6
ByLayer
 62
  256
370
   -1
100
AcDbLine
 10
209.1687835307265
 20
346.4357149548109
 11
209.5627011552476
 21
346.0082724260755
  0
LINE
  5
292
100
AcDbEntity
  8
0
  6
ByLayer
 62
  256
370
   -1
100
AcDbLine
 10
209.5627011552476
 20
346.0082724260755
 11
209.8823850632934
 21
345.4730712766503
  0
LINE
  5
293
100
AcDbEntity
  8
0
  6
ByLayer
 62
  256
370
   -1
100
AcDbLine
 10
209.8823850632934
 20
345.4730712766503
 11
210.0943103506498
 21
344.82771687052
  0
LINE
  5
294
100
AcDbEntity
  8
0
  6
ByLayer
 62
  256
370
   -1
100
AcDbLine
 10
210.0943103506498
 20
344.82771687052
 11
210.1649521131019
 21
344.0698145716693
  0
LINE
  5
295
100
AcDbEntity
  8
0
  6
ByLayer
 62
  256
370
   -1
100
AcDbLine
 10
210.1649521131019
 20
344.0698145716693
 11
210.0679693544812
 21
343.0712513532785
  0
LINE
  5
296
100
AcDbEntity
  8
0
  6
ByLayer
 62
  256
370
   -1
100
AcDbLine
 10
210.0679693544812
 20
343.0712513532785
 11
209.7770210786192
 21
342.1636843034701
  0
LINE
  5
297
100
AcDbEntity
  8
0
  6
ByLayer
 62
  256
370
   -1
100
AcDbLine
 10
209.7770210786192
 20
342.1636843034701
 11
209.2992911935616
 21
341.3662705103666
  0
LINE
  5
298
100
AcDbEntity
  8
0
  6
ByLayer
 62
  256
370
   -1
100
AcDbLine
 10
209.2992911935616
 20
341.3662705103666
 11
208.6419636073548
 21
340.6981670620909
  0
LINE
  5
299
100
AcDbEntity
  8
0
  6
ByLayer
 62
  256
370
   -1
100
AcDbLine
 10
208.6419636073548
 20
340.6981670620909
 11
207.8194061360905
 21
340.1653605486808
  0
LINE
  5
29A
100
AcDbEntity
  8
0
  6
ByLayer
 62
  256
370
   -1
100
AcDbLine
 10
207.8194061360905
 20
340.1653605486808
 11
206.8651436839832
 21
339.773837560175
  0
LINE
  5
29B
100
AcDbEntity
  8
0
  6
ByLayer
 62
  256
370
   -1
100
AcDbLine
 10
206.8651436839832
 20
339.773837560175
 11
205.7336781667417
 21
339.5331766406348
  0
LINE
  5
29C
100
AcDbEntity
  8
0
  6
ByLayer
 62
  256
370
   -1
100
AcDbLine
 10
205.7336781667417
 20
339.5331766406348
 11
204.3795115000752
 21
339.4529563341214
  0
LINE
  5
29D
100
AcDbEntity
  8
0
  6
ByLayer
 62
  256
370
   -1
100
AcDbLine
 10
204.3795115000752
 20
339.4529563341214
 11
202.831379316167
 21
339.5224007785658
  0
LINE
  5
29E
100
AcDbEntity
  8
0
  6
ByLayer
 62
  256
370
   -1
100
AcDbLine
 10
202.831379316167
 20
339.5224007785658
 11
201.5203160977763
 21
339.7307341118994
  0
LINE
  5
29F
100
AcDbEntity
  8
0
  6
ByLayer
 62
  256
370
   -1
100
AcDbLine
 10
201.5203160977763
 20
339.7307341118994
 11
199.5806609253625
 21
340.3533394758838
  0
LINE
  5
2A0
100
AcDbEntity
  8
0
  6
ByLayer
 62
  256
370
   -1
100
AcDbLine
 10
199.5806609253625
 20
340.3533394758838
 11
199.5806609253625
 21
343.4472092076846
  0
LINE
  5
2A1
100
AcDbEntity
  8
0
  6
ByLayer
 62
  256
370
   -1
100
AcDbLine
 10
199.5806609253625
 20
343.4472092076846
 11
199.9254885115694
 21
343.4472092076846
  0
LINE
  5
2A2
100
AcDbEntity
  8
0
  6
ByLayer
 62
  256
370
   -1
100
AcDbLine
 10
199.9254885115694
 20
343.4472092076846
 11
200.7791762510329
 21
342.9826498207115
  0
LINE
  5
2A3
100
AcDbEntity
  8
0
  6
ByLayer
 62
  256
370
   -1
100
AcDbLine
 10
200.7791762510329
 20
342.9826498207115
 11
201.7693582433702
 21
342.5851402421673
  0
LINE
  5
2A4
100
AcDbEntity
  8
0
  6
ByLayer
 62
  256
370
   -1
100
AcDbLine
 10
201.7693582433702
 20
342.5851402421673
 11
202.7810919598452
 21
342.3121517364202
  0
LINE
  5
2A5
100
AcDbEntity
  8
0
  6
ByLayer
 62
  256
370
   -1
100
AcDbLine
 10
202.7810919598452
 20
342.3121517364202
 11
203.6994348717226
 21
342.2211555678379
  0
LINE
  5
2A6
100
AcDbEntity
  8
0
  6
ByLayer
 62
  256
370
   -1
100
AcDbLine
 10
203.6994348717226
 20
342.2211555678379
 11
204.8249137989258
 21
342.3121517364202
  0
LINE
  5
2A7
100
AcDbEntity
  8
0
  6
ByLayer
 62
  256
370
   -1
100
AcDbLine
 10
204.8249137989258
 20
342.3121517364202
 11
205.3840613085043
 21
342.4570272153475
  0
LINE
  5
2A8
100
AcDbEntity
  8
0
  6
ByLayer
 62
  256
370
   -1
100
AcDbLine
 10
205.3840613085043
 20
342.4570272153475
 11
205.8450287414545
 21
342.7096613149645
  0
LINE
  5
2A9
100
AcDbEntity
  8
0
  6
ByLayer
 62
  256
370
   -1
100
AcDbLine
 10
205.8450287414545
 20
342.7096613149645
 11
206.3670593927954
 21
343.2987417747344
  0
LINE
  5
2AA
100
AcDbEntity
  8
0
  6
ByLayer
 62
  256
370
   -1
100
AcDbLine
 10
206.3670593927954
 20
343.2987417747344
 11
206.514329507738
 21
343.7213950314393
  0
LINE
  5
2AB
100
AcDbEntity
  8
0
  6
ByLayer
 62
  256
370
   -1
100
AcDbLine
 10
206.514329507738
 20
343.7213950314393
 11
206.5634195460522
 21
344.2901210850794
  0
LINE
  5
2AC
100
AcDbEntity
  8
0
  6
ByLayer
 62
  256
370
   -1
100
AcDbLine
 10
206.5634195460522
 20
344.2901210850794
 11
206.4939751016077
 21
344.8492685946578
  0
LINE
  5
2AD
100
AcDbEntity
  8
0
  6
ByLayer
 62
  256
370
   -1
100
AcDbLine
 10
206.4939751016077
 20
344.8492685946578
 11
206.2856417682743
 21
345.2623433073014
  0
LINE
  5
2AE
100
AcDbEntity
  8
0
  6
ByLayer
 62
  256
370
   -1
100
AcDbLine
 10
206.2856417682743
 20
345.2623433073014
 11
205.9623659062055
 21
345.5556862191789
  0
LINE
  5
2AF
100
AcDbEntity
  8
0
  6
ByLayer
 62
  256
370
   -1
100
AcDbLine
 10
205.9623659062055
 20
345.5556862191789
 11
205.5480938755541
 21
345.7556383264588
  0
LINE
  5
2B0
100
AcDbEntity
  8
0
  6
ByLayer
 62
  256
370
   -1
100
AcDbLine
 10
205.5480938755541
 20
345.7556383264588
 11
204.4465613085043
 21
345.9376306636232
  0
LINE
  5
2B1
100
AcDbEntity
  8
0
  6
ByLayer
 62
  256
370
   -1
100
AcDbLine
 10
204.4465613085043
 20
345.9376306636232
 11
203.3162931092705
 21
345.9567877517459
  0
LINE
  5
2B2
100
AcDbEntity
  8
0
  6
ByLayer
 62
  256
370
   -1
100
AcDbLine
 10
203.3162931092705
 20
345.9567877517459
 11
202.7032662893472
 21
345.9567877517459
  0
LINE
  5
2B3
100
AcDbEntity
  8
0
  6
ByLayer
 62
  256
370
   -1
100
AcDbLine
 10
202.7032662893472
 20
345.9567877517459
 11
202.7032662893472
 21
348.4663662958072
  0
LINE
  5
2B4
100
AcDbEntity
  8
0
  6
ByLayer
 62
  256
370
   -1
100
AcDbLine
 10
202.7032662893472
 20
348.4663662958072
 11
203.268400388964
 21
348.4663662958072
  0
LINE
  5
2B5
100
AcDbEntity
  8
0
  6
ByLayer
 62
  256
370
   -1
100
AcDbLine
 10
203.268400388964
 20
348.4663662958072
 11
204.4657183966268
 21
348.523837560175
  0
LINE
  5
2B6
100
AcDbEntity
  8
0
  6
ByLayer
 62
  256
370
   -1
100
AcDbLine
 10
204.4657183966268
 20
348.523837560175
 11
205.3948371705732
 21
348.7537226176464
  0
LINE
  5
2B7
100
AcDbEntity
  8
0
  6
ByLayer
 62
  256
370
   -1
100
AcDbLine
 10
205.3948371705732
 20
348.7537226176464
 11
205.9934961744046
 21
349.2613854528954
  0
LINE
  5
2B8
100
AcDbEntity
  8
0
  6
ByLayer
 62
  256
370
   -1
100
AcDbLine
 10
205.9934961744046
 20
349.2613854528954
 11
206.1551341054391
 21
349.6445272153475
  0
LINE
  5
2B9
100
AcDbEntity
  8
0
  6
ByLayer
 62
  256
370
   -1
100
AcDbLine
 10
206.1551341054391
 20
349.6445272153475
 11
206.2090134157839
 21
350.1426115065353
  0
LINE
  5
2BA
100
AcDbEntity
  8
0
  6
ByLayer
 62
  256
370
   -1
100
AcDbLine
 10
206.2090134157839
 20
350.1426115065353
 11
206.1587260594621
 21
350.534134495041
  0
LINE
  5
2BB
100
AcDbEntity
  8
0
  6
ByLayer
 62
  256
370
   -1
100
AcDbLine
 10
206.1587260594621
 20
350.534134495041
 11
206.0078639904966
 21
350.846634495041
  0
LINE
  5
2BC
100
AcDbEntity
  8
0
  6
ByLayer
 62
  256
370
   -1
100
AcDbLine
 10
206.0078639904966
 20
350.846634495041
 11
205.5097796993089
 21
351.2728797057689
  0
LINE
  5
2BD
100
AcDbEntity
  8
0
  6
ByLayer
 62
  256
370
   -1
100
AcDbLine
 10
205.5097796993089
 20
351.2728797057689
 11
204.7051819981594
 21
351.5027647632402
  0
LINE
  5
2BE
100
AcDbEntity
  8
0
  6
ByLayer
 62
  256
370
   -1
100
AcDbLine
 10
204.7051819981594
 20
351.5027647632402
 11
203.9197413851326
 21
351.560236027608
  0
LINE
  5
2BF
100
AcDbEntity
  8
0
  6
ByLayer
 62
  256
370
   -1
100
AcDbLine
 10
203.9197413851326
 20
351.560236027608
 11
202.8469444502667
 21
351.4357149548109
  0
LINE
  5
2C0
100
AcDbEntity
  8
0
  6
ByLayer
 62
  256
370
   -1
100
AcDbLine
 10
202.8469444502667
 20
351.4357149548109
 11
201.7837260594621
 21
351.1196230007879
  0
LINE
  5
2C1
100
AcDbEntity
  8
0
  6
ByLayer
 62
  256
370
   -1
100
AcDbLine
 10
201.7837260594621
 20
351.1196230007879
 11
200.9408141820675
 21
350.722113422244
  0
LINE
  5
2C2
100
AcDbEntity
  8
0
  6
ByLayer
 62
  256
370
   -1
100
AcDbLine
 10
200.9408141820675
 20
350.722113422244
 11
200.2894731858988
 21
350.3533394758838
  0
LINE
  5
2C3
100
AcDbEntity
  8
0
  6
ByLayer
 62
  256
370
   -1
100
AcDbLine
 10
200.2894731858988
 20
350.3533394758838
 11
199.9925383199985
 21
350.3533394758838
  0
LINE
  5
2C4
100
AcDbEntity
  8
0
  6
ByLayer
 62
  256
370
   -1
100
AcDbLine
 10
199.9925383199985
 20
350.3533394758838
 11
199.9925383199985
 21
353.4088950314393
  0
LINE
  5
2C5
100
AcDbEntity
  8
0
  6
ByLayer
 62
  256
370
   -1
100
AcDbLine
 10
199.9925383199985
 20
353.4088950314393
 11
201.9800862127188
 21
354.0171325793324
  0
LINE
  5
2C6
100
AcDbEntity
  8
0
  6
ByLayer
 62
  256
370
   -1
100
AcDbLine
 10
201.9800862127188
 20
354.0171325793324
 11
203.2432567108032
 21
354.2362417747344
  0
LINE
  5
2C7
100
AcDbEntity
  8
0
  6
ByLayer
 62
  256
370
   -1
100
AcDbLine
 10
203.2432567108032
 20
354.2362417747344
 11
204.532768205056
 21
354.3092781732018
  0
LINE
  5
2C8
100
AcDbEntity
  8
0
  6
ByLayer
 62
  256
370
   -1
100
AcDbLine
 10
27.55005164805891
 20
18.57161539765536
 11
27.55005164805891
 21
20.70061692204558
  0
LINE
  5
2C9
100
AcDbEntity
  8
0
  6
ByLayer
 62
  256
370
   -1
100
AcDbLine
 10
29.37951048952243
 20
18.57161539765536
 11
27.55005164805891
 21
18.57161539765536
  0
LINE
  5
2CA
100
AcDbEntity
  8
0
  6
ByLayer
 62
  256
370
   -1
100
AcDbLine
 10
27.55005164805891
 20
16.39269009277723
 11
27.55005164805891
 21
18.57161539765536
  0
LINE
  5
2CB
100
AcDbEntity
  8
0
  6
ByLayer
 62
  256
370
   -1
100
AcDbLine
 10
29.67924372122968
 20
20.70061692204558
 11
27.55005164805891
 21
20.70061692204558
  0
CIRCLE
  5
2CC
100
AcDbEntity
  8
0
  6
ByLayer
 62
  256
370
   -1
100
AcDbCircle
 10
1.200002591502672
 20
26.99993381571604
 40
1.801725215563993
  0
CIRCLE
  5
2CD
100
AcDbEntity
  8
0
  6
ByLayer
 62
  256
370
   -1
100
AcDbCircle
 10
27.69999564530398
 20
55.29992045151872
 40
1.80172521556397
  0
CIRCLE
  5
2CE
100
AcDbEntity
  8
0
  6
ByLayer
 62
  256
370
   -1
100
AcDbCircle
 10
391.6998829034257
 20
26.99993381571591
 40
1.801725215563909
  0
CIRCLE
  5
2CF
100
AcDbEntity
  8
0
  6
ByLayer
 62
  256
370
   -1
100
AcDbCircle
 10
365.2498812256266
 20
55.29992045151919
 40
1.801725215564103
  0
CIRCLE
  5
2D0
100
AcDbEntity
  8
0
  6
ByLayer
 62
  256
370
   -1
100
AcDbCircle
 10
338.4498963466236
 20
184.7591830000986
 40
1.801725215563973
  0
CIRCLE
  5
2D1
100
AcDbEntity
  8
0
  6
ByLayer
 62
  256
370
   -1
100
AcDbCircle
 10
54.44998722660545
 20
184.7591830000984
 40
1.801725215563855
  0
CIRCLE
  5
2D2
100
AcDbEntity
  8
0
  6
ByLayer
 62
  256
370
   -1
100
AcDbCircle
 10
54.44998722660522
 20
329.8441061752321
 40
1.801725215563911
  0
CIRCLE
  5
2D3
100
AcDbEntity
  8
0
  6
ByLayer
 62
  256
370
   -1
100
AcDbCircle
 10
338.4498963466235
 20
329.8441061752319
 40
1.801725215564009
  0
LINE
  5
2D4
100
AcDbEntity
  8
0
  6
ByLayer
 62
  256
370
   -1
100
AcDbLine
 10
51.14998530710602
 20
346.3441001442334
 11
57.749987224405
 21
346.3441001442334
  0
LINE
  5
2D5
100
AcDbEntity
  8
0
  6
ByLayer
 62
  256
370
   -1
100
AcDbLine
 10
57.749987224405
 20
346.3441001442334
 11
57.749987224405
 21
337.1441043071329
  0
LINE
  5
2D6
100
AcDbEntity
  8
0
  6
ByLayer
 62
  256
370
   -1
100
AcDbLine
 10
57.749987224405
 20
337.1441043071329
 11
51.14998530710602
 21
337.1441043071329
  0
LINE
  5
2D7
100
AcDbEntity
  8
0
  6
ByLayer
 62
  256
370
   -1
100
AcDbLine
 10
51.14998530710602
 20
337.1441043071329
 11
51.14998530710602
 21
346.3441001442334
  0
LINE
  5
2D8
100
AcDbEntity
  8
0
  6
ByLayer
 62
  256
370
   -1
100
AcDbLine
 10
51.14998530710602
 20
322.5441102457301
 11
57.74998722440529
 21
322.5441102457301
  0
LINE
  5
2D9
100
AcDbEntity
  8
0
  6
ByLayer
 62
  256
370
   -1
100
AcDbLine
 10
57.74998722440529
 20
322.5441102457301
 11
57.74998722440529
 21
313.3441125460299
  0
LINE
  5
2DA
100
AcDbEntity
  8
0
  6
ByLayer
 62
  256
370
   -1
100
AcDbLine
 10
57.74998722440529
 20
313.3441125460299
 11
51.14998530710602
 21
313.3441125460299
  0
LINE
  5
2DB
100
AcDbEntity
  8
0
  6
ByLayer
 62
  256
370
   -1
100
AcDbLine
 10
51.14998530710602
 20
313.3441125460299
 11
51.14998530710602
 21
322.5441102457301
  0
LINE
  5
2DC
100
AcDbEntity
  8
0
  6
ByLayer
 62
  256
370
   -1
100
AcDbLine
 10
335.1498944271243
 20
346.3441001442334
 11
341.7498963444234
 21
346.3441001442334
  0
LINE
  5
2DD
100
AcDbEntity
  8
0
  6
ByLayer
 62
  256
370
   -1
100
AcDbLine
 10
341.7498963444234
 20
346.3441001442334
 11
341.7498963444234
 21
337.1441043071329
  0
LINE
  5
2DE
100
AcDbEntity
  8
0
  6
ByLayer
 62
  256
370
   -1
100
AcDbLine
 10
341.7498963444234
 20
337.1441043071329
 11
335.1498944271243
 21
337.1441043071329
  0
LINE
  5
2DF
100
AcDbEntity
  8
0
  6
ByLayer
 62
  256
370
   -1
100
AcDbLine
 10
335.1498944271243
 20
337.1441043071329
 11
335.1498944271243
 21
346.3441001442334
  0
LINE
  5
2E0
100
AcDbEntity
  8
0
  6
ByLayer
 62
  256
370
   -1
100
AcDbLine
 10
335.1498944271243
 20
322.5441102457301
 11
341.7498963444236
 21
322.5441102457301
  0
LINE
  5
2E1
100
AcDbEntity
  8
0
  6
ByLayer
 62
  256
370
   -1
100
AcDbLine
 10
341.7498963444236
 20
322.5441102457301
 11
341.7498963444236
 21
313.3441125460299
  0
LINE
  5
2E2
100
AcDbEntity
  8
0
  6
ByLayer
 62
  256
370
   -1
100
AcDbLine
 10
341.7498963444236
 20
313.3441125460299
 11
335.1498944271243
 21
313.3441125460299
  0
LINE
  5
2E3
100
AcDbEntity
  8
0
  6
ByLayer
 62
  256
370
   -1
100
AcDbLine
 10
335.1498944271243
 20
313.3441125460299
 11
335.1498944271243
 21
322.5441102457301
  0
LINE
  5
2E4
100
AcDbEntity
  8
0
  6
ByLayer
 62
  256
370
   -1
100
AcDbLine
 10
335.1498944271243
 20
201.2591769691002
 11
341.7498963444234
 21
201.2591769691002
  0
LINE
  5
2E5
100
AcDbEntity
  8
0
  6
ByLayer
 62
  256
370
   -1
100
AcDbLine
 10
341.7498963444234
 20
201.2591769691002
 11
341.7498963444234
 21
192.059181132
  0
LINE
  5
2E6
100
AcDbEntity
  8
0
  6
ByLayer
 62
  256
370
   -1
100
AcDbLine
 10
341.7498963444234
 20
192.059181132
 11
335.1498944271243
 21
192.059181132
  0
LINE
  5
2E7
100
AcDbEntity
  8
0
  6
ByLayer
 62
  256
370
   -1
100
AcDbLine
 10
335.1498944271243
 20
192.059181132
 11
335.1498944271243
 21
201.2591769691002
  0
LINE
  5
2E8
100
AcDbEntity
  8
0
  6
ByLayer
 62
  256
370
   -1
100
AcDbLine
 10
335.1498944271243
 20
177.459187070597
 11
341.7498963444234
 21
177.459187070597
  0
LINE
  5
2E9
100
AcDbEntity
  8
0
  6
ByLayer
 62
  256
370
   -1
100
AcDbLine
 10
341.7498963444234
 20
177.459187070597
 11
341.7498963444234
 21
168.259189370897
  0
LINE
  5
2EA
100
AcDbEntity
  8
0
  6
ByLayer
 62
  256
370
   -1
100
AcDbLine
 10
341.7498963444234
 20
168.259189370897
 11
335.1498944271243
 21
168.259189370897
  0
LINE
  5
2EB
100
AcDbEntity
  8
0
  6
ByLayer
 62
  256
370
   -1
100
AcDbLine
 10
335.1498944271243
 20
168.259189370897
 11
335.1498944271243
 21
177.459187070597
  0
LINE
  5
2EC
100
AcDbEntity
  8
0
  6
ByLayer
 62
  256
370
   -1
100
AcDbLine
 10
51.14998530710602
 20
201.2591769691002
 11
57.74998722440522
 21
201.2591769691002
  0
LINE
  5
2ED
100
AcDbEntity
  8
0
  6
ByLayer
 62
  256
370
   -1
100
AcDbLine
 10
57.74998722440522
 20
201.2591769691002
 11
57.74998722440522
 21
192.059181132
  0
LINE
  5
2EE
100
AcDbEntity
  8
0
  6
ByLayer
 62
  256
370
   -1
100
AcDbLine
 10
57.74998722440522
 20
192.059181132
 11
51.14998530710602
 21
192.059181132
  0
LINE
  5
2EF
100
AcDbEntity
  8
0
  6
ByLayer
 62
  256
370
   -1
100
AcDbLine
 10
51.14998530710602
 20
192.059181132
 11
51.14998530710602
 21
201.2591769691002
  0
LINE
  5
2F0
100
AcDbEntity
  8
0
  6
ByLayer
 62
  256
370
   -1
100
AcDbLine
 10
57.74998722440529
 20
168.259189370897
 11
99.5
 21
168.259189370897
  0
LINE
  5
2F1
100
AcDbEntity
  8
0
  6
ByLayer
 62
  256
370
   -1
100
AcDbLine
 10
99.5
 20
168.259189370897
 11
99.5
 21
168.5
  0
LINE
  5
2F2
100
AcDbEntity
  8
0
  6
ByLayer
 62
  256
370
   -1
100
AcDbLine
 10
99.5
 20
168.5
 11
57.74998722440529
 21
168.5
  0
LINE
  5
2F3
100
AcDbEntity
  8
0
  6
ByLayer
 62
  256
370
   -1
100
AcDbLine
 10
57.74998722440529
 20
168.5
 11
57.74998722440529
 21
168.259189370897
  0
LINE
  5
2F4
100
AcDbEntity
  8
0
  6
ByLayer
 62
  256
370
   -1
100
AcDbLine
 10
11.2000020161029
 20
58.59991208082113
 11
20.3999997158009
 21
58.59991208082113
  0
LINE
  5
2F5
100
AcDbEntity
  8
0
  6
ByLayer
 62
  256
370
   -1
100
AcDbLine
 10
20.3999997158009
 20
58.59991208082113
 11
20.3999997158009
 21
51.99992506471756
  0
LINE
  5
2F6
100
AcDbEntity
  8
0
  6
ByLayer
 62
  256
370
   -1
100
AcDbLine
 10
20.3999997158009
 20
51.99992506471756
 11
11.2000020161029
 21
51.99992506471756
  0
LINE
  5
2F7
100
AcDbEntity
  8
0
  6
ByLayer
 62
  256
370
   -1
100
AcDbLine
 10
11.2000020161029
 20
51.99992506471756
 11
11.2000020161029
 21
58.59991208082113
  0
LINE
  5
2F8
100
AcDbEntity
  8
0
  6
ByLayer
 62
  256
370
   -1
100
AcDbLine
 10
39.49999999999996
 20
51.99992506471762
 11
44.1999896143048
 21
51.99992506471762
  0
LINE
  5
2F9
100
AcDbEntity
  8
0
  6
ByLayer
 62
  256
370
   -1
100
AcDbLine
 10
44.1999896143048
 20
51.99992506471762
 11
44.1999896143048
 21
51.99992506471756
  0
LINE
  5
2FA
100
AcDbEntity
  8
0
  6
ByLayer
 62
  256
370
   -1
100
AcDbLine
 10
44.1999896143048
 20
51.99992506471756
 11
39.49999999999996
 21
51.99992506471756
  0
LINE
  5
2FB
100
AcDbEntity
  8
0
  6
ByLayer
 62
  256
370
   -1
100
AcDbLine
 10
39.49999999999996
 20
51.99992506471756
 11
39.49999999999996
 21
51.99992506471762
  0
LINE
  5
2FC
100
AcDbEntity
  8
0
  6
ByLayer
 62
  256
370
   -1
100
AcDbLine
 10
-2.099999327996699
 20
43.4999277847171
 11
2.940335509092143
 21
43.4999277847171
  0
LINE
  5
2FD
100
AcDbEntity
  8
0
  6
ByLayer
 62
  256
370
   -1
100
AcDbLine
 10
2.940335509092143
 20
43.4999277847171
 11
2.940335509092143
 21
27.46625461554546
  0
LINE
  5
2FE
100
AcDbEntity
  8
0
  6
ByLayer
 62
  256
370
   -1
100
AcDbLine
 10
2.940335509092143
 20
27.46625461554546
 11
-2.099999327996699
 21
27.46625461554546
  0
LINE
  5
2FF
100
AcDbEntity
  8
0
  6
ByLayer
 62
  256
370
   -1
100
AcDbLine
 10
-2.099999327996699
 20
27.46625461554546
 11
-2.099999327996699
 21
43.4999277847171
  0
LINE
  5
300
100
AcDbEntity
  8
0
  6
ByLayer
 62
  256
370
   -1
100
AcDbLine
 10
-2.099999327996699
 20
19.699937886214
 11
4.500002589302397
 21
19.699937886214
  0
LINE
  5
301
100
AcDbEntity
  8
0
  6
ByLayer
 62
  256
370
   -1
100
AcDbLine
 10
4.500002589302397
 20
19.699937886214
 11
4.500002589302397
 21
10.49994018651444
  0
LINE
  5
302
100
AcDbEntity
  8
0
  6
ByLayer
 62
  256
370
   -1
100
AcDbLine
 10
4.500002589302397
 20
10.49994018651444
 11
-2.099999327996699
 21
10.49994018651444
  0
LINE
  5
303
100
AcDbEntity
  8
0
  6
ByLayer
 62
  256
370
   -1
100
AcDbLine
 10
-2.099999327996699
 20
10.49994018651444
 11
-2.099999327996699
 21
19.699937886214
  0
LINE
  5
304
100
AcDbEntity
  8
0
  6
ByLayer
 62
  256
370
   -1
100
AcDbLine
 10
348.7498875964258
 20
58.59991208082113
 11
357.9498852961234
 21
58.59991208082113
  0
LINE
  5
305
100
AcDbEntity
  8
0
  6
ByLayer
 62
  256
370
   -1
100
AcDbLine
 10
357.9498852961234
 20
58.59991208082113
 11
357.9498852961234
 21
51.99992506471722
  0
LINE
  5
306
100
AcDbEntity
  8
0
  6
ByLayer
 62
  256
370
   -1
100
AcDbLine
 10
357.9498852961234
 20
51.99992506471722
 11
348.7498875964258
 21
51.99992506471722
  0
LINE
  5
307
100
AcDbEntity
  8
0
  6
ByLayer
 62
  256
370
   -1
100
AcDbLine
 10
348.7498875964258
 20
51.99992506471722
 11
348.7498875964258
 21
58.59991208082113
  0
LINE
  5
308
100
AcDbEntity
  8
0
  6
ByLayer
 62
  256
370
   -1
100
AcDbLine
 10
372.5498793575288
 20
58.59991208082147
 11
381.7498751946277
 21
58.59991208082147
  0
LINE
  5
309
100
AcDbEntity
  8
0
  6
ByLayer
 62
  256
370
   -1
100
AcDbLine
 10
381.7498751946277
 20
58.59991208082147
 11
381.7498751946277
 21
51.99992506471756
  0
LINE
  5
30A
100
AcDbEntity
  8
0
  6
ByLayer
 62
  256
370
   -1
100
AcDbLine
 10
381.7498751946277
 20
51.99992506471756
 11
372.5498793575288
 21
51.99992506471756
  0
LINE
  5
30B
100
AcDbEntity
  8
0
  6
ByLayer
 62
  256
370
   -1
100
AcDbLine
 10
372.5498793575288
 20
51.99992506471756
 11
372.5498793575288
 21
58.59991208082147
  0
LINE
  5
30C
100
AcDbEntity
  8
0
  6
ByLayer
 62
  256
370
   -1
100
AcDbLine
 10
388.3998809839261
 20
43.4999277847171
 11
394.999882901225
 21
43.4999277847171
  0
LINE
  5
30D
100
AcDbEntity
  8
0
  6
ByLayer
 62
  256
370
   -1
100
AcDbLine
 10
394.999882901225
 20
43.4999277847171
 11
394.999882901225
 21
34.29993194761698
  0
LINE
  5
30E
100
AcDbEntity
  8
0
  6
ByLayer
 62
  256
370
   -1
100
AcDbLine
 10
394.999882901225
 20
34.29993194761698
 11
388.3998809839261
 21
34.29993194761698
  0
LINE
  5
30F
100
AcDbEntity
  8
0
  6
ByLayer
 62
  256
370
   -1
100
AcDbLine
 10
388.3998809839261
 20
34.29993194761698
 11
388.3998809839261
 21
43.4999277847171
  0
LINE
  5
310
100
AcDbEntity
  8
0
  6
ByLayer
 62
  256
370
   -1
100
AcDbLine
 10
394.9998829012254
 20
10.49994018651415
 11
394.9998829012254
 21
10.49994018651415
  0
LINE
  5
311
100
AcDbEntity
  8
0
  6
ByLayer
 62
  256
370
   -1
100
AcDbLine
 10
394.9998829012254
 20
10.49994018651415
 11
394.9998829012254
 21
10.49994018651415
  0
LINE
  5
312
100
AcDbEntity
  8
0
  6
ByLayer
 62
  256
370
   -1
100
AcDbLine
 10
394.9998829012254
 20
10.49994018651415
 11
394.9998829012254
 21
10.49994018651415
  0
LINE
  5
313
100
AcDbEntity
  8
0
  6
ByLayer
 62
  256
370
   -1
100
AcDbLine
 10
394.9998829012254
 20
10.49994018651415
 11
394.9998829012254
 21
10.49994018651415
  0
ENDSEC
  0
SECTION
  2
OBJECTS
  0
DICTIONARY
  5
C
330
0
100
AcDbDictionary
281
    1
  3
ACAD_GROUP
350
D
  0
DICTIONARY
  5
D
330
C
100
AcDbDictionary
281
    1
  0
ENDSEC
  0
EOF
